%TF.GenerationSoftware,KiCad,Pcbnew,9.0.7*%
%TF.CreationDate,2026-03-12T12:27:04+05:30*%
%TF.ProjectId,gameboy less goiii,67616d65-626f-4792-906c-65737320676f,rev?*%
%TF.SameCoordinates,Original*%
%TF.FileFunction,Copper,L1,Top*%
%TF.FilePolarity,Positive*%
%FSLAX46Y46*%
G04 Gerber Fmt 4.6, Leading zero omitted, Abs format (unit mm)*
G04 Created by KiCad (PCBNEW 9.0.7) date 2026-03-12 12:27:04*
%MOMM*%
%LPD*%
G01*
G04 APERTURE LIST*
%TA.AperFunction,SMDPad,CuDef*%
%ADD10R,2.500000X1.500000*%
%TD*%
%TA.AperFunction,SMDPad,CuDef*%
%ADD11R,1.200000X1.600000*%
%TD*%
%TA.AperFunction,SMDPad,CuDef*%
%ADD12R,1.400000X1.700000*%
%TD*%
%TA.AperFunction,SMDPad,CuDef*%
%ADD13R,1.000000X2.000000*%
%TD*%
%TA.AperFunction,ComponentPad*%
%ADD14R,3.000000X3.000000*%
%TD*%
%TA.AperFunction,ComponentPad*%
%ADD15C,3.000000*%
%TD*%
%TA.AperFunction,SMDPad,CuDef*%
%ADD16R,2.500000X1.700000*%
%TD*%
%TA.AperFunction,ComponentPad*%
%ADD17C,1.600000*%
%TD*%
%TA.AperFunction,ViaPad*%
%ADD18C,1.400000*%
%TD*%
%TA.AperFunction,Conductor*%
%ADD19C,0.400000*%
%TD*%
G04 APERTURE END LIST*
D10*
%TO.P,SW6,1,1*%
%TO.N,PWR_GND*%
X46500000Y-101500000D03*
X53500000Y-101500000D03*
%TO.P,SW6,2,2*%
%TO.N,D6*%
X46500000Y-105500000D03*
X53500000Y-105500000D03*
%TD*%
%TO.P,SW5,1,1*%
%TO.N,PWR_GND*%
X27942031Y-118582052D03*
X34942031Y-118582052D03*
%TO.P,SW5,2,2*%
%TO.N,D1*%
X27942031Y-122582052D03*
X34942031Y-122582052D03*
%TD*%
D11*
%TO.P,R1,1*%
%TO.N,D8*%
X67000000Y-57500000D03*
%TO.P,R1,2*%
%TO.N,Net-(D1-A)*%
X70000000Y-57500000D03*
%TD*%
D10*
%TO.P,SW2,1,1*%
%TO.N,PWR_GND*%
X28500000Y-101500000D03*
X35500000Y-101500000D03*
%TO.P,SW2,2,2*%
%TO.N,D2*%
X28500000Y-105500000D03*
X35500000Y-105500000D03*
%TD*%
%TO.P,SW1,1,1*%
%TO.N,PWR_GND*%
X47000000Y-118500000D03*
X54000000Y-118500000D03*
%TO.P,SW1,2,2*%
%TO.N,D9*%
X47000000Y-122500000D03*
X54000000Y-122500000D03*
%TD*%
D12*
%TO.P,D1,1,K*%
%TO.N,PWR_GND*%
X66825000Y-53745000D03*
%TO.P,D1,2,A*%
%TO.N,Net-(D1-A)*%
X70225000Y-53745000D03*
%TD*%
D10*
%TO.P,SW3,1,1*%
%TO.N,PWR_GND*%
X46500000Y-85000000D03*
X53500000Y-85000000D03*
%TO.P,SW3,2,2*%
%TO.N,D3*%
X46500000Y-89000000D03*
X53500000Y-89000000D03*
%TD*%
%TO.P,SW4,1,1*%
%TO.N,PWR_GND*%
X65000000Y-101500000D03*
X72000000Y-101500000D03*
%TO.P,SW4,2,2*%
%TO.N,D7*%
X65000000Y-105500000D03*
X72000000Y-105500000D03*
%TD*%
D13*
%TO.P,J1,1,Pin_1*%
%TO.N,D4*%
X54040000Y-54800000D03*
%TO.P,J1,2,Pin_2*%
%TO.N,D5*%
X51500000Y-51500000D03*
%TO.P,J1,3,Pin_1*%
%TO.N,PWR_GND*%
X48960000Y-54800000D03*
%TO.P,J1,4,Pin_2*%
%TO.N,PWR_3V3*%
X46420000Y-51500000D03*
%TD*%
D14*
%TO.P,J4,1,Pin_1*%
%TO.N,PWR_5V*%
X71000000Y-95000000D03*
D15*
%TO.P,J4,2,Pin_2*%
%TO.N,PWR_GND*%
X71000000Y-91500000D03*
%TD*%
D16*
%TO.P,LS1,1,1*%
%TO.N,BUZZER*%
X30000000Y-55960000D03*
%TO.P,LS1,2,2*%
%TO.N,PWR_GND*%
X30000000Y-58500000D03*
%TD*%
D17*
%TO.P,M1,1,D0*%
%TO.N,BUZZER*%
X42265000Y-121040000D03*
%TO.P,M1,2,D1*%
%TO.N,D1*%
X42265000Y-118500000D03*
%TO.P,M1,3,D2*%
%TO.N,D2*%
X42265000Y-115960000D03*
%TO.P,M1,4,D3*%
%TO.N,D3*%
X42265000Y-113420000D03*
%TO.P,M1,5,D4*%
%TO.N,D4*%
X42265000Y-110880000D03*
%TO.P,M1,6,D5*%
%TO.N,D5*%
X42265000Y-108340000D03*
%TO.P,M1,7,D6*%
%TO.N,D6*%
X42265000Y-105800000D03*
%TO.P,M1,8,D7*%
%TO.N,D7*%
X57500000Y-105800000D03*
%TO.P,M1,9,D8*%
%TO.N,D8*%
X57500000Y-108340000D03*
%TO.P,M1,10,D9*%
%TO.N,D9*%
X57500000Y-110880000D03*
%TO.P,M1,11,D10*%
%TO.N,D10*%
X57500000Y-113420000D03*
%TO.P,M1,12,3V3*%
%TO.N,PWR_3V3*%
X57500000Y-115960000D03*
%TO.P,M1,13,GND*%
%TO.N,PWR_GND*%
X57500000Y-118500000D03*
%TO.P,M1,14,5V*%
%TO.N,PWR_5V*%
X57500000Y-121040000D03*
%TD*%
D18*
%TO.N,PWR_GND*%
X38000000Y-124000000D03*
X54060450Y-82060450D03*
X31448300Y-74000000D03*
X65021000Y-118410400D03*
X48960000Y-63363700D03*
X30143991Y-89743786D03*
%TO.N,D5*%
X38000000Y-108340000D03*
X50318500Y-56995800D03*
X44000000Y-76500000D03*
%TO.N,PWR_3V3*%
X46589250Y-80410750D03*
X55526800Y-79468300D03*
X58000000Y-101500000D03*
X57300900Y-82300900D03*
%TO.N,D4*%
X36500000Y-68000000D03*
X55953250Y-65590350D03*
X36500000Y-80246300D03*
X34000000Y-110880000D03*
%TO.N,D10*%
X61812500Y-112478400D03*
X64765500Y-59657000D03*
%TO.N,BUZZER*%
X38000000Y-121500000D03*
%TO.N,PWR_5V*%
X59762500Y-69768600D03*
X58890300Y-65561200D03*
X61000000Y-123399100D03*
X59762500Y-97500000D03*
%TO.N,D9*%
X66500000Y-111000000D03*
%TO.N,D7*%
X67400000Y-105880000D03*
%TO.N,D8*%
X70500000Y-108800000D03*
%TO.N,D6*%
X44000000Y-98000000D03*
%TO.N,D2*%
X35235500Y-115960000D03*
%TO.N,D3*%
X50000500Y-98000000D03*
%TO.N,D1*%
X37500000Y-118500000D03*
%TD*%
D19*
%TO.N,PWR_GND*%
X63000000Y-102000000D02*
X63000000Y-111826008D01*
X66825000Y-53745000D02*
X66279000Y-53199000D01*
X29301500Y-85284000D02*
X30143991Y-86126491D01*
X63500000Y-101500000D02*
X63000000Y-102000000D01*
X31448300Y-74000000D02*
X31448300Y-75131700D01*
X52939000Y-53199000D02*
X51619500Y-54518500D01*
X47000000Y-119000000D02*
X47000000Y-118500000D01*
X63500000Y-116752000D02*
X65021000Y-118273000D01*
X65000000Y-101500000D02*
X63500000Y-101500000D01*
X31448300Y-70577312D02*
X29301500Y-68430512D01*
X55191200Y-101659000D02*
X55191200Y-104115900D01*
X55350200Y-101500000D02*
X55191200Y-101659000D01*
X49779608Y-58296800D02*
X48960000Y-57477192D01*
X72000000Y-101500000D02*
X65000000Y-101500000D01*
X55158100Y-104149000D02*
X55351000Y-104149000D01*
X29000000Y-100148300D02*
X28500000Y-100648300D01*
X31448300Y-75131700D02*
X29301500Y-77278500D01*
X48960000Y-63363700D02*
X48960000Y-65023100D01*
X28500000Y-100648300D02*
X28500000Y-101500000D01*
X48960000Y-65023100D02*
X48351700Y-65631400D01*
X46500000Y-101500000D02*
X53500000Y-101500000D01*
X29301500Y-77278500D02*
X29301500Y-85284000D01*
X63500000Y-112326008D02*
X63500000Y-116752000D01*
X48960000Y-57477192D02*
X48960000Y-54800000D01*
X55350000Y-85000000D02*
X55350200Y-85000000D01*
X31448300Y-74000000D02*
X31448300Y-70577312D01*
X25701000Y-102447300D02*
X26648300Y-101500000D01*
X30143991Y-89743786D02*
X29000000Y-90887777D01*
X55000000Y-116500000D02*
X54000000Y-117500000D01*
X38000000Y-124000000D02*
X42000000Y-124000000D01*
X55350200Y-85000000D02*
X55351700Y-85001500D01*
X47000000Y-118500000D02*
X54000000Y-118500000D01*
X30143991Y-86126491D02*
X30143991Y-89743786D01*
X54000000Y-117500000D02*
X54000000Y-118500000D01*
X65021000Y-118273000D02*
X65021000Y-118410400D01*
X55351700Y-85000000D02*
X55350200Y-85000000D01*
X54060450Y-82060450D02*
X55351700Y-83351700D01*
X53500000Y-85000000D02*
X55350000Y-85000000D01*
X51619500Y-57534692D02*
X50857392Y-58296800D01*
X29301500Y-60650200D02*
X30000000Y-59951700D01*
X63000000Y-111826008D02*
X63500000Y-112326008D01*
X25701000Y-118201000D02*
X25701000Y-102447300D01*
X55351700Y-83351700D02*
X55351700Y-85000000D01*
X55000000Y-106851000D02*
X55000000Y-116500000D01*
X55351000Y-104149000D02*
X55351000Y-106851000D01*
X26648300Y-101500000D02*
X28500000Y-101500000D01*
X51619500Y-54518500D02*
X51619500Y-57534692D01*
X26500000Y-119000000D02*
X25701000Y-118201000D01*
X29000000Y-90887777D02*
X29000000Y-100148300D01*
X42000000Y-124000000D02*
X47000000Y-119000000D01*
X50857392Y-58296800D02*
X49779608Y-58296800D01*
X55350200Y-101500000D02*
X55351700Y-101500000D01*
X55191200Y-104115900D02*
X55158100Y-104149000D01*
X48351700Y-65631400D02*
X48351700Y-85000000D01*
X66279000Y-53199000D02*
X52939000Y-53199000D01*
X53500000Y-101500000D02*
X55350200Y-101500000D01*
X48960000Y-63363700D02*
X48960000Y-54800000D01*
X30000000Y-59951700D02*
X30000000Y-58500000D01*
X29301500Y-68430512D02*
X29301500Y-60650200D01*
X48351700Y-85000000D02*
X53500000Y-85000000D01*
X55351000Y-106851000D02*
X55000000Y-106851000D01*
X34500000Y-119000000D02*
X26500000Y-119000000D01*
X55351700Y-85001500D02*
X55351700Y-101500000D01*
%TO.N,D5*%
X51500000Y-51500000D02*
X51500000Y-53101700D01*
X44000000Y-76500000D02*
X44000000Y-79391200D01*
X50318500Y-56995800D02*
X50318500Y-54283200D01*
X44000000Y-79391200D02*
X40853100Y-82538100D01*
X40853100Y-96146900D02*
X38000000Y-99000000D01*
X50318500Y-54283200D02*
X51500000Y-53101700D01*
X40853100Y-82538100D02*
X40853100Y-96146900D01*
X38000000Y-99000000D02*
X38000000Y-108340000D01*
%TO.N,PWR_3V3*%
X56267400Y-81267400D02*
X56267400Y-80208900D01*
X56492900Y-83559900D02*
X57300900Y-82751900D01*
X56267400Y-80208900D02*
X55526800Y-79468300D01*
X46589250Y-80410750D02*
X46420000Y-80241500D01*
X57300900Y-82751900D02*
X57300900Y-82300900D01*
X56492900Y-99992900D02*
X56492900Y-83559900D01*
X57300900Y-82300900D02*
X56267400Y-81267400D01*
X58000000Y-101500000D02*
X56492900Y-99992900D01*
X46420000Y-80241500D02*
X46420000Y-51500000D01*
%TO.N,D4*%
X33500000Y-100500000D02*
X38266800Y-95733200D01*
X38266800Y-82766800D02*
X36500000Y-81000000D01*
X34000000Y-110880000D02*
X34000000Y-109652700D01*
X55953250Y-65590350D02*
X54040000Y-63677100D01*
X33500000Y-101652700D02*
X33500000Y-100500000D01*
X35500000Y-69038000D02*
X35500000Y-79246300D01*
X34000000Y-109652700D02*
X33000000Y-108652700D01*
X33000000Y-102152700D02*
X33500000Y-101652700D01*
X36500000Y-80000000D02*
X36500000Y-80246300D01*
X38266800Y-95733200D02*
X38266800Y-82766800D01*
X36500000Y-81000000D02*
X36500000Y-80246300D01*
X35481000Y-69019000D02*
X35500000Y-69038000D01*
X36500000Y-68000000D02*
X35481000Y-69019000D01*
X35500000Y-79246300D02*
X36500000Y-80246300D01*
X54040000Y-63677100D02*
X54040000Y-54800000D01*
X33000000Y-108652700D02*
X33000000Y-102152700D01*
%TO.N,D10*%
X61812500Y-112478400D02*
X61812500Y-62610000D01*
X61812500Y-62610000D02*
X64765500Y-59657000D01*
%TO.N,BUZZER*%
X31851700Y-112351700D02*
X33500000Y-114000000D01*
X38000000Y-121000000D02*
X38000000Y-121500000D01*
X37500000Y-114000000D02*
X39000000Y-115500000D01*
X35000000Y-97867214D02*
X31851700Y-101015515D01*
X35000000Y-55960000D02*
X35000000Y-68367214D01*
X30000000Y-55960000D02*
X35000000Y-55960000D01*
X33500000Y-114000000D02*
X37500000Y-114000000D01*
X34942108Y-81039100D02*
X35000000Y-81039100D01*
X39000000Y-115500000D02*
X39000000Y-120000000D01*
X39000000Y-120000000D02*
X38000000Y-121000000D01*
X34180000Y-80276992D02*
X34942108Y-81039100D01*
X35000000Y-68367214D02*
X34680000Y-68687215D01*
X35000000Y-81039100D02*
X35000000Y-97867214D01*
X34680000Y-68687215D02*
X34680000Y-78699208D01*
X34180000Y-79199208D02*
X34180000Y-80276992D01*
X31851700Y-101015515D02*
X31851700Y-112351700D01*
X34680000Y-78699208D02*
X34180000Y-79199208D01*
%TO.N,PWR_5V*%
X59762500Y-69768600D02*
X59762500Y-97500000D01*
X59762500Y-122161600D02*
X61000000Y-123399100D01*
X58890300Y-68209000D02*
X58890300Y-65561200D01*
X59762500Y-69081200D02*
X58890300Y-68209000D01*
X59762500Y-97500000D02*
X59762500Y-122161600D01*
X59762500Y-69768600D02*
X59762500Y-69081200D01*
%TO.N,D9*%
X58031100Y-122500000D02*
X54000000Y-122500000D01*
X58031100Y-122500000D02*
X58261008Y-122500000D01*
X60461108Y-124700100D02*
X66799900Y-124700100D01*
X54000000Y-122500000D02*
X47000000Y-122500000D01*
X58261008Y-122500000D02*
X59880504Y-124119496D01*
X68000000Y-123500000D02*
X68000000Y-112500000D01*
X59880504Y-124119496D02*
X60461108Y-124700100D01*
X68000000Y-112500000D02*
X66500000Y-111000000D01*
X66799900Y-124700100D02*
X68000000Y-123500000D01*
%TO.N,D7*%
X67231700Y-105880000D02*
X66851700Y-105500000D01*
X65000000Y-105500000D02*
X66851700Y-105500000D01*
X72000000Y-105500000D02*
X67780000Y-105500000D01*
X67400000Y-105880000D02*
X67231700Y-105880000D01*
X67780000Y-105500000D02*
X67400000Y-105880000D01*
%TO.N,D8*%
X67000000Y-57500000D02*
X73851000Y-64351000D01*
X71702000Y-109000000D02*
X70500000Y-109000000D01*
X73851000Y-106851000D02*
X71702000Y-109000000D01*
X73851000Y-64351000D02*
X73851000Y-106851000D01*
X70500000Y-109000000D02*
X70500000Y-108800000D01*
%TO.N,D6*%
X44500000Y-105500000D02*
X46500000Y-105500000D01*
X44000000Y-98000000D02*
X44000000Y-105000000D01*
X44000000Y-105000000D02*
X44500000Y-105500000D01*
X53500000Y-105500000D02*
X46500000Y-105500000D01*
%TO.N,D2*%
X35235500Y-105500000D02*
X35500000Y-105500000D01*
X35235500Y-115960000D02*
X34275500Y-115000000D01*
X29500000Y-115000000D02*
X28500000Y-114000000D01*
X28500000Y-114000000D02*
X28500000Y-105500000D01*
X34275500Y-115000000D02*
X29500000Y-115000000D01*
%TO.N,D3*%
X51000500Y-89000000D02*
X50000500Y-90000000D01*
X50000500Y-90000000D02*
X50000500Y-98000000D01*
X53500000Y-89000000D02*
X51000500Y-89000000D01*
%TO.N,D1*%
X34942031Y-122557969D02*
X37500000Y-120000000D01*
X37500000Y-118500000D02*
X37500000Y-118000000D01*
X37500000Y-120000000D02*
X37500000Y-118500000D01*
X27500000Y-123000000D02*
X34500000Y-123000000D01*
X34942031Y-122582052D02*
X34942031Y-122557969D01*
%TO.N,Net-(D1-A)*%
X70225000Y-53745000D02*
X70225000Y-57275000D01*
X70225000Y-57275000D02*
X70000000Y-57500000D01*
%TD*%
M02*
