%TF.GenerationSoftware,KiCad,Pcbnew,9.0.7*%
%TF.CreationDate,2026-03-12T12:27:04+05:30*%
%TF.ProjectId,gameboy less goiii,67616d65-626f-4792-906c-65737320676f,rev?*%
%TF.SameCoordinates,Original*%
%TF.FileFunction,Copper,L2,Bot*%
%TF.FilePolarity,Positive*%
%FSLAX46Y46*%
G04 Gerber Fmt 4.6, Leading zero omitted, Abs format (unit mm)*
G04 Created by KiCad (PCBNEW 9.0.7) date 2026-03-12 12:27:04*
%MOMM*%
%LPD*%
G01*
G04 APERTURE LIST*
%TA.AperFunction,ComponentPad*%
%ADD10R,3.000000X3.000000*%
%TD*%
%TA.AperFunction,ComponentPad*%
%ADD11C,3.000000*%
%TD*%
%TA.AperFunction,SMDPad,CuDef*%
%ADD12R,3.500000X1.000000*%
%TD*%
%TA.AperFunction,SMDPad,CuDef*%
%ADD13R,3.400000X1.500000*%
%TD*%
%TA.AperFunction,SMDPad,CuDef*%
%ADD14R,1.900000X1.000000*%
%TD*%
%TA.AperFunction,ComponentPad*%
%ADD15C,1.600000*%
%TD*%
%TA.AperFunction,SMDPad,CuDef*%
%ADD16R,3.000000X1.600000*%
%TD*%
%TA.AperFunction,SMDPad,CuDef*%
%ADD17R,1.200000X2.400000*%
%TD*%
%TA.AperFunction,SMDPad,CuDef*%
%ADD18C,1.200000*%
%TD*%
%TA.AperFunction,SMDPad,CuDef*%
%ADD19R,1.600000X1.200000*%
%TD*%
%TA.AperFunction,SMDPad,CuDef*%
%ADD20R,1.000000X3.500000*%
%TD*%
%TA.AperFunction,SMDPad,CuDef*%
%ADD21R,1.500000X3.400000*%
%TD*%
%TA.AperFunction,ViaPad*%
%ADD22C,1.400000*%
%TD*%
%TA.AperFunction,Conductor*%
%ADD23C,0.400000*%
%TD*%
G04 APERTURE END LIST*
D10*
%TO.P,J4,1,Pin_1*%
%TO.N,PWR_5V*%
X71000000Y-95000000D03*
D11*
%TO.P,J4,2,Pin_2*%
%TO.N,PWR_GND*%
X71000000Y-91500000D03*
%TD*%
D12*
%TO.P,J10,1,1*%
%TO.N,PWR_GND*%
X32500000Y-84000000D03*
%TO.P,J10,2,2*%
%TO.N,PWR_3V3*%
X32500000Y-82000000D03*
%TO.P,J10,3,3*%
%TO.N,D4*%
X32500000Y-80000000D03*
%TO.P,J10,4,4*%
%TO.N,D5*%
X32500000Y-78000000D03*
D13*
%TO.P,J10,SH1*%
%TO.N,N/C*%
X26950000Y-86350000D03*
%TO.P,J10,SH2*%
X26950000Y-75650000D03*
%TD*%
D14*
%TO.P,J8,1,Pin_1*%
%TO.N,BUZZER*%
X31300000Y-121700000D03*
%TO.P,J8,2,Pin_2*%
%TO.N,D1*%
X28000000Y-119160000D03*
%TO.P,J8,3,Pin_3*%
%TO.N,D2*%
X31300000Y-116620000D03*
%TO.P,J8,4,Pin_4*%
%TO.N,D3*%
X28000000Y-114080000D03*
%TO.P,J8,5,Pin_5*%
%TO.N,D4*%
X31300000Y-111540000D03*
%TO.P,J8,6,Pin_6*%
%TO.N,D5*%
X28000000Y-109000000D03*
%TO.P,J8,7,Pin_7*%
%TO.N,D6*%
X31300000Y-106460000D03*
%TD*%
D15*
%TO.P,M1,1,D0*%
%TO.N,BUZZER*%
X42265000Y-121040000D03*
D16*
X41265000Y-121040000D03*
D15*
%TO.P,M1,2,D1*%
%TO.N,D1*%
X42265000Y-118500000D03*
D16*
X41265000Y-118500000D03*
D15*
%TO.P,M1,3,D2*%
%TO.N,D2*%
X42265000Y-115960000D03*
D16*
X41265000Y-115960000D03*
D15*
%TO.P,M1,4,D3*%
%TO.N,D3*%
X42265000Y-113420000D03*
D16*
X41265000Y-113420000D03*
D15*
%TO.P,M1,5,D4*%
%TO.N,D4*%
X42265000Y-110880000D03*
D16*
X41265000Y-110880000D03*
D15*
%TO.P,M1,6,D5*%
%TO.N,D5*%
X42265000Y-108340000D03*
D16*
X41265000Y-108340000D03*
D15*
%TO.P,M1,7,D6*%
%TO.N,D6*%
X42265000Y-105800000D03*
D16*
X41265000Y-105800000D03*
D15*
%TO.P,M1,8,D7*%
%TO.N,D7*%
X57500000Y-105800000D03*
D16*
X58500000Y-105800000D03*
D15*
%TO.P,M1,9,D8*%
%TO.N,D8*%
X57500000Y-108340000D03*
D16*
X58500000Y-108340000D03*
D15*
%TO.P,M1,10,D9*%
%TO.N,D9*%
X57500000Y-110880000D03*
D16*
X58500000Y-110880000D03*
D15*
%TO.P,M1,11,D10*%
%TO.N,D10*%
X57500000Y-113420000D03*
D16*
X58500000Y-113420000D03*
D15*
%TO.P,M1,12,3V3*%
%TO.N,PWR_3V3*%
X57500000Y-115960000D03*
D16*
X58500000Y-115960000D03*
D15*
%TO.P,M1,13,GND*%
%TO.N,PWR_GND*%
X57500000Y-118500000D03*
D16*
X58500000Y-118500000D03*
D15*
%TO.P,M1,14,5V*%
%TO.N,PWR_5V*%
X57500000Y-121040000D03*
D16*
X58500000Y-121040000D03*
D17*
%TO.P,M1,15,GND*%
%TO.N,unconnected-(M1-GND-Pad15)*%
X51155000Y-104530000D03*
%TO.P,M1,16,VIN*%
%TO.N,unconnected-(M1-VIN-Pad16)*%
X48615000Y-104530000D03*
D18*
%TO.P,M1,17,SWDIO*%
%TO.N,unconnected-(M1-SWDIO-Pad17)*%
X48610000Y-121920000D03*
%TO.P,M1,18,RESET*%
%TO.N,unconnected-(M1-RESET-Pad18)*%
X48610000Y-119380000D03*
%TO.P,M1,19,GND*%
%TO.N,unconnected-(M1-GND-Pad19)*%
X51150000Y-119380000D03*
%TO.P,M1,20,SWCLK*%
%TO.N,unconnected-(M1-SWCLK-Pad20)*%
X51150000Y-121920000D03*
%TD*%
D14*
%TO.P,J7,1,Pin_1*%
%TO.N,D7*%
X69500000Y-106260000D03*
%TO.P,J7,2,Pin_2*%
%TO.N,D8*%
X72800000Y-108800000D03*
%TO.P,J7,3,Pin_3*%
%TO.N,D9*%
X69500000Y-111340000D03*
%TO.P,J7,4,Pin_4*%
%TO.N,D10*%
X72800000Y-113880000D03*
%TO.P,J7,5,Pin_5*%
%TO.N,PWR_3V3*%
X69500000Y-116420000D03*
%TO.P,J7,6,Pin_6*%
%TO.N,PWR_GND*%
X72800000Y-118960000D03*
%TO.P,J7,7,Pin_7*%
%TO.N,PWR_5V*%
X69500000Y-121500000D03*
%TD*%
D12*
%TO.P,J3,1,1*%
%TO.N,PWR_GND*%
X67000000Y-78000000D03*
%TO.P,J3,2,2*%
%TO.N,PWR_3V3*%
X67000000Y-80000000D03*
%TO.P,J3,3,3*%
%TO.N,D4*%
X67000000Y-82000000D03*
%TO.P,J3,4,4*%
%TO.N,D5*%
X67000000Y-84000000D03*
D13*
%TO.P,J3,SH1*%
%TO.N,N/C*%
X72550000Y-75650000D03*
%TO.P,J3,SH2*%
X72550000Y-86350000D03*
%TD*%
D19*
%TO.P,C1,1*%
%TO.N,PWR_5V*%
X63000000Y-124000000D03*
%TO.P,C1,2*%
%TO.N,PWR_GND*%
X63000000Y-121000000D03*
%TD*%
D12*
%TO.P,J2,1,1*%
%TO.N,PWR_GND*%
X67000000Y-64000000D03*
%TO.P,J2,2,2*%
%TO.N,PWR_5V*%
X67000000Y-66000000D03*
%TO.P,J2,3,3*%
%TO.N,D4*%
X67000000Y-68000000D03*
%TO.P,J2,4,4*%
%TO.N,D5*%
X67000000Y-70000000D03*
D13*
%TO.P,J2,SH1*%
%TO.N,N/C*%
X72550000Y-61650000D03*
%TO.P,J2,SH2*%
X72550000Y-72350000D03*
%TD*%
D12*
%TO.P,J9,1,1*%
%TO.N,PWR_GND*%
X32500000Y-70000000D03*
%TO.P,J9,2,2*%
%TO.N,PWR_5V*%
X32500000Y-68000000D03*
%TO.P,J9,3,3*%
%TO.N,D4*%
X32500000Y-66000000D03*
%TO.P,J9,4,4*%
%TO.N,D5*%
X32500000Y-64000000D03*
D13*
%TO.P,J9,SH1*%
%TO.N,N/C*%
X26950000Y-72350000D03*
%TO.P,J9,SH2*%
X26950000Y-61650000D03*
%TD*%
D20*
%TO.P,P1,1,1*%
%TO.N,D10*%
X67000000Y-58000000D03*
%TO.P,P1,2,2*%
%TO.N,PWR_GND*%
X69000000Y-58000000D03*
%TO.P,P1,3,3*%
%TO.N,PWR_5V*%
X71000000Y-58000000D03*
D21*
%TO.P,P1,P1*%
%TO.N,N/C*%
X64650000Y-52250000D03*
%TO.P,P1,P2*%
X73350000Y-52250000D03*
%TD*%
D19*
%TO.P,C2,1*%
%TO.N,PWR_3V3*%
X63000000Y-115500000D03*
%TO.P,C2,2*%
%TO.N,PWR_GND*%
X63000000Y-118500000D03*
%TD*%
D22*
%TO.N,PWR_GND*%
X38000000Y-124000000D03*
X54060450Y-82060450D03*
X31448300Y-74000000D03*
X65021000Y-118410400D03*
X48960000Y-63363700D03*
X30143991Y-89743786D03*
%TO.N,D5*%
X38000000Y-108340000D03*
X50318500Y-56995800D03*
X44000000Y-76500000D03*
%TO.N,PWR_3V3*%
X46589250Y-80410750D03*
X55526800Y-79468300D03*
X58000000Y-101500000D03*
X57300900Y-82300900D03*
%TO.N,D4*%
X36500000Y-68000000D03*
X55953250Y-65590350D03*
X36500000Y-80246300D03*
X34000000Y-110880000D03*
%TO.N,D10*%
X61812500Y-112478400D03*
X64765500Y-59657000D03*
%TO.N,BUZZER*%
X38000000Y-121500000D03*
%TO.N,PWR_5V*%
X59762500Y-69768600D03*
X58890300Y-65561200D03*
X61000000Y-123399100D03*
X59762500Y-97500000D03*
%TO.N,D9*%
X66500000Y-111000000D03*
%TO.N,D7*%
X67400000Y-105880000D03*
%TO.N,D8*%
X70500000Y-108800000D03*
%TO.N,D6*%
X44000000Y-98000000D03*
%TO.N,D2*%
X35235500Y-115960000D03*
%TO.N,D3*%
X50000500Y-98000000D03*
%TO.N,D1*%
X37500000Y-118500000D03*
%TD*%
D23*
%TO.N,PWR_GND*%
X55084200Y-81036700D02*
X55799300Y-81036700D01*
X65570600Y-118960000D02*
X65021000Y-118410400D01*
X42284258Y-124000000D02*
X48765258Y-117519000D01*
X64931400Y-118500000D02*
X64401700Y-118500000D01*
X48960000Y-63363700D02*
X49596300Y-64000000D01*
X49596300Y-64000000D02*
X67000000Y-64000000D01*
X54060450Y-82060450D02*
X55084200Y-81036700D01*
X56519000Y-117519000D02*
X57500000Y-118500000D01*
X48765258Y-117519000D02*
X56519000Y-117519000D01*
X57500000Y-118500000D02*
X63000000Y-118500000D01*
X63000000Y-119901700D02*
X64401700Y-118500000D01*
X63000000Y-118500000D02*
X64401700Y-118500000D01*
X38000000Y-124000000D02*
X42284258Y-124000000D01*
X69351700Y-60703400D02*
X69351700Y-64000000D01*
X72800000Y-118960000D02*
X65570600Y-118960000D01*
X30143991Y-85941909D02*
X31000000Y-85085900D01*
X71000000Y-91500000D02*
X63500000Y-91500000D01*
X55799300Y-81036700D02*
X58836000Y-78000000D01*
X69000000Y-60351700D02*
X69351700Y-60703400D01*
X65021000Y-118273000D02*
X65021000Y-118410400D01*
X63500000Y-91500000D02*
X54060450Y-82060450D01*
X65021000Y-118273000D02*
X65021000Y-118410400D01*
X58836000Y-78000000D02*
X67000000Y-78000000D01*
X52120900Y-84000000D02*
X32500000Y-84000000D01*
X31000000Y-85085900D02*
X31000000Y-84000000D01*
X30143991Y-89743786D02*
X30143991Y-85941909D01*
X33380000Y-72068300D02*
X33380000Y-70880000D01*
X67000000Y-64000000D02*
X69351700Y-64000000D01*
X54060450Y-82060450D02*
X52120900Y-84000000D01*
X31000000Y-84000000D02*
X32500000Y-84000000D01*
X65021000Y-118410400D02*
X64931400Y-118500000D01*
X33380000Y-70880000D02*
X32500000Y-70000000D01*
X31448300Y-74000000D02*
X33380000Y-72068300D01*
X63000000Y-121000000D02*
X63000000Y-119901700D01*
X69000000Y-58000000D02*
X69000000Y-60351700D01*
%TO.N,D5*%
X64648300Y-71636000D02*
X64648300Y-70000000D01*
X30148300Y-64000000D02*
X27500000Y-66648300D01*
X67000000Y-70000000D02*
X64648300Y-70000000D01*
X70153400Y-83198300D02*
X70153400Y-76851100D01*
X29211700Y-108340000D02*
X28751700Y-108800000D01*
X64938300Y-71636000D02*
X64648300Y-71636000D01*
X64648300Y-71636000D02*
X61784300Y-74500000D01*
X44000000Y-76797800D02*
X42797800Y-78000000D01*
X44000000Y-76500000D02*
X44000000Y-76797800D01*
X39163300Y-108340000D02*
X38000000Y-108340000D01*
X32500000Y-64000000D02*
X30148300Y-64000000D01*
X69351700Y-84000000D02*
X70153400Y-83198300D01*
X30148300Y-76648300D02*
X31500000Y-78000000D01*
X31500000Y-78000000D02*
X32500000Y-78000000D01*
X27200000Y-108800000D02*
X28751700Y-108800000D01*
X42797800Y-78000000D02*
X32500000Y-78000000D01*
X30148300Y-71636000D02*
X30148300Y-76648300D01*
X70153400Y-76851100D02*
X64938300Y-71636000D01*
X38000000Y-108340000D02*
X29211700Y-108340000D01*
X27500000Y-66648300D02*
X27500000Y-68987700D01*
X32500000Y-64000000D02*
X43314300Y-64000000D01*
X32500000Y-75012300D02*
X32500000Y-78000000D01*
X31324200Y-78000000D02*
X32500000Y-78000000D01*
X42265000Y-108340000D02*
X39163300Y-108340000D01*
X33012300Y-74500000D02*
X32500000Y-75012300D01*
X43314300Y-64000000D02*
X50318500Y-56995800D01*
X67000000Y-84000000D02*
X69351700Y-84000000D01*
X61784300Y-74500000D02*
X33012300Y-74500000D01*
X27500000Y-68987700D02*
X30148300Y-71636000D01*
%TO.N,PWR_3V3*%
X46589250Y-80410750D02*
X46589250Y-81327250D01*
X47505750Y-80410750D02*
X48448200Y-79468300D01*
X59601800Y-80000000D02*
X67000000Y-80000000D01*
X61598300Y-115500000D02*
X61138300Y-115960000D01*
X63000000Y-115500000D02*
X64401700Y-115500000D01*
X61138300Y-115960000D02*
X57500000Y-115960000D01*
X57300900Y-82300900D02*
X59601800Y-80000000D01*
X46589250Y-81327250D02*
X45916500Y-82000000D01*
X58000000Y-101500000D02*
X58000000Y-102069700D01*
X56096600Y-103973100D02*
X56096600Y-115658300D01*
X48448200Y-79468300D02*
X55526800Y-79468300D01*
X69500000Y-116420000D02*
X65321700Y-116420000D01*
X58000000Y-102069700D02*
X56096600Y-103973100D01*
X63000000Y-115500000D02*
X61598300Y-115500000D01*
X56096600Y-115658300D02*
X56398300Y-115960000D01*
X65321700Y-116420000D02*
X64401700Y-115500000D01*
X45916500Y-82000000D02*
X32500000Y-82000000D01*
X56398300Y-115960000D02*
X57500000Y-115960000D01*
X46589250Y-80410750D02*
X47505750Y-80410750D01*
%TO.N,D4*%
X34000000Y-110880000D02*
X32511700Y-110880000D01*
X36500000Y-80246300D02*
X35246300Y-80246300D01*
X35481000Y-66629300D02*
X36500000Y-67648300D01*
X55953250Y-65590350D02*
X58362900Y-68000000D01*
X42265000Y-110880000D02*
X34000000Y-110880000D01*
X69050600Y-76882000D02*
X47812100Y-76882000D01*
X32051700Y-111340000D02*
X30500000Y-111340000D01*
X36500000Y-67648300D02*
X36500000Y-68000000D01*
X35000000Y-80000000D02*
X32500000Y-80000000D01*
X69351700Y-82000000D02*
X69351700Y-77183100D01*
X32511700Y-110880000D02*
X32051700Y-111340000D01*
X69351700Y-77183100D02*
X69050600Y-76882000D01*
X67000000Y-82000000D02*
X69351700Y-82000000D01*
X55859750Y-65590350D02*
X54820800Y-66629300D01*
X32500000Y-66000000D02*
X34851700Y-66000000D01*
X54820800Y-66629300D02*
X35481000Y-66629300D01*
X35246300Y-80246300D02*
X35000000Y-80000000D01*
X58362900Y-68000000D02*
X67000000Y-68000000D01*
X55953250Y-65590350D02*
X55859750Y-65590350D01*
X47812100Y-76882000D02*
X44447800Y-80246300D01*
X44447800Y-80246300D02*
X36500000Y-80246300D01*
X35481000Y-66629300D02*
X34851700Y-66000000D01*
%TO.N,D10*%
X63214100Y-113880000D02*
X71248300Y-113880000D01*
X72800000Y-113880000D02*
X71248300Y-113880000D01*
X65460200Y-60351700D02*
X64765500Y-59657000D01*
X67000000Y-58000000D02*
X67000000Y-60351700D01*
X60870900Y-113420000D02*
X61812500Y-112478400D01*
X57500000Y-113420000D02*
X60870900Y-113420000D01*
X61812500Y-112478400D02*
X63214100Y-113880000D01*
X67000000Y-60351700D02*
X65460200Y-60351700D01*
%TO.N,BUZZER*%
X42265000Y-121040000D02*
X39163300Y-121040000D01*
X38703300Y-121500000D02*
X39163300Y-121040000D01*
X38000000Y-121500000D02*
X38703300Y-121500000D01*
X30500000Y-121500000D02*
X38000000Y-121500000D01*
%TO.N,PWR_5V*%
X70248300Y-65103400D02*
X69351700Y-66000000D01*
X62360000Y-122798300D02*
X60601700Y-121040000D01*
X67948300Y-121500000D02*
X65448300Y-124000000D01*
X69500000Y-121500000D02*
X67948300Y-121500000D01*
X64209500Y-65561200D02*
X64648300Y-66000000D01*
X33601000Y-68000000D02*
X32500000Y-68000000D01*
X34952100Y-69351100D02*
X33601000Y-68000000D01*
X71000000Y-58000000D02*
X70248300Y-58751700D01*
X59345000Y-69351100D02*
X34952100Y-69351100D01*
X70248300Y-58751700D02*
X70248300Y-65103400D01*
X67000000Y-66000000D02*
X64648300Y-66000000D01*
X62399100Y-123399100D02*
X63000000Y-124000000D01*
X65448300Y-124000000D02*
X63000000Y-124000000D01*
X62360000Y-123360000D02*
X63000000Y-124000000D01*
X62500000Y-95000000D02*
X60000000Y-97500000D01*
X58890300Y-65561200D02*
X64209500Y-65561200D01*
X59762500Y-69768600D02*
X59345000Y-69351100D01*
X62360000Y-122798300D02*
X62360000Y-123360000D01*
X60000000Y-97500000D02*
X59762500Y-97500000D01*
X61000000Y-123399100D02*
X62399100Y-123399100D01*
X67000000Y-66000000D02*
X69351700Y-66000000D01*
X71000000Y-95000000D02*
X62500000Y-95000000D01*
X57500000Y-121040000D02*
X60601700Y-121040000D01*
%TO.N,D9*%
X57500000Y-110880000D02*
X67488300Y-110880000D01*
X69500000Y-111340000D02*
X67948300Y-111340000D01*
X67488300Y-110880000D02*
X67948300Y-111340000D01*
%TO.N,D7*%
X69500000Y-106260000D02*
X67780000Y-106260000D01*
X67020000Y-105880000D02*
X66940000Y-105800000D01*
X66940000Y-105800000D02*
X57500000Y-105800000D01*
X67400000Y-105880000D02*
X67020000Y-105880000D01*
X67780000Y-106260000D02*
X67400000Y-105880000D01*
%TO.N,D8*%
X72800000Y-108800000D02*
X70500000Y-108800000D01*
X57500000Y-108340000D02*
X60601700Y-108340000D01*
X70500000Y-108800000D02*
X61061700Y-108800000D01*
X61061700Y-108800000D02*
X60601700Y-108340000D01*
%TO.N,D6*%
X44000000Y-98000000D02*
X44000000Y-105500000D01*
X38703300Y-106260000D02*
X39163300Y-105800000D01*
X43700000Y-105800000D02*
X42265000Y-105800000D01*
X44000000Y-105500000D02*
X43700000Y-105800000D01*
X42265000Y-105800000D02*
X39163300Y-105800000D01*
X30500000Y-106260000D02*
X38703300Y-106260000D01*
%TO.N,D2*%
X32511700Y-115960000D02*
X32051700Y-116420000D01*
X35235500Y-115960000D02*
X32511700Y-115960000D01*
X42265000Y-115960000D02*
X35235500Y-115960000D01*
X30500000Y-116420000D02*
X32051700Y-116420000D01*
%TO.N,D3*%
X29211700Y-113420000D02*
X28751700Y-113880000D01*
X27200000Y-113880000D02*
X28751700Y-113880000D01*
X42265000Y-113420000D02*
X29211700Y-113420000D01*
X42265000Y-113420000D02*
X43366700Y-113420000D01*
X43366700Y-113420000D02*
X46230100Y-110556600D01*
X50000500Y-100261400D02*
X50000500Y-98000000D01*
X46230100Y-110556600D02*
X46230100Y-104031800D01*
X46230100Y-104031800D02*
X50000500Y-100261400D01*
%TO.N,D1*%
X37500000Y-118500000D02*
X29211700Y-118500000D01*
X29211700Y-118500000D02*
X28751700Y-118960000D01*
X27200000Y-118960000D02*
X28751700Y-118960000D01*
X42265000Y-118500000D02*
X37500000Y-118500000D01*
%TD*%
M02*
