%TF.GenerationSoftware,KiCad,Pcbnew,9.0.7*%
%TF.CreationDate,2026-03-12T12:27:04+05:30*%
%TF.ProjectId,gameboy less goiii,67616d65-626f-4792-906c-65737320676f,rev?*%
%TF.SameCoordinates,Original*%
%TF.FileFunction,Legend,Bot*%
%TF.FilePolarity,Positive*%
%FSLAX46Y46*%
G04 Gerber Fmt 4.6, Leading zero omitted, Abs format (unit mm)*
G04 Created by KiCad (PCBNEW 9.0.7) date 2026-03-12 12:27:04*
%MOMM*%
%LPD*%
G01*
G04 APERTURE LIST*
%ADD10C,0.150000*%
%ADD11C,0.100000*%
%ADD12C,0.127000*%
%ADD13C,0.200000*%
%ADD14C,0.120000*%
G04 APERTURE END LIST*
D10*
X36979819Y-83715476D02*
X37694104Y-83715476D01*
X37694104Y-83715476D02*
X37836961Y-83667857D01*
X37836961Y-83667857D02*
X37932200Y-83572619D01*
X37932200Y-83572619D02*
X37979819Y-83429762D01*
X37979819Y-83429762D02*
X37979819Y-83334524D01*
X37979819Y-84715476D02*
X37979819Y-84144048D01*
X37979819Y-84429762D02*
X36979819Y-84429762D01*
X36979819Y-84429762D02*
X37122676Y-84334524D01*
X37122676Y-84334524D02*
X37217914Y-84239286D01*
X37217914Y-84239286D02*
X37265533Y-84144048D01*
X36979819Y-85334524D02*
X36979819Y-85429762D01*
X36979819Y-85429762D02*
X37027438Y-85525000D01*
X37027438Y-85525000D02*
X37075057Y-85572619D01*
X37075057Y-85572619D02*
X37170295Y-85620238D01*
X37170295Y-85620238D02*
X37360771Y-85667857D01*
X37360771Y-85667857D02*
X37598866Y-85667857D01*
X37598866Y-85667857D02*
X37789342Y-85620238D01*
X37789342Y-85620238D02*
X37884580Y-85572619D01*
X37884580Y-85572619D02*
X37932200Y-85525000D01*
X37932200Y-85525000D02*
X37979819Y-85429762D01*
X37979819Y-85429762D02*
X37979819Y-85334524D01*
X37979819Y-85334524D02*
X37932200Y-85239286D01*
X37932200Y-85239286D02*
X37884580Y-85191667D01*
X37884580Y-85191667D02*
X37789342Y-85144048D01*
X37789342Y-85144048D02*
X37598866Y-85096429D01*
X37598866Y-85096429D02*
X37360771Y-85096429D01*
X37360771Y-85096429D02*
X37170295Y-85144048D01*
X37170295Y-85144048D02*
X37075057Y-85191667D01*
X37075057Y-85191667D02*
X37027438Y-85239286D01*
X37027438Y-85239286D02*
X36979819Y-85334524D01*
X29983333Y-124024819D02*
X29983333Y-124739104D01*
X29983333Y-124739104D02*
X30030952Y-124881961D01*
X30030952Y-124881961D02*
X30126190Y-124977200D01*
X30126190Y-124977200D02*
X30269047Y-125024819D01*
X30269047Y-125024819D02*
X30364285Y-125024819D01*
X29364285Y-124453390D02*
X29459523Y-124405771D01*
X29459523Y-124405771D02*
X29507142Y-124358152D01*
X29507142Y-124358152D02*
X29554761Y-124262914D01*
X29554761Y-124262914D02*
X29554761Y-124215295D01*
X29554761Y-124215295D02*
X29507142Y-124120057D01*
X29507142Y-124120057D02*
X29459523Y-124072438D01*
X29459523Y-124072438D02*
X29364285Y-124024819D01*
X29364285Y-124024819D02*
X29173809Y-124024819D01*
X29173809Y-124024819D02*
X29078571Y-124072438D01*
X29078571Y-124072438D02*
X29030952Y-124120057D01*
X29030952Y-124120057D02*
X28983333Y-124215295D01*
X28983333Y-124215295D02*
X28983333Y-124262914D01*
X28983333Y-124262914D02*
X29030952Y-124358152D01*
X29030952Y-124358152D02*
X29078571Y-124405771D01*
X29078571Y-124405771D02*
X29173809Y-124453390D01*
X29173809Y-124453390D02*
X29364285Y-124453390D01*
X29364285Y-124453390D02*
X29459523Y-124501009D01*
X29459523Y-124501009D02*
X29507142Y-124548628D01*
X29507142Y-124548628D02*
X29554761Y-124643866D01*
X29554761Y-124643866D02*
X29554761Y-124834342D01*
X29554761Y-124834342D02*
X29507142Y-124929580D01*
X29507142Y-124929580D02*
X29459523Y-124977200D01*
X29459523Y-124977200D02*
X29364285Y-125024819D01*
X29364285Y-125024819D02*
X29173809Y-125024819D01*
X29173809Y-125024819D02*
X29078571Y-124977200D01*
X29078571Y-124977200D02*
X29030952Y-124929580D01*
X29030952Y-124929580D02*
X28983333Y-124834342D01*
X28983333Y-124834342D02*
X28983333Y-124643866D01*
X28983333Y-124643866D02*
X29030952Y-124548628D01*
X29030952Y-124548628D02*
X29078571Y-124501009D01*
X29078571Y-124501009D02*
X29173809Y-124453390D01*
X49070476Y-114235180D02*
X49070476Y-115235180D01*
X49070476Y-115235180D02*
X49403809Y-114520895D01*
X49403809Y-114520895D02*
X49737142Y-115235180D01*
X49737142Y-115235180D02*
X49737142Y-114235180D01*
X50737142Y-114235180D02*
X50165714Y-114235180D01*
X50451428Y-114235180D02*
X50451428Y-115235180D01*
X50451428Y-115235180D02*
X50356190Y-115092323D01*
X50356190Y-115092323D02*
X50260952Y-114997085D01*
X50260952Y-114997085D02*
X50165714Y-114949466D01*
D11*
X50106109Y-118653809D02*
X49868014Y-118487143D01*
X50106109Y-118368095D02*
X49606109Y-118368095D01*
X49606109Y-118368095D02*
X49606109Y-118558571D01*
X49606109Y-118558571D02*
X49629919Y-118606190D01*
X49629919Y-118606190D02*
X49653728Y-118630000D01*
X49653728Y-118630000D02*
X49701347Y-118653809D01*
X49701347Y-118653809D02*
X49772776Y-118653809D01*
X49772776Y-118653809D02*
X49820395Y-118630000D01*
X49820395Y-118630000D02*
X49844204Y-118606190D01*
X49844204Y-118606190D02*
X49868014Y-118558571D01*
X49868014Y-118558571D02*
X49868014Y-118368095D01*
X49844204Y-118868095D02*
X49844204Y-119034762D01*
X50106109Y-119106190D02*
X50106109Y-118868095D01*
X50106109Y-118868095D02*
X49606109Y-118868095D01*
X49606109Y-118868095D02*
X49606109Y-119106190D01*
X50082300Y-119296667D02*
X50106109Y-119368095D01*
X50106109Y-119368095D02*
X50106109Y-119487143D01*
X50106109Y-119487143D02*
X50082300Y-119534762D01*
X50082300Y-119534762D02*
X50058490Y-119558571D01*
X50058490Y-119558571D02*
X50010871Y-119582381D01*
X50010871Y-119582381D02*
X49963252Y-119582381D01*
X49963252Y-119582381D02*
X49915633Y-119558571D01*
X49915633Y-119558571D02*
X49891823Y-119534762D01*
X49891823Y-119534762D02*
X49868014Y-119487143D01*
X49868014Y-119487143D02*
X49844204Y-119391905D01*
X49844204Y-119391905D02*
X49820395Y-119344286D01*
X49820395Y-119344286D02*
X49796585Y-119320476D01*
X49796585Y-119320476D02*
X49748966Y-119296667D01*
X49748966Y-119296667D02*
X49701347Y-119296667D01*
X49701347Y-119296667D02*
X49653728Y-119320476D01*
X49653728Y-119320476D02*
X49629919Y-119344286D01*
X49629919Y-119344286D02*
X49606109Y-119391905D01*
X49606109Y-119391905D02*
X49606109Y-119510952D01*
X49606109Y-119510952D02*
X49629919Y-119582381D01*
X49844204Y-119796666D02*
X49844204Y-119963333D01*
X50106109Y-120034761D02*
X50106109Y-119796666D01*
X50106109Y-119796666D02*
X49606109Y-119796666D01*
X49606109Y-119796666D02*
X49606109Y-120034761D01*
X49606109Y-120177619D02*
X49606109Y-120463333D01*
X50106109Y-120320476D02*
X49606109Y-120320476D01*
X52169919Y-118999047D02*
X52146109Y-118951428D01*
X52146109Y-118951428D02*
X52146109Y-118879999D01*
X52146109Y-118879999D02*
X52169919Y-118808571D01*
X52169919Y-118808571D02*
X52217538Y-118760952D01*
X52217538Y-118760952D02*
X52265157Y-118737142D01*
X52265157Y-118737142D02*
X52360395Y-118713333D01*
X52360395Y-118713333D02*
X52431823Y-118713333D01*
X52431823Y-118713333D02*
X52527061Y-118737142D01*
X52527061Y-118737142D02*
X52574680Y-118760952D01*
X52574680Y-118760952D02*
X52622300Y-118808571D01*
X52622300Y-118808571D02*
X52646109Y-118879999D01*
X52646109Y-118879999D02*
X52646109Y-118927618D01*
X52646109Y-118927618D02*
X52622300Y-118999047D01*
X52622300Y-118999047D02*
X52598490Y-119022856D01*
X52598490Y-119022856D02*
X52431823Y-119022856D01*
X52431823Y-119022856D02*
X52431823Y-118927618D01*
X52646109Y-119237142D02*
X52146109Y-119237142D01*
X52146109Y-119237142D02*
X52646109Y-119522856D01*
X52646109Y-119522856D02*
X52146109Y-119522856D01*
X52646109Y-119760952D02*
X52146109Y-119760952D01*
X52146109Y-119760952D02*
X52146109Y-119880000D01*
X52146109Y-119880000D02*
X52169919Y-119951428D01*
X52169919Y-119951428D02*
X52217538Y-119999047D01*
X52217538Y-119999047D02*
X52265157Y-120022857D01*
X52265157Y-120022857D02*
X52360395Y-120046666D01*
X52360395Y-120046666D02*
X52431823Y-120046666D01*
X52431823Y-120046666D02*
X52527061Y-120022857D01*
X52527061Y-120022857D02*
X52574680Y-119999047D01*
X52574680Y-119999047D02*
X52622300Y-119951428D01*
X52622300Y-119951428D02*
X52646109Y-119880000D01*
X52646109Y-119880000D02*
X52646109Y-119760952D01*
X47071109Y-103982381D02*
X47571109Y-104149047D01*
X47571109Y-104149047D02*
X47071109Y-104315714D01*
X47571109Y-104482380D02*
X47071109Y-104482380D01*
X47571109Y-104720475D02*
X47071109Y-104720475D01*
X47071109Y-104720475D02*
X47571109Y-105006189D01*
X47571109Y-105006189D02*
X47071109Y-105006189D01*
X50082300Y-120860476D02*
X50106109Y-120931904D01*
X50106109Y-120931904D02*
X50106109Y-121050952D01*
X50106109Y-121050952D02*
X50082300Y-121098571D01*
X50082300Y-121098571D02*
X50058490Y-121122380D01*
X50058490Y-121122380D02*
X50010871Y-121146190D01*
X50010871Y-121146190D02*
X49963252Y-121146190D01*
X49963252Y-121146190D02*
X49915633Y-121122380D01*
X49915633Y-121122380D02*
X49891823Y-121098571D01*
X49891823Y-121098571D02*
X49868014Y-121050952D01*
X49868014Y-121050952D02*
X49844204Y-120955714D01*
X49844204Y-120955714D02*
X49820395Y-120908095D01*
X49820395Y-120908095D02*
X49796585Y-120884285D01*
X49796585Y-120884285D02*
X49748966Y-120860476D01*
X49748966Y-120860476D02*
X49701347Y-120860476D01*
X49701347Y-120860476D02*
X49653728Y-120884285D01*
X49653728Y-120884285D02*
X49629919Y-120908095D01*
X49629919Y-120908095D02*
X49606109Y-120955714D01*
X49606109Y-120955714D02*
X49606109Y-121074761D01*
X49606109Y-121074761D02*
X49629919Y-121146190D01*
X49606109Y-121312856D02*
X50106109Y-121431904D01*
X50106109Y-121431904D02*
X49748966Y-121527142D01*
X49748966Y-121527142D02*
X50106109Y-121622380D01*
X50106109Y-121622380D02*
X49606109Y-121741428D01*
X50106109Y-121931904D02*
X49606109Y-121931904D01*
X49606109Y-121931904D02*
X49606109Y-122050952D01*
X49606109Y-122050952D02*
X49629919Y-122122380D01*
X49629919Y-122122380D02*
X49677538Y-122169999D01*
X49677538Y-122169999D02*
X49725157Y-122193809D01*
X49725157Y-122193809D02*
X49820395Y-122217618D01*
X49820395Y-122217618D02*
X49891823Y-122217618D01*
X49891823Y-122217618D02*
X49987061Y-122193809D01*
X49987061Y-122193809D02*
X50034680Y-122169999D01*
X50034680Y-122169999D02*
X50082300Y-122122380D01*
X50082300Y-122122380D02*
X50106109Y-122050952D01*
X50106109Y-122050952D02*
X50106109Y-121931904D01*
X50106109Y-122431904D02*
X49606109Y-122431904D01*
X49606109Y-122765237D02*
X49606109Y-122860475D01*
X49606109Y-122860475D02*
X49629919Y-122908094D01*
X49629919Y-122908094D02*
X49677538Y-122955713D01*
X49677538Y-122955713D02*
X49772776Y-122979523D01*
X49772776Y-122979523D02*
X49939442Y-122979523D01*
X49939442Y-122979523D02*
X50034680Y-122955713D01*
X50034680Y-122955713D02*
X50082300Y-122908094D01*
X50082300Y-122908094D02*
X50106109Y-122860475D01*
X50106109Y-122860475D02*
X50106109Y-122765237D01*
X50106109Y-122765237D02*
X50082300Y-122717618D01*
X50082300Y-122717618D02*
X50034680Y-122669999D01*
X50034680Y-122669999D02*
X49939442Y-122646190D01*
X49939442Y-122646190D02*
X49772776Y-122646190D01*
X49772776Y-122646190D02*
X49677538Y-122669999D01*
X49677538Y-122669999D02*
X49629919Y-122717618D01*
X49629919Y-122717618D02*
X49606109Y-122765237D01*
X52174919Y-104149047D02*
X52151109Y-104101428D01*
X52151109Y-104101428D02*
X52151109Y-104029999D01*
X52151109Y-104029999D02*
X52174919Y-103958571D01*
X52174919Y-103958571D02*
X52222538Y-103910952D01*
X52222538Y-103910952D02*
X52270157Y-103887142D01*
X52270157Y-103887142D02*
X52365395Y-103863333D01*
X52365395Y-103863333D02*
X52436823Y-103863333D01*
X52436823Y-103863333D02*
X52532061Y-103887142D01*
X52532061Y-103887142D02*
X52579680Y-103910952D01*
X52579680Y-103910952D02*
X52627300Y-103958571D01*
X52627300Y-103958571D02*
X52651109Y-104029999D01*
X52651109Y-104029999D02*
X52651109Y-104077618D01*
X52651109Y-104077618D02*
X52627300Y-104149047D01*
X52627300Y-104149047D02*
X52603490Y-104172856D01*
X52603490Y-104172856D02*
X52436823Y-104172856D01*
X52436823Y-104172856D02*
X52436823Y-104077618D01*
X52651109Y-104387142D02*
X52151109Y-104387142D01*
X52151109Y-104387142D02*
X52651109Y-104672856D01*
X52651109Y-104672856D02*
X52151109Y-104672856D01*
X52651109Y-104910952D02*
X52151109Y-104910952D01*
X52151109Y-104910952D02*
X52151109Y-105030000D01*
X52151109Y-105030000D02*
X52174919Y-105101428D01*
X52174919Y-105101428D02*
X52222538Y-105149047D01*
X52222538Y-105149047D02*
X52270157Y-105172857D01*
X52270157Y-105172857D02*
X52365395Y-105196666D01*
X52365395Y-105196666D02*
X52436823Y-105196666D01*
X52436823Y-105196666D02*
X52532061Y-105172857D01*
X52532061Y-105172857D02*
X52579680Y-105149047D01*
X52579680Y-105149047D02*
X52627300Y-105101428D01*
X52627300Y-105101428D02*
X52651109Y-105030000D01*
X52651109Y-105030000D02*
X52651109Y-104910952D01*
X52622300Y-120789048D02*
X52646109Y-120860476D01*
X52646109Y-120860476D02*
X52646109Y-120979524D01*
X52646109Y-120979524D02*
X52622300Y-121027143D01*
X52622300Y-121027143D02*
X52598490Y-121050952D01*
X52598490Y-121050952D02*
X52550871Y-121074762D01*
X52550871Y-121074762D02*
X52503252Y-121074762D01*
X52503252Y-121074762D02*
X52455633Y-121050952D01*
X52455633Y-121050952D02*
X52431823Y-121027143D01*
X52431823Y-121027143D02*
X52408014Y-120979524D01*
X52408014Y-120979524D02*
X52384204Y-120884286D01*
X52384204Y-120884286D02*
X52360395Y-120836667D01*
X52360395Y-120836667D02*
X52336585Y-120812857D01*
X52336585Y-120812857D02*
X52288966Y-120789048D01*
X52288966Y-120789048D02*
X52241347Y-120789048D01*
X52241347Y-120789048D02*
X52193728Y-120812857D01*
X52193728Y-120812857D02*
X52169919Y-120836667D01*
X52169919Y-120836667D02*
X52146109Y-120884286D01*
X52146109Y-120884286D02*
X52146109Y-121003333D01*
X52146109Y-121003333D02*
X52169919Y-121074762D01*
X52146109Y-121241428D02*
X52646109Y-121360476D01*
X52646109Y-121360476D02*
X52288966Y-121455714D01*
X52288966Y-121455714D02*
X52646109Y-121550952D01*
X52646109Y-121550952D02*
X52146109Y-121670000D01*
X52598490Y-122146190D02*
X52622300Y-122122381D01*
X52622300Y-122122381D02*
X52646109Y-122050952D01*
X52646109Y-122050952D02*
X52646109Y-122003333D01*
X52646109Y-122003333D02*
X52622300Y-121931905D01*
X52622300Y-121931905D02*
X52574680Y-121884286D01*
X52574680Y-121884286D02*
X52527061Y-121860476D01*
X52527061Y-121860476D02*
X52431823Y-121836667D01*
X52431823Y-121836667D02*
X52360395Y-121836667D01*
X52360395Y-121836667D02*
X52265157Y-121860476D01*
X52265157Y-121860476D02*
X52217538Y-121884286D01*
X52217538Y-121884286D02*
X52169919Y-121931905D01*
X52169919Y-121931905D02*
X52146109Y-122003333D01*
X52146109Y-122003333D02*
X52146109Y-122050952D01*
X52146109Y-122050952D02*
X52169919Y-122122381D01*
X52169919Y-122122381D02*
X52193728Y-122146190D01*
X52646109Y-122598571D02*
X52646109Y-122360476D01*
X52646109Y-122360476D02*
X52146109Y-122360476D01*
X52646109Y-122765238D02*
X52146109Y-122765238D01*
X52646109Y-123050952D02*
X52360395Y-122836667D01*
X52146109Y-123050952D02*
X52431823Y-122765238D01*
D10*
X65159580Y-121433333D02*
X65207200Y-121385714D01*
X65207200Y-121385714D02*
X65254819Y-121242857D01*
X65254819Y-121242857D02*
X65254819Y-121147619D01*
X65254819Y-121147619D02*
X65207200Y-121004762D01*
X65207200Y-121004762D02*
X65111961Y-120909524D01*
X65111961Y-120909524D02*
X65016723Y-120861905D01*
X65016723Y-120861905D02*
X64826247Y-120814286D01*
X64826247Y-120814286D02*
X64683390Y-120814286D01*
X64683390Y-120814286D02*
X64492914Y-120861905D01*
X64492914Y-120861905D02*
X64397676Y-120909524D01*
X64397676Y-120909524D02*
X64302438Y-121004762D01*
X64302438Y-121004762D02*
X64254819Y-121147619D01*
X64254819Y-121147619D02*
X64254819Y-121242857D01*
X64254819Y-121242857D02*
X64302438Y-121385714D01*
X64302438Y-121385714D02*
X64350057Y-121433333D01*
X65254819Y-122385714D02*
X65254819Y-121814286D01*
X65254819Y-122100000D02*
X64254819Y-122100000D01*
X64254819Y-122100000D02*
X64397676Y-122004762D01*
X64397676Y-122004762D02*
X64492914Y-121909524D01*
X64492914Y-121909524D02*
X64540533Y-121814286D01*
X61429819Y-63141666D02*
X62144104Y-63141666D01*
X62144104Y-63141666D02*
X62286961Y-63094047D01*
X62286961Y-63094047D02*
X62382200Y-62998809D01*
X62382200Y-62998809D02*
X62429819Y-62855952D01*
X62429819Y-62855952D02*
X62429819Y-62760714D01*
X61525057Y-63570238D02*
X61477438Y-63617857D01*
X61477438Y-63617857D02*
X61429819Y-63713095D01*
X61429819Y-63713095D02*
X61429819Y-63951190D01*
X61429819Y-63951190D02*
X61477438Y-64046428D01*
X61477438Y-64046428D02*
X61525057Y-64094047D01*
X61525057Y-64094047D02*
X61620295Y-64141666D01*
X61620295Y-64141666D02*
X61715533Y-64141666D01*
X61715533Y-64141666D02*
X61858390Y-64094047D01*
X61858390Y-64094047D02*
X62429819Y-63522619D01*
X62429819Y-63522619D02*
X62429819Y-64141666D01*
X29183333Y-45154819D02*
X29183333Y-45869104D01*
X29183333Y-45869104D02*
X29230952Y-46011961D01*
X29230952Y-46011961D02*
X29326190Y-46107200D01*
X29326190Y-46107200D02*
X29469047Y-46154819D01*
X29469047Y-46154819D02*
X29564285Y-46154819D01*
X28659523Y-46154819D02*
X28469047Y-46154819D01*
X28469047Y-46154819D02*
X28373809Y-46107200D01*
X28373809Y-46107200D02*
X28326190Y-46059580D01*
X28326190Y-46059580D02*
X28230952Y-45916723D01*
X28230952Y-45916723D02*
X28183333Y-45726247D01*
X28183333Y-45726247D02*
X28183333Y-45345295D01*
X28183333Y-45345295D02*
X28230952Y-45250057D01*
X28230952Y-45250057D02*
X28278571Y-45202438D01*
X28278571Y-45202438D02*
X28373809Y-45154819D01*
X28373809Y-45154819D02*
X28564285Y-45154819D01*
X28564285Y-45154819D02*
X28659523Y-45202438D01*
X28659523Y-45202438D02*
X28707142Y-45250057D01*
X28707142Y-45250057D02*
X28754761Y-45345295D01*
X28754761Y-45345295D02*
X28754761Y-45583390D01*
X28754761Y-45583390D02*
X28707142Y-45678628D01*
X28707142Y-45678628D02*
X28659523Y-45726247D01*
X28659523Y-45726247D02*
X28564285Y-45773866D01*
X28564285Y-45773866D02*
X28373809Y-45773866D01*
X28373809Y-45773866D02*
X28278571Y-45726247D01*
X28278571Y-45726247D02*
X28230952Y-45678628D01*
X28230952Y-45678628D02*
X28183333Y-45583390D01*
X72064120Y-49566981D02*
X72064120Y-48566642D01*
X72064120Y-48566642D02*
X71683038Y-48566642D01*
X71683038Y-48566642D02*
X71587768Y-48614277D01*
X71587768Y-48614277D02*
X71540132Y-48661912D01*
X71540132Y-48661912D02*
X71492497Y-48757182D01*
X71492497Y-48757182D02*
X71492497Y-48900088D01*
X71492497Y-48900088D02*
X71540132Y-48995358D01*
X71540132Y-48995358D02*
X71587768Y-49042994D01*
X71587768Y-49042994D02*
X71683038Y-49090629D01*
X71683038Y-49090629D02*
X72064120Y-49090629D01*
X70539793Y-49566981D02*
X71111416Y-49566981D01*
X70825605Y-49566981D02*
X70825605Y-48566642D01*
X70825605Y-48566642D02*
X70920875Y-48709547D01*
X70920875Y-48709547D02*
X71016145Y-48804818D01*
X71016145Y-48804818D02*
X71111416Y-48852453D01*
X68059580Y-101733333D02*
X68107200Y-101685714D01*
X68107200Y-101685714D02*
X68154819Y-101542857D01*
X68154819Y-101542857D02*
X68154819Y-101447619D01*
X68154819Y-101447619D02*
X68107200Y-101304762D01*
X68107200Y-101304762D02*
X68011961Y-101209524D01*
X68011961Y-101209524D02*
X67916723Y-101161905D01*
X67916723Y-101161905D02*
X67726247Y-101114286D01*
X67726247Y-101114286D02*
X67583390Y-101114286D01*
X67583390Y-101114286D02*
X67392914Y-101161905D01*
X67392914Y-101161905D02*
X67297676Y-101209524D01*
X67297676Y-101209524D02*
X67202438Y-101304762D01*
X67202438Y-101304762D02*
X67154819Y-101447619D01*
X67154819Y-101447619D02*
X67154819Y-101542857D01*
X67154819Y-101542857D02*
X67202438Y-101685714D01*
X67202438Y-101685714D02*
X67250057Y-101733333D01*
X67250057Y-102114286D02*
X67202438Y-102161905D01*
X67202438Y-102161905D02*
X67154819Y-102257143D01*
X67154819Y-102257143D02*
X67154819Y-102495238D01*
X67154819Y-102495238D02*
X67202438Y-102590476D01*
X67202438Y-102590476D02*
X67250057Y-102638095D01*
X67250057Y-102638095D02*
X67345295Y-102685714D01*
X67345295Y-102685714D02*
X67440533Y-102685714D01*
X67440533Y-102685714D02*
X67583390Y-102638095D01*
X67583390Y-102638095D02*
X68154819Y-102066667D01*
X68154819Y-102066667D02*
X68154819Y-102685714D01*
D12*
%TO.C,J10*%
X25450000Y-85000000D02*
X25450000Y-77000000D01*
X29350000Y-86950000D02*
X33050000Y-86950000D01*
X33050000Y-75050000D02*
X29350000Y-75050000D01*
X33050000Y-76800000D02*
X33050000Y-75050000D01*
X33050000Y-86950000D02*
X33050000Y-85200000D01*
D13*
X35150000Y-84000000D02*
G75*
G02*
X34950000Y-84000000I-100000J0D01*
G01*
X34950000Y-84000000D02*
G75*
G02*
X35150000Y-84000000I100000J0D01*
G01*
D14*
%TO.C,J8*%
X28320000Y-105030000D02*
X30980000Y-105030000D01*
X28320000Y-108240000D02*
X28320000Y-105030000D01*
X28320000Y-113320000D02*
X28320000Y-109760000D01*
X28320000Y-118400000D02*
X28320000Y-114840000D01*
X28320000Y-123130000D02*
X28320000Y-119920000D01*
X28320000Y-123130000D02*
X30980000Y-123130000D01*
X30980000Y-105700000D02*
X30980000Y-105030000D01*
X30980000Y-110780000D02*
X30980000Y-107220000D01*
X30980000Y-115860000D02*
X30980000Y-112300000D01*
X30980000Y-120940000D02*
X30980000Y-117380000D01*
X30980000Y-122460000D02*
X32190000Y-122460000D01*
X30980000Y-123130000D02*
X30980000Y-122460000D01*
%TO.C,M1*%
X40992500Y-104139000D02*
X40992500Y-122681000D01*
X42262500Y-123951000D02*
X57502500Y-123951000D01*
X57502500Y-102869000D02*
X42262500Y-102869000D01*
X58772500Y-122681000D02*
X58772500Y-104139000D01*
X45382500Y-123951000D02*
X54382500Y-123951000D01*
X54382500Y-125475000D01*
X45382500Y-125475000D01*
X45382500Y-123951000D01*
X40992500Y-104139000D02*
G75*
G02*
X42262500Y-102869000I1269999J1D01*
G01*
X42262500Y-123951000D02*
G75*
G02*
X40992500Y-122681000I-1J1269999D01*
G01*
X57502500Y-102869000D02*
G75*
G02*
X58772500Y-104139000I0J-1270000D01*
G01*
X58772500Y-122681000D02*
G75*
G02*
X57502500Y-123951000I-1270000J0D01*
G01*
%TO.C,J7*%
X69820000Y-104830000D02*
X69820000Y-105500000D01*
X69820000Y-105500000D02*
X68610000Y-105500000D01*
X69820000Y-107020000D02*
X69820000Y-110580000D01*
X69820000Y-112100000D02*
X69820000Y-115660000D01*
X69820000Y-117180000D02*
X69820000Y-120740000D01*
X69820000Y-122260000D02*
X69820000Y-122930000D01*
X72480000Y-104830000D02*
X69820000Y-104830000D01*
X72480000Y-104830000D02*
X72480000Y-108040000D01*
X72480000Y-109560000D02*
X72480000Y-113120000D01*
X72480000Y-114640000D02*
X72480000Y-118200000D01*
X72480000Y-119720000D02*
X72480000Y-122930000D01*
X72480000Y-122930000D02*
X69820000Y-122930000D01*
D12*
%TO.C,J3*%
X66450000Y-75050000D02*
X66450000Y-76800000D01*
X66450000Y-85200000D02*
X66450000Y-86950000D01*
X66450000Y-86950000D02*
X70150000Y-86950000D01*
X70150000Y-75050000D02*
X66450000Y-75050000D01*
X74050000Y-77000000D02*
X74050000Y-85000000D01*
D13*
X64550000Y-78000000D02*
G75*
G02*
X64350000Y-78000000I-100000J0D01*
G01*
X64350000Y-78000000D02*
G75*
G02*
X64550000Y-78000000I100000J0D01*
G01*
D14*
%TO.C,C1*%
X61930000Y-121500000D02*
X61930000Y-123500000D01*
X64070000Y-123500000D02*
X64070000Y-121500000D01*
D12*
%TO.C,J2*%
X66450000Y-61050000D02*
X66450000Y-62800000D01*
X66450000Y-71200000D02*
X66450000Y-72950000D01*
X66450000Y-72950000D02*
X70150000Y-72950000D01*
X70150000Y-61050000D02*
X66450000Y-61050000D01*
X74050000Y-63000000D02*
X74050000Y-71000000D01*
D13*
X64550000Y-64000000D02*
G75*
G02*
X64350000Y-64000000I-100000J0D01*
G01*
X64350000Y-64000000D02*
G75*
G02*
X64550000Y-64000000I100000J0D01*
G01*
D12*
%TO.C,J9*%
X25450000Y-71000000D02*
X25450000Y-63000000D01*
X29350000Y-72950000D02*
X33050000Y-72950000D01*
X33050000Y-61050000D02*
X29350000Y-61050000D01*
X33050000Y-62800000D02*
X33050000Y-61050000D01*
X33050000Y-72950000D02*
X33050000Y-71200000D01*
D13*
X35150000Y-70000000D02*
G75*
G02*
X34950000Y-70000000I-100000J0D01*
G01*
X34950000Y-70000000D02*
G75*
G02*
X35150000Y-70000000I100000J0D01*
G01*
%TO.C,P1*%
D12*
X66163500Y-59600000D02*
G75*
G02*
X66036500Y-59600000I-63500J0D01*
G01*
X66036500Y-59600000D02*
G75*
G02*
X66163500Y-59600000I63500J0D01*
G01*
D14*
%TO.C,C2*%
X61930000Y-116000000D02*
X61930000Y-118000000D01*
X64070000Y-118000000D02*
X64070000Y-116000000D01*
%TD*%
M02*
