M48
; DRILL file {KiCad 9.0.7} date 2026-03-12T12:27:11+0530
; FORMAT={-:-/ absolute / metric / decimal}
; #@! TF.CreationDate,2026-03-12T12:27:11+05:30
; #@! TF.GenerationSoftware,Kicad,Pcbnew,9.0.7
; #@! TF.FileFunction,Plated,1,2,PTH
FMAT,2
METRIC
; #@! TA.AperFunction,Plated,PTH,ViaDrill
T1C0.850
; #@! TA.AperFunction,Plated,PTH,ComponentDrill
T2C0.850
; #@! TA.AperFunction,Plated,PTH,ComponentDrill
T3C1.400
%
G90
G05
T1
X30.144Y-89.744
X31.448Y-74.0
X34.0Y-110.88
X35.236Y-115.96
X36.5Y-68.0
X36.5Y-80.246
X37.5Y-118.5
X38.0Y-108.34
X38.0Y-121.5
X38.0Y-124.0
X44.0Y-76.5
X44.0Y-98.0
X46.589Y-80.411
X48.96Y-63.364
X50.0Y-98.0
X50.319Y-56.996
X54.06Y-82.06
X55.527Y-79.468
X55.953Y-65.59
X57.301Y-82.301
X58.0Y-101.5
X58.89Y-65.561
X59.762Y-69.769
X59.762Y-97.5
X61.0Y-123.399
X61.812Y-112.478
X64.766Y-59.657
X65.021Y-118.41
X66.5Y-111.0
X67.4Y-105.88
X70.5Y-108.8
T2
X42.265Y-105.8
X42.265Y-108.34
X42.265Y-110.88
X42.265Y-113.42
X42.265Y-115.96
X42.265Y-118.5
X42.265Y-121.04
X57.5Y-105.8
X57.5Y-108.34
X57.5Y-110.88
X57.5Y-113.42
X57.5Y-115.96
X57.5Y-118.5
X57.5Y-121.04
T3
X71.0Y-91.5
X71.0Y-95.0
M30
