%TF.GenerationSoftware,KiCad,Pcbnew,9.0.7*%
%TF.CreationDate,2026-03-12T12:27:04+05:30*%
%TF.ProjectId,gameboy less goiii,67616d65-626f-4792-906c-65737320676f,rev?*%
%TF.SameCoordinates,Original*%
%TF.FileFunction,Legend,Top*%
%TF.FilePolarity,Positive*%
%FSLAX46Y46*%
G04 Gerber Fmt 4.6, Leading zero omitted, Abs format (unit mm)*
G04 Created by KiCad (PCBNEW 9.0.7) date 2026-03-12 12:27:04*
%MOMM*%
%LPD*%
G01*
G04 APERTURE LIST*
%ADD10C,0.150000*%
%ADD11C,0.120000*%
G04 APERTURE END LIST*
D10*
X48666167Y-98907200D02*
X48809024Y-98954819D01*
X48809024Y-98954819D02*
X49047119Y-98954819D01*
X49047119Y-98954819D02*
X49142357Y-98907200D01*
X49142357Y-98907200D02*
X49189976Y-98859580D01*
X49189976Y-98859580D02*
X49237595Y-98764342D01*
X49237595Y-98764342D02*
X49237595Y-98669104D01*
X49237595Y-98669104D02*
X49189976Y-98573866D01*
X49189976Y-98573866D02*
X49142357Y-98526247D01*
X49142357Y-98526247D02*
X49047119Y-98478628D01*
X49047119Y-98478628D02*
X48856643Y-98431009D01*
X48856643Y-98431009D02*
X48761405Y-98383390D01*
X48761405Y-98383390D02*
X48713786Y-98335771D01*
X48713786Y-98335771D02*
X48666167Y-98240533D01*
X48666167Y-98240533D02*
X48666167Y-98145295D01*
X48666167Y-98145295D02*
X48713786Y-98050057D01*
X48713786Y-98050057D02*
X48761405Y-98002438D01*
X48761405Y-98002438D02*
X48856643Y-97954819D01*
X48856643Y-97954819D02*
X49094738Y-97954819D01*
X49094738Y-97954819D02*
X49237595Y-98002438D01*
X49570929Y-97954819D02*
X49809024Y-98954819D01*
X49809024Y-98954819D02*
X49999500Y-98240533D01*
X49999500Y-98240533D02*
X50189976Y-98954819D01*
X50189976Y-98954819D02*
X50428072Y-97954819D01*
X51237595Y-97954819D02*
X51047119Y-97954819D01*
X51047119Y-97954819D02*
X50951881Y-98002438D01*
X50951881Y-98002438D02*
X50904262Y-98050057D01*
X50904262Y-98050057D02*
X50809024Y-98192914D01*
X50809024Y-98192914D02*
X50761405Y-98383390D01*
X50761405Y-98383390D02*
X50761405Y-98764342D01*
X50761405Y-98764342D02*
X50809024Y-98859580D01*
X50809024Y-98859580D02*
X50856643Y-98907200D01*
X50856643Y-98907200D02*
X50951881Y-98954819D01*
X50951881Y-98954819D02*
X51142357Y-98954819D01*
X51142357Y-98954819D02*
X51237595Y-98907200D01*
X51237595Y-98907200D02*
X51285214Y-98859580D01*
X51285214Y-98859580D02*
X51332833Y-98764342D01*
X51332833Y-98764342D02*
X51332833Y-98526247D01*
X51332833Y-98526247D02*
X51285214Y-98431009D01*
X51285214Y-98431009D02*
X51237595Y-98383390D01*
X51237595Y-98383390D02*
X51142357Y-98335771D01*
X51142357Y-98335771D02*
X50951881Y-98335771D01*
X50951881Y-98335771D02*
X50856643Y-98383390D01*
X50856643Y-98383390D02*
X50809024Y-98431009D01*
X50809024Y-98431009D02*
X50761405Y-98526247D01*
X28608698Y-117249252D02*
X28751555Y-117296871D01*
X28751555Y-117296871D02*
X28989650Y-117296871D01*
X28989650Y-117296871D02*
X29084888Y-117249252D01*
X29084888Y-117249252D02*
X29132507Y-117201632D01*
X29132507Y-117201632D02*
X29180126Y-117106394D01*
X29180126Y-117106394D02*
X29180126Y-117011156D01*
X29180126Y-117011156D02*
X29132507Y-116915918D01*
X29132507Y-116915918D02*
X29084888Y-116868299D01*
X29084888Y-116868299D02*
X28989650Y-116820680D01*
X28989650Y-116820680D02*
X28799174Y-116773061D01*
X28799174Y-116773061D02*
X28703936Y-116725442D01*
X28703936Y-116725442D02*
X28656317Y-116677823D01*
X28656317Y-116677823D02*
X28608698Y-116582585D01*
X28608698Y-116582585D02*
X28608698Y-116487347D01*
X28608698Y-116487347D02*
X28656317Y-116392109D01*
X28656317Y-116392109D02*
X28703936Y-116344490D01*
X28703936Y-116344490D02*
X28799174Y-116296871D01*
X28799174Y-116296871D02*
X29037269Y-116296871D01*
X29037269Y-116296871D02*
X29180126Y-116344490D01*
X29513460Y-116296871D02*
X29751555Y-117296871D01*
X29751555Y-117296871D02*
X29942031Y-116582585D01*
X29942031Y-116582585D02*
X30132507Y-117296871D01*
X30132507Y-117296871D02*
X30370603Y-116296871D01*
X31227745Y-116296871D02*
X30751555Y-116296871D01*
X30751555Y-116296871D02*
X30703936Y-116773061D01*
X30703936Y-116773061D02*
X30751555Y-116725442D01*
X30751555Y-116725442D02*
X30846793Y-116677823D01*
X30846793Y-116677823D02*
X31084888Y-116677823D01*
X31084888Y-116677823D02*
X31180126Y-116725442D01*
X31180126Y-116725442D02*
X31227745Y-116773061D01*
X31227745Y-116773061D02*
X31275364Y-116868299D01*
X31275364Y-116868299D02*
X31275364Y-117106394D01*
X31275364Y-117106394D02*
X31227745Y-117201632D01*
X31227745Y-117201632D02*
X31180126Y-117249252D01*
X31180126Y-117249252D02*
X31084888Y-117296871D01*
X31084888Y-117296871D02*
X30846793Y-117296871D01*
X30846793Y-117296871D02*
X30751555Y-117249252D01*
X30751555Y-117249252D02*
X30703936Y-117201632D01*
X68333333Y-56104819D02*
X68000000Y-55628628D01*
X67761905Y-56104819D02*
X67761905Y-55104819D01*
X67761905Y-55104819D02*
X68142857Y-55104819D01*
X68142857Y-55104819D02*
X68238095Y-55152438D01*
X68238095Y-55152438D02*
X68285714Y-55200057D01*
X68285714Y-55200057D02*
X68333333Y-55295295D01*
X68333333Y-55295295D02*
X68333333Y-55438152D01*
X68333333Y-55438152D02*
X68285714Y-55533390D01*
X68285714Y-55533390D02*
X68238095Y-55581009D01*
X68238095Y-55581009D02*
X68142857Y-55628628D01*
X68142857Y-55628628D02*
X67761905Y-55628628D01*
X69285714Y-56104819D02*
X68714286Y-56104819D01*
X69000000Y-56104819D02*
X69000000Y-55104819D01*
X69000000Y-55104819D02*
X68904762Y-55247676D01*
X68904762Y-55247676D02*
X68809524Y-55342914D01*
X68809524Y-55342914D02*
X68714286Y-55390533D01*
X68666667Y-71407200D02*
X68809524Y-71454819D01*
X68809524Y-71454819D02*
X69047619Y-71454819D01*
X69047619Y-71454819D02*
X69142857Y-71407200D01*
X69142857Y-71407200D02*
X69190476Y-71359580D01*
X69190476Y-71359580D02*
X69238095Y-71264342D01*
X69238095Y-71264342D02*
X69238095Y-71169104D01*
X69238095Y-71169104D02*
X69190476Y-71073866D01*
X69190476Y-71073866D02*
X69142857Y-71026247D01*
X69142857Y-71026247D02*
X69047619Y-70978628D01*
X69047619Y-70978628D02*
X68857143Y-70931009D01*
X68857143Y-70931009D02*
X68761905Y-70883390D01*
X68761905Y-70883390D02*
X68714286Y-70835771D01*
X68714286Y-70835771D02*
X68666667Y-70740533D01*
X68666667Y-70740533D02*
X68666667Y-70645295D01*
X68666667Y-70645295D02*
X68714286Y-70550057D01*
X68714286Y-70550057D02*
X68761905Y-70502438D01*
X68761905Y-70502438D02*
X68857143Y-70454819D01*
X68857143Y-70454819D02*
X69095238Y-70454819D01*
X69095238Y-70454819D02*
X69238095Y-70502438D01*
X69571429Y-70454819D02*
X69809524Y-71454819D01*
X69809524Y-71454819D02*
X70000000Y-70740533D01*
X70000000Y-70740533D02*
X70190476Y-71454819D01*
X70190476Y-71454819D02*
X70428572Y-70454819D01*
X70761905Y-70550057D02*
X70809524Y-70502438D01*
X70809524Y-70502438D02*
X70904762Y-70454819D01*
X70904762Y-70454819D02*
X71142857Y-70454819D01*
X71142857Y-70454819D02*
X71238095Y-70502438D01*
X71238095Y-70502438D02*
X71285714Y-70550057D01*
X71285714Y-70550057D02*
X71333333Y-70645295D01*
X71333333Y-70645295D02*
X71333333Y-70740533D01*
X71333333Y-70740533D02*
X71285714Y-70883390D01*
X71285714Y-70883390D02*
X70714286Y-71454819D01*
X70714286Y-71454819D02*
X71333333Y-71454819D01*
X49166667Y-116907200D02*
X49309524Y-116954819D01*
X49309524Y-116954819D02*
X49547619Y-116954819D01*
X49547619Y-116954819D02*
X49642857Y-116907200D01*
X49642857Y-116907200D02*
X49690476Y-116859580D01*
X49690476Y-116859580D02*
X49738095Y-116764342D01*
X49738095Y-116764342D02*
X49738095Y-116669104D01*
X49738095Y-116669104D02*
X49690476Y-116573866D01*
X49690476Y-116573866D02*
X49642857Y-116526247D01*
X49642857Y-116526247D02*
X49547619Y-116478628D01*
X49547619Y-116478628D02*
X49357143Y-116431009D01*
X49357143Y-116431009D02*
X49261905Y-116383390D01*
X49261905Y-116383390D02*
X49214286Y-116335771D01*
X49214286Y-116335771D02*
X49166667Y-116240533D01*
X49166667Y-116240533D02*
X49166667Y-116145295D01*
X49166667Y-116145295D02*
X49214286Y-116050057D01*
X49214286Y-116050057D02*
X49261905Y-116002438D01*
X49261905Y-116002438D02*
X49357143Y-115954819D01*
X49357143Y-115954819D02*
X49595238Y-115954819D01*
X49595238Y-115954819D02*
X49738095Y-116002438D01*
X50071429Y-115954819D02*
X50309524Y-116954819D01*
X50309524Y-116954819D02*
X50500000Y-116240533D01*
X50500000Y-116240533D02*
X50690476Y-116954819D01*
X50690476Y-116954819D02*
X50928572Y-115954819D01*
X51833333Y-116954819D02*
X51261905Y-116954819D01*
X51547619Y-116954819D02*
X51547619Y-115954819D01*
X51547619Y-115954819D02*
X51452381Y-116097676D01*
X51452381Y-116097676D02*
X51357143Y-116192914D01*
X51357143Y-116192914D02*
X51261905Y-116240533D01*
X67786905Y-52349819D02*
X67786905Y-51349819D01*
X67786905Y-51349819D02*
X68025000Y-51349819D01*
X68025000Y-51349819D02*
X68167857Y-51397438D01*
X68167857Y-51397438D02*
X68263095Y-51492676D01*
X68263095Y-51492676D02*
X68310714Y-51587914D01*
X68310714Y-51587914D02*
X68358333Y-51778390D01*
X68358333Y-51778390D02*
X68358333Y-51921247D01*
X68358333Y-51921247D02*
X68310714Y-52111723D01*
X68310714Y-52111723D02*
X68263095Y-52206961D01*
X68263095Y-52206961D02*
X68167857Y-52302200D01*
X68167857Y-52302200D02*
X68025000Y-52349819D01*
X68025000Y-52349819D02*
X67786905Y-52349819D01*
X69310714Y-52349819D02*
X68739286Y-52349819D01*
X69025000Y-52349819D02*
X69025000Y-51349819D01*
X69025000Y-51349819D02*
X68929762Y-51492676D01*
X68929762Y-51492676D02*
X68834524Y-51587914D01*
X68834524Y-51587914D02*
X68739286Y-51635533D01*
X48666667Y-83407200D02*
X48809524Y-83454819D01*
X48809524Y-83454819D02*
X49047619Y-83454819D01*
X49047619Y-83454819D02*
X49142857Y-83407200D01*
X49142857Y-83407200D02*
X49190476Y-83359580D01*
X49190476Y-83359580D02*
X49238095Y-83264342D01*
X49238095Y-83264342D02*
X49238095Y-83169104D01*
X49238095Y-83169104D02*
X49190476Y-83073866D01*
X49190476Y-83073866D02*
X49142857Y-83026247D01*
X49142857Y-83026247D02*
X49047619Y-82978628D01*
X49047619Y-82978628D02*
X48857143Y-82931009D01*
X48857143Y-82931009D02*
X48761905Y-82883390D01*
X48761905Y-82883390D02*
X48714286Y-82835771D01*
X48714286Y-82835771D02*
X48666667Y-82740533D01*
X48666667Y-82740533D02*
X48666667Y-82645295D01*
X48666667Y-82645295D02*
X48714286Y-82550057D01*
X48714286Y-82550057D02*
X48761905Y-82502438D01*
X48761905Y-82502438D02*
X48857143Y-82454819D01*
X48857143Y-82454819D02*
X49095238Y-82454819D01*
X49095238Y-82454819D02*
X49238095Y-82502438D01*
X49571429Y-82454819D02*
X49809524Y-83454819D01*
X49809524Y-83454819D02*
X50000000Y-82740533D01*
X50000000Y-82740533D02*
X50190476Y-83454819D01*
X50190476Y-83454819D02*
X50428572Y-82454819D01*
X50714286Y-82454819D02*
X51333333Y-82454819D01*
X51333333Y-82454819D02*
X51000000Y-82835771D01*
X51000000Y-82835771D02*
X51142857Y-82835771D01*
X51142857Y-82835771D02*
X51238095Y-82883390D01*
X51238095Y-82883390D02*
X51285714Y-82931009D01*
X51285714Y-82931009D02*
X51333333Y-83026247D01*
X51333333Y-83026247D02*
X51333333Y-83264342D01*
X51333333Y-83264342D02*
X51285714Y-83359580D01*
X51285714Y-83359580D02*
X51238095Y-83407200D01*
X51238095Y-83407200D02*
X51142857Y-83454819D01*
X51142857Y-83454819D02*
X50857143Y-83454819D01*
X50857143Y-83454819D02*
X50761905Y-83407200D01*
X50761905Y-83407200D02*
X50714286Y-83359580D01*
X67166667Y-99907200D02*
X67309524Y-99954819D01*
X67309524Y-99954819D02*
X67547619Y-99954819D01*
X67547619Y-99954819D02*
X67642857Y-99907200D01*
X67642857Y-99907200D02*
X67690476Y-99859580D01*
X67690476Y-99859580D02*
X67738095Y-99764342D01*
X67738095Y-99764342D02*
X67738095Y-99669104D01*
X67738095Y-99669104D02*
X67690476Y-99573866D01*
X67690476Y-99573866D02*
X67642857Y-99526247D01*
X67642857Y-99526247D02*
X67547619Y-99478628D01*
X67547619Y-99478628D02*
X67357143Y-99431009D01*
X67357143Y-99431009D02*
X67261905Y-99383390D01*
X67261905Y-99383390D02*
X67214286Y-99335771D01*
X67214286Y-99335771D02*
X67166667Y-99240533D01*
X67166667Y-99240533D02*
X67166667Y-99145295D01*
X67166667Y-99145295D02*
X67214286Y-99050057D01*
X67214286Y-99050057D02*
X67261905Y-99002438D01*
X67261905Y-99002438D02*
X67357143Y-98954819D01*
X67357143Y-98954819D02*
X67595238Y-98954819D01*
X67595238Y-98954819D02*
X67738095Y-99002438D01*
X68071429Y-98954819D02*
X68309524Y-99954819D01*
X68309524Y-99954819D02*
X68500000Y-99240533D01*
X68500000Y-99240533D02*
X68690476Y-99954819D01*
X68690476Y-99954819D02*
X68928572Y-98954819D01*
X69738095Y-99288152D02*
X69738095Y-99954819D01*
X69500000Y-98907200D02*
X69261905Y-99621485D01*
X69261905Y-99621485D02*
X69880952Y-99621485D01*
X55653819Y-53483333D02*
X56368104Y-53483333D01*
X56368104Y-53483333D02*
X56510961Y-53530952D01*
X56510961Y-53530952D02*
X56606200Y-53626190D01*
X56606200Y-53626190D02*
X56653819Y-53769047D01*
X56653819Y-53769047D02*
X56653819Y-53864285D01*
X56653819Y-52483333D02*
X56653819Y-53054761D01*
X56653819Y-52769047D02*
X55653819Y-52769047D01*
X55653819Y-52769047D02*
X55796676Y-52864285D01*
X55796676Y-52864285D02*
X55891914Y-52959523D01*
X55891914Y-52959523D02*
X55939533Y-53054761D01*
X65994819Y-93583333D02*
X66709104Y-93583333D01*
X66709104Y-93583333D02*
X66851961Y-93630952D01*
X66851961Y-93630952D02*
X66947200Y-93726190D01*
X66947200Y-93726190D02*
X66994819Y-93869047D01*
X66994819Y-93869047D02*
X66994819Y-93964285D01*
X66328152Y-92678571D02*
X66994819Y-92678571D01*
X65947200Y-92916666D02*
X66661485Y-93154761D01*
X66661485Y-93154761D02*
X66661485Y-92535714D01*
X29288969Y-53874819D02*
X28812779Y-53874819D01*
X28812779Y-53874819D02*
X28812779Y-52874819D01*
X29574684Y-53827200D02*
X29717541Y-53874819D01*
X29717541Y-53874819D02*
X29955636Y-53874819D01*
X29955636Y-53874819D02*
X30050874Y-53827200D01*
X30050874Y-53827200D02*
X30098493Y-53779580D01*
X30098493Y-53779580D02*
X30146112Y-53684342D01*
X30146112Y-53684342D02*
X30146112Y-53589104D01*
X30146112Y-53589104D02*
X30098493Y-53493866D01*
X30098493Y-53493866D02*
X30050874Y-53446247D01*
X30050874Y-53446247D02*
X29955636Y-53398628D01*
X29955636Y-53398628D02*
X29765160Y-53351009D01*
X29765160Y-53351009D02*
X29669922Y-53303390D01*
X29669922Y-53303390D02*
X29622303Y-53255771D01*
X29622303Y-53255771D02*
X29574684Y-53160533D01*
X29574684Y-53160533D02*
X29574684Y-53065295D01*
X29574684Y-53065295D02*
X29622303Y-52970057D01*
X29622303Y-52970057D02*
X29669922Y-52922438D01*
X29669922Y-52922438D02*
X29765160Y-52874819D01*
X29765160Y-52874819D02*
X30003255Y-52874819D01*
X30003255Y-52874819D02*
X30146112Y-52922438D01*
X31098493Y-53874819D02*
X30527065Y-53874819D01*
X30812779Y-53874819D02*
X30812779Y-52874819D01*
X30812779Y-52874819D02*
X30717541Y-53017676D01*
X30717541Y-53017676D02*
X30622303Y-53112914D01*
X30622303Y-53112914D02*
X30527065Y-53160533D01*
X27119819Y-68503333D02*
X27834104Y-68503333D01*
X27834104Y-68503333D02*
X27976961Y-68550952D01*
X27976961Y-68550952D02*
X28072200Y-68646190D01*
X28072200Y-68646190D02*
X28119819Y-68789047D01*
X28119819Y-68789047D02*
X28119819Y-68884285D01*
X27119819Y-68122380D02*
X27119819Y-67455714D01*
X27119819Y-67455714D02*
X28119819Y-67884285D01*
X66731666Y-9754819D02*
X66731666Y-10469104D01*
X66731666Y-10469104D02*
X66684047Y-10611961D01*
X66684047Y-10611961D02*
X66588809Y-10707200D01*
X66588809Y-10707200D02*
X66445952Y-10754819D01*
X66445952Y-10754819D02*
X66350714Y-10754819D01*
X67112619Y-9754819D02*
X67731666Y-9754819D01*
X67731666Y-9754819D02*
X67398333Y-10135771D01*
X67398333Y-10135771D02*
X67541190Y-10135771D01*
X67541190Y-10135771D02*
X67636428Y-10183390D01*
X67636428Y-10183390D02*
X67684047Y-10231009D01*
X67684047Y-10231009D02*
X67731666Y-10326247D01*
X67731666Y-10326247D02*
X67731666Y-10564342D01*
X67731666Y-10564342D02*
X67684047Y-10659580D01*
X67684047Y-10659580D02*
X67636428Y-10707200D01*
X67636428Y-10707200D02*
X67541190Y-10754819D01*
X67541190Y-10754819D02*
X67255476Y-10754819D01*
X67255476Y-10754819D02*
X67160238Y-10707200D01*
X67160238Y-10707200D02*
X67112619Y-10659580D01*
D11*
%TO.C,SW6*%
X46850000Y-100350000D02*
X53150000Y-100350000D01*
X46850000Y-104500000D02*
X46850000Y-102500000D01*
X53150000Y-102500000D02*
X53150000Y-104500000D01*
X53150000Y-106650000D02*
X46850000Y-106650000D01*
%TO.C,SW5*%
X28292031Y-117432052D02*
X34592031Y-117432052D01*
X28292031Y-121582052D02*
X28292031Y-119582052D01*
X34592031Y-119582052D02*
X34592031Y-121582052D01*
X34592031Y-123732052D02*
X28292031Y-123732052D01*
%TO.C,R1*%
X67500000Y-56430000D02*
X69500000Y-56430000D01*
X69500000Y-58570000D02*
X67500000Y-58570000D01*
%TO.C,SW2*%
X28850000Y-100350000D02*
X35150000Y-100350000D01*
X28850000Y-104500000D02*
X28850000Y-102500000D01*
X35150000Y-102500000D02*
X35150000Y-104500000D01*
X35150000Y-106650000D02*
X28850000Y-106650000D01*
%TO.C,SW1*%
X47350000Y-117350000D02*
X53650000Y-117350000D01*
X47350000Y-121500000D02*
X47350000Y-119500000D01*
X53650000Y-119500000D02*
X53650000Y-121500000D01*
X53650000Y-123650000D02*
X47350000Y-123650000D01*
%TO.C,D1*%
X67425000Y-52795000D02*
X69625000Y-52795000D01*
X67425000Y-54745000D02*
X69625000Y-54745000D01*
%TO.C,SW3*%
X46850000Y-83850000D02*
X53150000Y-83850000D01*
X46850000Y-88000000D02*
X46850000Y-86000000D01*
X53150000Y-86000000D02*
X53150000Y-88000000D01*
X53150000Y-90150000D02*
X46850000Y-90150000D01*
%TO.C,SW4*%
X65350000Y-100350000D02*
X71650000Y-100350000D01*
X65350000Y-104500000D02*
X65350000Y-102500000D01*
X71650000Y-102500000D02*
X71650000Y-104500000D01*
X71650000Y-106650000D02*
X65350000Y-106650000D01*
%TO.C,J1*%
X45040000Y-51880000D02*
X45040000Y-54420000D01*
X54802000Y-54547000D02*
X55437000Y-54547000D01*
X55437000Y-54547000D02*
X55437000Y-53150000D01*
%TO.C,J4*%
X68300000Y-89700000D02*
X74800000Y-89700000D01*
X68300000Y-96800000D02*
X68300000Y-89700000D01*
X68300000Y-96800000D02*
X74800000Y-96800000D01*
X74800000Y-96800000D02*
X74800000Y-89700000D01*
%TO.C,LS1*%
X28730000Y-54690000D02*
X30000000Y-54690000D01*
X33810000Y-54690000D02*
X36350000Y-54690000D01*
X33810000Y-55706000D02*
X31500000Y-55706000D01*
X33810000Y-56214000D02*
X31500000Y-56214000D01*
X33810000Y-58246000D02*
X31500000Y-58246000D01*
X33810000Y-58754000D02*
X31500000Y-58754000D01*
X33810000Y-59770000D02*
X33810000Y-54690000D01*
X36350000Y-54690000D02*
X36350000Y-59770000D01*
X36350000Y-59770000D02*
X33810000Y-59770000D01*
%TD*%
M02*
