<?xml version="1.0" standalone="no"?>
<!DOCTYPE svg PUBLIC "-//W3C//DTD SVG 20010904//EN"
 "http://www.w3.org/TR/2001/REC-SVG-20010904/DTD/svg10.dtd">
<svg version="1.0" xmlns="http://www.w3.org/2000/svg"
 width="840.000000pt" height="668.000000pt" viewBox="0 0 840.000000 668.000000"
 preserveAspectRatio="xMidYMid meet">

<g transform="translate(0.000000,668.000000) scale(0.100000,-0.100000)"
fill="#000000" stroke="none">
<path d="M4280 6269 c-117 -5 -179 -13 -253 -33 -525 -140 -892 -465 -982
-869 -16 -74 -14 -117 7 -117 6 0 60 52 120 115 166 173 291 260 459 316 81
27 104 31 169 27 93 -6 165 -37 237 -102 76 -69 147 -188 184 -311 10 -32 10
-323 0 -1438 -6 -700 -6 -719 -26 -729 -36 -21 -64 -56 -73 -94 -6 -24 -13
-523 -17 -1289 -6 -1354 -9 -1276 48 -1319 26 -20 41 -21 210 -21 155 0 187 3
214 18 71 38 67 1 74 707 4 349 7 927 8 1283 l1 649 -33 31 c-18 18 -40 37
-50 42 -16 9 -16 77 -7 1100 6 600 14 1106 18 1125 20 81 58 126 137 162 41
19 67 23 147 23 93 0 99 -2 125 -27 24 -24 27 -37 32 -112 6 -80 8 -88 39
-118 32 -32 34 -33 120 -33 96 0 126 12 159 62 17 25 18 63 18 448 0 323 -3
425 -13 442 -22 40 -70 58 -152 58 -120 0 -162 -39 -165 -154 -3 -80 -16 -105
-71 -132 -37 -17 -51 -19 -138 -11 -79 8 -104 14 -143 38 -59 37 -91 95 -99
184 -10 99 8 94 -304 79z"/>
</g>
</svg>
