<?xml version="1.0" standalone="no"?>
<!DOCTYPE svg PUBLIC "-//W3C//DTD SVG 20010904//EN"
 "http://www.w3.org/TR/2001/REC-SVG-20010904/DTD/svg10.dtd">
<svg version="1.0" xmlns="http://www.w3.org/2000/svg"
 width="512.000000pt" height="512.000000pt" viewBox="0 0 512.000000 512.000000"
 preserveAspectRatio="xMidYMid meet">

<g transform="translate(0.000000,512.000000) scale(0.100000,-0.100000)"
fill="#000000" stroke="none">
<path d="M725 4551 c-39 -23 -116 -109 -209 -231 -350 -463 -535 -1046 -513
-1620 6 -158 31 -370 47 -401 5 -9 24 -22 41 -29 27 -11 36 -11 57 1 46 26 47
36 27 201 -20 173 -23 441 -5 583 46 373 180 741 378 1040 101 153 239 325
260 325 5 0 39 -31 76 -70 l67 -69 -87 -108 c-357 -440 -531 -980 -494 -1531
14 -206 69 -472 126 -608 8 -20 14 -38 12 -39 -5 -6 -179 -55 -192 -55 -7 0
-20 24 -29 54 -19 60 -31 73 -73 82 -40 8 -84 -32 -84 -77 0 -43 78 -236 157
-389 125 -243 363 -563 447 -601 88 -40 147 -16 263 103 86 89 103 117 103
174 0 52 -21 91 -89 169 -84 94 -211 285 -273 409 -138 275 -205 541 -215 856
-16 512 154 998 487 1390 40 47 76 95 81 108 12 32 11 99 -2 125 -16 32 -179
196 -211 213 -38 20 -117 18 -153 -5z"/>
<path d="M4235 4551 c-46 -29 -193 -182 -204 -214 -13 -35 -14 -88 -2 -119 5
-13 41 -61 81 -108 444 -527 598 -1228 414 -1884 -75 -268 -238 -569 -415
-771 -68 -78 -89 -117 -89 -169 0 -57 17 -85 103 -174 163 -169 236 -165 391
19 314 375 510 814 582 1304 22 149 25 523 5 665 -34 248 -116 537 -205 725
-35 75 -49 95 -70 101 -14 3 -33 3 -43 0 -9 -4 -20 -1 -24 6 -4 7 -10 10 -12
8 -2 -3 -43 -58 -91 -122 -48 -65 -90 -118 -94 -118 -4 0 -28 42 -54 93 -65
127 -148 252 -252 380 l-87 108 67 69 c37 39 72 70 78 69 14 -1 116 -121 191
-224 70 -98 89 -115 125 -115 35 0 70 41 70 80 0 55 -238 357 -312 396 -39 20
-117 18 -153 -5z"/>
<path d="M1239 4027 c-81 -55 -299 -370 -299 -433 0 -64 84 -99 126 -51 11 12
39 55 63 94 45 79 146 216 180 247 l22 20 71 -71 71 -71 -70 -94 c-274 -362
-364 -796 -258 -1236 13 -53 21 -100 19 -104 -11 -17 -169 -107 -175 -100 -13
13 -48 140 -69 249 -43 221 -35 493 20 707 24 97 25 108 2 136 -23 28 -83 31
-111 6 -24 -21 -64 -184 -82 -329 -15 -127 -7 -423 16 -537 49 -253 146 -490
279 -689 206 -305 289 -329 473 -139 89 92 103 117 103 182 0 45 -19 80 -105
190 -348 446 -342 1120 13 1573 31 41 65 88 74 106 20 36 24 107 7 140 -16 32
-179 196 -211 213 -42 22 -119 18 -159 -9z"/>
<path d="M3725 4038 c-31 -17 -195 -180 -211 -210 -19 -37 -18 -106 4 -145 9
-18 43 -65 74 -106 278 -354 349 -852 181 -1271 -45 -114 -102 -217 -165 -298
-89 -115 -108 -149 -108 -194 0 -65 14 -90 103 -182 184 -190 269 -165 471
138 103 153 192 346 240 517 53 189 61 253 61 498 -1 211 -3 240 -27 356 -65
301 -197 579 -383 802 -31 37 -71 77 -88 88 -36 21 -119 26 -152 7z m126 -200
c109 -130 224 -335 284 -503 l25 -70 -83 -77 c-45 -43 -85 -78 -88 -78 -3 0
-13 28 -23 63 -45 163 -135 345 -235 476 -31 40 -62 82 -70 93 -13 18 -9 25
55 89 37 38 72 69 76 69 4 0 31 -28 59 -62z"/>
<path d="M1768 3509 c-75 -39 -203 -257 -252 -431 -87 -303 -39 -617 134 -887
86 -134 151 -175 240 -151 35 9 64 31 132 97 98 97 118 130 118 200 0 41 -8
61 -50 128 -84 132 -114 272 -90 412 12 76 61 190 106 249 29 37 42 110 30
161 -9 34 -180 211 -223 229 -45 19 -101 17 -145 -7z m153 -196 c38 -36 69
-70 69 -75 0 -5 -14 -30 -31 -54 -43 -63 -84 -158 -99 -229 -14 -66 -37 -95
-164 -208 l-68 -61 5 129 c5 152 28 250 86 369 37 75 115 196 128 196 3 0 36
-30 74 -67z"/>
<path d="M3205 3516 c-42 -19 -212 -196 -221 -229 -12 -51 1 -124 30 -161 45
-59 94 -173 106 -249 24 -140 -6 -280 -90 -412 -45 -71 -50 -85 -50 -136 0
-67 19 -97 132 -206 55 -53 85 -74 118 -83 89 -24 154 18 241 152 171 268 219
585 133 886 -50 177 -177 393 -254 432 -45 23 -102 25 -145 6z m155 -256 c79
-131 130 -303 130 -442 l0 -67 -67 -39 c-38 -22 -86 -49 -109 -60 l-40 -20 4
113 c7 171 -32 315 -117 439 -17 24 -31 49 -31 54 0 5 32 40 71 77 l71 69 25
-29 c13 -17 42 -59 63 -95z"/>
<path d="M2433 3109 c-71 -27 -155 -106 -190 -177 -24 -49 -28 -69 -28 -147 0
-82 3 -97 33 -157 38 -77 91 -128 172 -167 79 -37 201 -37 281 1 79 36 133 89
171 166 30 60 33 75 33 157 0 78 -4 98 -28 147 -36 73 -119 150 -192 177 -74
28 -180 27 -252 0z m214 -148 c82 -38 130 -145 104 -232 -13 -45 -61 -103
-100 -124 -160 -82 -345 87 -276 253 44 105 166 151 272 103z"/>
<path d="M1556 1276 l-26 -25 0 -324 c0 -313 1 -325 21 -351 15 -19 30 -26 55
-26 55 0 68 24 74 141 l5 100 100 -116 c55 -63 110 -118 121 -121 37 -10 66 0
87 28 29 39 17 67 -74 169 -45 50 -80 91 -78 93 2 1 26 15 52 30 127 73 152
246 51 349 -61 63 -84 71 -231 75 -130 4 -132 4 -157 -22z m275 -155 c36 -36
37 -60 3 -100 -24 -29 -31 -31 -90 -31 l-64 0 0 80 0 80 61 0 c54 0 64 -3 90
-29z"/>
<path d="M2185 1275 l-25 -24 0 -324 c0 -313 1 -325 21 -351 26 -33 79 -36
109 -6 18 18 20 33 20 150 l0 130 95 0 c90 0 98 2 122 26 20 20 24 31 19 57
-11 55 -36 67 -142 67 l-94 0 0 75 0 75 95 0 c52 0 105 5 119 11 51 23 55 103
7 128 -11 7 -83 11 -171 11 -147 0 -152 -1 -175 -25z"/>
<path d="M2741 1274 c-20 -26 -21 -38 -21 -354 l0 -327 23 -21 c33 -31 80 -29
106 4 20 26 21 38 21 349 0 311 -1 323 -21 349 -15 19 -30 26 -54 26 -24 0
-39 -7 -54 -26z"/>
<path d="M3049 1281 l-24 -19 0 -335 c0 -315 1 -336 19 -356 18 -19 30 -21
151 -21 93 0 145 5 178 16 136 46 229 220 213 401 -8 100 -38 173 -97 237 -72
79 -123 96 -288 96 -112 0 -132 -3 -152 -19z m302 -154 c19 -12 45 -43 59 -67
21 -39 25 -58 25 -135 0 -77 -4 -96 -25 -135 -39 -69 -78 -90 -166 -90 l-74 0
0 225 0 225 74 0 c60 0 79 -4 107 -23z"/>
</g>
</svg>
