<?xml version="1.0" standalone="no"?>
<!DOCTYPE svg PUBLIC "-//W3C//DTD SVG 20010904//EN"
 "http://www.w3.org/TR/2001/REC-SVG-20010904/DTD/svg10.dtd">
<svg version="1.0" xmlns="http://www.w3.org/2000/svg"
 width="553.000000pt" height="350.000000pt" viewBox="0 0 553.000000 350.000000"
 preserveAspectRatio="xMidYMid meet">

<g transform="translate(0.000000,350.000000) scale(0.100000,-0.100000)"
fill="#000000" stroke="none">
<path d="M735 2280 c-133 -28 -304 -151 -400 -285 -53 -73 -63 -106 -40 -129
23 -23 41 -21 215 24 85 22 168 40 184 40 53 0 108 -23 157 -68 58 -52 85
-125 75 -197 -9 -57 -58 -132 -98 -150 -18 -8 -112 -33 -208 -55 -130 -31
-179 -46 -192 -62 -24 -28 -23 -35 14 -70 41 -39 109 -72 189 -94 91 -25 293
-25 374 -1 126 39 207 94 277 186 49 66 57 73 123 109 l50 27 1355 0 1355 0
57 -23 c63 -26 142 -77 231 -152 216 -179 410 -170 607 28 81 81 190 230 190
259 0 29 -35 31 -140 8 -58 -12 -147 -31 -198 -41 l-93 -18 -45 23 c-25 14
-67 48 -94 78 -39 42 -51 64 -60 109 -14 66 -5 149 19 173 9 9 86 33 181 55
124 30 170 45 187 62 29 29 29 39 -3 69 -61 56 -229 98 -399 99 -114 1 -123 0
-180 -29 -46 -23 -74 -47 -120 -105 -63 -77 -137 -131 -205 -150 -22 -6 -527
-10 -1355 -10 -1437 0 -1365 -3 -1489 56 -32 15 -92 58 -134 97 -128 117 -263
164 -387 137z"/>
</g>
</svg>
