<?xml version="1.0" standalone="no"?>
<!DOCTYPE svg PUBLIC "-//W3C//DTD SVG 20010904//EN"
 "http://www.w3.org/TR/2001/REC-SVG-20010904/DTD/svg10.dtd">
<svg version="1.0" xmlns="http://www.w3.org/2000/svg"
 width="1200.000000pt" height="742.000000pt" viewBox="0 0 1200.000000 742.000000"
 preserveAspectRatio="xMidYMid meet">

<g transform="translate(0.000000,742.000000) scale(0.100000,-0.100000)"
fill="#000000" stroke="none">
<path d="M8438 6411 c-83 -12 -63 -19 42 -16 56 2 105 6 108 9 3 3 -6 6 -20 6
-14 0 -38 2 -54 4 -16 2 -50 1 -76 -3z"/>
<path d="M8612 6387 c9 -9 29 -17 44 -17 18 0 25 3 18 10 -5 5 -25 13 -44 17
-33 6 -34 5 -18 -10z"/>
<path d="M8223 6384 c4 -4 -13 -19 -36 -34 -60 -38 -176 -156 -190 -194 -4 -9
-10 -16 -15 -16 -5 0 -15 -13 -22 -30 -7 -16 -18 -30 -26 -30 -7 0 -15 -9 -19
-19 -3 -11 -21 -33 -40 -50 -19 -17 -35 -34 -35 -38 0 -4 -14 -22 -32 -40 -17
-18 -29 -36 -25 -39 6 -7 57 40 57 52 0 10 55 53 68 54 6 0 12 9 12 20 0 11 5
20 10 20 6 0 10 7 10 15 0 9 6 12 15 9 10 -4 15 0 15 14 0 11 3 22 8 24 4 2
20 22 36 45 40 59 176 188 225 213 23 11 41 23 41 25 0 3 -14 5 -32 5 -17 0
-28 -3 -25 -6z"/>
<path d="M8780 6382 c0 -12 51 -48 80 -57 24 -7 24 -6 -5 19 -46 41 -53 46
-65 46 -5 0 -10 -4 -10 -8z"/>
<path d="M8740 6330 c0 -5 7 -10 16 -10 8 0 12 5 9 10 -3 6 -10 10 -16 10 -5
0 -9 -4 -9 -10z"/>
<path d="M8880 6293 c0 -15 2 -16 9 -4 8 12 11 9 16 -12 4 -15 11 -27 16 -27
11 0 39 -66 39 -94 0 -16 2 -18 9 -7 11 18 17 0 30 -101 17 -122 -2 -232 -56
-335 -18 -36 -32 -68 -29 -70 13 -13 78 109 88 165 6 34 15 62 20 62 4 0 8 46
8 103 0 141 -29 226 -104 304 -35 37 -46 41 -46 16z"/>
<path d="M8110 6075 c0 -8 -5 -15 -12 -15 -7 0 -6 -5 4 -12 9 -7 18 -20 21
-28 3 -8 6 4 6 28 1 23 -3 42 -9 42 -5 0 -10 -7 -10 -15z"/>
<path d="M8886 5961 c-4 -7 -5 -15 -2 -18 9 -9 19 4 14 18 -4 11 -6 11 -12 0z"/>
<path d="M8080 5885 c0 -15 8 -29 22 -36 12 -7 30 -21 40 -33 l17 -21 1 27 c0
17 -11 38 -31 57 -37 37 -49 39 -49 6z"/>
<path d="M8855 5780 c-3 -5 -1 -10 4 -10 6 0 11 5 11 10 0 6 -2 10 -4 10 -3 0
-8 -4 -11 -10z"/>
<path d="M8160 5721 c0 -41 11 -51 56 -51 38 0 46 -4 56 -25 6 -14 15 -25 20
-25 4 0 8 -9 8 -20 0 -11 2 -20 4 -20 2 0 11 -3 20 -6 11 -4 16 0 16 14 0 11
-7 23 -15 26 -9 3 -21 19 -26 35 -6 16 -18 32 -27 35 -9 3 -23 9 -31 12 -9 5
-11 3 -6 -6 6 -10 4 -12 -9 -7 -10 4 -20 7 -22 7 -2 0 -4 9 -4 19 0 10 -7 22
-16 25 -23 9 -24 8 -24 -13z"/>
<path d="M8781 5724 c0 -11 3 -14 6 -6 3 7 2 16 -1 19 -3 4 -6 -2 -5 -13z"/>
<path d="M7640 5700 c-14 -10 -21 -22 -17 -26 4 -4 17 2 29 14 28 28 20 36
-12 12z"/>
<path d="M7563 5649 c-5 -5 -25 -18 -44 -28 -19 -10 -40 -30 -47 -45 -9 -17
-19 -25 -28 -22 -8 3 -37 -10 -64 -29 -28 -19 -53 -35 -57 -35 -5 0 -21 -12
-38 -26 -21 -18 -36 -23 -53 -19 -20 5 -23 3 -17 -15 4 -14 2 -20 -9 -20 -8 0
-20 -8 -25 -18 -5 -10 -28 -27 -50 -37 -40 -17 -52 -37 -31 -50 5 -3 20 3 32
14 12 12 27 21 34 21 7 0 15 9 19 19 3 11 12 18 19 15 7 -3 19 2 26 11 7 8 20
15 30 15 9 0 30 11 46 25 16 14 35 25 42 25 7 0 11 4 7 9 -3 5 3 12 12 15 10
3 32 19 49 35 18 17 35 27 38 24 8 -8 66 47 66 63 0 6 10 14 23 17 12 4 31 12
41 20 16 12 16 15 4 20 -9 3 -20 1 -25 -4z"/>
<path d="M8186 5608 c19 -26 95 -78 114 -78 6 0 18 -7 27 -15 8 -8 19 -13 24
-10 15 10 10 25 -7 25 -9 0 -27 11 -39 24 -12 13 -33 26 -46 28 -12 1 -34 13
-47 26 -14 12 -29 22 -34 22 -5 0 -1 -10 8 -22z"/>
<path d="M8467 5603 c6 -4 15 -21 18 -36 8 -29 27 -32 31 -5 3 22 -7 34 -36
42 -14 4 -20 4 -13 -1z"/>
<path d="M8575 5590 c-8 -13 17 -50 34 -50 12 0 12 3 3 12 -7 7 -12 20 -12 30
0 19 -15 24 -25 8z"/>
<path d="M8379 5544 c-13 -16 0 -46 17 -40 8 3 14 1 14 -4 0 -11 131 -14 167
-4 34 9 17 24 -25 24 -21 0 -55 9 -77 20 -41 21 -80 23 -96 4z"/>
<path d="M7105 5380 c-3 -5 -2 -10 4 -10 5 0 13 5 16 10 3 6 2 10 -4 10 -5 0
-13 -4 -16 -10z"/>
<path d="M7053 5348 c-13 -6 -23 -18 -23 -27 1 -14 2 -14 13 -1 7 8 19 21 27
28 17 14 13 14 -17 0z"/>
<path d="M7043 5290 c-3 -11 -14 -20 -25 -20 -10 0 -17 -4 -13 -10 10 -16 85
16 85 37 0 21 -41 15 -47 -7z"/>
<path d="M6948 5263 c20 -8 14 -33 -8 -33 -11 0 -20 -4 -20 -9 0 -5 -9 -13
-20 -16 -11 -4 -17 -11 -14 -17 4 -6 2 -8 -4 -4 -5 3 -24 -6 -41 -20 -20 -16
-39 -24 -51 -21 -11 3 -23 1 -26 -4 -3 -5 1 -9 8 -9 20 -1 -32 -40 -53 -40
-10 0 -19 -6 -19 -14 0 -8 -9 -18 -21 -21 -30 -10 -18 -29 21 -33 26 -3 32 0
27 12 -4 9 -2 16 3 16 5 0 17 8 27 19 10 10 33 23 52 29 19 7 43 21 55 33 79
76 96 89 122 89 8 0 12 5 9 10 -4 6 -10 8 -15 5 -4 -3 -10 4 -13 15 -3 11 -11
20 -19 19 -10 0 -10 -2 0 -6z"/>
<path d="M6840 5199 c0 -5 5 -7 10 -4 6 3 10 8 10 11 0 2 -4 4 -10 4 -5 0 -10
-5 -10 -11z"/>
<path d="M6790 5169 c0 -5 5 -7 10 -4 6 3 10 8 10 11 0 2 -4 4 -10 4 -5 0 -10
-5 -10 -11z"/>
<path d="M6715 5110 c-3 -5 -1 -10 4 -10 6 0 11 5 11 10 0 6 -2 10 -4 10 -3 0
-8 -4 -11 -10z"/>
<path d="M6625 5040 c-3 -5 -1 -10 4 -10 6 0 11 5 11 10 0 6 -2 10 -4 10 -3 0
-8 -4 -11 -10z"/>
<path d="M6555 5010 c-16 -11 -25 -20 -18 -20 6 0 20 -3 30 -6 15 -5 15 -4 3
5 -16 11 -15 13 15 29 11 6 16 11 10 12 -5 0 -23 -9 -40 -20z"/>
<path d="M6604 5004 c-18 -14 -18 -15 6 -8 31 8 50 24 29 24 -8 0 -24 -7 -35
-16z"/>
<path d="M7230 4975 c-7 -8 -18 -15 -25 -15 -7 0 -15 -7 -19 -15 -3 -9 0 -15
8 -15 8 0 16 7 20 15 3 8 12 15 20 15 7 0 16 7 20 15 3 8 2 15 -3 15 -5 0 -14
-7 -21 -15z"/>
<path d="M6540 4960 c0 -5 7 -10 15 -10 8 0 15 5 15 10 0 6 -7 10 -15 10 -8 0
-15 -4 -15 -10z"/>
<path d="M6458 4943 c7 -3 16 -2 19 1 4 3 -2 6 -13 5 -11 0 -14 -3 -6 -6z"/>
<path d="M6496 4935 c-11 -8 -28 -15 -39 -15 -10 0 -21 -9 -24 -19 -3 -11 -16
-22 -29 -25 -13 -4 -24 -11 -24 -16 0 -6 -5 -10 -12 -10 -6 0 -20 -7 -30 -17
-14 -13 -18 -13 -18 -2 0 8 -6 3 -13 -10 -6 -13 -38 -38 -70 -55 -32 -17 -63
-39 -68 -49 -6 -9 -17 -17 -25 -17 -8 0 -17 -6 -20 -14 -3 -8 -19 -18 -36 -21
-16 -4 -39 -16 -49 -26 -10 -10 -25 -19 -31 -19 -9 0 -8 3 2 10 8 5 12 11 10
14 -3 2 -16 -5 -30 -17 -16 -12 -18 -18 -7 -14 9 4 17 4 17 1 0 -10 -44 -43
-58 -44 -7 0 -15 -7 -18 -15 -4 -8 -12 -15 -20 -15 -7 0 -21 -11 -30 -25 -9
-15 -30 -27 -50 -31 -19 -3 -34 -12 -34 -20 0 -7 -12 -17 -27 -20 -16 -4 -34
-15 -40 -24 -7 -10 -24 -21 -38 -24 -14 -4 -23 -10 -21 -15 3 -5 -8 -15 -26
-22 -17 -7 -42 -23 -56 -36 -14 -13 -31 -23 -38 -23 -7 0 -14 -3 -16 -7 -5
-12 -66 -53 -78 -53 -5 0 -10 -5 -10 -11 0 -6 -9 -8 -20 -4 -11 4 -20 3 -19
-2 4 -15 -13 -43 -26 -43 -8 0 -34 -16 -60 -35 -25 -20 -50 -33 -55 -30 -6 4
-10 1 -10 -4 0 -6 -7 -11 -15 -11 -8 0 -19 -9 -25 -20 -8 -15 -17 -19 -31 -15
-14 5 -21 0 -28 -17 -11 -30 -37 -52 -51 -43 -5 3 -10 0 -10 -7 0 -15 -39 -42
-48 -33 -4 3 0 11 8 16 12 9 12 10 -3 5 -10 -3 -21 -6 -24 -6 -3 0 0 -6 6 -14
9 -11 6 -18 -16 -36 -16 -12 -35 -19 -47 -16 -22 6 -56 -9 -56 -25 0 -6 7 -3
16 5 18 18 34 21 34 6 0 -5 -6 -10 -14 -10 -7 0 -19 -7 -26 -16 -8 -8 -21 -19
-31 -25 -15 -7 -17 -6 -13 6 4 8 11 15 17 15 6 0 7 3 4 6 -10 11 -57 -25 -51
-39 3 -9 -5 -13 -28 -13 -31 0 -53 -13 -99 -56 -9 -9 -26 -19 -37 -22 -11 -4
-23 -13 -26 -21 -3 -8 -12 -15 -21 -15 -8 0 -15 -4 -15 -10 0 -5 -9 -10 -19
-10 -11 0 -21 -3 -23 -8 -1 -4 -29 -25 -62 -47 -32 -22 -71 -49 -86 -60 -16
-11 -66 -45 -112 -77 -45 -31 -96 -68 -113 -82 -16 -14 -36 -26 -42 -26 -15 0
-17 -16 -4 -24 5 -3 14 1 21 9 7 8 19 15 26 15 8 0 19 9 26 20 7 11 19 20 26
20 7 0 25 11 40 25 15 14 30 25 35 25 15 0 -1 -16 -45 -46 -24 -16 -49 -35
-56 -42 -24 -22 -57 -36 -83 -34 -16 1 -37 -8 -53 -23 -15 -14 -31 -25 -36
-25 -14 0 -61 -46 -54 -53 3 -3 -2 -3 -13 -1 -14 4 -21 -2 -28 -27 -6 -18 -19
-36 -32 -40 -17 -6 -21 -5 -16 7 3 7 11 14 19 14 8 0 14 4 14 10 0 6 -11 5
-27 -2 -42 -18 -50 -27 -33 -39 12 -9 11 -10 -4 -5 -12 4 -34 -3 -60 -21 -39
-27 -47 -32 -80 -60 -8 -7 -22 -13 -31 -13 -8 0 -15 -6 -15 -13 0 -7 -12 -18
-27 -25 -48 -20 -103 -54 -103 -62 0 -4 -18 -15 -40 -24 -22 -9 -40 -20 -40
-26 0 -5 -6 -10 -13 -10 -7 0 -22 -7 -33 -16 -10 -8 -13 -13 -7 -9 9 4 11 1 7
-10 -4 -10 -13 -14 -28 -10 -16 5 -18 4 -6 -4 12 -8 8 -13 -22 -25 -20 -9 -39
-20 -43 -26 -3 -5 -13 -10 -21 -10 -8 0 -37 -11 -66 -25 -58 -28 -74 -31 -81
-12 -4 9 -7 9 -15 -1 -5 -7 -31 -19 -58 -26 -30 -7 -49 -18 -49 -27 0 -8 -7
-14 -15 -14 -29 -1 -105 -17 -115 -25 -5 -4 -44 -13 -85 -20 -41 -7 -86 -18
-99 -25 -24 -12 -23 -12 15 -19 21 -5 44 -12 50 -17 8 -6 14 -5 17 4 3 9 29
17 71 22 36 3 66 10 66 14 0 4 26 12 59 18 32 6 79 21 104 32 25 12 57 21 70
21 14 0 30 7 37 15 7 8 20 15 30 15 9 0 28 8 41 18 13 10 44 24 69 31 25 7 52
19 60 26 8 7 32 18 53 26 20 7 37 16 37 20 0 4 24 22 53 39 28 18 54 36 57 40
5 6 39 22 52 24 3 1 16 13 27 28 12 15 45 38 74 52 66 32 109 61 101 68 -3 3
13 14 35 24 23 10 41 24 41 31 0 7 4 13 9 13 11 0 98 57 119 76 6 7 21 15 31
19 11 3 22 12 25 20 3 8 12 15 21 15 9 0 27 12 41 27 14 15 31 28 38 29 18 3
76 45 76 56 0 4 5 8 11 8 6 0 29 16 52 35 22 19 49 35 59 35 10 0 18 4 18 9 0
5 13 14 29 21 16 6 39 22 52 36 12 13 26 24 30 24 7 0 28 17 91 76 11 11 26
14 42 10 20 -5 30 1 56 34 17 22 37 40 44 40 7 0 29 16 50 35 21 19 42 35 47
35 5 0 24 14 42 30 19 17 41 30 49 30 7 0 21 9 31 20 9 11 23 20 30 20 7 0 26
13 41 29 16 16 34 27 42 24 7 -2 21 5 31 16 9 12 23 21 30 21 6 0 27 14 45 31
18 17 52 40 76 51 23 11 56 33 73 49 17 16 34 29 38 29 3 0 30 16 58 35 29 19
55 35 58 35 9 0 108 82 118 98 5 7 12 10 17 7 5 -3 11 -1 15 5 3 5 15 10 26
10 10 0 19 7 19 15 0 8 9 15 19 15 11 0 26 9 34 20 8 11 34 30 58 43 64 32
149 89 149 99 0 5 11 13 25 18 14 5 25 16 25 24 0 18 13 27 44 30 13 2 33 13
44 24 12 12 27 22 32 22 6 0 10 7 10 15 0 8 6 15 14 15 18 0 116 60 116 70 0
4 8 10 18 13 22 8 89 46 129 75 17 12 36 22 42 22 6 0 11 6 11 13 0 7 9 18 20
25 21 13 19 32 -3 32 -7 0 -21 -7 -31 -15z m-1316 -879 c0 -3 -4 -8 -10 -11
-5 -3 -10 -1 -10 4 0 6 5 11 10 11 6 0 10 -2 10 -4z m-360 -251 c-7 -8 -16
-15 -21 -15 -4 0 -22 -13 -40 -30 -18 -16 -36 -27 -40 -24 -4 2 -9 0 -11 -5
-4 -12 -91 -74 -140 -101 -21 -11 -38 -25 -38 -30 0 -6 -5 -10 -10 -10 -11 0
-87 -47 -108 -68 -19 -17 -53 -35 -58 -29 -7 6 54 51 104 76 23 12 42 26 42
31 0 6 5 10 11 10 9 0 94 55 109 70 3 3 18 14 35 24 34 22 38 25 86 66 20 16
42 30 48 30 6 0 11 5 11 10 0 6 7 10 16 10 14 0 14 -3 4 -15z m-670 -464 c0
-5 -7 -11 -15 -15 -15 -5 -20 5 -8 17 9 10 23 9 23 -2z m-70 -47 c0 -9 -32
-33 -44 -34 -5 0 -1 9 9 20 18 20 35 26 35 14z m-200 -144 c0 -5 -10 -10 -22
-10 -19 0 -20 2 -8 10 19 13 30 13 30 0z m-54 -35 c-21 -16 -32 -13 -21 4 3 6
14 11 23 11 15 -1 15 -2 -2 -15z m-46 -22 c-8 -4 -22 -14 -31 -25 -9 -10 -22
-18 -28 -18 -7 0 1 11 16 25 15 13 35 24 43 24 13 -1 13 -1 0 -6z m-80 -63 c0
-5 -7 -10 -16 -10 -8 0 -12 5 -9 10 3 6 10 10 16 10 5 0 9 -4 9 -10z m-45 -29
c-3 -6 -20 -17 -38 -25 l-32 -16 28 25 c28 24 54 34 42 16z m-150 -101 c-3 -5
-13 -10 -21 -10 -8 0 -12 5 -9 10 3 6 13 10 21 10 8 0 12 -4 9 -10z"/>
<path d="M7136 4904 c-4 -10 -1 -14 6 -12 15 5 23 28 10 28 -5 0 -13 -7 -16
-16z"/>
<path d="M7005 4819 c-10 -15 3 -25 16 -12 7 7 7 13 1 17 -6 3 -14 1 -17 -5z"/>
<path d="M6950 4770 c0 -5 -9 -10 -21 -10 -11 0 -17 -4 -14 -10 9 -15 19 -12
45 10 18 16 20 20 7 20 -10 0 -17 -4 -17 -10z"/>
<path d="M6877 4733 c-4 -3 -7 -11 -7 -17 0 -6 5 -5 12 2 6 6 9 14 7 17 -3 3
-9 2 -12 -2z"/>
<path d="M6065 4680 c-3 -5 -2 -10 4 -10 5 0 13 5 16 10 3 6 2 10 -4 10 -5 0
-13 -4 -16 -10z"/>
<path d="M6650 4575 c0 -8 -5 -15 -10 -15 -6 0 -23 -11 -38 -25 -21 -20 -23
-25 -9 -25 9 0 17 4 17 9 0 5 13 12 29 16 29 6 46 28 35 46 -8 14 -24 11 -24
-6z"/>
<path d="M6545 4511 c-3 -5 -1 -12 5 -16 5 -3 10 1 10 9 0 18 -6 21 -15 7z"/>
<path d="M6420 4420 c-14 -11 -31 -20 -37 -20 -16 0 -17 -12 -1 -28 13 -13 38
1 38 21 0 6 7 19 17 29 21 23 15 23 -17 -2z"/>
<path d="M6306 4345 c-27 -20 -15 -28 17 -12 15 8 24 17 20 20 -9 10 -15 8
-37 -8z"/>
<path d="M6258 4303 c7 -3 16 -2 19 1 4 3 -2 6 -13 5 -11 0 -14 -3 -6 -6z"/>
<path d="M6177 4264 c-4 -4 -7 -14 -7 -23 0 -11 3 -12 11 -4 6 6 10 16 7 23
-2 6 -7 8 -11 4z"/>
<path d="M6210 4260 c0 -5 5 -10 10 -10 6 0 10 5 10 10 0 6 -4 10 -10 10 -5 0
-10 -4 -10 -10z"/>
<path d="M6116 4205 c4 -8 10 -15 16 -15 5 0 7 4 3 9 -3 5 3 12 12 14 11 3 8
5 -9 6 -20 1 -26 -3 -22 -14z"/>
<path d="M6071 4183 c-18 -20 -6 -29 14 -10 8 9 12 18 8 20 -5 3 -14 -2 -22
-10z"/>
<path d="M5742 4168 c-11 -14 -4 -68 9 -68 5 0 6 14 3 30 -7 33 1 38 26 15 16
-14 17 -14 13 10 -6 27 -33 34 -51 13z"/>
<path d="M5679 4124 c-12 -14 -14 -62 -4 -72 1 -2 14 0 29 4 25 6 39 44 16 44
-5 0 -10 9 -10 20 0 24 -13 26 -31 4z m18 -56 c-3 -7 -5 -2 -5 12 0 14 2 19 5
13 2 -7 2 -19 0 -25z"/>
<path d="M5970 4133 c0 -6 -3 -18 -6 -27 -7 -18 4 -20 26 -6 13 8 13 11 -2 27
-10 9 -18 12 -18 6z"/>
<path d="M6000 4130 c0 -5 6 -10 14 -10 8 0 18 5 21 10 3 6 -3 10 -14 10 -12
0 -21 -4 -21 -10z"/>
<path d="M5617 4083 c-11 -11 -8 -23 6 -23 8 0 19 -10 25 -22 9 -19 11 -20 11
-5 2 36 -25 68 -42 50z"/>
<path d="M5910 4075 c0 -11 -11 -15 -37 -16 -21 0 -32 -3 -25 -6 10 -4 9 -9
-4 -24 -39 -43 15 -27 69 20 30 27 34 41 12 41 -8 0 -15 -7 -15 -15z"/>
<path d="M5595 4036 c21 -32 37 -34 26 -3 -5 12 -16 24 -25 25 -17 4 -17 2 -1
-22z"/>
<path d="M5105 4031 c-3 -5 -1 -12 4 -15 5 -3 11 1 15 9 6 16 -9 21 -19 6z"/>
<path d="M5564 4018 c3 -13 6 -26 6 -30 0 -5 7 -8 16 -8 9 0 13 5 10 13 -3 6
-9 20 -12 30 -9 25 -27 21 -20 -5z"/>
<path d="M5520 4004 c0 -17 6 -37 14 -43 22 -19 24 0 5 39 l-18 35 -1 -31z"/>
<path d="M5463 3973 c-7 -2 -13 -14 -13 -25 0 -15 5 -19 20 -15 22 6 28 -8 8
-16 -9 -4 -8 -6 3 -6 8 -1 20 4 27 11 20 20 13 38 -15 39 -25 0 -26 1 -8 9 21
9 0 12 -22 3z"/>
<path d="M5760 3973 c0 -11 -50 -33 -73 -33 -13 0 -17 -5 -13 -16 3 -9 6 -20
6 -25 0 -17 18 -9 23 10 3 11 17 22 37 26 17 4 29 9 26 13 -3 3 -1 11 5 19 9
9 8 13 0 13 -6 0 -11 -3 -11 -7z"/>
<path d="M4980 3945 c-17 -10 -20 -14 -9 -15 9 0 22 7 29 15 15 18 12 18 -20
0z"/>
<path d="M5402 3927 c-14 -16 -9 -70 6 -75 8 -2 10 6 6 27 -4 19 -2 31 4 31 6
0 13 -10 15 -22 3 -13 4 -8 4 11 -2 37 -17 50 -35 28z"/>
<path d="M5338 3913 c-21 -5 -24 -23 -4 -23 8 0 16 7 20 15 3 8 4 14 3 14 -1
-1 -10 -3 -19 -6z"/>
<path d="M5635 3880 c4 -6 11 -8 16 -5 14 9 11 15 -7 15 -8 0 -12 -5 -9 -10z"/>
<path d="M5305 3863 c3 -8 8 -26 11 -39 8 -29 18 -30 45 -3 l21 21 -21 -7
c-21 -6 -30 8 -11 20 19 11 10 20 -21 21 -22 1 -29 -2 -24 -13z"/>
<path d="M5586 3861 c-3 -5 1 -11 9 -15 8 -3 15 -1 15 4 0 13 -18 22 -24 11z"/>
<path d="M5520 3821 c0 -5 6 -14 14 -20 12 -10 17 -8 26 8 9 19 8 21 -15 21
-14 0 -25 -4 -25 -9z"/>
<path d="M5220 3810 c0 -5 -9 -10 -21 -10 -29 0 -21 -30 13 -50 32 -17 61 -6
66 26 3 16 0 15 -18 -6 -12 -16 -18 -18 -14 -7 3 9 1 17 -5 17 -6 0 -11 -4
-11 -10 0 -5 -4 -10 -10 -10 -18 0 -10 16 15 30 13 7 22 17 19 22 -7 11 -34
10 -34 -2z"/>
<path d="M5490 3781 c0 -11 5 -23 10 -26 6 -4 10 5 10 19 0 14 -4 26 -10 26
-5 0 -10 -9 -10 -19z"/>
<path d="M5445 3750 c-19 -8 -19 -9 3 -9 12 -1 22 4 22 9 0 6 -1 10 -2 9 -2 0
-12 -4 -23 -9z"/>
<path d="M5340 3681 c0 -5 -11 -12 -25 -15 -14 -4 -25 -13 -25 -21 0 -19 19
-19 26 0 4 8 15 15 25 15 10 0 19 7 19 15 0 8 -4 15 -10 15 -5 0 -10 -4 -10
-9z"/>
<path d="M5188 3573 c7 -3 16 -2 19 1 4 3 -2 6 -13 5 -11 0 -14 -3 -6 -6z"/>
<path d="M4764 3300 c-16 -16 -35 -30 -42 -30 -7 0 -11 -4 -8 -9 6 -9 56 -2
56 8 0 4 14 15 30 25 17 9 28 22 25 27 -11 16 -31 10 -61 -21z"/>
<path d="M4608 3173 c7 -3 16 -2 19 1 4 3 -2 6 -13 5 -11 0 -14 -3 -6 -6z"/>
<path d="M4560 3156 c0 -9 7 -16 16 -16 17 0 14 22 -4 28 -7 2 -12 -3 -12 -12z"/>
<path d="M4500 3124 c0 -8 -4 -14 -10 -14 -5 0 -10 -7 -10 -15 0 -21 13 -19
39 9 22 23 22 23 2 29 -14 3 -21 0 -21 -9z"/>
<path d="M4123 3123 c-7 -2 -13 -11 -13 -19 0 -12 4 -12 20 -4 32 17 26 37 -7
23z"/>
<path d="M4430 3075 c-7 -8 -16 -13 -20 -10 -4 2 -13 -7 -20 -20 -7 -13 -26
-27 -41 -30 -30 -7 -41 -35 -14 -35 26 0 65 31 65 51 0 13 6 18 21 16 14 -1
24 6 30 21 10 25 -2 29 -21 7z"/>
<path d="M4290 2981 c0 -5 -9 -11 -21 -14 -12 -3 -18 -10 -14 -17 4 -7 -2 -14
-14 -17 -12 -3 -21 -9 -21 -13 0 -5 -9 -12 -21 -15 -12 -4 -32 -17 -46 -29
-13 -11 -41 -26 -61 -32 -25 -7 -36 -15 -34 -26 1 -10 -10 -21 -28 -30 -16 -7
-30 -16 -30 -20 0 -3 -15 -10 -32 -13 -18 -4 -35 -11 -38 -14 -3 -4 -23 -12
-45 -19 -30 -9 -41 -9 -48 1 -6 9 -7 8 -4 -3 7 -26 117 -18 159 11 46 33 69
47 96 59 12 5 22 15 22 21 0 6 7 9 15 5 8 -3 15 -1 15 5 0 5 12 14 26 19 14 6
22 14 19 20 -3 5 1 10 9 10 8 0 23 11 33 24 10 13 29 26 41 30 12 4 22 12 22
17 0 5 7 9 15 9 8 0 15 6 15 14 0 8 -7 16 -15 20 -8 3 -15 2 -15 -3z"/>
<path d="M3761 2904 c0 -11 3 -14 6 -6 3 7 2 16 -1 19 -3 4 -6 -2 -5 -13z"/>
<path d="M3278 2823 c-21 -8 -38 -19 -38 -24 0 -13 5 -12 47 12 61 34 56 40
-9 12z"/>
<path d="M2350 2605 c-42 -16 -63 -18 -55 -5 3 6 1 10 -4 10 -6 0 -11 -4 -11
-10 0 -5 -7 -10 -15 -10 -48 0 -229 -167 -194 -179 7 -2 15 3 20 10 18 33 52
64 56 52 6 -17 33 -17 33 0 0 8 11 20 25 27 14 7 25 17 25 22 0 4 7 8 15 8 9
0 18 6 21 14 11 30 241 67 284 46 3 -1 8 -2 12 -1 18 2 153 -30 177 -43 34
-18 97 -46 105 -46 3 0 -3 9 -14 20 -11 11 -26 20 -34 20 -8 0 -16 4 -18 10
-1 5 -43 22 -93 37 -108 32 -277 41 -335 18z"/>
<path d="M2046 2385 c-3 -8 -1 -15 4 -15 6 0 10 7 10 15 0 8 -2 15 -4 15 -2 0
-6 -7 -10 -15z"/>
<path d="M2020 2341 c0 -11 -4 -23 -10 -26 -5 -3 -10 -11 -10 -17 0 -6 9 1 20
15 22 27 26 47 10 47 -5 0 -10 -9 -10 -19z"/>
<path d="M1985 2260 c3 -5 8 -10 11 -10 2 0 4 5 4 10 0 6 -5 10 -11 10 -5 0
-7 -4 -4 -10z"/>
<path d="M1947 2166 c-4 -10 -5 -21 -2 -24 9 -9 17 6 13 25 -3 17 -4 17 -11
-1z"/>
<path d="M1901 1914 c0 -11 3 -14 6 -6 3 7 2 16 -1 19 -3 4 -6 -2 -5 -13z"/>
<path d="M2845 1713 c-10 -16 -24 -35 -31 -43 -49 -55 -64 -74 -64 -81 0 -5
-7 -9 -15 -9 -8 0 -17 -11 -21 -24 -3 -14 -17 -32 -30 -41 -13 -8 -24 -22 -24
-29 0 -8 -6 -16 -14 -19 -16 -6 -106 -117 -106 -129 0 -5 5 -8 10 -8 6 0 10 5
10 10 0 6 8 18 18 28 81 87 172 194 172 204 0 4 7 8 15 8 8 0 15 7 15 15 0 8
9 20 20 27 11 7 20 16 20 21 0 4 11 20 25 35 14 15 25 35 25 44 0 24 -5 23
-25 -9z"/>
</g>
</svg>
