<?xml version="1.0" standalone="no"?>
<!DOCTYPE svg PUBLIC "-//W3C//DTD SVG 20010904//EN"
 "http://www.w3.org/TR/2001/REC-SVG-20010904/DTD/svg10.dtd">
<svg version="1.0" xmlns="http://www.w3.org/2000/svg"
 width="1000.000000pt" height="1077.000000pt" viewBox="0 0 1000.000000 1077.000000"
 preserveAspectRatio="xMidYMid meet">

<g transform="translate(0.000000,1077.000000) scale(0.100000,-0.100000)"
fill="#000000" stroke="none">
<path d="M167 10612 c-142 -142 -159 -162 -164 -198 -3 -25 0 -51 8 -67 8 -14
209 -240 448 -502 428 -470 446 -489 1270 -1283 460 -443 1247 -1202 1749
-1686 502 -484 911 -883 910 -887 -2 -5 -66 -79 -142 -165 -77 -86 -148 -173
-158 -192 -22 -44 -23 -113 -3 -152 8 -16 107 -111 219 -213 227 -204 232
-207 364 -207 l69 0 89 -92 c244 -253 606 -800 706 -1065 19 -51 52 -87 377
-413 711 -711 2559 -2506 2622 -2546 66 -41 196 -94 293 -119 l91 -24 -4457
-1 -4458 0 0 -400 0 -400 5000 0 5000 0 0 400 0 400 -397 1 c-365 1 -393 2
-339 15 79 19 208 81 281 136 66 49 262 256 313 331 151 220 181 482 86 767
-19 57 -54 140 -77 183 -40 76 -86 124 -1027 1060 -887 883 -1824 1803 -1922
1887 -21 17 -86 52 -145 76 -280 116 -804 460 -1025 673 l-88 84 0 71 c-1 122
-13 142 -220 362 -111 119 -197 202 -217 210 -85 36 -138 11 -308 -146 -71
-66 -133 -120 -136 -120 -5 0 -306 307 -749 765 -74 77 -271 280 -436 450
-165 171 -725 749 -1244 1285 -930 960 -952 982 -1420 1409 -261 238 -488 442
-505 452 -16 10 -45 19 -64 19 -31 0 -50 -15 -194 -158z m167 -10154 c16 -46
33 -94 39 -108 8 -22 13 -14 46 80 30 86 41 106 58 108 21 3 21 0 -14 -95 -19
-54 -40 -113 -46 -131 -9 -27 -15 -32 -36 -30 -22 3 -29 16 -68 123 -24 65
-43 123 -43 127 0 4 8 8 18 8 13 0 25 -21 46 -82z m1109 71 c14 -6 30 -22 36
-36 15 -32 14 -33 -9 -33 -11 0 -20 4 -20 10 0 5 -11 17 -25 26 -34 22 -78 5
-73 -29 2 -17 15 -26 58 -40 59 -18 80 -38 80 -73 0 -78 -145 -101 -179 -28
-15 33 -14 34 8 34 10 0 21 -7 25 -15 16 -41 106 -38 106 4 0 25 -17 38 -64
46 -48 10 -76 36 -76 74 0 55 72 88 133 60z m627 -61 l0 -72 38 37 c21 20 46
37 57 37 16 0 14 -5 -13 -33 -18 -18 -32 -39 -32 -46 0 -7 16 -35 36 -62 35
-48 35 -49 12 -49 -15 1 -32 14 -50 40 -15 22 -32 40 -38 40 -5 0 -10 -18 -10
-40 0 -33 -3 -40 -20 -40 -19 0 -20 7 -20 130 0 123 1 130 20 130 18 0 20 -7
20 -72z m-1150 27 c0 -18 5 -25 20 -25 11 0 20 -7 20 -15 0 -8 -9 -15 -20 -15
-18 0 -20 -7 -20 -65 0 -58 2 -65 20 -65 11 0 20 -7 20 -16 0 -11 -8 -14 -32
-12 l-33 3 -3 74 c-3 63 -6 74 -22 78 -26 7 -26 33 0 33 15 0 20 7 20 25 0 16
6 25 15 25 9 0 15 -9 15 -25z m650 0 c0 -18 5 -25 20 -25 11 0 20 -7 20 -15 0
-8 -9 -15 -20 -15 -18 0 -20 -7 -20 -65 0 -58 2 -65 20 -65 11 0 20 -7 20 -16
0 -11 -8 -14 -32 -12 l-33 3 -3 74 c-3 63 -6 74 -22 78 -26 7 -26 33 0 33 15
0 20 7 20 25 0 16 6 25 15 25 9 0 15 -9 15 -25z m-945 -50 c14 -13 25 -36 25
-50 0 -24 -2 -25 -65 -25 -69 0 -82 -12 -49 -44 20 -20 48 -20 68 0 9 8 24 14
34 12 30 -6 -31 -58 -68 -58 -46 0 -90 47 -90 95 0 79 92 124 145 70z m189 4
c27 -22 35 -49 13 -49 -7 0 -20 9 -30 20 -34 40 -87 12 -87 -46 0 -58 52 -85
87 -44 20 23 43 26 43 6 0 -22 -49 -56 -82 -56 -19 0 -40 10 -59 29 -81 81 25
211 115 140z m317 -8 c21 -22 29 -39 29 -66 0 -48 -44 -95 -90 -95 -46 0 -90
47 -90 95 0 48 44 95 90 95 22 0 41 -9 61 -29z m99 19 c0 -7 6 -7 19 0 29 15
41 12 41 -10 0 -13 -7 -20 -18 -20 -31 0 -42 -22 -42 -87 0 -56 -2 -63 -20
-63 -19 0 -20 7 -20 95 0 88 1 95 20 95 11 0 20 -5 20 -10z m551 -19 c21 -22
29 -39 29 -66 0 -48 -44 -95 -90 -95 -46 0 -90 47 -90 95 0 48 44 95 90 95 22
0 41 -9 61 -29z m193 8 c27 -22 35 -49 13 -49 -7 0 -20 9 -30 20 -34 40 -87
12 -87 -46 0 -58 52 -85 87 -44 20 23 43 26 43 6 0 -22 -49 -56 -82 -56 -19 0
-40 10 -59 29 -81 81 25 211 115 140z m6676 14 c0 -16 -63 -198 -71 -207 -21
-23 -16 7 18 107 20 59 40 107 44 107 5 0 9 -3 9 -7z m-1856 -71 c11 -34 23
-62 27 -62 4 0 17 29 29 65 13 39 27 65 36 65 10 0 6 -19 -16 -81 -17 -44 -30
-82 -30 -85 0 -2 -8 -4 -18 -4 -13 0 -25 20 -45 78 -31 87 -32 95 -15 90 7 -3
21 -32 32 -66z m760 52 c9 -8 16 -20 16 -25 0 -14 -20 -11 -36 6 -18 17 -24
18 -43 6 -23 -15 -6 -36 39 -50 38 -11 41 -14 38 -44 -2 -24 -10 -34 -29 -41
-36 -12 -76 0 -84 25 -10 30 0 34 24 10 25 -25 44 -27 61 -6 17 20 5 33 -40
45 -25 7 -41 18 -45 31 -15 46 63 80 99 43z m406 -31 l0 -47 28 27 c37 36 48
34 21 -2 l-21 -29 27 -36 c21 -28 24 -36 11 -36 -8 0 -23 11 -32 25 -9 14 -20
25 -25 25 -5 0 -9 -11 -9 -25 0 -16 -6 -25 -15 -25 -12 0 -15 16 -15 85 0 69
3 85 15 85 11 0 15 -12 15 -47z m801 37 c31 -17 24 -59 -18 -102 l-37 -38 42
0 c23 0 42 -4 42 -10 0 -6 -27 -10 -60 -10 -37 0 -60 4 -60 11 0 6 21 30 47
53 33 30 45 47 40 59 -11 29 -38 33 -58 9 -20 -26 -29 -28 -29 -8 0 37 51 57
91 36z m99 -75 c0 -69 -3 -85 -15 -85 -12 0 -15 15 -15 71 0 62 -2 70 -15 59
-12 -10 -15 -10 -15 3 0 9 8 21 18 26 37 22 42 14 42 -74z m120 65 c14 -14 20
-33 20 -65 0 -74 -62 -113 -105 -65 -23 26 -11 39 14 16 19 -18 61 -15 61 4 0
5 3 17 6 27 6 15 4 16 -7 6 -31 -30 -89 -4 -89 39 0 52 63 75 100 38z m140 0
c45 -45 15 -150 -42 -150 -22 0 -58 26 -58 42 0 14 28 9 34 -7 8 -22 33 -18
50 7 19 26 21 47 4 30 -29 -29 -88 -2 -88 40 0 52 63 75 100 38z m140 -34 c0
-34 5 -57 13 -60 10 -5 10 -7 0 -12 -7 -3 -13 -14 -13 -25 0 -10 -7 -19 -15
-19 -8 0 -15 9 -15 20 0 17 -7 20 -40 20 -22 0 -40 3 -40 6 0 14 86 123 98
124 8 0 12 -17 12 -54z m150 44 c0 -5 -18 -10 -40 -10 -32 0 -40 -4 -40 -18 0
-15 6 -18 29 -14 21 3 33 -2 45 -19 21 -31 20 -55 -4 -79 -26 -26 -62 -26 -85
0 -23 26 -11 39 14 16 28 -26 61 -13 61 24 0 34 -28 48 -59 28 -27 -17 -31
-10 -24 40 l6 42 48 0 c27 0 49 -4 49 -10z m139 -16 c59 -75 -24 -189 -89
-124 -14 14 -20 33 -20 65 0 79 66 114 109 59z m145 10 c19 -18 20 -36 4 -52
-8 -8 -8 -15 1 -26 20 -24 9 -59 -21 -70 -62 -22 -112 30 -72 75 9 10 12 19 7
19 -20 0 -24 33 -7 51 21 23 67 25 88 3z m-2494 -9 c0 -8 7 -15 15 -15 8 0 15
-4 15 -10 0 -5 -7 -10 -15 -10 -11 0 -15 -12 -15 -45 0 -33 4 -45 15 -45 8 0
15 -4 15 -10 0 -16 -47 -11 -54 6 -3 9 -6 33 -6 54 0 21 -6 41 -12 44 -10 5
-10 7 0 12 6 3 12 12 12 20 0 8 7 14 15 14 8 0 15 -7 15 -15z m430 0 c0 -8 7
-15 15 -15 8 0 15 -4 15 -10 0 -5 -7 -10 -15 -10 -11 0 -15 -12 -15 -45 0 -33
4 -45 15 -45 8 0 15 -4 15 -10 0 -16 -47 -11 -54 6 -3 9 -6 33 -6 54 0 21 -6
41 -12 44 -10 5 -10 7 0 12 6 3 12 12 12 20 0 8 7 14 15 14 8 0 15 -7 15 -15z
m-638 -32 c10 -9 18 -24 18 -35 0 -15 -8 -18 -45 -18 -47 0 -56 -9 -30 -30 13
-11 20 -11 40 0 31 16 42 8 20 -14 -36 -36 -95 -6 -95 47 0 57 52 86 92 50z
m132 1 c31 -31 16 -46 -16 -17 -25 23 -53 6 -53 -32 0 -38 28 -55 53 -32 32
29 47 14 16 -17 -35 -36 -94 -6 -94 47 0 57 58 88 94 51z m209 4 c28 -22 32
-73 8 -97 -41 -41 -101 -15 -101 42 0 55 52 85 93 55z m107 1 c0 -4 -9 -13
-20 -19 -15 -8 -20 -21 -20 -55 0 -33 -4 -45 -15 -45 -12 0 -15 14 -15 64 l0
64 35 0 c19 0 35 -4 35 -9z m330 -9 c56 -56 -23 -146 -82 -93 -10 9 -18 30
-18 46 0 60 59 88 100 47z m124 4 c31 -31 16 -46 -16 -17 -25 23 -53 6 -53
-32 0 -38 28 -55 53 -32 32 29 47 14 16 -17 -35 -36 -94 -6 -94 47 0 57 58 88
94 51z m310 0 c31 -31 16 -46 -16 -17 -25 23 -53 6 -53 -32 0 -38 28 -55 53
-32 32 29 47 14 16 -17 -35 -36 -94 -6 -94 47 0 57 58 88 94 51z m129 4 c28
-22 32 -73 8 -97 -41 -41 -101 -15 -101 42 0 55 52 85 93 55z m205 -1 c14 -10
17 -117 2 -117 -5 0 -10 20 -10 44 0 51 -20 76 -45 56 -9 -8 -15 -30 -15 -56
0 -62 -18 -55 -22 9 -3 44 -6 52 -23 52 -17 0 -20 -8 -23 -52 -2 -38 -7 -53
-18 -53 -11 0 -14 15 -14 64 l0 64 78 -2 c42 -1 83 -5 90 -9z m-448 -102 c0
-8 -7 -15 -15 -15 -8 0 -15 7 -15 15 0 8 7 15 15 15 8 0 15 -7 15 -15z"/>
<path d="M530 425 c-18 -22 -9 -27 46 -23 46 3 47 4 30 21 -22 21 -59 22 -76
2z"/>
<path d="M1037 422 c-34 -38 -10 -112 36 -112 26 0 47 29 47 65 0 58 -49 85
-83 47z"/>
<path d="M1687 422 c-34 -38 -10 -112 36 -112 26 0 47 29 47 65 0 58 -49 85
-83 47z"/>
<path d="M8909 424 c-17 -21 0 -49 32 -49 18 0 25 6 27 24 6 38 -34 55 -59 25z"/>
<path d="M9049 424 c-17 -21 0 -49 32 -49 18 0 25 6 27 24 6 38 -34 55 -59 25z"/>
<path d="M9206 385 c-21 -31 -20 -35 4 -35 16 0 20 7 20 30 0 36 -3 37 -24 5z"/>
<path d="M9479 424 c-19 -23 -16 -81 4 -101 26 -27 51 -6 55 46 5 62 -28 92
-59 55z"/>
<path d="M9624 425 c-4 -9 -2 -21 4 -27 16 -16 47 -5 47 17 0 26 -42 34 -51
10z"/>
<path d="M9620 355 c-15 -18 2 -45 30 -45 28 0 45 27 30 45 -7 8 -20 15 -30
15 -10 0 -23 -7 -30 -15z"/>
<path d="M6930 385 c-11 -13 -7 -15 25 -15 32 0 36 2 25 15 -7 8 -18 15 -25
15 -7 0 -18 -7 -25 -15z"/>
<path d="M7270 386 c-15 -19 -9 -56 12 -69 34 -22 66 41 36 71 -16 16 -33 15
-48 -2z"/>
<path d="M7700 386 c-15 -19 -9 -56 12 -69 34 -22 66 41 36 71 -16 16 -33 15
-48 -2z"/>
<path d="M8270 386 c-15 -19 -9 -56 12 -69 34 -22 66 41 36 71 -16 16 -33 15
-48 -2z"/>
</g>
</svg>
