%TF.GenerationSoftware,KiCad,Pcbnew,9.0.7*%
%TF.CreationDate,2026-02-27T18:05:52+05:30*%
%TF.ProjectId,kicad test,6b696361-6420-4746-9573-742e6b696361,rev?*%
%TF.SameCoordinates,Original*%
%TF.FileFunction,Copper,L1,Top*%
%TF.FilePolarity,Positive*%
%FSLAX46Y46*%
G04 Gerber Fmt 4.6, Leading zero omitted, Abs format (unit mm)*
G04 Created by KiCad (PCBNEW 9.0.7) date 2026-02-27 18:05:52*
%MOMM*%
%LPD*%
G01*
G04 APERTURE LIST*
%ADD10C,0.400000*%
%TA.AperFunction,NonConductor*%
%ADD11C,0.400000*%
%TD*%
%TA.AperFunction,NonConductor*%
%ADD12C,0.200000*%
%TD*%
%TA.AperFunction,ComponentPad*%
%ADD13C,2.300000*%
%TD*%
%TA.AperFunction,SMDPad,CuDef*%
%ADD14R,2.500000X1.700000*%
%TD*%
%TA.AperFunction,SMDPad,CuDef*%
%ADD15R,1.500000X2.500000*%
%TD*%
%TA.AperFunction,SMDPad,CuDef*%
%ADD16R,2.000000X0.800000*%
%TD*%
%TA.AperFunction,SMDPad,CuDef*%
%ADD17R,1.200000X1.600000*%
%TD*%
%TA.AperFunction,SMDPad,CuDef*%
%ADD18R,1.700000X1.400000*%
%TD*%
%TA.AperFunction,Conductor*%
%ADD19C,0.400000*%
%TD*%
G04 APERTURE END LIST*
D10*
D11*
X163509338Y-84740890D02*
X163509338Y-82740890D01*
X163509338Y-82740890D02*
X164652195Y-84740890D01*
X164652195Y-84740890D02*
X164652195Y-82740890D01*
X166271243Y-83693271D02*
X166556957Y-83788509D01*
X166556957Y-83788509D02*
X166652195Y-83883747D01*
X166652195Y-83883747D02*
X166747433Y-84074223D01*
X166747433Y-84074223D02*
X166747433Y-84359937D01*
X166747433Y-84359937D02*
X166652195Y-84550413D01*
X166652195Y-84550413D02*
X166556957Y-84645652D01*
X166556957Y-84645652D02*
X166366481Y-84740890D01*
X166366481Y-84740890D02*
X165604576Y-84740890D01*
X165604576Y-84740890D02*
X165604576Y-82740890D01*
X165604576Y-82740890D02*
X166271243Y-82740890D01*
X166271243Y-82740890D02*
X166461719Y-82836128D01*
X166461719Y-82836128D02*
X166556957Y-82931366D01*
X166556957Y-82931366D02*
X166652195Y-83121842D01*
X166652195Y-83121842D02*
X166652195Y-83312318D01*
X166652195Y-83312318D02*
X166556957Y-83502794D01*
X166556957Y-83502794D02*
X166461719Y-83598032D01*
X166461719Y-83598032D02*
X166271243Y-83693271D01*
X166271243Y-83693271D02*
X165604576Y-83693271D01*
X168461719Y-82740890D02*
X168080766Y-82740890D01*
X168080766Y-82740890D02*
X167890290Y-82836128D01*
X167890290Y-82836128D02*
X167795052Y-82931366D01*
X167795052Y-82931366D02*
X167604576Y-83217080D01*
X167604576Y-83217080D02*
X167509338Y-83598032D01*
X167509338Y-83598032D02*
X167509338Y-84359937D01*
X167509338Y-84359937D02*
X167604576Y-84550413D01*
X167604576Y-84550413D02*
X167699814Y-84645652D01*
X167699814Y-84645652D02*
X167890290Y-84740890D01*
X167890290Y-84740890D02*
X168271243Y-84740890D01*
X168271243Y-84740890D02*
X168461719Y-84645652D01*
X168461719Y-84645652D02*
X168556957Y-84550413D01*
X168556957Y-84550413D02*
X168652195Y-84359937D01*
X168652195Y-84359937D02*
X168652195Y-83883747D01*
X168652195Y-83883747D02*
X168556957Y-83693271D01*
X168556957Y-83693271D02*
X168461719Y-83598032D01*
X168461719Y-83598032D02*
X168271243Y-83502794D01*
X168271243Y-83502794D02*
X167890290Y-83502794D01*
X167890290Y-83502794D02*
X167699814Y-83598032D01*
X167699814Y-83598032D02*
X167604576Y-83693271D01*
X167604576Y-83693271D02*
X167509338Y-83883747D01*
D12*
X164907901Y-86670968D02*
G75*
G02*
X162130669Y-86670968I-1388616J0D01*
G01*
X162130669Y-86670968D02*
G75*
G02*
X164907901Y-86670968I1388616J0D01*
G01*
D13*
%TO.P,H1,*%
%TO.N,*%
X163519285Y-86670968D03*
%TD*%
D14*
%TO.P,J1,1*%
%TO.N,PWR_GND*%
X180000000Y-73420000D03*
%TO.P,J1,2*%
%TO.N,UPDI*%
X180000000Y-75960000D03*
%TO.P,J1,3*%
%TO.N,PWR_5V*%
X180000000Y-78500000D03*
%TO.P,J1,4*%
%TO.N,RX*%
X180000000Y-81040000D03*
%TO.P,J1,5*%
%TO.N,TX*%
X180000000Y-83580000D03*
%TO.P,J1,6*%
%TO.N,unconnected-(J1-Pad6)*%
X180000000Y-86120000D03*
%TD*%
D15*
%TO.P,SW1,2,2*%
%TO.N,BUTTON*%
X167823925Y-72952057D03*
X167823925Y-79952057D03*
%TO.P,SW1,1,1*%
%TO.N,PWR_5V*%
X163823925Y-72952057D03*
X163823925Y-79952057D03*
%TD*%
D16*
%TO.P,U1,8,GND*%
%TO.N,PWR_GND*%
X176300000Y-75095000D03*
%TO.P,U1,7,PA3/SCK*%
%TO.N,unconnected-(U1-PA3{slash}SCK-Pad7)*%
X176300000Y-76365000D03*
%TO.P,U1,6,~{RESET}/UPDI/PA0*%
%TO.N,UPDI*%
X176300000Y-77635000D03*
%TO.P,U1,5,PA2/SCL*%
%TO.N,LED*%
X176300000Y-78905000D03*
%TO.P,U1,4,PA1/SDA*%
%TO.N,BUTTON*%
X170700000Y-78905000D03*
%TO.P,U1,3,RXD/PA7*%
%TO.N,RX*%
X170700000Y-77635000D03*
%TO.P,U1,2,TXD/PA6/DAC*%
%TO.N,TX*%
X170700000Y-76365000D03*
%TO.P,U1,1,VCC*%
%TO.N,PWR_5V*%
X170700000Y-75095000D03*
%TD*%
D17*
%TO.P,R1,1*%
%TO.N,PWR_GND*%
X173500000Y-84000000D03*
%TO.P,R1,2*%
%TO.N,Net-(D1-K)*%
X170500000Y-84000000D03*
%TD*%
%TO.P,R2,1*%
%TO.N,PWR_GND*%
X174000000Y-81000000D03*
%TO.P,R2,2*%
%TO.N,BUTTON*%
X171000000Y-81000000D03*
%TD*%
D18*
%TO.P,D1,1,K*%
%TO.N,Net-(D1-K)*%
X176500000Y-84200000D03*
%TO.P,D1,2,A*%
%TO.N,LED*%
X176500000Y-80800000D03*
%TD*%
D17*
%TO.P,C1,1*%
%TO.N,PWR_5V*%
X172000000Y-73000000D03*
%TO.P,C1,2*%
%TO.N,PWR_GND*%
X175000000Y-73000000D03*
%TD*%
D19*
%TO.N,TX*%
X177216393Y-85716393D02*
X175830785Y-87102000D01*
X177735607Y-85716393D02*
X177216393Y-85716393D01*
X178350000Y-83580000D02*
X180000000Y-83580000D01*
X177735607Y-85716393D02*
X177951000Y-85501000D01*
X177951000Y-85501000D02*
X177951000Y-83979000D01*
X177951000Y-83979000D02*
X178350000Y-83580000D01*
X171102000Y-87102000D02*
X175830786Y-87102000D01*
X169299000Y-85299000D02*
X171102000Y-87102000D01*
X166500000Y-82000000D02*
X169000000Y-82000000D01*
X169000000Y-82000000D02*
X169299000Y-82299000D01*
X165500000Y-81000000D02*
X166500000Y-82000000D01*
X165500000Y-78798000D02*
X165500000Y-81000000D01*
X169299000Y-82299000D02*
X169299000Y-85299000D01*
X167933000Y-76365000D02*
X165500000Y-78798000D01*
X170700000Y-76365000D02*
X167933000Y-76365000D01*
%TO.N,Net-(D1-K)*%
X175499000Y-86301000D02*
X176500000Y-85300000D01*
X171801000Y-86301000D02*
X175499000Y-86301000D01*
X170500000Y-85000000D02*
X171801000Y-86301000D01*
X170500000Y-84000000D02*
X170500000Y-85000000D01*
X176500000Y-85300000D02*
X176500000Y-84200000D01*
%TO.N,PWR_GND*%
X177905000Y-75095000D02*
X176300000Y-75095000D01*
X179580000Y-73420000D02*
X177905000Y-75095000D01*
X180000000Y-73420000D02*
X179580000Y-73420000D01*
%TO.N,PWR_5V*%
X181650000Y-78500000D02*
X180000000Y-78500000D01*
X181851000Y-71969000D02*
X181851000Y-78299000D01*
X181481000Y-71599000D02*
X181851000Y-71969000D01*
X181851000Y-78299000D02*
X181650000Y-78500000D01*
X173401000Y-71599000D02*
X181481000Y-71599000D01*
X172000000Y-73000000D02*
X173401000Y-71599000D01*
%TO.N,PWR_GND*%
X173500000Y-84000000D02*
X174000000Y-83500000D01*
X174000000Y-83500000D02*
X174000000Y-81000000D01*
%TO.N,RX*%
X178911000Y-81040000D02*
X180000000Y-81040000D01*
X177451000Y-82500000D02*
X178911000Y-81040000D01*
X175448000Y-82500000D02*
X177451000Y-82500000D01*
X175000000Y-82948000D02*
X175448000Y-82500000D01*
X175000000Y-85000000D02*
X175000000Y-82948000D01*
X174500000Y-85500000D02*
X175000000Y-85000000D01*
X172398000Y-85500000D02*
X174500000Y-85500000D01*
X172000000Y-85102000D02*
X172398000Y-85500000D01*
X172000000Y-83200000D02*
X172000000Y-85102000D01*
X172799000Y-82401000D02*
X172000000Y-83200000D01*
X172799000Y-78334000D02*
X172799000Y-82401000D01*
X172100000Y-77635000D02*
X172799000Y-78334000D01*
X170700000Y-77635000D02*
X172100000Y-77635000D01*
%TO.N,PWR_GND*%
X174900000Y-75095000D02*
X176300000Y-75095000D01*
X174000000Y-81000000D02*
X174000000Y-75995000D01*
X174000000Y-75995000D02*
X174900000Y-75095000D01*
%TO.N,LED*%
X176500000Y-81000000D02*
X176300000Y-80800000D01*
X176300000Y-80800000D02*
X176300000Y-78905000D01*
X176500000Y-80800000D02*
X176500000Y-81000000D01*
%TO.N,UPDI*%
X177865000Y-77635000D02*
X176300000Y-77635000D01*
X180000000Y-75960000D02*
X179540000Y-75960000D01*
X179540000Y-75960000D02*
X177865000Y-77635000D01*
%TO.N,RX*%
X170700000Y-77635000D02*
X170700000Y-77700000D01*
%TO.N,PWR_5V*%
X163500000Y-73000000D02*
X163500000Y-80000000D01*
%TO.N,PWR_GND*%
X176300000Y-75095000D02*
X176300000Y-74300000D01*
X176300000Y-74300000D02*
X175000000Y-73000000D01*
%TO.N,PWR_5V*%
X170700000Y-74300000D02*
X172000000Y-73000000D01*
X170700000Y-75095000D02*
X170700000Y-74300000D01*
%TO.N,BUTTON*%
X170700000Y-78905000D02*
X168595000Y-78905000D01*
X168595000Y-78905000D02*
X167500000Y-80000000D01*
%TO.N,PWR_5V*%
X165595000Y-75095000D02*
X163500000Y-73000000D01*
X170700000Y-75095000D02*
X165595000Y-75095000D01*
%TO.N,BUTTON*%
X170700000Y-78905000D02*
X170700000Y-80700000D01*
X170700000Y-80700000D02*
X171000000Y-81000000D01*
%TD*%
M02*
