0
SECTION
2
HEADER
9
$INSUNITS
70
4
9
$ACADVER
1
AC1014
9
$HANDSEED
5
FFFF
0
ENDSEC
0
SECTION
2
TABLES
0
TABLE
2
VPORT
5
8
100
AcDbSymbolTable
0
ENDTAB
0
TABLE
2
LTYPE
5
5
100
AcDbSymbolTable
0
LTYPE
5
14
100
AcDbSymbolTableRecord
100
AcDbLinetypeTableRecord
2
BYBLOCK
70
0
0
LTYPE
5
15
100
AcDbSymbolTableRecord
100
AcDbLinetypeTableRecord
2
BYLAYER
70
0
0
LTYPE
5
16
100
AcDbSymbolTableRecord
100
AcDbLinetypeTableRecord
2
DASHED
70
0
3
Dashed __ __ __ __ __ __ __ __ __ __ __ __ __ _
72
65
73
2
40
0.75
49
0.5
74
0
49
-0.25
74
0
0
ENDTAB
0
TABLE
2
LAYER
5
2
100
AcDbSymbolTable
70
2
0
LAYER
5
50
100
AcDbSymbolTableRecord
100
AcDbLayerTableRecord
2
0
70
0
62
7
6
CONTINUOUS
0
ENDTAB
0
TABLE
2
STYLE
5
3
100
AcDbSymbolTable
70
1
0
STYLE
5
11
100
AcDbSymbolTableRecord
100
AcDbTextStyleTableRecord
2
STANDARD
70
0
0
ENDTAB
0
TABLE
2
VIEW
5
6
100
AcDbSymbolTable
70
0
0
ENDTAB
0
TABLE
2
UCS
5
7
100
AcDbSymbolTable
70
0
0
ENDTAB
0
TABLE
2
APPID
5
9
100
AcDbSymbolTable
70
2
0
APPID
5
12
100
AcDbSymbolTableRecord
100
AcDbRegAppTableRecord
2
ACAD
70
0
0
ENDTAB
0
TABLE
2
DIMSTYLE
5
A
100
AcDbSymbolTable
70
1
0
ENDTAB
0
TABLE
2
BLOCK_RECORD
5
1
100
AcDbSymbolTable
70
1
0
BLOCK_RECORD
5
1F
100
AcDbSymbolTableRecord
100
AcDbBlockTableRecord
2
*MODEL_SPACE
0
BLOCK_RECORD
5
1B
100
AcDbSymbolTableRecord
100
AcDbBlockTableRecord
2
*PAPER_SPACE
0
ENDTAB
0
ENDSEC
0
SECTION
2
BLOCKS
0
BLOCK
5
20
100
AcDbEntity
100
AcDbBlockBegin
2
*MODEL_SPACE
0
ENDBLK
5
21
100
AcDbEntity
100
AcDbBlockEnd
0
BLOCK
5
1C
100
AcDbEntity
100
AcDbBlockBegin
2
*PAPER_SPACE
0
ENDBLK
5
1D
100
AcDbEntity
100
AcDbBlockEnd
0
ENDSEC
0
SECTION
2
ENTITIES
0
LWPOLYLINE
5
100
100
AcDbEntity
8
0
100
AcDbPolyline
90
16
70
1
43
0.0
10
816.37514744404598
20
-2349.4654541229243
42
0.99999999999999989
10
820.65370915565154
20
-2345.1868924113232
10
820.6537091556504
20
-2341.9654541229238
10
1325.6537091556504
20
-2341.9654541229238
10
1325.6537091556504
20
-2345.186892411321
42
0.99999999999999989
10
1329.9322708672546
20
-2349.4654541229238
10
1342.8268341556507
20
-2349.4654541229238
10
1342.8268341556507
20
-2419.4654541229238
10
1329.9322708672537
20
-2419.4654541229238
42
0.99999999999999989
10
1325.6537091556504
20
-2423.7440158345275
10
1325.6537091556504
20
-2426.9654541229243
10
820.6537091556504
20
-2426.9654541229243
10
820.6537091556504
20
-2423.7440158345285
42
0.99999999999999989
10
816.37514744404768
20
-2419.4654541229243
10
803.48058415566175
20
-2419.4654541229243
10
803.48058415566175
20
-2349.4654541229243
0
CIRCLE
5
101
100
AcDbEntity
8
0
100
AcDbCircle
10
1290.0576228798741
20
-2384.4654541229243
30
0
40
3.0000000000000075
210
-0
220
0
230
1
0
CIRCLE
5
102
100
AcDbEntity
8
0
100
AcDbCircle
10
856.24979543142911
20
-2384.4654541229247
30
0
40
2.999999999999972
210
-0
220
0
230
1
0
LWPOLYLINE
5
103
100
AcDbEntity
8
0
100
AcDbPolyline
90
16
70
1
43
0.0
10
1369.7213998854522
20
-2343.4654541229243
42
0.99999999999999989
10
1373.9999615970582
20
-2339.1868924113228
10
1373.9999615970567
20
-2335.9654541229238
10
1878.9999615970567
20
-2335.9654541229238
10
1878.9999615970567
20
-2339.186892411321
42
0.99999999999999989
10
1883.2785233086609
20
-2343.4654541229238
10
1896.1730865970569
20
-2343.4654541229238
10
1896.1730865970569
20
-2413.4654541229238
10
1883.2785233086599
20
-2413.4654541229238
42
0.99999999999999989
10
1878.9999615970567
20
-2417.7440158345275
10
1878.9999615970567
20
-2420.9654541229243
10
1373.9999615970567
20
-2420.9654541229243
10
1373.9999615970567
20
-2417.7440158345285
42
0.99999999999999989
10
1369.7213998854543
20
-2413.4654541229243
10
1356.826836597068
20
-2413.4654541229238
10
1356.8268365970678
20
-2343.4654541229243
0
CIRCLE
5
104
100
AcDbEntity
8
0
100
AcDbCircle
10
1843.4038753212803
20
-2378.4654541229243
30
0
40
3.0000000000000075
210
-0
220
0
230
1
0
CIRCLE
5
105
100
AcDbEntity
8
0
100
AcDbCircle
10
1409.5960478728352
20
-2378.4654541229247
30
0
40
2.999999999999972
210
-0
220
0
230
1
0
LWPOLYLINE
5
106
100
AcDbEntity
8
0
100
AcDbPolyline
90
8
70
1
43
0.0
10
1377.223125
20
-2302.6367703196461
42
0.99999999999999989
10
1381.5016867116033
20
-2306.9153320312494
10
1390.0176882883964
20
-2306.9153320312498
42
0.99999999999999989
10
1394.2962499999999
20
-2302.6367703196461
10
1394.2962499999999
20
-2281.293893742853
42
0.99999999999999989
10
1390.0176882883961
20
-2277.0153320312493
10
1381.5016867116033
20
-2277.0153320312493
42
0.99999999999999989
10
1377.223125
20
-2281.2938937428535
0
LWPOLYLINE
5
107
100
AcDbEntity
8
0
100
AcDbPolyline
90
8
70
1
43
0.0
10
725.70375000000013
20
-2302.6367703196461
42
0.99999999999999989
10
729.98231171160364
20
-2306.9153320312498
10
738.49831328839628
20
-2306.9153320312494
42
0.99999999999999989
10
742.77687500000002
20
-2302.6367703196465
10
742.77687500000002
20
-2281.293893742853
42
0.99999999999999989
10
738.49831328839639
20
-2277.0153320312497
10
729.98231171160387
20
-2277.0153320312497
42
0.99999999999999989
10
725.70375000000013
20
-2281.293893742853
0
LWPOLYLINE
5
108
100
AcDbEntity
8
0
100
AcDbPolyline
90
20
70
1
43
0.0
10
1364.2785617116035
20
-2321.9653320312514
42
0.99999999999999989
10
1359.9999999999998
20
-2326.2438937428551
10
1360
20
-2327.9653320312514
10
760
20
-2327.9653320312514
10
759.99999999999989
20
-2326.2438937428551
42
0.99999999999999989
10
755.72143828839614
20
-2321.9653320312514
10
720
20
-2321.9653320312518
42
-0.41421356237310752
10
710
20
-2311.9653320312514
10
710.00000000000011
20
-2271.9653320312518
42
-0.41421356237310752
10
720
20
-2261.9653320312514
10
755.72143828839626
20
-2261.9653320312509
42
0.99999999999999989
10
760
20
-2257.6867703196481
10
760
20
-2255.9653320312514
10
1360
20
-2255.9653320312514
10
1360
20
-2257.6867703196476
42
0.99999999999999989
10
1364.2785617116035
20
-2261.9653320312514
10
1400
20
-2261.9653320312514
42
-0.41421356237311169
10
1410
20
-2271.9653320312514
10
1410
20
-2311.9653320312514
42
-0.41421356237311169
10
1400
20
-2321.9653320312514
0
LWPOLYLINE
5
109
100
AcDbEntity
8
0
100
AcDbPolyline
90
8
70
1
43
0.0
10
1377.223125
20
-2216.6367703196465
42
0.99999999999999989
10
1381.5016867116033
20
-2220.9153320312498
10
1390.0176882883964
20
-2220.9153320312503
42
0.99999999999999989
10
1394.2962499999999
20
-2216.6367703196465
10
1394.2962499999999
20
-2195.2938937428535
42
0.99999999999999989
10
1390.0176882883961
20
-2191.0153320312497
10
1381.5016867116033
20
-2191.0153320312497
42
0.99999999999999989
10
1377.223125
20
-2195.2938937428535
0
LWPOLYLINE
5
110
100
AcDbEntity
8
0
100
AcDbPolyline
90
8
70
1
43
0.0
10
725.70375000000013
20
-2216.6367703196465
42
0.99999999999999989
10
729.98231171160364
20
-2220.9153320312503
10
738.49831328839628
20
-2220.9153320312498
42
0.99999999999999989
10
742.77687500000002
20
-2216.636770319647
10
742.77687500000002
20
-2195.2938937428535
42
0.99999999999999989
10
738.49831328839639
20
-2191.0153320312502
10
729.98231171160387
20
-2191.0153320312502
42
0.99999999999999989
10
725.70375000000013
20
-2195.2938937428535
0
LWPOLYLINE
5
111
100
AcDbEntity
8
0
100
AcDbPolyline
90
20
70
1
43
0.0
10
1364.2785617116035
20
-2235.9653320312518
42
0.99999999999999989
10
1359.9999999999998
20
-2240.2438937428556
10
1360
20
-2241.9653320312518
10
760
20
-2241.9653320312518
10
759.99999999999989
20
-2240.2438937428551
42
0.99999999999999989
10
755.72143828839614
20
-2235.9653320312518
10
720
20
-2235.9653320312518
42
-0.41421356237310752
10
710
20
-2225.9653320312518
10
710.00000000000011
20
-2185.9653320312518
42
-0.41421356237310752
10
720
20
-2175.9653320312518
10
755.72143828839626
20
-2175.9653320312514
42
0.99999999999999989
10
760
20
-2171.6867703196485
10
760
20
-2169.9653320312518
10
1360
20
-2169.9653320312518
10
1360
20
-2171.6867703196481
42
0.99999999999999989
10
1364.2785617116035
20
-2175.9653320312518
10
1400
20
-2175.9653320312518
42
-0.41421356237311169
10
1410
20
-2185.9653320312518
10
1410
20
-2225.9653320312518
42
-0.41421356237311169
10
1400
20
-2235.9653320312518
0
LWPOLYLINE
5
112
100
AcDbEntity
8
0
100
AcDbPolyline
90
8
70
1
43
0.0
10
1712.5080705049982
20
-2208.3575714560457
42
0.9999999925494194
10
1709.0798127171854
20
-2213.3434745016634
10
1710.629972603344
20
-2221.7172005052585
42
0.99999999999999989
10
1715.6158756489619
20
-2225.145458293071
10
1775.9339058999449
20
-2213.9792712376307
42
0.99999999999999989
10
1779.3621636877574
20
-2208.9933681920129
10
1777.8120038015995
20
-2200.6196421884174
42
0.99999999999999989
10
1772.8261007559811
20
-2197.1913844006049
0
LWPOLYLINE
5
113
100
AcDbEntity
8
0
100
AcDbPolyline
90
8
70
1
43
0.0
10
1598.9411391589651
20
-2246.7445046622997
42
0.99999999999999989
10
1602.3693969467768
20
-2241.7586016166811
10
1600.8192370606193
20
-2233.3848756130865
42
0.9999999925494194
10
1595.8333340150014
20
-2229.956617825274
10
1535.515303764018
20
-2241.1228048807147
42
1.0000000074505806
10
1532.0870459762054
20
-2246.1087079263325
10
1533.6372058623638
20
-2254.4824339299275
42
0.9999999925494194
10
1538.6231089079818
20
-2257.9106917177396
0
CIRCLE
5
114
100
AcDbEntity
8
0
100
AcDbCircle
10
1667.4162597656275
20
-2234.0682617187499
30
0
40
20.549999999999997
210
0
220
0
230
1
0
CIRCLE
5
115
100
AcDbEntity
8
0
100
AcDbCircle
10
1465.5855080919969
20
-2271.4315495673472
30
0
40
6.4999999999999858
210
0
220
0
230
1
0
LWPOLYLINE
5
116
100
AcDbEntity
8
0
100
AcDbPolyline
90
4
70
1
43
0.0
10
1458.3043451087372
20
-2232.0998236249075
42
0.99999999999999989
10
1472.8666710752566
20
-2310.7632755097875
10
1787.7761348334022
20
-2252.4666440843184
42
0.99999999999999989
10
1773.2138088668828
20
-2173.8031921994384
0
ELLIPSE
5
117
100
AcDbEntity
8
0
100
AcDbEllipse
10
1316.8776747365757
20
-1940.0769777042119
30
0
11
2.5582803565184935e-15
21
-3.0293566995143344
31
0.0
40
0.99869388127354941
41
5.4977871437824595
42
7.0685834705771553
0
LINE
5
118
100
AcDbEntity
8
0
100
AcDbLine
10
1314.7383938807748
20
-1942.2190563690722
30
0
11
1263.395517278012
21
-1942.2190564603115
31
0
0
ELLIPSE
5
119
100
AcDbEntity
8
0
100
AcDbEllipse
10
1261.2562364222083
20
-1940.076977795454
30
0
11
0
21
-3.0293566995143344
31
0.0
40
0.99869388127354941
41
5.4977871437815748
42
7.0685834705778383
0
LINE
5
120
100
AcDbEntity
8
0
100
AcDbLine
10
1259.1169555664053
20
-1942.2190564603122
30
0
11
1259.1169555664212
21
-1929.4077600978424
31
0
0
ELLIPSE
5
121
100
AcDbEntity
8
0
100
AcDbEllipse
10
1261.2562364222272
20
-1927.2656814329871
30
0
11
0
21
-3.0293566995143344
31
0.0
40
0.99869388127354941
41
3.9269908169868395
42
5.4977871437802088
0
LINE
5
122
100
AcDbEntity
8
0
100
AcDbLine
10
1259.1169555664264
20
-1925.1236027681266
30
0
11
1263.3955172780284
21
-1925.1236027681271
31
0
0
LINE
5
123
100
AcDbEntity
8
0
100
AcDbLine
10
1263.3955172780284
20
-1925.1236027681271
30
0
11
1314.7383938807727
21
-1925.1236027681084
31
0
0
LINE
5
124
100
AcDbEntity
8
0
100
AcDbLine
10
1314.7383938807727
20
-1925.1236027681084
30
0
11
1319.0169555923751
21
-1925.1236027681093
31
0
0
ELLIPSE
5
125
100
AcDbEntity
8
0
100
AcDbEllipse
10
1316.8776747365737
20
-1927.2656814329689
30
0
11
0
21
3.0293566995143344
31
0.0
40
0.99869388127354941
41
3.9269908169872814
42
5.4977871437822188
0
LINE
5
126
100
AcDbEntity
8
0
100
AcDbLine
10
1319.0169555923758
20
-1929.4077600978285
30
0
11
1319.0169555923776
21
-1942.2190563690715
31
0
0
LWPOLYLINE
5
127
100
AcDbEntity
8
0
100
AcDbPolyline
90
12
70
1
43
0.0
10
1530.3133938548024
20
-1957.9155761718775
42
0.99999999999999989
10
1534.5919555664068
20
-1953.6370144602747
10
1534.5919555664063
20
-1927.1798445796719
42
0.55815037548345547
10
1534.5919555664063
20
-1894.7513077640833
10
1534.5919555664059
20
-1887.1941378834811
42
0.99999999999999989
10
1530.3133938548026
20
-1882.9155761718778
10
1518.8705172780092
20
-1882.9155761718775
42
0.99999999999999989
10
1514.5919555664063
20
-1887.1941378834817
10
1514.5919555664063
20
-1894.7513077640833
42
0.55815037548345547
10
1514.5919555664063
20
-1927.1798445796719
10
1514.5919555664063
20
-1953.6370144602745
42
0.99999999999999989
10
1518.8705172780101
20
-1957.9155761718778
0
LWPOLYLINE
5
128
100
AcDbEntity
8
0
100
AcDbPolyline
90
12
70
1
43
0.0
10
1059.2633938548026
20
-1957.9155761718775
42
0.99999999999999989
10
1063.5419555664064
20
-1953.6370144602747
10
1063.5419555664062
20
-1927.1798445796719
42
0.55815037548345547
10
1063.5419555664062
20
-1894.7513077640833
10
1063.5419555664064
20
-1887.1941378834804
42
0.99999999999999989
10
1059.2633938548022
20
-1882.9155761718775
10
1047.8205172780099
20
-1882.9155761718775
42
0.99999999999999989
10
1043.5419555664062
20
-1887.1941378834811
10
1043.5419555664062
20
-1894.7513077640833
42
0.55815037548345547
10
1043.5419555664062
20
-1927.1798445796719
10
1043.5419555664062
20
-1953.6370144602743
42
0.99999999999999989
10
1047.8205172780097
20
-1957.9155761718775
0
LWPOLYLINE
5
129
100
AcDbEntity
8
0
100
AcDbPolyline
90
8
70
1
43
0.0
10
1069.2133938548025
20
-1848.0387011718776
42
0.99999999999999989
10
1073.4919555664067
20
-1843.7601394602748
10
1073.4919555664062
20
-1835.2441378834815
42
0.99999999999999989
10
1069.2133938548027
20
-1830.9655761718777
10
1037.8705172780096
20
-1830.9655761718775
42
0.99999999999999989
10
1033.5919555664063
20
-1835.244137883481
10
1033.5919555664063
20
-1843.7601394602743
42
0.99999999999999989
10
1037.8705172780101
20
-1848.0387011718778
0
LWPOLYLINE
5
130
100
AcDbEntity
8
0
100
AcDbPolyline
90
8
70
1
43
0.0
10
1073.4919555664062
20
-1978.1710128834811
42
0.99999999999999989
10
1069.2133938548029
20
-1973.8924511718774
10
1037.8705172780096
20
-1973.8924511718776
42
0.99999999999999989
10
1033.5919555664063
20
-1978.1710128834811
10
1033.5919555664061
20
-1986.6870144602742
42
0.99999999999999989
10
1037.8705172780099
20
-1990.9655761718775
10
1069.2133938548027
20
-1990.9655761718775
42
0.99999999999999989
10
1073.4919555664062
20
-1986.687014460274
0
LWPOLYLINE
5
131
100
AcDbEntity
8
0
100
AcDbPolyline
90
8
70
1
43
0.0
10
1508.9205172780089
20
-1830.9655761718775
42
0.99999999999999989
10
1504.6419555664061
20
-1835.2441378834815
10
1504.6419555664056
20
-1843.7601394602748
42
0.99999999999999989
10
1508.92051727801
20
-1848.0387011718778
10
1540.2633938548024
20
-1848.0387011718778
42
0.99999999999999989
10
1544.5419555664062
20
-1843.7601394602746
10
1544.5419555664059
20
-1835.244137883481
42
0.99999999999999989
10
1540.2633938548026
20
-1830.9655761718777
0
LWPOLYLINE
5
132
100
AcDbEntity
8
0
100
AcDbPolyline
90
8
70
1
43
0.0
10
1544.5419555664059
20
-1978.1710128834814
42
0.99999999999999989
10
1540.2633938548033
20
-1973.8924511718769
10
1508.92051727801
20
-1973.8924511718778
42
0.99999999999999989
10
1504.6419555664061
20
-1978.1710128834811
10
1504.6419555664061
20
-1986.6870144602738
42
0.99999999999999989
10
1508.9205172780094
20
-1990.9655761718775
10
1540.2633938548026
20
-1990.9655761718777
42
0.99999999999999989
10
1544.5419555664062
20
-1986.6870144602742
0
LWPOLYLINE
5
133
100
AcDbEntity
8
0
100
AcDbPolyline
90
8
70
1
43
0.0
10
863.39551727800836
20
-2097.4290136718737
42
0.99999999999999989
10
859.11695556640427
20
-2101.7075753834765
10
859.11695556640484
20
-2110.2235769602698
42
0.99999999999999989
10
863.39551727800813
20
-2114.5021386718736
10
914.73839385480119
20
-2114.502138671874
42
0.99999999999999989
10
919.0169555664047
20
-2110.2235769602703
10
919.0169555664047
20
-2101.707575383477
42
0.99999999999999989
10
914.73839385480107
20
-2097.4290136718737
0
LWPOLYLINE
5
134
100
AcDbEntity
8
0
100
AcDbPolyline
90
8
70
1
43
0.0
10
1663.3955172780084
20
-2097.4290136718737
42
0.99999999999999989
10
1659.1169555664051
20
-2101.7075753834779
10
1659.1169555664046
20
-2110.2235769602703
42
0.99999999999999989
10
1663.3955172780084
20
-2114.502138671874
10
1714.738393854801
20
-2114.5021386718736
42
0.99999999999999989
10
1719.0169555664047
20
-2110.2235769602707
10
1719.0169555664047
20
-2101.7075753834774
42
0.99999999999999989
10
1714.7383938548012
20
-2097.4290136718737
0
LWPOLYLINE
5
135
100
AcDbEntity
8
0
100
AcDbPolyline
90
8
70
1
43
0.0
10
1063.3955172780084
20
-2097.4290136718737
42
0.99999999999999989
10
1059.1169555664044
20
-2101.7075753834779
10
1059.1169555664048
20
-2110.2235769602703
42
0.99999999999999989
10
1063.3955172780084
20
-2114.502138671874
10
1114.7383938548007
20
-2114.502138671874
42
0.99999999999999989
10
1119.0169555664047
20
-2110.2235769602707
10
1119.0169555664049
20
-2101.707575383477
42
0.99999999999999989
10
1114.738393854801
20
-2097.4290136718737
0
LWPOLYLINE
5
136
100
AcDbEntity
8
0
100
AcDbPolyline
90
8
70
1
43
0.0
10
1463.3955172780084
20
-2097.4290136718737
42
0.99999999999999989
10
1459.1169555664051
20
-2101.7075753834779
10
1459.1169555664046
20
-2110.2235769602703
42
0.99999999999999989
10
1463.3955172780084
20
-2114.502138671874
10
1514.7383938548012
20
-2114.502138671874
42
0.99999999999999989
10
1519.0169555664047
20
-2110.2235769602703
10
1519.0169555664047
20
-2101.7075753834774
42
0.99999999999999989
10
1514.7383938548012
20
-2097.4290136718737
0
LWPOLYLINE
5
137
100
AcDbEntity
8
0
100
AcDbPolyline
90
8
70
1
43
0.0
10
1319.0169555664047
20
-2101.7075753834774
42
0.99999999999999989
10
1314.738393854801
20
-2097.4290136718741
10
1263.3955172780084
20
-2097.4290136718737
42
0.99999999999999989
10
1259.1169555664046
20
-2101.7075753834774
10
1259.1169555664048
20
-2110.2235769602698
42
0.99999999999999989
10
1263.3955172780084
20
-2114.502138671874
10
1314.738393854801
20
-2114.5021386718736
42
0.99999999999999989
10
1319.0169555664047
20
-2110.2235769602703
0
LWPOLYLINE
5
138
100
AcDbEntity
8
0
100
AcDbPolyline
90
8
70
1
43
0.0
10
1596.7881553945435
20
-1919.0484799126971
42
0.9999999925494194
10
1595.2065044878204
20
-1924.8889046446202
10
1599.4448124818643
20
-1932.2753129872153
42
0.99999999999999989
10
1605.2852372137875
20
-1933.8569638939389
10
1684.512064440087
20
-1888.3967510812254
42
0.99999999999999989
10
1686.0937153468112
20
-1882.556326349302
10
1681.8554073527664
20
-1875.1699180067067
42
1.0000000074505806
10
1676.0149826208433
20
-1873.5882670999833
0
LWPOLYLINE
5
139
100
AcDbEntity
8
0
100
AcDbPolyline
90
11
70
1
43
0.0
10
1569.6605866188456
20
-1560.4284410961816
42
0.25573679540937155
10
1530.186829834799
20
-1533.1053352503959
10
1165.8417168886153
20
-1494.8111207814018
42
0.28384217548927726
10
1118.4998626775657
20
-1517.5874387850774
10
1008.8508386817091
20
-1688.9400978387787
42
0.091357584402136843
10
905.5759796866289
20
-1942.3175908631247
42
-0.26004284771156827
10
825.8559466444276
20
-2034.3857220259699
10
816.07779864171584
20
-2037.936620917752
42
0.16477082161692935
10
753.45625218810426
20
-2088.0548360169628
10
709.9999882588196
20
-2155.965576171875
10
1868.1339228739926
20
-2155.9655761718755
0
LWPOLYLINE
5
140
100
AcDbEntity
8
0
100
AcDbPolyline
90
8
70
1
43
0.0
10
1206.6031181252606
20
-1579.5359790518178
10
1451.0697789334308
20
-1605.230460484014
42
-0.25573679540937244
10
1530.0172925015247
20
-1659.8766721755842
10
1603.3682288608359
20
-1806.2321458089195
42
-0.64032663873146822
10
1594.2929116322107
20
-1817.5819934152603
10
1140.4727528339076
20
-1705.1820519131202
42
-0.51340346062651276
10
1122.415825844193
20
-1659.892050684077
10
1159.2612639142105
20
-1602.3122970554937
42
-0.28384217548927881
0
CIRCLE
5
141
100
AcDbEntity
8
0
100
AcDbCircle
10
1184.6954278875726
20
-1802.8047389982451
30
0
40
6.5000000000000036
210
0
220
0
230
1
0
CIRCLE
5
142
100
AcDbEntity
8
0
100
AcDbCircle
10
1139.792720664705
20
-1764.4705062208445
30
0
40
6.5000000000000036
210
0
220
0
230
1
0
CIRCLE
5
143
100
AcDbEntity
8
0
100
AcDbCircle
10
1213.7790907294052
20
-1854.1847650227332
30
0
40
6.5000000000000036
210
0
220
0
230
1
0
CIRCLE
5
144
100
AcDbEntity
8
0
100
AcDbCircle
10
1084.4868982452601
20
-1743.8057409165076
30
0
40
6.4999999999999858
210
0
220
0
230
1
0
CIRCLE
5
145
100
AcDbEntity
8
0
100
AcDbCircle
10
1223.5357902223286
20
-1912.413394867332
30
0
40
6.5000000000000036
210
0
220
0
230
1
0
LWPOLYLINE
5
146
100
AcDbEntity
8
0
100
AcDbPolyline
90
8
70
1
43
0.0
10
1880.3459988352713
20
-1404.08302734375
42
0.99999999999999989
10
1884.6245605468753
20
-1399.8044656321467
10
1884.6245605468748
20
-1391.2884640553536
42
0.99999999999999989
10
1880.3459988352713
20
-1387.0099023437501
10
1859.003122258478
20
-1387.0099023437501
42
0.99999999999999989
10
1854.7245605468745
20
-1391.2884640553539
10
1854.7245605468745
20
-1399.8044656321467
42
0.99999999999999989
10
1859.003122258478
20
-1404.0830273437505
0
LWPOLYLINE
5
147
100
AcDbEntity
8
0
100
AcDbPolyline
90
8
70
1
43
0.0
10
1880.3459988352713
20
-2055.6024023437499
42
0.99999999999999989
10
1884.6245605468753
20
-2051.3238406321466
10
1884.6245605468746
20
-2042.807839055354
42
0.99999999999999989
10
1880.3459988352713
20
-2038.5292773437502
10
1859.003122258478
20
-2038.52927734375
42
0.99999999999999989
10
1854.7245605468747
20
-2042.8078390553535
10
1854.7245605468747
20
-2051.3238406321466
42
0.99999999999999989
10
1859.0031222584785
20
-2055.6024023437499
0
LWPOLYLINE
5
148
100
AcDbEntity
8
0
100
AcDbPolyline
90
20
70
1
43
0.0
10
1899.6745605468766
20
-1417.0275906321465
42
0.99999999999999989
10
1903.9531222584799
20
-1421.3061523437502
10
1905.6745605468766
20
-1421.30615234375
10
1905.6745605468766
20
-2021.30615234375
10
1903.9531222584801
20
-2021.3061523437502
42
0.99999999999999989
10
1899.6745605468766
20
-2025.5847140553537
10
1899.6745605468766
20
-2061.30615234375
42
-0.41421356237311169
10
1889.6745605468766
20
-2071.30615234375
10
1849.6745605468766
20
-2071.30615234375
42
-0.41421356237310336
10
1839.6745605468766
20
-2061.3061523437505
10
1839.6745605468764
20
-2025.5847140553537
42
0.99999999999999989
10
1835.3959988352733
20
-2021.3061523437502
10
1833.6745605468764
20
-2021.30615234375
10
1833.6745605468764
20
-1421.30615234375
10
1835.3959988352731
20
-1421.30615234375
42
0.99999999999999989
10
1839.6745605468766
20
-1417.0275906321465
10
1839.6745605468766
20
-1381.30615234375
42
-0.41421356237311169
10
1849.6745605468766
20
-1371.30615234375
10
1889.6745605468766
20
-1371.30615234375
42
-0.41421356237311169
10
1899.6745605468766
20
-1381.30615234375
0
LWPOLYLINE
5
149
100
AcDbEntity
8
0
100
AcDbPolyline
90
8
70
1
43
0.0
10
1783.3792855777267
20
-1314.3551138025641
42
0.99999999999999989
10
1778.7441038613019
20
-1318.2444930712545
10
1776.0123921734032
20
-1349.4681005400003
42
0.99999999999999989
10
1779.9017714420938
20
-1354.103282256425
10
1788.3853670618371
20
-1354.8455006990901
42
0.9999999925494194
10
1793.0205487782607
20
-1350.9561214303985
10
1795.752260466159
20
-1319.7325139616541
42
1.0000000074505806
10
1791.8628811974677
20
-1315.0973322452298
0
LWPOLYLINE
5
150
100
AcDbEntity
8
0
100
AcDbPolyline
90
8
70
1
43
0.0
10
1834.9723447026049
20
-871.44489982036828
42
0.99999999999999989
10
1831.0829654339148
20
-866.80971810394271
10
1822.5993698141724
20
-866.06749966127825
42
0.99999999999999989
10
1817.9641880977476
20
-869.95687892996921
10
1815.2324764098489
20
-901.18048639871449
42
0.99999999999999989
10
1819.1218556785395
20
-905.81566811513937
10
1827.6054512982823
20
-906.55788655780441
42
0.99999999999999989
10
1832.2406330147066
20
-902.66850728911254
0
LWPOLYLINE
5
151
100
AcDbEntity
8
0
100
AcDbPolyline
90
8
70
1
43
0.0
10
1806.9113361195937
20
-1045.3825453177926
42
0.99999999999999989
10
1802.2761544031689
20
-1049.2719245864832
10
1799.5444427152706
20
-1080.495532055229
42
0.99999999999999989
10
1803.4338219839615
20
-1085.1307137716537
10
1811.9174176037045
20
-1085.872932214319
42
0.99999999999999989
10
1816.5525993201279
20
-1081.9835529456273
10
1819.2843110080266
20
-1050.7599454768829
42
1.0000000074505806
10
1815.3949317393349
20
-1046.1247637604586
0
LWPOLYLINE
5
152
100
AcDbEntity
8
0
100
AcDbPolyline
90
8
70
1
43
0.0
10
1799.0673192723048
20
-1135.0400681460496
42
0.99999999999999989
10
1794.4321375558807
20
-1138.9294474147412
10
1791.7004258679817
20
-1170.153054883486
42
0.99999999999999989
10
1795.5898051366721
20
-1174.7882365999108
10
1804.0734007564151
20
-1175.530455042576
42
1.0000000074505806
10
1808.708582472839
20
-1171.6410757738843
10
1811.4402941607375
20
-1140.4174683051401
42
0.99999999999999989
10
1807.550914892046
20
-1135.782286588716
0
LWPOLYLINE
5
153
100
AcDbEntity
8
0
100
AcDbPolyline
90
8
70
1
43
0.0
10
1814.755352966883
20
-955.72502248953538
42
0.99999999999999989
10
1810.120171250458
20
-959.61440175822599
10
1807.3884595625598
20
-990.83800922697162
42
0.99999999999999989
10
1811.2778388312506
20
-995.47319094339639
10
1819.7614344509934
20
-996.21540938606154
42
0.9999999925494194
10
1824.3966161674175
20
-992.32603011736978
10
1827.1283278553155
20
-961.10242264862563
42
0.99999999999999989
10
1823.2389485866245
20
-956.46724093220143
0
LWPOLYLINE
5
154
100
AcDbEntity
8
0
100
AcDbPolyline
90
8
70
1
43
0.0
10
1791.2233024250156
20
-1224.6975909743069
42
0.99999999999999989
10
1786.5881207085913
20
-1228.5869702429982
10
1783.8564090206921
20
-1259.8105777117435
42
0.9999999925494194
10
1787.7457882893827
20
-1264.445759428168
10
1796.2293839091262
20
-1265.187977870833
42
0.99999999999999989
10
1800.8645656255499
20
-1261.2985986021413
10
1803.5962773134486
20
-1230.0749911333974
42
0.99999999999999989
10
1799.7068980447575
20
-1225.4398094169728
0
LWPOLYLINE
5
155
100
AcDbEntity
8
0
100
AcDbPolyline
90
8
70
1
43
0.0
10
1775.5352687304371
20
-1404.0126366308207
42
0.99999999999999989
10
1770.900087014013
20
-1407.9020158995118
10
1768.1683753261136
20
-1439.1256233682575
42
0.99999999999999989
10
1772.0577545948049
20
-1443.760805084682
10
1780.5413502145475
20
-1444.5030235273471
42
0.99999999999999989
10
1785.1765319309711
20
-1440.6136442586555
10
1787.9082436188698
20
-1409.3900367899114
42
0.99999999999999989
10
1784.0188643501788
20
-1404.7548550734871
0
CIRCLE
5
156
100
AcDbEntity
8
0
100
AcDbCircle
10
1746.5201782226563
20
-1784.5117187500025
30
0
40
20.550000000000001
210
0
220
-0
230
1
0
CIRCLE
5
157
100
AcDbEntity
8
0
100
AcDbCircle
10
1762.3459179907761
20
-1603.6226854705033
30
0
40
6.4999999999999867
210
0
220
-0
230
1
0
LWPOLYLINE
5
158
100
AcDbEntity
8
0
100
AcDbPolyline
90
4
70
1
43
0.0
10
1706.6723902989863
20
-1781.0254890400963
42
0.99999999999999989
10
1786.3679661463264
20
-1787.9979484599087
10
1866.6889555477123
20
-869.92483859251774
42
0.99999999999999989
10
1786.993379700373
20
-862.95237917270492
0
LWPOLYLINE
5
159
100
AcDbEntity
8
0
100
AcDbPolyline
90
8
70
1
43
0.0
10
1703.043470148039
20
-1154.0628774744391
42
1.0000000074505806
10
1698.4082884725956
20
-1157.9522567919694
10
1695.6765767437155
20
-1189.175864211875
42
0.9999999925494194
10
1699.5659560124059
20
-1193.8110459283002
10
1708.0495516321494
20
-1194.5532643709655
42
0.99999999999999989
10
1712.6847333485734
20
-1190.6638851022738
10
1715.4164450364717
20
-1159.4402776335287
42
0.99999999999999989
10
1711.5270657677793
20
-1154.8050959171053
0
LWPOLYLINE
5
160
100
AcDbEntity
8
0
100
AcDbPolyline
90
8
70
1
43
0.0
10
1754.6365292729179
20
-711.15266349224373
42
0.99999999999999989
10
1750.747150004227
20
-706.51748177581896
10
1742.2635543844856
20
-705.77526333315382
42
0.99999999999999989
10
1737.6283726680606
20
-709.66464260184443
10
1734.8966609801616
20
-740.88825007058961
42
0.99999999999999989
10
1738.7860402488523
20
-745.52343178701472
10
1747.2696358685957
20
-746.26565022967975
42
0.99999999999999989
10
1751.9048175850194
20
-742.37627096098788
0
LWPOLYLINE
5
161
100
AcDbEntity
8
0
100
AcDbPolyline
90
8
70
1
43
0.0
10
1726.5755206899071
20
-885.09030898966796
42
0.99999999999999989
10
1721.9403389734821
20
-888.97968825835835
10
1719.2086272855831
20
-920.20329572710364
42
0.9999999925494194
10
1723.0980065542735
20
-924.83847744352897
10
1731.5816021740172
20
-925.58069588619423
42
0.99999999999999989
10
1736.2167838904409
20
-921.69131661750248
10
1738.9484955783394
20
-890.46770914875765
42
0.99999999999999989
10
1735.0591163096469
20
-885.83252743233402
0
LWPOLYLINE
5
162
100
AcDbEntity
8
0
100
AcDbPolyline
90
8
70
1
43
0.0
10
1718.7315038426182
20
-974.74783181792486
42
0.99999999999999989
10
1714.0963221261932
20
-978.63721108661582
10
1711.364610438294
20
-1009.8608185553608
42
0.99999999999999989
10
1715.2539897069844
20
-1014.496000271786
10
1723.7375853267281
20
-1015.2382187144512
42
0.9999999925494194
10
1728.3727670431517
20
-1011.3488394457595
10
1731.1044787310502
20
-980.12523197701466
42
0.99999999999999989
10
1727.215099462358
20
-975.49005026059103
0
LWPOLYLINE
5
163
100
AcDbEntity
8
0
100
AcDbPolyline
90
8
70
1
43
0.0
10
1734.4195375371964
20
-795.4327861614106
42
0.99999998709521587
10
1729.7843557797905
20
-799.3221653812617
10
1727.0526441328727
20
-830.54577289884651
42
0.99999999999999989
10
1730.9420234015627
20
-835.18095461527173
10
1739.4256190213064
20
-835.92317305793699
42
0.99999999999999989
10
1744.06080073773
20
-832.03379378924524
10
1746.7925124256285
20
-800.81018632050041
42
0.99999999999999989
10
1742.9031331569365
20
-796.17500460407678
0
LWPOLYLINE
5
164
100
AcDbEntity
8
0
100
AcDbPolyline
90
8
70
1
43
0.0
10
1710.8874869953279
20
-1064.4053546461819
42
0.9999999925494194
10
1706.2523052789038
20
-1068.2947339148725
10
1703.5205935910049
20
-1099.5183413836178
42
0.99999999999999989
10
1707.4099728596948
20
-1104.153523100043
10
1715.893568479439
20
-1104.8957415427083
42
0.99999999999999989
10
1720.5287501958626
20
-1101.0063622740165
10
1723.2604618837609
20
-1069.7827548052719
42
0.99999999999999989
10
1719.3710826150691
20
-1065.147573088848
0
LWPOLYLINE
5
165
100
AcDbEntity
8
0
100
AcDbPolyline
90
8
70
1
43
0.0
10
1695.1994533007494
20
-1243.7204003026961
42
0.99999999999999989
10
1690.5642715843251
20
-1247.609779571387
10
1687.8325598964261
20
-1278.8333870401325
42
0.99999999999999989
10
1691.721939165117
20
-1283.4685687565575
10
1700.2055347848602
20
-1284.2107871992223
42
1.0000000074505806
10
1704.8407165012839
20
-1280.3214079305308
10
1707.5724281891823
20
-1249.0978004617859
42
0.99999999999999989
10
1703.6830489204904
20
-1244.4626187453623
0
CIRCLE
5
166
100
AcDbEntity
8
0
100
AcDbCircle
10
1666.1843627929688
20
-1624.2194824218777
30
0
40
20.549999999999997
210
0
220
0
230
1
0
CIRCLE
5
167
100
AcDbEntity
8
0
100
AcDbCircle
10
1682.0101025610884
20
-1443.3304491423787
30
0
40
6.4999999999999858
210
0
220
0
230
1
0
LWPOLYLINE
5
168
100
AcDbEntity
8
0
100
AcDbPolyline
90
4
70
1
43
0.0
10
1626.3365748692991
20
-1620.7332527119711
42
0.99999999999999989
10
1706.0321507166384
20
-1627.7057121317841
10
1786.3531401180257
20
-709.63260226439331
42
0.99999999999999989
10
1706.6575642706857
20
-702.66014284458038
0
LWPOLYLINE
5
169
100
AcDbEntity
8
0
100
AcDbPolyline
90
8
70
1
43
0.0
10
1569.0527859446458
20
-851.69862792968752
42
0.99999999999999989
10
1573.3313476562498
20
-847.42006621808423
10
1573.3313476562494
20
-838.90406464129126
42
0.99999999999999989
10
1569.0527859446458
20
-834.62550292968774
10
1547.7099093678526
20
-834.62550292968774
42
0.99999999999999989
10
1543.4313476562493
20
-838.9040646412916
10
1543.431347656249
20
-847.42006621808423
42
0.99999999999999989
10
1547.709909367853
20
-851.69862792968775
0
LWPOLYLINE
5
170
100
AcDbEntity
8
0
100
AcDbPolyline
90
8
70
1
43
0.0
10
1569.0527859446461
20
-1503.2180029296876
42
0.99999999999999989
10
1573.3313476562494
20
-1498.9394412180843
10
1573.3313476562494
20
-1490.4234396412915
42
0.99999999999999989
10
1569.0527859446465
20
-1486.1448779296875
10
1547.709909367853
20
-1486.1448779296875
42
0.99999999999999989
10
1543.4313476562497
20
-1490.4234396412912
10
1543.4313476562497
20
-1498.9394412180843
42
0.99999999999999989
10
1547.709909367853
20
-1503.2180029296876
0
LWPOLYLINE
5
171
100
AcDbEntity
8
0
100
AcDbPolyline
90
20
70
1
43
0.0
10
1588.3813476562511
20
-864.64319121808398
42
0.99999999999999989
10
1592.6599093678544
20
-868.92175292968761
10
1594.3813476562514
20
-868.92175292968761
10
1594.3813476562516
20
-1468.9217529296877
10
1592.6599093678551
20
-1468.9217529296877
42
0.99999999999999989
10
1588.3813476562514
20
-1473.2003146412917
10
1588.3813476562514
20
-1508.9217529296877
42
-0.41421356237311169
10
1578.3813476562514
20
-1518.9217529296877
10
1538.3813476562514
20
-1518.9217529296877
42
-0.41421356237310336
10
1528.3813476562514
20
-1508.921752929688
10
1528.3813476562511
20
-1473.2003146412917
42
0.99999999999999989
10
1524.1027859446481
20
-1468.9217529296877
10
1522.3813476562511
20
-1468.9217529296877
10
1522.3813476562514
20
-868.92175292968761
10
1524.1027859446476
20
-868.92175292968761
42
0.99999999999999989
10
1528.3813476562511
20
-864.64319121808398
10
1528.3813476562511
20
-828.92175292968761
42
-0.41421356237311585
10
1538.3813476562514
20
-818.92175292968761
10
1578.3813476562514
20
-818.92175292968773
42
-0.41421356237310336
10
1588.3813476562514
20
-828.9217529296875
0
LWPOLYLINE
5
172
100
AcDbEntity
8
0
100
AcDbPolyline
90
16
70
1
43
0.0
10
1398.3813557486599
20
-1490.8859835866051
42
0.99999998709521587
10
1394.1027940821396
20
-1486.6074218299182
10
1388.3813557486601
20
-1486.6074218750005
10
1388.3813557486601
20
-886.607421875
10
1394.1027940370568
20
-886.60742187500023
42
0.99999999999999989
10
1398.3813557486601
20
-882.32886016339648
10
1398.3813557486601
20
-869.4342968750002
10
1498.3813557486601
20
-869.43429687499997
10
1498.3813557486601
20
-882.32886016339705
42
0.99999999999999989
10
1502.6599174602643
20
-886.607421875
10
1508.3813557486601
20
-886.60742187500023
10
1508.3813557486601
20
-1486.6074218750005
10
1502.6599174602641
20
-1486.6074218750005
42
0.99999999999999989
10
1498.3813557486601
20
-1490.8859835866037
10
1498.3813557486601
20
-1503.7805468750003
10
1398.3813557486606
20
-1503.7805468750003
0
ELLIPSE
5
173
100
AcDbEntity
8
0
100
AcDbEllipse
10
906.24662516109413
20
-1137.3627427438937
30
0
11
3.0293566995143335
21
0
31
0.0
40
0.99869388127354997
41
5.4977871437826202
42
7.0685834705768738
0
LINE
5
174
100
AcDbEntity
8
0
100
AcDbLine
10
908.38870382595462
20
-1139.5020235996944
30
0
11
908.38870382593586
21
-1190.8449002024383
31
0
0
ELLIPSE
5
175
100
AcDbEntity
8
0
100
AcDbEllipse
10
906.24662516107617
20
-1192.98418105824
30
0
11
3.0293566995143335
21
0
31
0.0
40
0.99869388127354997
41
5.4977871437825803
42
7.0685834705769137
0
LINE
5
176
100
AcDbEntity
8
0
100
AcDbLine
10
908.38870382593666
20
-1195.1234619140407
30
0
11
895.57740746347292
21
-1195.1234619140566
31
0
0
ELLIPSE
5
177
100
AcDbEntity
8
0
100
AcDbEllipse
10
893.43532879860936
20
-1192.9841810582589
30
0
11
3.0293566995143335
21
0
31
0.0
40
0.99869388127354997
41
3.9269908169878041
42
5.4977871437840671
0
LINE
5
178
100
AcDbEntity
8
0
100
AcDbLine
10
891.29325013375114
20
-1195.1234619140619
30
0
11
891.29325013375137
21
-1190.8449002024556
31
0
0
LINE
5
179
100
AcDbEntity
8
0
100
AcDbLine
10
891.29325013375137
20
-1190.8449002024556
30
0
11
891.29325022499165
21
-1139.5020235996933
31
0
0
LINE
5
180
100
AcDbEntity
8
0
100
AcDbLine
10
891.29325022499165
20
-1139.5020235996933
30
0
11
891.29325022499188
21
-1135.2234618880898
31
0
0
ELLIPSE
5
181
100
AcDbEntity
8
0
100
AcDbEllipse
10
893.43532888985123
20
-1137.3627427438917
30
0
11
3.0293566995143344
21
0
31
0.0
40
0.99869388127354941
41
0.78539816339728752
42
2.3561944901922645
0
LINE
5
182
100
AcDbEntity
8
0
100
AcDbLine
10
895.57740755471116
20
-1135.2234618880905
30
0
11
908.38870382595405
21
-1135.2234618880923
31
0
0
LWPOLYLINE
5
183
100
AcDbEntity
8
0
100
AcDbPolyline
90
12
70
1
43
0.0
10
912.32856171160097
20
-919.64846191406252
42
0.99999999999999989
10
908.04999999999734
20
-923.92702362566615
10
908.04999999999734
20
-935.36990020245912
42
0.99999999999999989
10
912.32856171160074
20
-939.64846191406252
10
938.78573159220309
20
-939.64846191406264
42
0.55815037548344915
10
971.21426840779179
20
-939.64846191406252
10
978.77143828839394
20
-939.64846191406264
42
0.99999999999999989
10
983.04999999999734
20
-935.36990020245889
10
983.04999999999723
20
-923.92702362566615
42
0.99999999999999989
10
978.77143828839371
20
-919.64846191406252
10
971.21426840779179
20
-919.64846191406252
42
0.55815037548345947
10
938.78573159220309
20
-919.64846191406252
0
LWPOLYLINE
5
184
100
AcDbEntity
8
0
100
AcDbPolyline
90
12
70
1
43
0.0
10
912.32856171160108
20
-1390.698461914063
42
0.99999999999999989
10
908.04999999999723
20
-1394.9770236256663
10
908.04999999999745
20
-1406.4199002024591
42
0.99999999999999989
10
912.32856171160108
20
-1410.6984619140626
10
938.78573159220309
20
-1410.6984619140626
42
0.55815037548345547
10
971.21426840779179
20
-1410.6984619140626
10
978.77143828839348
20
-1410.6984619140624
42
0.99999999999999989
10
983.04999999999734
20
-1406.4199002024591
10
983.04999999999723
20
-1394.9770236256659
42
0.99999999999999989
10
978.77143828839371
20
-1390.6984619140626
10
971.21426840779179
20
-1390.6984619140626
42
0.55815037548345547
10
938.78573159220309
20
-1390.6984619140626
0
LWPOLYLINE
5
185
100
AcDbEntity
8
0
100
AcDbPolyline
90
8
70
1
43
0.0
10
874.9999999999975
20
-945.31990020245917
42
0.99999999999999989
10
879.27856171160101
20
-949.59846191406268
10
887.79456328839376
20
-949.59846191406268
42
0.99999999999999989
10
892.07312499999739
20
-945.31990020245928
10
892.07312499999728
20
-913.97702362566633
42
0.99999999999999989
10
887.79456328839387
20
-909.69846191406282
10
879.2785617116009
20
-909.69846191406259
42
0.99999999999999989
10
874.9999999999975
20
-913.97702362566633
0
LWPOLYLINE
5
186
100
AcDbEntity
8
0
100
AcDbPolyline
90
8
70
1
43
0.0
10
1022.2054367116009
20
-909.69846191406259
42
0.99999999999999989
10
1017.9268749999973
20
-913.97702362566622
10
1017.9268749999973
20
-945.31990020245917
42
0.99999999999999989
10
1022.2054367116009
20
-949.59846191406257
10
1030.721438288394
20
-949.59846191406268
42
0.99999999999999989
10
1034.9999999999973
20
-945.31990020245894
10
1034.9999999999973
20
-913.97702362566622
42
0.99999999999999989
10
1030.7214382883938
20
-909.69846191406259
0
LWPOLYLINE
5
187
100
AcDbEntity
8
0
100
AcDbPolyline
90
8
70
1
43
0.0
10
1034.9999999999973
20
-1385.0270236256661
42
0.99999999999999989
10
1030.7214382883935
20
-1380.7484619140628
10
1022.2054367116007
20
-1380.7484619140623
42
0.99999999999999989
10
1017.9268749999972
20
-1385.0270236256661
10
1017.9268749999972
20
-1416.3699002024596
42
0.99999999999999989
10
1022.205436711601
20
-1420.6484619140624
10
1030.7214382883935
20
-1420.6484619140624
42
0.99999999999999989
10
1034.9999999999973
20
-1416.3699002024589
0
LWPOLYLINE
5
188
100
AcDbEntity
8
0
100
AcDbPolyline
90
8
70
1
43
0.0
10
887.79456328839376
20
-1420.6484619140624
42
0.99999999999999989
10
892.07312499999762
20
-1416.3699002024598
10
892.07312499999728
20
-1385.0270236256663
42
0.99999999999999989
10
887.79456328839399
20
-1380.7484619140628
10
879.27856171160101
20
-1380.7484619140628
42
0.99999999999999989
10
874.99999999999727
20
-1385.0270236256661
10
874.9999999999975
20
-1416.3699002024591
42
0.99999999999999989
10
879.2785617116009
20
-1420.6484619140624
0
LWPOLYLINE
5
189
100
AcDbEntity
8
0
100
AcDbPolyline
90
8
70
1
43
0.0
10
751.46343750000119
20
-1590.8449002024604
42
0.99999999999999989
10
755.74199921160471
20
-1595.1234619140644
10
764.25800078839745
20
-1595.1234619140641
42
0.99999999999999989
10
768.53656250000108
20
-1590.8449002024604
10
768.53656250000097
20
-1539.5020236256676
42
0.99999999999999989
10
764.25800078839734
20
-1535.223461914064
10
755.74199921160493
20
-1535.223461914064
42
0.99999999999999989
10
751.46343750000119
20
-1539.5020236256676
0
LWPOLYLINE
5
190
100
AcDbEntity
8
0
100
AcDbPolyline
90
8
70
1
43
0.0
10
751.46343750000119
20
-790.84490020246051
42
0.99999999999999989
10
755.74199921160471
20
-795.12346191406414
10
764.25800078839768
20
-795.12346191406425
42
0.99999999999999989
10
768.53656250000108
20
-790.84490020246062
10
768.53656250000108
20
-739.50202362566745
42
0.99999999999999989
10
764.25800078839745
20
-735.22346191406405
10
755.74199921160471
20
-735.22346191406416
42
0.99999999999999989
10
751.46343750000119
20
-739.50202362566768
0
LWPOLYLINE
5
191
100
AcDbEntity
8
0
100
AcDbPolyline
90
8
70
1
43
0.0
10
751.46343750000131
20
-1390.8449002024604
42
0.99999999999999989
10
755.74199921160482
20
-1395.1234619140637
10
764.25800078839745
20
-1395.1234619140641
42
0.99999999999999989
10
768.53656250000108
20
-1390.8449002024604
10
768.53656250000108
20
-1339.5020236256673
42
0.99999999999999989
10
764.25800078839745
20
-1335.223461914064
10
755.74199921160482
20
-1335.223461914064
42
0.99999999999999989
10
751.46343750000119
20
-1339.5020236256673
0
LWPOLYLINE
5
192
100
AcDbEntity
8
0
100
AcDbPolyline
90
8
70
1
43
0.0
10
751.46343750000131
20
-990.84490020246039
42
0.99999999999999989
10
755.74199921160482
20
-995.12346191406391
10
764.25800078839768
20
-995.12346191406425
42
0.99999999999999989
10
768.53656250000108
20
-990.84490020246062
10
768.53656250000108
20
-939.50202362566756
42
0.99999999999999989
10
764.25800078839757
20
-935.22346191406405
10
755.74199921160482
20
-935.22346191406416
42
0.99999999999999989
10
751.46343750000119
20
-939.50202362566756
0
LWPOLYLINE
5
193
100
AcDbEntity
8
0
100
AcDbPolyline
90
8
70
1
43
0.0
10
764.25800078839768
20
-1195.1234619140641
42
0.99999999999999989
10
768.53656250000097
20
-1190.8449002024602
10
768.53656250000108
20
-1139.5020236256676
42
0.99999999999999989
10
764.25800078839757
20
-1135.223461914064
10
755.74199921160482
20
-1135.223461914064
42
0.99999999999999989
10
751.46343750000119
20
-1139.5020236256678
10
751.46343750000131
20
-1190.8449002024604
42
0.99999999999999989
10
755.74199921160471
20
-1195.1234619140641
0
LWPOLYLINE
5
194
100
AcDbEntity
8
0
100
AcDbPolyline
90
8
70
1
43
0.0
10
932.10861227793589
20
-848.95518026668151
42
0.99999999999999989
10
933.69026318465967
20
-854.7956049986044
10
941.0766715272548
20
-859.03391299264865
42
0.99999999999999989
10
946.91709625917792
20
-857.45226208592487
10
992.377309071892
20
-778.22543485962501
42
0.99999999999999989
10
990.79565816516788
20
-772.38501012770189
10
983.40924982257275
20
-768.14670213365753
42
1.0000000074505806
10
977.56882509064985
20
-769.72835304038176
0
LWPOLYLINE
5
195
100
AcDbEntity
8
0
100
AcDbPolyline
90
11
70
1
43
0.0
10
1348.3781373867976
20
-1335.7405548029035
42
0.28384217548927737
10
1371.1544553904732
20
-1288.3987005918536
10
1332.8602409214786
20
-924.05358764567018
42
0.25573679540937011
10
1305.5371350756934
20
-884.57983086162301
10
710
20
-586.10649460647608
10
710
20
-1744.2404292216493
10
777.91074015491233
20
-1700.7841652923644
42
0.16477082161692699
10
828.02895525412305
20
-1638.1626188387527
10
831.57985414590507
20
-1628.3844708360414
42
-0.26004284771157016
10
923.64798530874964
20
-1548.6644377938405
42
0.09135758440213787
10
1177.025478333097
20
-1445.3895787987594
0
LWPOLYLINE
5
196
100
AcDbEntity
8
0
100
AcDbPolyline
90
8
70
1
43
0.0
10
1260.7351156878613
20
-1003.1706385470382
10
1286.429597120057
20
-1247.6372993552081
42
-0.28384217548928004
10
1263.6532791163811
20
-1294.979153566258
10
1206.073525487798
20
-1331.8245916362757
42
-0.51340346062651587
10
1160.7835242587548
20
-1313.7676646465607
10
1048.3835827566147
20
-859.94750584825761
42
-0.64032663873146045
10
1059.7334303629555
20
-850.87218861963311
10
1206.0889039962908
20
-924.22312497894427
42
-0.25573679540937244
0
CIRCLE
5
197
100
AcDbEntity
8
0
100
AcDbCircle
10
1063.1608371736299
20
-1269.5449895928962
30
0
40
6.5000000000000036
210
0
220
-0
230
1
0
CIRCLE
5
198
100
AcDbEntity
8
0
100
AcDbCircle
10
1101.4950699510305
20
-1314.4476968157639
30
0
40
6.5000000000000036
210
0
220
-0
230
1
0
CIRCLE
5
199
100
AcDbEntity
8
0
100
AcDbCircle
10
1011.7808111491416
20
-1240.4613267510636
30
0
40
6.5000000000000036
210
0
220
-0
230
1
0
CIRCLE
5
200
100
AcDbEntity
8
0
100
AcDbCircle
10
1122.1598352553674
20
-1369.7535192352086
30
0
40
6.4999999999999858
210
0
220
-0
230
1
0
CIRCLE
5
201
100
AcDbEntity
8
0
100
AcDbCircle
10
953.55218130454296
20
-1230.7046272581401
30
0
40
6.5000000000000036
210
0
220
-0
230
1
0
LWPOLYLINE
5
202
100
AcDbEntity
8
0
100
AcDbPolyline
90
8
70
1
43
0.0
10
906.56663978666643
20
-1690.4083464625019
42
0.99999999999999989
10
911.55254283228487
20
-1686.9800886746903
10
922.71872988772532
20
-1626.6620584237062
42
0.99999999999999989
10
919.2904720999129
20
-1621.6761553780882
10
910.91674609631798
20
-1620.1259954919301
42
0.99999999999999989
10
905.93084305069954
20
-1623.5542532797422
10
894.76465599525909
20
-1683.8722835307258
42
0.99999999999999989
10
898.19291378307139
20
-1688.858186576344
0
LWPOLYLINE
5
203
100
AcDbEntity
8
0
100
AcDbPolyline
90
8
70
1
43
0.0
10
878.15151267164879
20
-1797.1187622329101
42
0.9999999925494194
10
873.16560962603057
20
-1800.5470200207221
10
861.99942257059035
20
-1860.8650502717055
42
0.99999999999999989
10
865.42768035840254
20
-1865.850953317324
10
873.80140636199758
20
-1867.4011132034818
42
0.99999999999999989
10
878.78730940761568
20
-1863.9728554156695
10
889.95349646305624
20
-1803.6548251646864
42
0.99999999999999989
10
886.52523867524405
20
-1798.6689221190679
0
CIRCLE
5
204
100
AcDbEntity
8
0
100
AcDbCircle
10
885.84185256958006
20
-1732.07189941406
30
0
40
20.549999999999997
210
0
220
-0
230
1
0
CIRCLE
5
205
100
AcDbEntity
8
0
100
AcDbCircle
10
848.47856472098272
20
-1933.9026510876909
30
0
40
6.4999999999999858
210
0
220
-0
230
1
0
LWPOLYLINE
5
206
100
AcDbEntity
8
0
100
AcDbPolyline
90
4
70
1
43
0.0
10
809.1468387785427
20
-1926.6214881044311
42
0.99999999999999989
10
887.81029066342273
20
-1941.1838140709506
10
946.10692208889191
20
-1626.2743503128047
42
0.99999999999999989
10
867.44347020401187
20
-1611.7120243462853
0
LWPOLYLINE
5
207
100
AcDbEntity
8
0
100
AcDbPolyline
90
14
70
1
43
0.0
10
795.36999785870887
20
-1746.6670898437494
42
0.99999999999999989
10
799.64855957031273
20
-1742.3885281321466
10
799.64855957031261
20
-1726.6670898437494
10
811.82168457031253
20
-1726.6670898437494
42
-0.41421356237309503
10
816.82168457031253
20
-1731.6670898437494
10
816.82168457031253
20
-1801.6670898437494
42
-0.41421356237309503
10
811.82168457031253
20
-1806.6670898437494
10
799.64855957031261
20
-1806.6670898437496
10
799.6485595703125
20
-1790.9456515553529
42
0.99999999999999989
10
795.36999785870876
20
-1786.6670898437494
10
735.95605957031262
20
-1786.6670898437494
42
-0.41421356237309503
10
730.95605957031262
20
-1781.6670898437494
10
730.95605957031262
20
-1751.6670898437494
42
-0.41421356237309503
10
735.95605957031262
20
-1746.6670898437494
0
LWPOLYLINE
5
208
100
AcDbEntity
8
0
100
AcDbPolyline
90
8
70
1
43
0.0
10
761.02374785870893
20
-1775.2036523437494
42
0.99999999999999989
10
765.30230957031279
20
-1770.9250906321461
10
765.30230957031267
20
-1762.409089055353
42
0.99999999999999989
10
761.02374785870893
20
-1758.1305273437492
10
749.68087128191655
20
-1758.1305273437497
42
0.99999999999999989
10
745.4023095703127
20
-1762.409089055353
10
745.40230957031281
20
-1770.9250906321461
42
0.99999999999999989
10
749.68087128191632
20
-1775.2036523437494
0
LWPOLYLINE
5
209
100
AcDbEntity
8
0
100
AcDbPolyline
90
14
70
1
43
0.0
10
738.13262939453125
20
-1816.3885281321461
42
0.99999999999999989
10
742.41119110613477
20
-1820.6670898437494
10
801.82512939453113
20
-1820.6670898437494
42
-0.41421356237310336
10
806.82512939453113
20
-1825.6670898437494
10
806.82512939453136
20
-1855.6670898437494
42
-0.41421356237310336
10
801.82512939453113
20
-1860.6670898437494
10
742.41119110613511
20
-1860.6670898437496
42
0.99999999999999989
10
738.13262939453125
20
-1864.9456515553527
10
738.13262939453125
20
-1880.6670898437494
10
725.95950439453134
20
-1880.6670898437494
42
-0.41421356237310336
10
720.95950439453134
20
-1875.6670898437494
10
720.95950439453122
20
-1805.6670898437494
42
-0.41421356237310336
10
725.95950439453134
20
-1800.6670898437494
10
738.13262939453125
20
-1800.6670898437496
0
LWPOLYLINE
5
210
100
AcDbEntity
8
0
100
AcDbPolyline
90
8
70
1
43
0.0
10
772.4788793945313
20
-1844.9250906321461
42
0.99999999999999989
10
776.75744110613437
20
-1849.20365234375
10
788.10031768292743
20
-1849.2036523437494
42
0.99999999999999989
10
792.37887939453117
20
-1844.9250906321461
10
792.37887939453117
20
-1836.409089055353
42
0.99999999999999989
10
788.10031768292743
20
-1832.1305273437495
10
776.75744110613505
20
-1832.1305273437497
42
0.99999999999999989
10
772.47887939453119
20
-1836.4090890553528
0
LWPOLYLINE
5
211
100
AcDbEntity
8
0
100
AcDbPolyline
90
14
70
1
43
0.0
10
779.57002899675967
20
-1911.8403320312498
42
0.99999999999999989
10
775.2914672851573
20
-1916.1188937428549
10
775.29146728515639
20
-1975.5328320312503
42
-0.41421356237309503
10
770.29146728515639
20
-1980.5328320312503
10
740.29146728515639
20
-1980.5328320312503
42
-0.41421356237309503
10
735.29146728515639
20
-1975.5328320312503
10
735.29146728515639
20
-1916.1188937428542
42
0.99999999999999989
10
731.01290557355344
20
-1911.84033203125
10
715.29146728515661
20
-1911.84033203125
10
715.29146728515661
20
-1899.6672070312502
42
-0.41421356237309503
10
720.29146728515661
20
-1894.6672070312502
10
790.29146728515661
20
-1894.6672070312502
42
-0.41421356237309503
10
795.29146728515661
20
-1899.6672070312502
10
795.29146728515661
20
-1911.84033203125
0
LWPOLYLINE
5
212
100
AcDbEntity
8
0
100
AcDbPolyline
90
8
70
1
43
0.0
10
751.03346649675973
20
-1946.1865820312503
42
0.99999999999999989
10
746.75490478515758
20
-1950.4651437428552
10
746.75490478515644
20
-1961.8080203196482
42
0.99999999999999989
10
751.03346649676109
20
-1966.0865820312504
10
759.54946807355213
20
-1966.0865820312504
42
0.99999999999999989
10
763.82802978515645
20
-1961.8080203196473
10
763.82802978515645
20
-1950.4651437428543
42
0.99999999999999989
10
759.5494680735535
20
-1946.1865820312503
0
LWPOLYLINE
5
213
100
AcDbEntity
8
0
100
AcDbPolyline
90
8
70
1
43
0.0
10
1012.3696450805659
20
-1610.7106271412918
42
0.99999999999999989
10
1008.0910833689629
20
-1606.4320654296878
10
999.57508179216916
20
-1606.4320654296878
42
0.99999999999999989
10
995.29652008056576
20
-1610.7106271412913
10
995.29652008056576
20
-1622.0535037180848
42
0.99999999999999989
10
999.57508179217018
20
-1626.3320654296876
10
1008.0910833689618
20
-1626.3320654296876
42
0.99999999999999989
10
1012.3696450805659
20
-1622.0535037180846
0
LWPOLYLINE
5
214
100
AcDbEntity
8
0
100
AcDbPolyline
90
14
70
1
43
0.0
10
983.8330825805657
20
-1576.3643771412919
42
0.99999999999999989
10
979.55452086896241
20
-1572.085815429688
10
963.8330825805657
20
-1572.0858154296875
10
963.8330825805657
20
-1559.9126904296877
42
-0.41421356237310336
10
968.83308258056582
20
-1554.9126904296875
10
1038.8330825805658
20
-1554.9126904296875
42
-0.41421356237311169
10
1043.8330825805658
20
-1559.9126904296877
10
1043.8330825805658
20
-1572.0858154296877
10
1028.1116442921691
20
-1572.085815429688
42
0.99999999999999989
10
1023.8330825805658
20
-1576.364377141291
10
1023.8330825805662
20
-1635.7783154296874
42
-0.41421356237309503
10
1018.8330825805658
20
-1640.7783154296876
10
988.83308258056582
20
-1640.7783154296874
42
-0.41421356237307838
10
983.83308258056582
20
-1635.7783154296876
0
LWPOLYLINE
5
215
100
AcDbEntity
8
0
100
AcDbPolyline
90
8
70
1
43
0.0
10
1424.062502741524
20
-1688.3357666015629
42
0.99999999999999989
10
1428.3410644531273
20
-1684.0572048899585
10
1428.3410644531277
20
-1652.7143283131661
42
0.99999999999999989
10
1424.0625027415242
20
-1648.4357666015628
10
1415.5465011647311
20
-1648.4357666015628
42
0.99999999999999989
10
1411.2679394531276
20
-1652.7143283131663
10
1411.2679394531278
20
-1684.0572048899589
42
0.99999999999999989
10
1415.5465011647311
20
-1688.3357666015627
0
LWPOLYLINE
5
216
100
AcDbEntity
8
0
100
AcDbPolyline
90
8
70
1
43
0.0
10
1285.4141894531276
20
-1652.7143283131659
42
0.99999999999999989
10
1281.1356277415243
20
-1648.4357666015626
10
1272.6196261647312
20
-1648.4357666015628
42
0.99999999999999989
10
1268.3410644531277
20
-1652.7143283131663
10
1268.3410644531277
20
-1684.0572048899594
42
0.99999999999999989
10
1272.6196261647315
20
-1688.3357666015627
10
1281.1356277415246
20
-1688.3357666015627
42
0.99999999999999989
10
1285.4141894531278
20
-1684.0572048899589
0
LWPOLYLINE
5
217
100
AcDbEntity
8
0
100
AcDbPolyline
90
8
70
1
43
0.0
10
1248.3410644531277
20
-1698.3857666015626
42
0.41421356237309503
10
1268.3410644531277
20
-1718.3857666015626
10
1428.3410644531277
20
-1718.3857666015626
42
0.41421356237309503
10
1448.3410644531277
20
-1698.3857666015626
10
1448.3410644531277
20
-1638.3857666015626
42
0.41421356237309503
10
1428.3410644531277
20
-1618.3857666015626
10
1268.3410644531277
20
-1618.3857666015626
42
0.41421356237309709
10
1248.3410644531277
20
-1638.3857666015626
0
CIRCLE
5
218
100
AcDbEntity
8
0
100
AcDbCircle
10
1348.3410644531275
20
-1668.3857666015626
30
0
40
19.050000000000011
210
0
220
0
230
1
0
LWPOLYLINE
5
219
100
AcDbEntity
8
0
100
AcDbPolyline
90
4
70
1
43
0.0
10
1206.3411320066882
20
-1650.3236760511213
10
1202.3411320066882
20
-1701.8430510511216
10
1234.3411320066884
20
-1701.8430510511216
10
1234.3411320066884
20
-1650.323676051122
0
LWPOLYLINE
5
220
100
AcDbEntity
8
0
100
AcDbPolyline
90
4
70
1
43
0.0
10
1189.2773677491707
20
-1689.241875706691
10
1193.2773677491707
20
-1637.7225007066907
10
1161.2773677491707
20
-1637.7225007066911
10
1161.2773677491707
20
-1689.241875706691
0
LWPOLYLINE
5
221
100
AcDbEntity
8
0
100
AcDbPolyline
90
8
70
1
43
0.0
10
1473.8044653320317
20
-1693.7609304758976
42
0.99999999999999989
10
1478.0830270436354
20
-1698.0394921875004
10
1486.5990286204285
20
-1698.0394921874999
42
0.99999999999999989
10
1490.8775903320316
20
-1693.760930475896
10
1490.8775903320318
20
-1682.4180538991047
42
0.99999999999999989
10
1486.5990286204292
20
-1678.1394921875003
10
1478.0830270436352
20
-1678.1394921874999
42
0.99999999999999989
10
1473.8044653320312
20
-1682.4180538991031
0
LWPOLYLINE
5
222
100
AcDbEntity
8
0
100
AcDbPolyline
90
14
70
1
43
0.0
10
1502.3410278320312
20
-1728.1071804758976
42
0.99999998709521587
10
1506.6195894985544
20
-1732.3857422325818
10
1522.3410278320316
20
-1732.3857421875002
10
1522.3410278320316
20
-1744.5588671875
42
-0.41421356237309503
10
1517.3410278320316
20
-1749.5588671875
10
1447.3410278320316
20
-1749.5588671875
42
-0.41421356237309503
10
1442.3410278320316
20
-1744.5588671875
10
1442.3410278320316
20
-1732.3857421875002
10
1458.0624661204279
20
-1732.3857421875002
42
0.99999999999999989
10
1462.3410278320312
20
-1728.1071804758963
10
1462.3410278320312
20
-1668.6932421875003
42
-0.41421356237311169
10
1467.3410278320316
20
-1663.6932421875003
10
1497.3410278320316
20
-1663.6932421875003
42
-0.41421356237307838
10
1502.3410278320316
20
-1668.6932421874999
0
LWPOLYLINE
5
223
100
AcDbEntity
8
0
100
AcDbPolyline
90
14
70
1
43
0.0
10
1357.208190917969
20
-1434.1618869069162
42
0.99999999999999989
10
1352.9296292063657
20
-1429.8833251953129
10
1293.5156909179691
20
-1429.8833251953126
42
-0.41421356237309503
10
1288.5156909179691
20
-1424.8833251953126
10
1288.5156909179691
20
-1394.8833251953126
42
-0.41421356237309503
10
1293.5156909179691
20
-1389.8833251953126
10
1352.9296292063655
20
-1389.8833251953126
42
0.99999999999999989
10
1357.208190917969
20
-1385.6047634837091
10
1357.208190917969
20
-1369.8833251953129
10
1369.381315917969
20
-1369.8833251953129
42
-0.41421356237309503
10
1374.381315917969
20
-1374.8833251953129
10
1374.381315917969
20
-1444.8833251953129
42
-0.41421356237309503
10
1369.381315917969
20
-1449.8833251953129
10
1357.208190917969
20
-1449.8833251953129
0
LWPOLYLINE
5
224
100
AcDbEntity
8
0
100
AcDbPolyline
90
8
70
1
43
0.0
10
1322.8619409179692
20
-1405.6253244069162
42
0.99999999999999989
10
1318.5833792063659
20
-1401.3467626953125
10
1307.2405026295723
20
-1401.3467626953125
42
0.99999999999999989
10
1302.9619409179691
20
-1405.625324406916
10
1302.9619409179691
20
-1414.1413259837091
42
0.99999999999999989
10
1307.2405026295726
20
-1418.4198876953128
10
1318.5833792063656
20
-1418.4198876953124
42
0.99999999999999989
10
1322.8619409179692
20
-1414.1413259837091
0
LWPOLYLINE
5
225
100
AcDbEntity
8
0
100
AcDbPolyline
90
8
70
1
43
0.0
10
1173.9158328297679
20
-993.5065917968725
42
0.99999999999999989
10
1169.6372711181639
20
-997.78515350847579
10
1169.6372711181639
20
-1006.3011550852689
42
0.99999999999999989
10
1173.9158328297674
20
-1010.5797167968726
10
1205.2587094065605
20
-1010.5797167968724
42
0.99999999999999989
10
1209.537271118164
20
-1006.3011550852689
10
1209.537271118164
20
-997.78515350847601
42
0.99999999999999989
10
1205.2587094065602
20
-993.5065917968725
0
LWPOLYLINE
5
226
100
AcDbEntity
8
0
100
AcDbPolyline
90
8
70
1
43
0.0
10
1209.537271118164
20
-1140.7120285084759
42
0.99999999999999989
10
1205.2587094065605
20
-1136.4334667968724
10
1173.9158328297676
20
-1136.4334667968724
42
0.99999999999999989
10
1169.6372711181639
20
-1140.7120285084759
10
1169.6372711181639
20
-1149.228030085269
42
0.99999999999999989
10
1173.9158328297676
20
-1153.5065917968725
10
1205.2587094065605
20
-1153.5065917968725
42
0.99999999999999989
10
1209.537271118164
20
-1149.228030085269
0
LWPOLYLINE
5
227
100
AcDbEntity
8
0
100
AcDbPolyline
90
8
70
1
43
0.0
10
1139.5872711181639
20
-1153.5065917968725
42
0.41421356237309293
10
1159.5872711181639
20
-1173.5065917968727
10
1219.5872711181639
20
-1173.5065917968725
42
0.41421356237309293
10
1239.5872711181639
20
-1153.5065917968725
10
1239.5872711181639
20
-993.5065917968725
42
0.41421356237309293
10
1219.5872711181639
20
-973.50659179687239
10
1159.5872711181639
20
-973.50659179687239
42
0.41421356237309087
10
1139.5872711181639
20
-993.50659179687239
0
CIRCLE
5
228
100
AcDbEntity
8
0
100
AcDbCircle
10
1189.5872711181639
20
-1073.5065917968725
30
0
40
19.050000000000011
210
0
220
-0
230
1
0
LWPOLYLINE
5
229
100
AcDbEntity
8
0
100
AcDbPolyline
90
14
70
1
43
0.0
10
1228.7064208984377
20
-1251.7850558522291
42
0.99999999999999989
10
1224.4278591868338
20
-1247.506494140626
10
1165.0139208984376
20
-1247.5064941406258
42
-0.41421356237311169
10
1160.0139208984376
20
-1242.5064941406258
10
1160.0139208984376
20
-1212.5064941406258
42
-0.41421356237311169
10
1165.0139208984376
20
-1207.5064941406258
10
1224.4278591868338
20
-1207.5064941406258
42
0.99999999999999989
10
1228.7064208984375
20
-1203.2279324290223
10
1228.7064208984375
20
-1187.5064941406258
10
1240.8795458984375
20
-1187.5064941406258
42
-0.41421356237311169
10
1245.8795458984375
20
-1192.5064941406258
10
1245.8795458984375
20
-1262.5064941406258
42
-0.41421356237312001
10
1240.8795458984375
20
-1267.5064941406258
10
1228.7064208984375
20
-1267.5064941406258
0
LWPOLYLINE
5
230
100
AcDbEntity
8
0
100
AcDbPolyline
90
8
70
1
43
0.0
10
1194.3601708984374
20
-1223.2484933522294
42
0.99999999999999989
10
1190.0816091868342
20
-1218.9699316406259
10
1178.7387326100409
20
-1218.9699316406259
42
0.99999999999999989
10
1174.4601708984376
20
-1223.2484933522296
10
1174.4601708984376
20
-1231.7644949290225
42
0.99999999999999989
10
1178.7387326100411
20
-1236.043056640626
10
1190.0816091868337
20
-1236.043056640626
42
0.99999999999999989
10
1194.3601708984377
20
-1231.7644949290227
0
LWPOLYLINE
5
231
100
AcDbEntity
8
0
100
AcDbPolyline
90
4
70
1
43
0.0
10
1246.5157230711411
20
-1423.2126531019028
10
1242.5157230711411
20
-1474.7320281019029
10
1274.5157230711413
20
-1474.7320281019029
10
1274.5157230711413
20
-1423.212653101903
0
LWPOLYLINE
5
232
100
AcDbEntity
8
0
100
AcDbPolyline
90
4
70
1
43
0.0
10
1288.5156468763169
20
-1471.8831416749524
10
1340.0350218763169
20
-1475.8831416749524
10
1340.0350218763169
20
-1443.8831416749526
10
1288.5156468763171
20
-1443.8831416749526
0
LWPOLYLINE
5
233
100
AcDbEntity
8
0
100
AcDbPolyline
90
4
70
1
43
0.0
10
1608.381429235005
20
-1412.8989651669717
10
1626.381429235005
20
-1412.8989651669717
10
1630.3814292350048
20
-1352.7930276669717
10
1608.3814292350048
20
-1352.7930276669717
0
LWPOLYLINE
5
234
100
AcDbEntity
8
0
100
AcDbPolyline
90
4
70
1
43
0.0
10
1636.3814326905767
20
-1338.7931452379412
10
1640.3814326905767
20
-1287.2737702379409
10
1608.381432690577
20
-1287.2737702379411
10
1608.381432690577
20
-1338.7931452379412
0
LWPOLYLINE
5
235
100
AcDbEntity
8
0
100
AcDbPolyline
90
4
70
1
43
0.0
10
1613.5104130125476
20
-1221.7543401136215
10
1609.5104130125474
20
-1273.2737151136216
10
1641.5104130125474
20
-1273.2737151136216
10
1641.5104130125476
20
-1221.7543401136218
0
LWPOLYLINE
5
236
100
AcDbEntity
8
0
100
AcDbPolyline
90
4
70
1
43
0.0
10
1636.3814326905767
20
-1207.7542048082535
10
1640.3814326905767
20
-1156.2348298082534
10
1608.381432690577
20
-1156.2348298082534
10
1608.381432690577
20
-1207.7542048082532
0
LWPOLYLINE
5
237
100
AcDbEntity
8
0
100
AcDbPolyline
90
4
70
1
43
0.0
10
1636.3814326905767
20
-1142.234795628566
10
1640.3814326905767
20
-1090.7154206285659
10
1608.381432690577
20
-1090.7154206285659
10
1608.381432690577
20
-1142.2347956285657
0
LWPOLYLINE
5
238
100
AcDbEntity
8
0
100
AcDbPolyline
90
4
70
1
43
0.0
10
1636.3814326905767
20
-1076.7155085191912
10
1640.3814326905767
20
-1025.1961335191909
10
1608.381432690577
20
-1025.1961335191911
10
1608.381432690577
20
-1076.715508519191
0
LWPOLYLINE
5
239
100
AcDbEntity
8
0
100
AcDbPolyline
90
4
70
1
43
0.0
10
1662.4124550423385
20
-951.09023161037214
10
1644.4124550423385
20
-951.09023161037214
10
1640.4124550423385
20
-1011.1961691103721
10
1662.4124550423385
20
-1011.1961691103722
0
LWPOLYLINE
5
240
100
AcDbEntity
8
0
100
AcDbPolyline
90
4
70
1
43
0.0
10
1608.381429235005
20
-1011.1960843075967
10
1626.381429235005
20
-1011.1960843075967
10
1630.3814292350048
20
-951.09014680759674
10
1608.3814292350048
20
-951.09014680759651
0
LWPOLYLINE
5
241
100
AcDbEntity
8
0
100
AcDbPolyline
90
4
70
1
43
0.0
10
1668.4872220029092
20
-937.09018941733871
10
1668.4872220029092
20
-919.09018941733871
10
1608.3812845029092
20
-915.09018941733871
10
1608.381284502909
20
-937.09018941733871
0
LWPOLYLINE
5
242
100
AcDbEntity
8
0
100
AcDbPolyline
90
4
70
1
43
0.0
10
1608.3813082705285
20
-883.05916361000516
10
1608.3813082705285
20
-901.05916361000504
10
1668.4872457705285
20
-905.05916361000516
10
1668.4872457705285
20
-883.05916361000516
0
LWPOLYLINE
5
243
100
AcDbEntity
8
0
100
AcDbPolyline
90
16
70
1
43
0.0
10
1186.4608995272124
20
-742.42175292968864
42
0.99999999999999989
10
1190.7394612388161
20
-738.14319121808535
10
1190.7394612388161
20
-734.92175292968886
10
1660.7394612388161
20
-734.92175292968864
10
1660.7394612388161
20
-738.14319121808512
42
0.99999999999999989
10
1665.0180229504201
20
-742.42175292968841
10
1677.9125862388169
20
-742.42175292968841
10
1677.9125862388169
20
-797.42175292968864
10
1665.0180229504201
20
-797.42175292968886
42
0.99999999999999989
10
1660.7394612388168
20
-801.70031464129227
10
1660.7394612388166
20
-804.92175292968852
10
1190.7394612388161
20
-804.92175292968864
10
1190.7394612388161
20
-801.70031464129192
42
0.99999999999999989
10
1186.4608995272124
20
-797.42175292968864
10
1173.5663362388182
20
-797.42175292968864
10
1173.5663362388184
20
-742.42175292968864
0
CIRCLE
5
244
100
AcDbEntity
8
0
100
AcDbCircle
10
1225.7394612388175
20
-769.92175292968864
30
0
40
2.999999999999972
210
-0
220
0
230
1
0
CIRCLE
5
245
100
AcDbEntity
8
0
100
AcDbCircle
10
1625.7394612388175
20
-769.92175292968864
30
0
40
2.999999999999972
210
-0
220
0
230
1
0
LWPOLYLINE
5
246
100
AcDbEntity
8
0
100
AcDbPolyline
90
8
70
1
43
0.0
10
1658.9520068359375
20
-694.00530059308369
42
0.99999999999999989
10
1663.2305685475408
20
-698.28386230468777
10
1671.7465701243339
20
-698.28386230468732
42
0.99999999999999989
10
1676.0251318359374
20
-694.0053005930838
10
1676.0251318359374
20
-672.66242401629052
42
0.99999999999999989
10
1671.7465701243339
20
-668.38386230468723
10
1663.2305685475408
20
-668.38386230468711
42
0.99999999999999989
10
1658.9520068359377
20
-672.66242401629086
0
LWPOLYLINE
5
247
100
AcDbEntity
8
0
100
AcDbPolyline
90
8
70
1
43
0.0
10
1007.4326318359376
20
-694.00530059308392
42
0.99999999999999989
10
1011.7111935475416
20
-698.28386230468755
10
1020.2271951243338
20
-698.28386230468732
42
0.99999999999999989
10
1024.5057568359375
20
-694.00530059308392
10
1024.5057568359375
20
-672.66242401629074
42
0.99999999999999989
10
1020.227195124334
20
-668.38386230468723
10
1011.7111935475414
20
-668.38386230468723
42
0.99999999999999989
10
1007.4326318359376
20
-672.66242401629074
0
LWPOLYLINE
5
248
100
AcDbEntity
8
0
100
AcDbPolyline
90
20
70
1
43
0.0
10
1646.0074435475412
20
-713.33386230468909
42
0.99999999999999989
10
1641.728881835938
20
-717.61242401629238
10
1641.7288818359375
20
-719.33386230468898
10
1041.7288818359375
20
-719.33386230468898
10
1041.7288818359375
20
-717.61242401629238
42
0.99999999999999989
10
1037.4503201243338
20
-713.33386230468909
10
1001.7288818359375
20
-713.33386230468909
42
-0.41421356237310336
10
991.7288818359375
20
-703.33386230468909
10
991.7288818359375
20
-663.33386230468909
42
-0.41421356237310336
10
1001.7288818359375
20
-653.33386230468909
10
1037.4503201243338
20
-653.33386230468909
42
0.99999999999999989
10
1041.7288818359375
20
-649.0553005930858
10
1041.7288818359375
20
-647.33386230468909
10
1641.7288818359375
20
-647.33386230468909
10
1641.7288818359375
20
-649.05530059308546
42
0.99999999999999989
10
1646.0074435475412
20
-653.33386230468909
10
1681.7288818359373
20
-653.33386230468921
42
-0.41421356237310752
10
1691.7288818359375
20
-663.33386230468909
10
1691.728881835938
20
-703.33386230468909
42
-0.41421356237310752
10
1681.7288818359375
20
-713.33386230468909
0
LWPOLYLINE
5
249
100
AcDbEntity
8
0
100
AcDbPolyline
90
8
70
1
43
0.0
10
1867.4695584055844
20
-791.14672851562761
42
0.99999999999999989
10
1871.7481201171881
20
-786.86816680402455
10
1871.7481201171879
20
-778.35216522723158
42
0.99999999999999989
10
1867.4695584055846
20
-774.07360351562772
10
1836.1266818287909
20
-774.07360351562772
42
0.99999999999999989
10
1831.8481201171876
20
-778.35216522723169
10
1831.848120117188
20
-786.86816680402421
42
0.99999999999999989
10
1836.1266818287913
20
-791.14672851562761
0
LWPOLYLINE
5
250
100
AcDbEntity
8
0
100
AcDbPolyline
90
8
70
1
43
0.0
10
1831.8481201171876
20
-643.94129180402444
42
0.99999999999999989
10
1836.1266818287909
20
-648.21985351562807
10
1867.4695584055837
20
-648.21985351562773
42
0.99999999999999989
10
1871.7481201171877
20
-643.94129180402444
10
1871.7481201171872
20
-635.42529022723227
42
0.99999999999999989
10
1867.4695584055848
20
-631.14672851562773
10
1836.1266818287911
20
-631.14672851562761
42
0.99999999999999989
10
1831.8481201171876
20
-635.42529022723124
0
LWPOLYLINE
5
251
100
AcDbEntity
8
0
100
AcDbPolyline
90
8
70
1
43
0.0
10
1901.7981201171874
20
-631.14672851562773
42
0.41421356237310125
10
1881.7981201171874
20
-611.14672851562784
10
1821.7981201171874
20
-611.14672851562773
42
0.41421356237310125
10
1801.7981201171874
20
-631.14672851562773
10
1801.7981201171874
20
-791.14672851562773
42
0.41421356237310336
10
1821.7981201171874
20
-811.14672851562773
10
1881.7981201171874
20
-811.14672851562773
42
0.41421356237310336
10
1901.7981201171874
20
-791.14672851562773
0
CIRCLE
5
252
100
AcDbEntity
8
0
100
AcDbCircle
10
1851.7981201171874
20
-711.14672851562761
30
0
40
19.050000000000015
210
-0
220
0
230
1
0
LWPOLYLINE
5
253
100
AcDbEntity
8
0
100
AcDbPolyline
90
4
70
1
43
0.0
10
1451.6195462216592
20
-855.43430562827621
10
1451.6195462216592
20
-837.43430562827621
10
1391.5136087216592
20
-833.43430562827621
10
1391.513608721659
20
-855.43430562827621
0
LWPOLYLINE
5
254
100
AcDbEntity
8
0
100
AcDbPolyline
90
4
70
1
43
0.0
10
1373.5136958741705
20
-897.24041086294108
10
1377.5136958741705
20
-845.72103586294088
10
1345.5136958741707
20
-845.72103586294111
10
1345.5136958741707
20
-897.24041086294096
0
LWPOLYLINE
5
255
100
AcDbEntity
8
0
100
AcDbPolyline
90
4
70
1
43
0.0
10
1279.9943303479965
20
-851.8064815187023
10
1331.5137053479966
20
-855.80648151870241
10
1331.5137053479964
20
-823.8064815187023
10
1279.9943303479965
20
-823.8064815187023
0
LWPOLYLINE
5
256
100
AcDbEntity
8
0
100
AcDbPolyline
90
4
70
1
43
0.0
10
1099.4602877627158
20
-743.18160013344254
10
1099.4602877627158
20
-761.18160013344254
10
1159.5662252627158
20
-765.18160013344254
10
1159.5662252627158
20
-743.18160013344254
0
LWPOLYLINE
5
257
100
AcDbEntity
8
0
100
AcDbPolyline
90
4
70
1
43
0.0
10
1178.8663874254412
20
-931.5065067625477
10
1127.3470124254411
20
-927.50650676254759
10
1127.3470124254411
20
-959.5065067625477
10
1178.8663874254412
20
-959.5065067625477
0
LWPOLYLINE
5
258
100
AcDbEntity
8
0
100
AcDbPolyline
90
4
70
1
43
0.0
10
1092.8705649771923
20
-964.25235872165945
10
1110.8705649771921
20
-964.25235872165945
10
1114.8705649771921
20
-904.14642122165947
10
1092.8705649771921
20
-904.14642122165924
0
LWPOLYLINE
5
259
100
AcDbEntity
8
0
100
AcDbPolyline
90
8
70
1
43
0.0
10
1487.3581652832031
20
-608.00530059308358
42
0.99999999999999989
10
1491.6367269948064
20
-612.28386230468777
10
1500.1527285715995
20
-612.28386230468732
42
0.99999999999999989
10
1504.431290283203
20
-608.00530059308369
10
1504.431290283203
20
-586.66242401629052
42
0.99999999999999989
10
1500.1527285715993
20
-582.38386230468723
10
1491.6367269948064
20
-582.383862304687
42
0.99999999999999989
10
1487.3581652832031
20
-586.66242401629074
0
LWPOLYLINE
5
260
100
AcDbEntity
8
0
100
AcDbPolyline
90
8
70
1
43
0.0
10
835.83879028320325
20
-608.0053005930838
42
0.99999999999999989
10
840.11735199480677
20
-612.28386230468732
10
848.6333535715994
20
-612.28386230468732
42
0.99999999999999989
10
852.91191528320314
20
-608.0053005930838
10
852.91191528320314
20
-586.66242401629074
42
0.99999999999999989
10
848.63335357159951
20
-582.38386230468711
10
840.117351994807
20
-582.38386230468711
42
0.99999999999999989
10
835.83879028320325
20
-586.66242401629063
0
LWPOLYLINE
5
261
100
AcDbEntity
8
0
100
AcDbPolyline
90
20
70
1
43
0.0
10
1474.4136019948066
20
-627.33386230468898
42
0.99999999999999989
10
1470.1350402832029
20
-631.61242401629227
10
1470.1350402832031
20
-633.33386230468886
10
870.13504028320312
20
-633.33386230468886
10
870.13504028320301
20
-631.61242401629238
42
0.99999999999999989
10
865.85647857159927
20
-627.33386230468898
10
830.13504028320312
20
-627.33386230468898
42
-0.41421356237310336
10
820.13504028320312
20
-617.33386230468898
10
820.13504028320312
20
-577.33386230468898
42
-0.41421356237310336
10
830.13504028320312
20
-567.33386230468898
10
865.85647857159938
20
-567.33386230468898
42
0.99999999999999989
10
870.13504028320312
20
-563.05530059308558
10
870.13504028320312
20
-561.33386230468898
10
1470.1350402832031
20
-561.33386230468898
10
1470.1350402832031
20
-563.05530059308535
42
0.99999999999999989
10
1474.4136019948066
20
-567.33386230468898
10
1510.1350402832031
20
-567.33386230468886
42
-0.4142135623730992
10
1520.1350402832031
20
-577.33386230468898
10
1520.1350402832031
20
-617.33386230468898
42
-0.41421356237309709
10
1510.1350402832031
20
-627.33386230468898
0
LWPOLYLINE
5
262
100
AcDbEntity
8
0
100
AcDbPolyline
90
16
70
1
43
0.0
10
1281.4320909334624
20
-387.49963378906358
42
0.99999999999999989
10
1285.7106526450657
20
-383.22107207746029
10
1285.7106526450661
20
-379.99963378906364
10
1755.7106526450661
20
-379.99963378906358
10
1755.7106526450661
20
-383.22107207745995
42
0.99999999999999989
10
1759.9892143566699
20
-387.4996337890633
10
1772.8837776450666
20
-387.4996337890633
10
1772.8837776450666
20
-442.49963378906358
10
1759.9892143566699
20
-442.49963378906358
42
0.99999999999999989
10
1755.7106526450666
20
-446.77819550066715
10
1755.7106526450664
20
-449.99963378906352
10
1285.7106526450661
20
-449.99963378906358
10
1285.7106526450661
20
-446.77819550066687
42
0.99999999999999989
10
1281.4320909334624
20
-442.49963378906358
10
1268.5375276450679
20
-442.49963378906358
10
1268.5375276450682
20
-387.49963378906358
0
CIRCLE
5
263
100
AcDbEntity
8
0
100
AcDbCircle
10
1320.7106526450673
20
-414.99963378906358
30
0
40
2.999999999999972
210
-0
220
0
230
1
0
CIRCLE
5
264
100
AcDbEntity
8
0
100
AcDbCircle
10
1720.7106526450673
20
-414.99963378906358
30
0
40
2.999999999999972
210
-0
220
0
230
1
0
LWPOLYLINE
5
265
100
AcDbEntity
8
0
100
AcDbPolyline
90
16
70
1
43
0.0
10
1759.9886854337253
20
-358.49963378906239
42
0.99999999999999989
10
1755.7101237221216
20
-362.77819550066567
10
1755.7101237221218
20
-365.99963378906244
10
1285.7101237221218
20
-365.99963378906239
10
1285.7101237221218
20
-362.77819550066602
42
0.99999999999999989
10
1281.4315620105181
20
-358.49963378906267
10
1268.5369987221213
20
-358.49963378906267
10
1268.5369987221213
20
-303.49963378906239
10
1281.4315620105181
20
-303.49963378906233
42
0.99999999999999989
10
1285.7101237221214
20
-299.22107207745881
10
1285.7101237221216
20
-295.99963378906227
10
1755.7101237221218
20
-295.99963378906239
10
1755.7101237221216
20
-299.2210720774591
42
0.99999999999999989
10
1759.9886854337255
20
-303.49963378906239
10
1772.8832487221198
20
-303.49963378906239
10
1772.8832487221198
20
-358.49963378906239
0
CIRCLE
5
266
100
AcDbEntity
8
0
100
AcDbCircle
10
1720.7101237221207
20
-330.99963378906239
30
0
40
2.9999999999999716
210
0
220
-0
230
1
0
CIRCLE
5
267
100
AcDbEntity
8
0
100
AcDbCircle
10
1320.7101237221207
20
-330.99963378906239
30
0
40
2.9999999999999716
210
0
220
-0
230
1
0
LWPOLYLINE
5
268
100
AcDbEntity
8
0
100
AcDbPolyline
90
16
70
1
43
0.0
10
1251.3640136719121
20
-276.27819750573963
42
0.99999999999999989
10
1247.0854519603088
20
-271.99963579413577
10
1234.1908886719193
20
-271.99963579413605
10
1234.1908886719193
20
-231.99963579413605
10
1247.0854519603085
20
-231.99963579413605
42
0.99999999999999989
10
1251.3640136719121
20
-227.72107408253248
10
1251.3640136719121
20
-221.99963579413679
10
1756.3640136719121
20
-221.99963579413691
10
1756.3640136719121
20
-227.72107408253305
42
0.99999999999999989
10
1760.642575383516
20
-231.99963579413634
10
1773.5371386719121
20
-231.99963579413634
10
1773.5371386719116
20
-271.99963579413662
10
1760.6425753835163
20
-271.99963579413662
42
0.99999999999999989
10
1756.3640136719121
20
-276.27819750573963
10
1756.3640136719121
20
-281.99963579413674
10
1251.3640136719121
20
-281.99963579413634
0
CIRCLE
5
269
100
AcDbEntity
8
0
100
AcDbCircle
10
1703.8640136719121
20
-251.99963579413634
30
0
40
3.0000000000001137
210
0
220
-0
230
1
0
CIRCLE
5
270
100
AcDbEntity
8
0
100
AcDbCircle
10
1303.8640136719121
20
-251.99963579413634
30
0
40
3.0000000000001137
210
0
220
-0
230
1
0
LWPOLYLINE
5
271
100
AcDbEntity
8
0
100
AcDbPolyline
90
16
70
1
43
0.0
10
1790.7104492187132
20
-153.72143628332367
42
0.99999999999999989
10
1794.9890109303165
20
-157.99999799492738
10
1807.8835742187059
20
-157.99999799492724
10
1807.8835742187059
20
-197.99999799492724
10
1794.9890109303167
20
-197.99999799492724
42
0.99999999999999989
10
1790.7104492187132
20
-202.27855970653081
10
1790.7104492187132
20
-207.99999799492684
10
1285.7104492187127
20
-207.99999799492696
10
1285.7104492187127
20
-202.27855970653081
42
0.99999999999999989
10
1281.431887507109
20
-197.99999799492753
10
1268.5373242187129
20
-197.99999799492753
10
1268.5373242187131
20
-157.99999799492724
10
1281.4318875071085
20
-157.99999799492724
42
0.99999999999999989
10
1285.7104492187127
20
-153.72143628332424
10
1285.7104492187132
20
-147.99999799492679
10
1790.7104492187132
20
-147.99999799492696
0
CIRCLE
5
272
100
AcDbEntity
8
0
100
AcDbCircle
10
1338.2104492187127
20
-177.99999799492753
30
0
40
3.0000000000001141
210
-0
220
0
230
1
0
CIRCLE
5
273
100
AcDbEntity
8
0
100
AcDbCircle
10
1738.2104492187127
20
-177.99999799492753
30
0
40
3.0000000000001141
210
-0
220
0
230
1
0
LWPOLYLINE
5
274
100
AcDbEntity
8
0
100
AcDbPolyline
90
16
70
1
43
0.0
10
1320.0563964844123
20
-128.27856371667735
42
0.99999999999999989
10
1315.777834772809
20
-124.00000200507364
10
1302.8832714844193
20
-124.00000200507378
10
1302.8832714844193
20
-84.000002005073782
10
1315.7778347728085
20
-84.000002005073782
42
0.99999999999999989
10
1320.0563964844123
20
-79.721440293470209
10
1320.0563964844123
20
-74.000002005074521
10
1825.0563964844123
20
-74.000002005074634
10
1825.0563964844123
20
-79.721440293470778
42
0.99999999999999989
10
1829.334958196016
20
-84.000002005074066
10
1842.2295214844121
20
-84.000002005074066
10
1842.2295214844119
20
-124.00000200507435
10
1829.3349581960163
20
-124.00000200507435
42
0.99999999999999989
10
1825.0563964844123
20
-128.27856371667735
10
1825.0563964844123
20
-134.00000200507446
10
1320.0563964844123
20
-134.00000200507407
0
CIRCLE
5
275
100
AcDbEntity
8
0
100
AcDbCircle
10
1772.5563964844123
20
-104.00000200507407
30
0
40
3.0000000000001137
210
0
220
-0
230
1
0
CIRCLE
5
276
100
AcDbEntity
8
0
100
AcDbCircle
10
1372.5563964844123
20
-104.00000200507407
30
0
40
3.0000000000001137
210
0
220
-0
230
1
0
LWPOLYLINE
5
277
100
AcDbEntity
8
0
100
AcDbPolyline
90
8
70
1
43
0.0
10
1856.8335693359377
20
-292.54296600847647
42
0.99999999999999989
10
1852.5550076243348
20
-288.26440429687227
10
1821.2121310475413
20
-288.2644042968725
42
0.99999999999999989
10
1816.9335693359378
20
-292.54296600847601
10
1816.9335693359376
20
-301.05896758526899
42
0.99999999999999989
10
1821.2121310475411
20
-305.3375292968725
10
1852.5550076243344
20
-305.33752929687245
42
0.99999999999999989
10
1856.8335693359377
20
-301.05896758526882
0
LWPOLYLINE
5
278
100
AcDbEntity
8
0
100
AcDbPolyline
90
8
70
1
43
0.0
10
1821.2121310475409
20
-431.19127929687238
42
0.99999999999999989
10
1816.933569335938
20
-435.46984100847652
10
1816.9335693359376
20
-443.98584258526932
42
0.99999999999999989
10
1821.2121310475416
20
-448.26440429687244
10
1852.5550076243344
20
-448.26440429687244
42
0.99999999999999989
10
1856.8335693359379
20
-443.98584258526864
10
1856.8335693359377
20
-435.46984100847635
42
0.99999999999999989
10
1852.5550076243346
20
-431.19127929687244
0
LWPOLYLINE
5
279
100
AcDbEntity
8
0
100
AcDbPolyline
90
8
70
1
43
0.0
10
1866.8835693359374
20
-468.26440429687244
42
0.41421356237309503
10
1886.8835693359374
20
-448.26440429687244
10
1886.8835693359374
20
-288.26440429687244
42
0.41421356237309553
10
1866.8835693359374
20
-268.26440429687239
10
1806.8835693359374
20
-268.26440429687239
42
0.41421356237309503
10
1786.8835693359374
20
-288.26440429687244
10
1786.8835693359374
20
-448.26440429687244
42
0.41421356237309503
10
1806.8835693359374
20
-468.26440429687244
0
CIRCLE
5
280
100
AcDbEntity
8
0
100
AcDbCircle
10
1836.8835693359374
20
-368.2644042968725
30
0
40
19.050000000000015
210
0
220
0
230
1
0
LWPOLYLINE
5
281
100
AcDbEntity
8
0
100
AcDbPolyline
90
8
70
1
43
0.0
10
1505.1962743663603
20
-526.00048069172533
42
0.9999999925494194
10
1509.6693125889567
20
-521.92566662244622
10
1510.0656230486561
20
-513.41889162392556
42
0.99999999999999989
10
1505.9908089793782
20
-508.9458534013288
10
1459.6981421370715
20
-506.78918791056162
42
0.99999999999999989
10
1455.2251039144746
20
-510.86400197984
10
1454.8287934547739
20
-519.37077697836287
42
0.9999999925494194
10
1458.903607524054
20
-523.84381520095826
0
LWPOLYLINE
5
282
100
AcDbEntity
8
0
100
AcDbPolyline
90
8
70
1
43
0.0
10
1679.4597852977267
20
-517.02736134769259
42
0.99999999999999989
10
1674.9867470751303
20
-521.10217541697148
10
1674.5904366154296
20
-529.60895041549361
42
0.99999999999999989
10
1678.6652506847095
20
-534.08198863808911
10
1724.957917527016
20
-536.23865412885641
42
0.99999999999999989
10
1729.4309557496113
20
-532.16384005957639
10
1729.8272662093113
20
-523.65706506105664
42
0.99999999999999989
10
1725.7524521400333
20
-519.18402683845966
0
LWPOLYLINE
5
283
100
AcDbEntity
8
0
100
AcDbPolyline
90
8
70
1
43
0.0
10
1789.3406068780544
20
-522.14644806625802
42
0.99999999999999989
10
1784.8675686554586
20
-526.22126213553759
10
1784.4712581957569
20
-534.72803713405938
42
0.9999999925494194
10
1788.5460722650371
20
-539.20107535665454
10
1834.8387391073436
20
-541.35774084742172
42
0.99999999999999989
10
1839.3117773299389
20
-537.28292677814193
10
1839.7080877896387
20
-528.77615177962218
42
0.99999999999999989
10
1835.6332737203613
20
-524.3031135570252
0
LWPOLYLINE
5
284
100
AcDbEntity
8
0
100
AcDbPolyline
90
8
70
1
43
0.0
10
1569.5789637173991
20
-511.90827462912705
42
0.99999999999999989
10
1565.1059254948027
20
-515.98308869840605
10
1564.7096150351017
20
-524.48986369692818
42
0.99999999999999989
10
1568.7844291043814
20
-528.96290191952369
10
1615.0770959466881
20
-531.11956741029098
42
1.0000000074505806
10
1619.5501341692834
20
-527.04475334101096
10
1619.9464446289837
20
-518.5379783424911
42
0.99999999999999989
10
1615.8716305597059
20
-514.06494011989412
0
CIRCLE
5
285
100
AcDbEntity
8
0
100
AcDbCircle
10
1415.4344164818801
20
-504.72704597480924
30
0
40
6.4999999999999867
210
0
220
-0
230
1
0
CIRCLE
5
286
100
AcDbEntity
8
0
100
AcDbCircle
10
1864.9468684014028
20
-525.66876436894063
30
0
40
6.4999999999999867
210
0
220
0
230
1
0
LWPOLYLINE
5
287
100
AcDbEntity
8
0
100
AcDbPolyline
90
4
70
1
43
0.0
10
1863.0853823219243
20
-565.62542676178714
42
0.99999999999999989
10
1866.8083544808812
20
-485.71210197609417
10
1417.2959025613586
20
-464.77038358196268
42
0.99999999999999989
10
1413.5729304024017
20
-544.68370836765575
0
LWPOLYLINE
5
288
100
AcDbEntity
8
0
100
AcDbPolyline
90
8
70
1
43
0.0
10
1231.494857225437
20
-485.07801051921217
42
0.99999999999999989
10
1227.0218190028415
20
-489.15282458849163
10
1226.6255085431405
20
-497.65959958701319
42
0.9999999925494194
10
1230.70032261242
20
-502.13263780960887
10
1276.9929894547261
20
-504.28930330037593
42
0.99999999999999989
10
1281.4660276773225
20
-500.21448923109699
10
1281.8623381370228
20
-491.70771423257548
42
0.99999999999999989
10
1277.7875240677438
20
-487.23467600997941
0
LWPOLYLINE
5
289
100
AcDbEntity
8
0
100
AcDbPolyline
90
8
70
1
43
0.0
10
1057.2313462940706
20
-494.05112986324497
42
0.99999999999999989
10
1061.7043845166672
20
-489.97631579396625
10
1062.1006949763673
20
-481.46954079544463
42
0.99999999999999989
10
1058.0258809070883
20
-476.9965025728485
10
1011.7332140647816
20
-474.83983708208115
42
0.9999999925494194
10
1007.2601758421856
20
-478.91465115136049
10
1006.8638653824853
20
-487.42142614988205
42
0.99999999999999989
10
1010.9386794517644
20
-491.8944643724779
0
LWPOLYLINE
5
290
100
AcDbEntity
8
0
100
AcDbPolyline
90
8
70
1
43
0.0
10
947.3505247137432
20
-488.9320431446796
42
0.99999999999999989
10
951.82356293633961
20
-484.85722907540071
10
952.2198733960397
20
-476.3504540768792
42
0.99999999999999989
10
948.14505932676082
20
-471.87741585428307
10
901.85239248445373
20
-469.72075036351566
42
0.9999999925494194
10
897.379354261858
20
-473.79556443279512
10
896.98304380215757
20
-482.30233943131668
42
1.0000000074505806
10
901.05785787143668
20
-486.77537765391241
0
LWPOLYLINE
5
291
100
AcDbEntity
8
0
100
AcDbPolyline
90
8
70
1
43
0.0
10
1167.1121678743984
20
-499.17021658181051
42
0.99999999999999989
10
1171.5852060969953
20
-495.0954025125319
10
1171.9815165566952
20
-486.58862751401
42
0.99999999999999989
10
1167.9067024874162
20
-482.11558929141398
10
1121.6140356451092
20
-479.95892380064663
42
0.9999999925494194
10
1117.1409974225135
20
-484.03373786992597
10
1116.7446869628129
20
-492.54051286844765
42
0.99999999999999989
10
1120.8195010320924
20
-497.01355109104338
0
CIRCLE
5
292
100
AcDbEntity
8
0
100
AcDbCircle
10
1321.1098408914113
20
-507.44031989908558
30
0
40
6.4999999999999867
210
-0
220
0
230
1
0
CIRCLE
5
293
100
AcDbEntity
8
0
100
AcDbCircle
10
871.74426319039424
20
-485.40972684199687
30
0
40
6.4999999999999867
210
0
220
0
230
1
0
LWPOLYLINE
5
294
100
AcDbEntity
8
0
100
AcDbPolyline
90
4
70
1
43
0.0
10
873.60574926987238
20
-445.45306444915042
42
0.99999999999999989
10
869.88277711091609
20
-525.36638923484338
10
1319.3952290304383
20
-546.30810762897477
42
0.99999999999999989
10
1323.1182011893952
20
-466.39478284328186
0
LWPOLYLINE
5
295
100
AcDbEntity
8
0
100
AcDbPolyline
90
16
70
1
43
0.0
10
763.08553331627479
20
-368.18176269531364
42
0.99999999999999989
10
767.36409502787865
20
-363.90320098371035
10
767.36409502787865
20
-360.68176269531369
10
1237.3640950278789
20
-360.68176269531364
10
1237.3640950278786
20
-363.90320098371001
42
0.99999999999999989
10
1241.6426567394824
20
-368.18176269531335
10
1254.5372200278791
20
-368.18176269531335
10
1254.5372200278791
20
-423.18176269531364
10
1241.6426567394824
20
-423.18176269531358
42
0.99999999999999989
10
1237.3640950278791
20
-427.46032440691721
10
1237.3640950278789
20
-430.68176269531358
10
767.36409502787865
20
-430.68176269531364
10
767.36409502787865
20
-427.46032440691692
42
0.99999999999999989
10
763.08553331627479
20
-423.18176269531364
10
750.19097002788044
20
-423.18176269531364
10
750.19097002788067
20
-368.18176269531364
0
CIRCLE
5
296
100
AcDbEntity
8
0
100
AcDbCircle
10
802.36409502787978
20
-395.68176269531364
30
0
40
2.999999999999972
210
-0
220
0
230
1
0
CIRCLE
5
297
100
AcDbEntity
8
0
100
AcDbCircle
10
1202.36409502788
20
-395.68176269531364
30
0
40
2.999999999999972
210
-0
220
0
230
1
0
LWPOLYLINE
5
298
100
AcDbEntity
8
0
100
AcDbPolyline
90
16
70
1
43
0.0
10
1237.3640136718382
20
-292.40307690832367
42
0.99999999999999989
10
1241.6425753834415
20
-296.68163861992753
10
1254.5371386718309
20
-296.68163861992724
10
1254.5371386718309
20
-336.68163861992724
10
1241.6425753834417
20
-336.68163861992724
42
0.99999999999999989
10
1237.3640136718382
20
-340.96020033153081
10
1237.3640136718379
20
-346.68163861992684
10
732.36401367183794
20
-346.68163861992696
10
732.36401367183794
20
-340.96020033153081
42
0.99999999999999989
10
728.08545196023397
20
-336.68163861992753
10
715.19088867183791
20
-336.68163861992753
10
715.19088867183825
20
-296.68163861992724
10
728.08545196023374
20
-296.68163861992724
42
0.99999999999999989
10
732.36401367183794
20
-292.40307690832424
10
732.36401367183805
20
-286.68163861992679
10
1237.3640136718382
20
-286.68163861992696
0
CIRCLE
5
299
100
AcDbEntity
8
0
100
AcDbCircle
10
784.86401367183794
20
-316.68163861992753
30
0
40
3.0000000000001141
210
-0
220
0
230
1
0
CIRCLE
5
300
100
AcDbEntity
8
0
100
AcDbCircle
10
1184.8640136718379
20
-316.68163861992753
30
0
40
3.0000000000001141
210
-0
220
0
230
1
0
LWPOLYLINE
5
301
100
AcDbEntity
8
0
100
AcDbPolyline
90
16
70
1
43
0.0
10
1237.3642578124627
20
-163.72119214269873
42
0.99999999999999989
10
1241.642819524066
20
-167.99975385430258
10
1254.5373828124557
20
-167.9997538543023
10
1254.5373828124557
20
-207.9997538543023
10
1241.6428195240665
20
-207.9997538543023
42
0.99999999999999989
10
1237.3642578124627
20
-212.27831556590587
10
1237.3642578124627
20
-217.9997538543019
10
732.36425781246248
20
-217.99975385430201
10
732.36425781246248
20
-212.27831556590587
42
0.99999999999999989
10
728.08569610085874
20
-207.99975385430258
10
715.19113281246268
20
-207.99975385430258
10
715.19113281246291
20
-167.9997538543023
10
728.0856961008584
20
-167.9997538543023
42
0.99999999999999989
10
732.36425781246248
20
-163.72119214269929
10
732.36425781246271
20
-157.99975385430184
10
1237.3642578124627
20
-157.99975385430201
0
CIRCLE
5
302
100
AcDbEntity
8
0
100
AcDbCircle
10
784.86425781246248
20
-187.99975385430258
30
0
40
3.0000000000001141
210
-0
220
0
230
1
0
CIRCLE
5
303
100
AcDbEntity
8
0
100
AcDbCircle
10
1184.8642578124625
20
-187.99975385430258
30
0
40
3.0000000000001141
210
-0
220
0
230
1
0
LWPOLYLINE
5
304
100
AcDbEntity
8
0
100
AcDbPolyline
90
16
70
1
43
0.0
10
1271.7104492187132
20
-89.721436283323612
42
0.99999999999999989
10
1275.9890109303165
20
-93.999997994927469
10
1288.8835742187061
20
-93.999997994927185
10
1288.8835742187061
20
-133.99999799492718
10
1275.9890109303169
20
-133.99999799492718
42
0.99999999999999989
10
1271.7104492187132
20
-138.27855970653076
10
1271.7104492187132
20
-143.99999799492679
10
766.71044921871294
20
-143.9999979949269
10
766.71044921871294
20
-138.27855970653076
42
0.99999999999999989
10
762.4318875071092
20
-133.99999799492747
10
749.53732421871314
20
-133.99999799492747
10
749.53732421871337
20
-93.999997994927185
10
762.43188750710885
20
-93.999997994927185
42
0.99999999999999989
10
766.71044921871294
20
-89.721436283324181
10
766.71044921871317
20
-83.99999799492673
10
1271.7104492187132
20
-83.9999979949269
0
CIRCLE
5
305
100
AcDbEntity
8
0
100
AcDbCircle
10
819.21044921871294
20
-113.99999799492747
30
0
40
3.0000000000001141
210
-0
220
0
230
1
0
CIRCLE
5
306
100
AcDbEntity
8
0
100
AcDbCircle
10
1219.2104492187129
20
-113.99999799492747
30
0
40
3.0000000000001141
210
-0
220
0
230
1
0
LWPOLYLINE
5
307
100
AcDbEntity
8
0
100
AcDbPolyline
90
16
70
1
43
0.0
10
1306.0563964843386
20
-15.721436283323563
42
0.99999999999999989
10
1310.3349581959419
20
-19.999997994927266
10
1323.2295214843314
20
-19.999997994927121
10
1323.2295214843314
20
-59.999997994927128
10
1310.3349581959421
20
-59.999997994927142
42
0.99999999999999989
10
1306.0563964843386
20
-64.2785597065307
10
1306.0563964843386
20
-69.99999799492673
10
801.05639648433817
20
-69.999997994926844
10
801.05639648433817
20
-64.2785597065307
42
0.99999999999999989
10
796.77783477273442
20
-59.999997994927412
10
783.88327148433837
20
-59.999997994927419
10
783.88327148433859
20
-19.999997994927131
10
796.77783477273408
20
-19.999997994927121
42
0.99999999999999989
10
801.05639648433817
20
-15.721436283324124
10
801.05639648433839
20
-9.9999979949266713
10
1306.0563964843386
20
-9.9999979949268418
0
CIRCLE
5
308
100
AcDbEntity
8
0
100
AcDbCircle
10
853.55639648433817
20
-39.999997994927412
30
0
40
3.0000000000001141
210
-0
220
0
230
1
0
CIRCLE
5
309
100
AcDbEntity
8
0
100
AcDbCircle
10
1253.5563964843382
20
-39.999997994927412
30
0
40
3.0000000000001141
210
-0
220
0
230
1
0
LWPOLYLINE
5
310
100
AcDbEntity
8
0
100
AcDbPolyline
90
14
70
1
43
0.0
10
766.06442871093736
20
-534.35271942644727
42
0.99999999999999989
10
761.78586699933373
20
-530.07415771484375
10
746.06442871093702
20
-530.07415771484386
10
746.06442871093691
20
-517.90103271484384
42
-0.41421356237310752
10
751.06442871093702
20
-512.90103271484384
10
821.06442871093691
20
-512.90103271484395
42
-0.41421356237310752
10
826.06442871093702
20
-517.90103271484384
10
826.06442871093702
20
-530.07415771484386
10
810.34299042254088
20
-530.07415771484386
42
0.99999999999999989
10
806.06442871093714
20
-534.35271942644727
10
806.06442871093736
20
-593.76665771484375
42
-0.41421356237310752
10
801.06442871093714
20
-598.76665771484386
10
771.06442871093714
20
-598.76665771484363
42
-0.41421356237311169
10
766.06442871093714
20
-593.76665771484363
0
LWPOLYLINE
5
311
100
AcDbEntity
8
0
100
AcDbPolyline
90
8
70
1
43
0.0
10
794.60099121093731
20
-568.69896942644732
42
0.99999999999999989
10
790.32242949933379
20
-564.4204077148438
10
781.80642792254093
20
-564.4204077148438
42
0.99999999999999989
10
777.52786621093719
20
-568.69896942644732
10
777.52786621093719
20
-580.04184600324049
42
0.99999999999999989
10
781.80642792254093
20
-584.32040771484378
10
790.32242949933357
20
-584.32040771484378
42
0.99999999999999989
10
794.60099121093731
20
-580.04184600324027
0
ENDSEC
0
SECTION
2
OBJECTS
0
DICTIONARY
5
C
100
AcDbDictionary
3
ACAD_GROUP
350
D
3
ACAD_MLINESTYLE
350
17
0
DICTIONARY
5
D
100
AcDbDictionary
0
DICTIONARY
5
1A
330
C
100
AcDbDictionary
0
DICTIONARY
5
17
100
AcDbDictionary
0
ENDSEC
0
EOF
