0
SECTION
2
HEADER
9
$INSUNITS
70
4
9
$ACADVER
1
AC1014
9
$HANDSEED
5
FFFF
0
ENDSEC
0
SECTION
2
TABLES
0
TABLE
2
VPORT
5
8
100
AcDbSymbolTable
0
ENDTAB
0
TABLE
2
LTYPE
5
5
100
AcDbSymbolTable
0
LTYPE
5
14
100
AcDbSymbolTableRecord
100
AcDbLinetypeTableRecord
2
BYBLOCK
70
0
0
LTYPE
5
15
100
AcDbSymbolTableRecord
100
AcDbLinetypeTableRecord
2
BYLAYER
70
0
0
LTYPE
5
16
100
AcDbSymbolTableRecord
100
AcDbLinetypeTableRecord
2
DASHED
70
0
3
Dashed __ __ __ __ __ __ __ __ __ __ __ __ __ _
72
65
73
2
40
0.75
49
0.5
74
0
49
-0.25
74
0
0
ENDTAB
0
TABLE
2
LAYER
5
2
100
AcDbSymbolTable
70
2
0
LAYER
5
50
100
AcDbSymbolTableRecord
100
AcDbLayerTableRecord
2
0
70
0
62
7
6
CONTINUOUS
0
ENDTAB
0
TABLE
2
STYLE
5
3
100
AcDbSymbolTable
70
1
0
STYLE
5
11
100
AcDbSymbolTableRecord
100
AcDbTextStyleTableRecord
2
STANDARD
70
0
0
ENDTAB
0
TABLE
2
VIEW
5
6
100
AcDbSymbolTable
70
0
0
ENDTAB
0
TABLE
2
UCS
5
7
100
AcDbSymbolTable
70
0
0
ENDTAB
0
TABLE
2
APPID
5
9
100
AcDbSymbolTable
70
2
0
APPID
5
12
100
AcDbSymbolTableRecord
100
AcDbRegAppTableRecord
2
ACAD
70
0
0
ENDTAB
0
TABLE
2
DIMSTYLE
5
A
100
AcDbSymbolTable
70
1
0
ENDTAB
0
TABLE
2
BLOCK_RECORD
5
1
100
AcDbSymbolTable
70
1
0
BLOCK_RECORD
5
1F
100
AcDbSymbolTableRecord
100
AcDbBlockTableRecord
2
*MODEL_SPACE
0
BLOCK_RECORD
5
1B
100
AcDbSymbolTableRecord
100
AcDbBlockTableRecord
2
*PAPER_SPACE
0
ENDTAB
0
ENDSEC
0
SECTION
2
BLOCKS
0
BLOCK
5
20
100
AcDbEntity
100
AcDbBlockBegin
2
*MODEL_SPACE
0
ENDBLK
5
21
100
AcDbEntity
100
AcDbBlockEnd
0
BLOCK
5
1C
100
AcDbEntity
100
AcDbBlockBegin
2
*PAPER_SPACE
0
ENDBLK
5
1D
100
AcDbEntity
100
AcDbBlockEnd
0
ENDSEC
0
SECTION
2
ENTITIES
0
LWPOLYLINE
5
100
100
AcDbEntity
8
0
100
AcDbPolyline
90
388
70
1
43
0.0
10
-204.49381637573248
20
190.08460222880046
10
-204.3668053944906
20
189.96553649902347
10
-202.98568814595544
20
188.36481056213381
10
-201.97232945760095
20
186.51007881164557
10
-201.37173627217612
20
184.48337758382164
10
-201.21032816569013
20
182.37728843688967
10
-201.49608268737796
20
180.28444137573243
10
-202.21310933430993
20
178.29476954142254
10
-203.33229166666669
20
176.50353520711263
10
-204.80602277119957
20
174.98747787475591
10
-206.56285998026533
20
173.81272722880044
10
-208.52606379191084
20
173.03485158284508
10
-210.61098175048829
20
172.68824806213385
10
-212.72235158284505
20
172.78614260355636
10
-214.76494331359868
20
173.3259029388428
10
-214.82844072977707
20
172.48981056213381
10
-214.88928972880049
20
171.66696027119957
10
-214.95278714497888
20
170.84939066569012
10
-215.01365229288737
20
170.04241472880051
10
-215.0718528747559
20
169.24601631164552
10
-215.13006960550945
20
168.46021156311036
10
-215.18562177022301
20
167.68498433430995
10
-215.23589324951175
20
166.92298304239912
10
-215.28351631164554
20
166.17155927022304
10
-215.32850710550946
20
165.43602600097657
10
-215.43168233235679
20
163.4040279388428
10
-215.51899935404461
20
161.36673304239912
10
-215.58514518737798
20
159.32943814595541
10
-215.63806508382163
20
157.28949483235678
10
-215.67511062622074
20
155.24427083333336
10
-215.69891408284508
20
153.19904683430994
10
-215.70950775146488
20
151.15117441813152
10
-215.70950775146488
20
149.10328585306806
10
-215.69891408284508
20
147.05276501973472
10
-215.67774289449059
20
144.99961191813154
10
-215.64864260355634
20
142.9490910847982
10
-215.61159706115723
20
140.89592183430992
10
-215.56927083333335
20
138.84275258382164
10
-215.5242961883545
20
136.78693491617841
10
-215.47137629191084
20
134.73377374013268
10
-215.41845639546716
20
132.6806044896444
10
-215.3628880818685
20
130.63008365631106
10
-215.307335917155
20
128.57956282297772
10
-215.20149612426761
20
124.47852115631106
10
-215.15122464497887
20
122.43328908284508
10
-215.10625000000005
20
120.38806508382164
10
-215.06392377217617
20
118.34548142751061
10
-215.03215891520188
20
116.30553811391195
10
-215.00570704142257
20
114.26825129191084
10
-214.987184270223
20
112.23360481262208
10
-214.987184270223
20
112.09866472880046
10
-215.00570704142257
20
110.06401824951175
10
-215.03215891520185
20
108.0267314275106
10
-215.06392377217611
20
105.98678811391196
10
-215.10625000000005
20
103.94420445760092
10
-215.1512246449789
20
101.89898045857748
10
-215.20149612426763
20
99.853748385111501
10
-215.25441602071129
20
97.805875968933123
10
-215.307335917155
20
95.755355135599785
10
-215.36288808186853
20
93.702185885111504
10
-215.41845639546719
20
91.651665051778167
10
-215.47137629191084
20
89.598503875732433
10
-215.52429618835453
20
87.545334625244152
10
-215.56927083333338
20
85.492165374755871
10
-215.61159706115723
20
83.436355781555193
10
-215.64864260355634
20
81.383186531066912
10
-215.67774289449059
20
79.332665697733574
10
-215.69891408284508
20
77.279496447245293
10
-215.70950775146488
20
75.22897561391197
10
-215.70950775146488
20
73.181103197733563
10
-215.69891408284508
20
71.133230781555184
10
-215.67511062622074
20
69.087998708089202
10
-215.63806508382163
20
67.045415051778164
10
-215.58514518737795
20
65.002831395467126
10
-215.51899935404461
20
62.965540536244724
10
-215.43168233235684
20
60.930894056955971
10
-215.32850710550946
20
58.898895994822183
10
-215.21472206115726
20
57.06533139546714
10
-215.07714970906576
20
55.157687822977707
10
-214.92898368835455
20
53.186542797088627
10
-214.7781692504883
20
51.157189114888517
10
-214.62735481262212
20
49.082852713267009
10
-214.4924147288005
20
46.9688344637553
10
-214.37864583333337
20
44.823063468933114
10
-214.29397722880049
20
42.658769702911385
10
-214.24635416666666
20
40.478605620066332
10
-214.24635416666672
20
38.295793120066328
10
-214.30192248026538
20
36.118269379933672
10
-214.42362047831222
20
33.95133527119954
10
-214.61412887573246
20
31.808208656311034
10
-214.88664131164555
20
29.694188388188678
10
-215.2491191864014
20
27.622500403722121
10
-215.71214001973473
20
25.595791101455703
10
-216.27835222880049
20
23.627292474110924
10
-216.96098175048832
20
21.722291262944537
10
-217.76530927022299
20
19.891375080744425
10
-218.70457687377933
20
18.14512548446654
10
-219.78143297831221
20
16.488833252588897
10
-220.63075129191083
20
15.324666182200133
10
-221.53034108479824
20
14.147271156311021
10
-222.48548304239915
20
12.98045869668325
10
-223.5041224161784
20
11.850687742233283
10
-224.5862753550212
20
10.781770833333333
10
-225.73720639546718
20
9.8001669088999321
10
-226.95958010355633
20
8.9270421107610076
10
-228.26397399902348
20
8.1888543685277426
10
-229.64775581359868
20
7.6120626211166353
10
-231.11619008382164
20
7.2231247981389402
10
-231.48396479288738
20
7.231062479813879
10
-232.47085545857755
20
7.257520914077773
10
-233.92606379191082
20
7.2945624192555769
10
-235.68818168640138
20
7.3421875000000014
10
-237.60905927022299
20
7.3924584746360722
10
-239.52728843688965
20
7.4427289446195033
10
-241.29205474853521
20
7.4903540253639278
10
-242.74991149902348
20
7.530041424433378
10
-243.74209899902348
20
7.5538539648055902
10
-244.11252212524417
20
7.5644375403722108
10
-246.14716860453291
20
7.4347917675972042
10
-248.17651824951179
20
7.2733957727750109
10
-250.2032356262207
20
7.0855418483416344
10
-252.22728843688969
20
6.8765207727750166
10
-254.24606056213383
20
6.6542707324028072
10
-256.26748110453292
20
6.4267294088999449
10
-258.28625322977706
20
6.1965416868527612
10
-260.3050253550212
20
5.9742916464805518
10
-262.32642974853519
20
5.762625181674963
10
-264.34785029093428
20
5.5694789648056187
10
-266.3719192504883
20
5.4027916868527726
10
-268.40126889546718
20
5.2678541262944378
10
-270.43326695760095
20
5.1726039648055888
10
-272.4705780029297
20
5.119687600930547
10
-274.5131535847982
20
5.1170417070388652
10
-276.5610260009766
20
5.1752498586972706
10
-278.68298950195316
20
5.2996043483416244
10
-280.79700775146489
20
5.4848123788833547
10
-282.90837758382162
20
5.720291888713831
10
-285.01445058186852
20
5.998104186852764
10
-287.11525904337572
20
6.3050208131472374
10
-289.21603520711267
20
6.6331040859222412
10
-291.31154683430998
20
6.9691250403722194
10
-293.40702616373699
20
7.3025001009305157
10
-295.5025377909343
20
7.625291585922227
10
-297.59540100097661
20
7.9269164244334078
10
-299.69088033040367
20
8.19414565165836
10
-301.78639195760093
20
8.4190415859222512
10
-303.88190358479824
20
8.588374757766708
10
-304.49837112426763
20
8.6042501211166211
10
-305.11222254435228
20
8.5751457929611163
10
-305.72604166666673
20
8.5116453488667787
10
-306.33986078898118
20
8.4216874798138974
10
-306.95106379191083
20
8.3185001413027493
10
-307.56488291422534
20
8.2073751211166268
10
-308.17873433430998
20
8.1015418887138324
10
-308.79255345662438
20
8.0089376211166297
10
-309.40640487670908
20
7.9401458938916392
10
-310.02287241617847
20
7.9057497779528418
10
-312.33532816569016
20
7.9083956718444881
10
-314.48639195760097
20
8.040687338511141
10
-316.49457041422528
20
8.3237914244334021
10
-318.3784024556478
20
8.7709379037221424
10
-320.16172383626304
20
9.3980001211166453
10
-321.86032816569013
20
10.223499838511145
10
-323.49281895955414
20
11.258020631472263
10
-325.08296737670901
20
12.522729651133204
10
-326.64663162231449
20
14.030853843688966
10
-328.20767974853516
20
15.798270591100056
10
-329.03053003946945
20
16.909520792961139
10
-329.73433074951174
20
18.071042474110932
10
-330.33229166666672
20
19.280188226699835
10
-330.83235804239911
20
20.531666262944555
10
-331.25038808186849
20
21.820187822977708
10
-331.59965616861984
20
23.137811692555736
10
-331.8880429585775
20
24.479249111811328
10
-332.13411966959643
20
25.841853682200124
10
-332.34576695760097
20
27.215041828155506
10
-332.53625920613615
20
28.598811531066914
10
-334.14759496053068
20
27.265313307444252
10
-335.99967829386401
20
26.294290939966842
10
-338.01580200195315
20
25.733375565210963
10
-340.10336837768563
20
25.60108389854431
10
-342.17239583333338
20
25.907999515533433
10
-344.13031895955407
20
26.638250080744434
10
-345.8977175394694
20
27.760082848866787
10
-347.3899714152019
20
29.223228359222411
10
-348.54619928995771
20
30.966833575566604
10
-349.31614583333339
20
32.911520671844485
10
-349.66276550292969
20
34.975271479288743
10
-349.57278391520191
20
37.065478197733569
10
-349.04891408284504
20
39.089543120066338
10
-348.11757558186855
20
40.962793604532877
10
-346.81584625244147
20
42.60056104660034
10
-345.201862080892
20
43.931414890289311
10
-343.34713033040373
20
44.897146479288743
10
-341.33100662231459
20
45.455417474110931
10
-339.24347254435224
20
45.582416343688976
10
-339.39956766764328
20
45.870811208089194
10
-339.54506912231443
20
46.15391731262207
10
-339.67736078898122
20
46.43437500000001
10
-339.7964426676433
20
46.712188307444258
10
-339.90228246053061
20
46.987353197733555
10
-339.99223175048832
20
47.257229328155539
10
-340.06632283528654
20
47.521812661488845
10
-340.1218750000001
20
47.783751614888516
10
-340.16156895955407
20
48.037749354044607
10
-340.18007558186855
20
48.283813953399672
10
-340.25151824951172
20
50.342271963755287
10
-340.30707041422534
20
52.398081556955987
10
-340.35206120808925
20
54.453895187377945
10
-340.38645833333334
20
56.51235319773356
10
-340.41026178995776
20
58.568166828155519
10
-340.42350387573242
20
60.626624838511169
10
-340.42615229288737
20
62.682438468933128
10
-340.42350387573254
20
64.74089647928875
10
-340.4102617899577
20
66.799354489644372
10
-340.39175516764323
20
68.857812500000009
10
-340.36795171101892
20
70.916270510355645
10
-340.33881912231448
20
72.974728520711267
10
-340.30442199707039
20
75.033186531066903
10
-340.2647603352865
20
77.091644541422539
10
-340.22506637573252
20
79.150102551778176
10
-340.18272399902344
20
81.211208979288756
10
-340.13776550292971
20
83.269666989644392
10
-340.09542312622074
20
85.328125000000028
10
-340.05043233235682
20
87.386583010355636
10
-340.00808995564785
20
89.447689437866217
10
-339.96577987670901
20
91.506147448221853
10
-339.92873433430992
20
93.564605458577489
10
-339.89433720906584
20
95.625711886088069
10
-339.86258850097664
20
97.684169896443706
10
-339.83878504435222
20
99.745268249511724
10
-339.81759770711267
20
101.80372625986736
10
-339.80438791910814
20
103.862184270223
10
-339.79909108479825
20
105.92329069773358
10
-339.80173950195314
20
107.98174870808921
10
-339.81494928995772
20
110.04020671844485
10
-339.83613662719733
20
112.10131314595543
10
-339.83613662719733
20
112.23360481262208
10
-339.81494928995772
20
114.29206282297771
10
-339.80173950195314
20
116.35052083333335
10
-339.79909108479825
20
118.41162726084393
10
-339.80438791910814
20
120.47008527119957
10
-339.81759770711272
20
122.5285432815552
10
-339.83878504435233
20
124.58964970906578
10
-339.86258850097664
20
126.64810771942142
10
-339.89433720906584
20
128.70656572977703
10
-339.92873433430992
20
130.76766408284504
10
-339.96577987670901
20
132.82612209320069
10
-340.00808995564785
20
134.88458010355635
10
-340.05043233235682
20
136.94569460550946
10
-340.09542312622074
20
139.00414454142253
10
-340.13776550292971
20
141.0626106262207
10
-340.18272399902349
20
143.12370897928875
10
-340.22506637573252
20
145.18215891520182
10
-340.26476033528644
20
147.24062499999999
10
-340.30442199707039
20
149.29909108479819
10
-340.33881912231448
20
151.35754102071127
10
-340.36795171101892
20
153.41600710550946
10
-340.39175516764328
20
155.47445704142254
10
-340.41026178995776
20
157.53292312622074
10
-340.42350387573242
20
159.59137306213381
10
-340.42615229288737
20
161.64983914693198
10
-340.42350387573254
20
163.70828908284508
10
-340.4102617899577
20
165.76410675048831
10
-340.38645833333334
20
167.82255668640141
10
-340.35206120808931
20
169.87837435404461
10
-340.30707041422534
20
171.93419202168783
10
-340.25151824951172
20
173.99264195760094
10
-340.18007558186855
20
176.04845962524416
10
-340.01868362426762
20
176.98507881164551
10
-339.63505071004238
20
177.99049224853516
10
-339.07943216959637
20
179.03295122782393
10
-338.40738016764328
20
180.09393297831221
10
-337.66388549804685
20
181.14168879191084
10
-336.90453262329106
20
182.14975064595541
10
-336.17692845662441
20
183.09696350097656
10
-335.5340090433757
20
183.95421091715497
10
-335.02864583333343
20
184.69239260355636
10
-334.70851033528652
20
185.29300193786625
10
-334.05761337280285
20
187.16360804239912
10
-333.56549224853518
20
189.10828908284509
10
-333.18450775146493
20
191.10589001973472
10
-332.8802304585775
20
193.14053649902348
10
-332.60505345662443
20
195.19370574951176
10
-332.3246119181315
20
197.24687500000002
10
-331.99653116861987
20
199.28152147928876
10
-331.57846883138018
20
201.27912241617844
10
-331.03079554239918
20
203.22117118835453
10
-330.31378504435224
20
205.08912887573246
10
-329.38509496053064
20
206.86712112426761
10
-328.20767974853527
20
208.53399289449058
10
-326.64663162231449
20
210.30142377217612
10
-325.08296737670901
20
211.80953585306807
10
-323.49281895955409
20
213.07425193786625
10
-321.86032816569013
20
214.10876566569013
10
-320.16172383626315
20
214.93426437377931
10
-318.3784024556478
20
215.56132558186852
10
-316.49457041422534
20
216.00847206115728
10
-314.48639195760097
20
216.29157816569017
10
-312.33532816569016
20
216.42651824951173
10
-310.02287241617842
20
216.42651824951176
10
-309.40640487670902
20
216.39212112426762
10
-308.79255345662438
20
216.32332687377931
10
-308.17873433430992
20
216.23072916666669
10
-307.56488291422528
20
216.12488937377933
10
-306.95106379191083
20
216.01641731262208
10
-306.33986078898113
20
215.91057751973472
10
-305.72604166666667
20
215.82062822977704
10
-305.11222254435222
20
215.75713081359865
10
-304.49837112426758
20
215.72801437377933
10
-303.88190358479824
20
215.74388872782393
10
-301.78639195760093
20
215.91587435404463
10
-299.69088033040367
20
216.13813145955407
10
-297.59540100097661
20
216.40534706115727
10
-295.5025377909343
20
216.70697593688968
10
-293.40702616373699
20
217.02977600097657
10
-291.31154683430992
20
217.36315358479823
10
-289.21603520711267
20
217.69916343688971
10
-287.11525904337572
20
218.02724418640142
10
-285.01445058186852
20
218.33416989644371
10
-282.90837758382162
20
218.61197916666671
10
-280.79700775146489
20
218.84746220906578
10
-278.68298950195316
20
219.03530604044596
10
-276.5610260009766
20
219.15966860453292
10
-274.5131535847982
20
219.21523691813155
10
-272.4705780029297
20
219.21258850097658
10
-270.43326695760095
20
219.16231702168784
10
-268.40126889546713
20
219.06442248026534
10
-266.3719192504883
20
218.92948239644372
10
-264.34785029093428
20
218.76279360453293
10
-262.32642974853519
20
218.56965293884284
10
-260.3050253550212
20
218.36062177022299
10
-258.28625322977706
20
218.13573239644373
10
-256.26748110453286
20
217.90554618835449
10
-254.24606056213381
20
217.67799224853516
10
-252.22728843688967
20
217.45575129191084
10
-250.20323562622076
20
217.249368540446
10
-248.17651824951179
20
217.05887629191085
10
-246.14716860453288
20
216.89748433430995
10
-244.11252212524417
20
216.76784108479822
10
-243.74209899902348
20
216.77841860453293
10
-242.74991149902348
20
216.80487047831221
10
-241.29205474853521
20
216.84191602071132
10
-239.52728843688971
20
216.88953908284509
10
-237.60905927022304
20
216.9398105621338
10
-235.68818168640138
20
216.99008204142257
10
-233.92606379191082
20
217.03770510355636
10
-232.47085545857749
20
217.07739906311042
10
-231.48396479288738
20
217.10120251973473
10
-231.11619008382166
20
217.11179618835456
10
-229.64775581359868
20
216.72020187377933
10
-228.26397399902348
20
216.14341214497887
10
-226.95958010355636
20
215.40523045857751
10
-225.73720639546718
20
214.53475710550947
10
-224.58627535502117
20
213.55049870808924
10
-223.50412241617843
20
212.48158785502119
10
-222.48548304239915
20
211.35181185404463
10
-221.53034108479818
20
210.18500645955407
10
-220.63075129191083
20
209.00760739644372
10
-219.78143297831221
20
207.84343427022304
10
-218.96123110453291
20
206.6104830423991
10
-218.21775258382164
20
205.3272441864014
10
-217.55364583333335
20
203.99110158284509
10
-216.96098175048832
20
202.61263275146487
10
-216.43711191813154
20
201.19180539449059
10
-215.98202018737794
20
199.73131637573243
10
-215.58779360453292
20
198.23906250000005
10
-215.25176760355635
20
196.7150599161784
10
-214.9713099161784
20
195.16460545857751
10
-214.74112370808922
20
193.59033139546713
10
-213.77538808186853
20
193.76496543884281
10
-212.79644266764325
20
193.84698562622074
10
-211.81483268737793
20
193.83111127217614
10
-210.83851954142258
20
193.71732622782392
10
-209.87808074951175
20
193.51095962524414
10
-208.94410998026532
20
193.20933074951174
10
-208.041871770223
20
192.8204010009766
10
-207.18462435404462
20
192.34150581359867
10
-206.37500000000003
20
191.78322270711266
10
-205.62622464497889
20
191.14558397928877
10
-205.50187822977705
20
191.0291666666667
10
-205.3748672485352
20
190.91010093688965
10
-205.25052083333338
20
190.79103520711266
10
-205.1235260009766
20
190.67461789449058
10
-204.99651501973474
20
190.55556831359866
10
-204.8721686045329
20
190.43915100097655
10
-204.74517377217612
20
190.32008527119956
10
-204.61816279093429
20
190.20101954142257
0
LWPOLYLINE
5
101
100
AcDbEntity
8
0
100
AcDbPolyline
90
246
70
1
43
0.0
10
-55.853543281555176
20
31.294916343688968
10
-55.713314437866224
20
31.546271721522015
10
-55.73447755177817
20
31.543625322977711
10
-55.755644702911397
20
31.538332525889086
10
-55.779460271199554
20
31.53304174741109
10
-55.800623385111493
20
31.530395348866787
10
-55.82179053624472
20
31.525104570388791
10
-55.845606104532877
20
31.519811773300184
10
-55.866769218444823
20
31.517167393366492
10
-55.887936369578064
20
31.511874596277885
10
-55.911751937866221
20
31.506583817799889
10
-55.932915051778167
20
31.501291020711264
10
-56.210728359222415
20
31.400750080744437
10
-56.639356104532901
20
31.194375403722141
10
-57.181748708089195
20
30.927145671844478
10
-57.808813953399678
20
30.625520833333333
10
-58.488791020711268
20
30.331833171844487
10
-59.184646479288752
20
30.075187015533444
10
-59.867271963755293
20
29.897916666666688
10
-60.499625968933124
20
29.829124434789023
10
-61.052604166666669
20
29.908500242233274
10
-61.49181346893311
20
30.16779077847799
10
-62.999937661488872
20
31.824083010355633
10
-64.256708494822192
20
33.58091618220012
10
-65.299167474110931
20
35.427706718444831
10
-66.16700048446657
20
37.345935885111494
10
-66.89460465113325
20
39.325022125244153
10
-67.519021479288739
20
41.354375807444264
10
-68.074648094177249
20
43.41547819773357
10
-68.601166343688959
20
45.497751776377378
10
-69.135621770222997
20
47.587958494822189
10
-69.712419573465993
20
49.672876453399653
10
-69.982291666666683
20
50.506312338511151
10
-70.291857719421387
20
51.32652228673301
10
-70.627875645955413
20
52.138791020711267
10
-70.979767926534009
20
52.945770994822183
10
-71.334308624267607
20
53.752750968933114
10
-71.68620897928875
20
54.559730943044045
10
-72.016938145955422
20
55.371999677022302
10
-72.318558947245293
20
56.192209625244161
10
-72.577853520711272
20
57.025645510355645
10
-72.786876614888527
20
57.874959786732987
10
-73.175814437866222
20
59.832874838511145
10
-73.525066375732422
20
61.806668281555176
10
-73.839913113911962
20
63.796332041422531
10
-74.115082041422539
20
65.796581395467115
10
-74.355853843688976
20
67.810064760843929
10
-74.562228520711272
20
69.831477228800466
10
-74.731565729777031
20
71.863475290934247
10
-74.863857396443692
20
73.903418604532888
10
-74.964392280578636
20
75.951291020711267
10
-75.027897771199548
20
78.004460271199576
10
-75.059646479288759
20
80.060269864400226
10
-75.05435771942139
20
82.121376291910821
10
-75.017312177022305
20
84.182482719421401
10
-74.948517926534038
20
86.243581072489434
10
-74.845334625244135
20
88.307335917154973
10
-74.707746124267587
20
90.365793927510595
10
-74.541065406799319
20
92.421603520711272
10
-74.339979489644378
20
94.474772771199568
10
-74.109793281555199
20
96.519996770223003
10
-73.847850290934247
20
98.55994008382163
10
-73.554166666666674
20
100.59193814595542
10
-73.231374677022316
20
102.61599903106691
10
-72.876833979288733
20
104.62683397928873
10
-72.493184916178407
20
106.62708333333336
10
-72.0804355621338
20
108.61410675048829
10
-71.638585917154955
20
110.58789615631106
10
-71.167627906799311
20
112.54581120808921
10
-70.667561531066923
20
114.48521156311037
10
-70.138394864400226
20
116.40872948964437
10
-69.680662790934264
20
118.15233268737796
10
-69.228227551778161
20
120.0388131459554
10
-68.762566375732433
20
122.02583656311036
10
-68.257211240132648
20
124.07106056213379
10
-67.693647448221853
20
126.13216698964439
10
-67.048063468933123
20
128.16946188608807
10
-66.3019365310669
20
130.13795445760093
10
-65.426166343688976
20
132.00062338511151
10
-64.402230135599794
20
133.71247787475588
10
-63.211605135599775
20
135.23383204142254
10
-61.825187015533452
20
136.52235158284506
10
-61.322480297088632
20
136.80545768737795
10
-60.822417958577475
20
136.89012629191083
10
-60.32764437993368
20
136.80545768737795
10
-59.838167635599788
20
136.58056831359866
10
-59.3566240310669
20
136.24454231262209
10
-58.883021640777606
20
135.82914454142255
10
-58.422645187377938
20
135.36347529093428
10
-57.972854328155528
20
134.87400258382164
10
-57.536293443044038
20
134.39510739644368
10
-57.115602874755865
20
133.95060125986737
10
-57.935812822977724
20
135.85824483235677
10
-58.345917797088624
20
137.89553972880049
10
-58.324750645955419
20
139.9725285847982
10
-57.874959786732987
20
142.00187822977705
10
-57.015063953399654
20
143.89363937377931
10
-55.784749031066895
20
145.56580797831219
10
-54.234290536244728
20
146.94958979288739
10
-52.432478682200113
20
147.98145510355633
10
-50.456040859222426
20
148.61910998026534
10
-48.389645671844477
20
148.83607025146486
10
-46.661916828155512
20
148.83607025146486
10
-44.545250161488852
20
148.60851631164553
10
-42.526478036244733
20
147.94177729288739
10
-40.692917474110928
20
146.8596243540446
10
-39.131873385111504
20
145.41499354044598
10
-37.909499677022289
20
143.67404683430991
10
-37.084000968933104
20
141.71347529093427
10
-36.692414728800458
20
139.62327664693197
10
-36.750623385111503
20
137.49601631164552
10
-37.258626937866204
20
135.42962112426758
10
-38.19260578155518
20
133.51668879191084
10
-37.742810885111489
20
133.92943814595543
10
-37.271852874755851
20
134.42420768737793
10
-36.782376130421959
20
134.96395994822188
10
-36.277020994822209
20
135.50636062622073
10
-35.755791505177825
20
136.01170768737796
10
-35.223980458577486
20
136.43503456115724
10
-34.681583817799897
20
136.73931185404462
10
-34.128605620066317
20
136.88482945760092
10
-33.572979005177821
20
136.82398045857749
10
-33.009417231877656
20
136.52235158284506
10
-31.625645510355653
20
135.23383204142254
10
-30.432374111811313
20
133.71247787475588
10
-29.408437903722131
20
132.00062338511151
10
-28.535312096277892
20
130.13795445760093
10
-27.786540778478006
20
128.16946188608807
10
-27.140958817799898
20
126.13216698964438
10
-26.577395025889068
20
124.07106056213379
10
-26.074688307444269
20
122.02583656311037
10
-25.606374677022288
20
120.03881314595543
10
-25.15393741925557
20
118.15233268737796
10
-24.696207364400244
20
116.40872948964437
10
-24.167040697733562
20
114.48521156311038
10
-23.669624757766741
20
112.54581120808921
10
-23.198666747411103
20
110.58789615631105
10
-22.754166666666649
20
108.61410675048829
10
-22.341417312622056
20
106.62708333333336
10
-21.957770268122374
20
104.62683397928873
10
-21.605875968933113
20
102.61599903106692
10
-21.28043758074444
20
100.59193814595542
10
-20.986749919255558
20
98.55994008382163
10
-20.724812984466539
20
96.519996770223003
10
-20.494624757766715
20
94.474772771199568
10
-20.293540859222432
20
92.421603520711272
10
-20.126854085922261
20
90.365793927510595
10
-19.991916020711251
20
88.307335917154973
10
-19.888728682200103
20
86.243581072489434
10
-19.817292070388781
20
84.182482719421401
10
-19.780250565210977
20
82.121376291910821
10
-19.777604166666656
20
80.060269864400226
10
-19.806708494822196
20
78.004460271199548
10
-19.870207929611219
20
75.951291020711267
10
-19.970750888188675
20
73.903418604532902
10
-20.10568693478902
20
71.863475290934247
10
-20.275020106633512
20
69.831477228800466
10
-20.478750403722117
20
67.810064760843929
10
-20.719520187377931
20
65.796581395467115
10
-20.997333494822179
20
63.796332041422531
10
-21.309541908899945
20
61.806668281555176
10
-21.661438226699836
20
59.83287483851116
10
-22.04772965113321
20
57.874959786732987
10
-22.256750726699828
20
57.025645510355645
10
-22.516041262944526
20
56.192209625244146
10
-22.817666101455707
20
55.371999677022302
10
-23.151041666666679
20
54.559730943044045
10
-23.500291585922248
20
53.752750968933114
10
-23.854834302266426
20
52.945770994822183
10
-24.206728601455687
20
52.138791020711267
10
-24.54275056521098
20
51.32652228673301
10
-24.852312580744425
20
50.506312338511151
10
-25.122186692555744
20
49.672876453399653
10
-25.698978439966851
20
47.587958494822189
10
-26.233437903722141
20
45.497751776377378
10
-26.759958171844502
20
43.41547819773357
10
-27.318229166666654
20
41.354375807444264
10
-27.939999596277865
20
39.325022125244153
10
-28.667603762944545
20
37.345935885111494
10
-29.535436773300177
20
35.427706718444831
10
-30.577895752588908
20
33.58091618220012
10
-31.834666585922236
20
31.824083010355633
10
-33.342790778477998
20
30.16779077847799
10
-33.689396317799876
20
29.942895348866791
10
-34.112727228800459
20
29.839708010355643
10
-34.596915213267003
20
29.842354408899965
10
-35.126081879933686
20
29.929667393366515
10
-35.681708494822182
20
30.085770591100065
10
-36.245272286733012
20
30.289500888188687
10
-36.800894864400249
20
30.524979893366506
10
-37.330061531066896
20
30.768396075566606
10
-37.81424951553344
20
31.006521479288747
10
-38.240228843688975
20
31.218186934789021
10
-37.922729651133231
20
30.56202139854431
10
-37.652853520711282
20
29.887333091100068
10
-37.433248869578044
20
29.191479651133214
10
-37.263915697733552
20
28.485042635599775
10
-37.144854005177805
20
27.765375645955395
10
-37.081352551778153
20
27.040415859222406
10
-37.070770994822198
20
26.312811692555762
10
-37.110456879933693
20
25.585207525889082
10
-37.205707041422542
20
24.865542554855367
10
-37.353873062133793
20
24.151166343688963
10
-37.369751453399651
20
24.085020510355619
10
-37.385625807444249
20
24.016228278477989
10
-37.401500161488848
20
23.950082445144645
10
-37.417374515533446
20
23.881292231877644
10
-37.435897286732995
20
23.8151463985443
10
-37.451771640777594
20
23.74635416666667
10
-37.467645994822192
20
23.680208333333326
10
-37.48352034886679
20
23.611416101455696
10
-37.499394702911388
20
23.545270268122351
10
-37.517917474110938
20
23.476480054855351
10
-38.221710109710685
20
21.510625807444264
10
-39.31972932815551
20
19.729979085922231
10
-40.764356104532879
20
18.219208494822183
10
-42.492084948221844
20
17.041813468933107
10
-44.426188468933105
20
16.248062459627803
10
-46.481998062133805
20
15.874999999999986
10
-48.57220881779989
20
15.935854045550037
10
-50.604206879933677
20
16.430624596277887
10
-52.488042958577488
20
17.338145510355645
10
-54.141688791910809
20
18.616083494822178
10
-55.493709786733007
20
20.21152067184449
10
-56.483248869578055
20
22.050374031066902
10
-57.070624192555748
20
24.058562580744436
10
-57.226727390289312
20
26.14347852071127
10
-56.948918120066345
20
28.215166505177827
10
-56.930395348866796
20
28.281312338511171
10
-56.914520994822198
20
28.350104570388801
10
-56.898646640777599
20
28.416250403722145
10
-56.882772286733001
20
28.485042635599775
10
-56.866893895467143
20
28.55118846893312
10
-56.848375161488853
20
28.617334302266428
10
-56.832500807444255
20
28.686124515533464
10
-56.816626453399657
20
28.752270348866773
10
-56.800748062133799
20
28.821062580744439
10
-56.784873708089201
20
28.887208414077747
10
-56.710790697733557
20
29.165021721522031
10
-56.631414890289307
20
29.442833010355649
10
-56.54410594304403
20
29.715353520711254
10
-56.446207364400237
20
29.987874031066895
10
-56.343020025889089
20
30.25510376294454
10
-56.231895510355642
20
30.522333494822185
10
-56.11283381779991
20
30.781624031066901
10
-55.98847932815552
20
31.040916585922247
0
LWPOLYLINE
5
102
100
AcDbEntity
8
0
100
AcDbPolyline
90
497
70
1
43
0.0
10
-385.13808720906582
20
264.48014195760101
10
-385.13808720906582
20
261.62794202168789
10
-384.45282541910814
20
261.63587112426762
10
-383.73048578898124
20
261.64116795857751
10
-382.96321996053058
20
261.6464647928874
10
-382.15357945760098
20
261.65439389546714
10
-381.29898045857749
20
261.66233914693203
10
-380.39939066569013
20
261.67026824951176
10
-379.45484237670905
20
261.6782135009766
10
-378.46000645955405
20
261.68614260355633
10
-377.41753133138025
20
261.69673627217617
10
-376.32744928995777
20
261.7046653747559
10
-374.30867716471363
20
261.72318814595548
10
-372.28990503946943
20
261.74435933430993
10
-370.27113291422529
20
261.7655143737793
10
-368.2497446695964
20
261.78933397928881
10
-366.2309725443522
20
261.81315358479821
10
-364.21220041910817
20
261.83695704142258
10
-362.19077987670909
20
261.86340891520183
10
-360.17200775146483
20
261.88987693786623
10
-358.15058720906586
20
261.91632881164554
10
-356.13181508382161
20
261.94544525146489
10
-354.11039454142264
20
261.97189712524414
10
-352.09162241617838
20
261.99834899902345
10
-350.07020187377941
20
262.02481702168791
10
-348.05142974853516
20
262.05126889546716
10
-346.03000920613619
20
262.07773691813156
10
-344.00858866373704
20
262.10154037475593
10
-341.98984883626309
20
262.12535998026533
10
-339.96842829386401
20
262.14916343688969
10
-337.94700775146487
20
262.17033462524421
10
-335.92823562622073
20
262.19150581359872
10
-333.90681508382164
20
262.20738016764324
10
-331.88539454142256
20
262.22590293884281
10
-329.86662241617842
20
262.23912887573243
10
-325.8237813313803
20
262.26028391520185
10
-323.80500920613611
20
262.26822916666669
10
-321.78358866373708
20
262.27087758382163
10
-317.74342829386393
20
262.27087758382163
10
-315.7220077514649
20
262.26558074951174
10
-313.7032356262207
20
262.25500322977706
10
-311.68181508382168
20
262.24440956115723
10
-309.66304295857748
20
262.22590293884281
10
-307.64427083333339
20
262.20738016764324
10
-305.62285029093425
20
262.18091214497883
10
-303.60407816569011
20
262.15181185404464
10
-301.58530604044597
20
262.1174147288005
10
-299.56653391520183
20
262.08036918640141
10
-297.54776178995775
20
262.03804295857753
10
-295.52898966471355
20
261.98777147928877
10
-293.51021753946941
20
261.93485158284506
10
-291.49144541422527
20
261.87400258382166
10
-289.47267328898113
20
261.81050516764327
10
-287.45654958089199
20
261.73906250000005
10
-285.43777745564785
20
261.66233914693203
10
-283.40579554239912
20
261.58295122782397
10
-281.3764297485352
20
261.50357945760095
10
-279.34709625244147
20
261.42685610453293
10
-277.3203788757325
20
261.35013275146486
10
-275.29630991617842
20
261.27339324951174
10
-273.27224095662439
20
261.19931831359867
10
-271.24817199707036
20
261.12787564595544
10
-269.22676760355637
20
261.05643297831216
10
-267.20534706115723
20
260.98763872782393
10
-265.18394266764324
20
260.91886062622075
10
-263.1651705423991
20
260.85271479288741
10
-261.14904683430996
20
260.78920122782392
10
-259.13027470906576
20
260.72835222880047
10
-257.11679941813156
20
260.66750322977703
10
-255.10065956115727
20
260.60928649902348
10
-253.08718427022302
20
260.55373433430992
10
-251.07106056213382
20
260.50081443786621
10
-249.06023368835451
20
260.44789454142256
10
-247.0467422485352
20
260.40027147928879
10
-245.03591537475589
20
260.35264841715497
10
-243.02508850097661
20
260.30767377217614
10
-241.0142454783122
20
260.26797981262212
10
-239.00341860453292
20
260.22828585306803
10
-236.99522399902349
20
260.1912564595541
10
-234.98439712524416
20
260.1595077514649
10
-232.97620251973473
20
260.12774289449061
10
-230.96802406311039
20
260.1012910207113
10
-228.95718104044602
20
260.07747141520184
10
-226.94900258382165
20
260.05631637573248
10
-224.94080797831225
20
260.03779360453291
10
-222.93262952168786
20
260.02191925048828
10
-220.92708333333334
20
260.0113255818685
10
-218.91888872782397
20
260.00339647928877
10
-216.91071027119958
20
259.99809964497888
10
-214.90251566569015
20
259.99809964497888
10
-212.89433720906578
20
260.00074806213382
10
-210.88614260355638
20
260.00869331359871
10
-208.87531572977704
20
260.01662241617839
10
-206.86712112426761
20
260.03249677022302
10
-204.85894266764325
20
260.05101954142259
10
-202.8480996449789
20
260.07219072977705
10
-200.83727277119959
20
260.09864260355636
10
-198.82642974853522
20
260.13039131164555
10
-196.81560287475588
20
260.16478843688969
10
-194.80477600097657
20
260.20448239644372
10
-192.7939329783122
20
260.2494570414226
10
-190.78045768737795
20
260.29708010355637
10
-188.76698239644369
20
260.35000000000002
10
-186.75085868835453
20
260.40820058186853
10
-184.73736724853521
20
260.46906572977707
10
-182.72124354044598
20
260.53785998026535
10
-180.70511983235679
20
260.60928649902348
10
-178.68634770711265
20
260.6860260009766
10
-176.6675755818685
20
260.76804618835456
10
-174.64617118835451
20
260.85534706115726
10
-172.62739906311037
20
260.947960917155
10
-170.60333010355635
20
261.04585545857753
10
-168.58190956115723
20
261.14904683430996
10
-166.5578567504883
20
261.25751889546717
10
-164.53113937377933
20
261.37128779093428
10
-162.50443814595542
20
261.49035352071127
10
-160.3851230621338
20
261.60147399902348
10
-158.26052729288739
20
261.68349418640139
10
-156.13591537475588
20
261.74700775146488
10
-154.00867118835453
20
261.80255991617844
10
-151.88141085306805
20
261.85547981262209
10
-149.75416666666666
20
261.91897722880049
10
-147.63220316569013
20
262.00099741617845
10
-145.51025581359866
20
262.11211789449061
10
-143.39358914693202
20
262.26028391520185
10
-141.28485158284508
20
262.45608914693202
10
-139.17877858479818
20
262.70743039449059
10
-137.08326695760093
20
263.02758204142253
10
-133.69925193786622
20
263.77106056213387
10
-131.46087112426758
20
264.64683074951176
10
-130.18822593688967
20
265.6734153747559
10
-129.7040419896444
20
266.86404037475586
10
-129.8310448964437
20
268.23193168640142
10
-130.39196027119957
20
269.79297981262215
10
-131.20687338511152
20
271.56569137573246
10
-132.09851792653404
20
273.56066004435223
10
-132.88697916666669
20
275.79372787475586
10
-133.40027147928876
20
278.2781692504883
10
-133.72041505177816
20
280.25195058186853
10
-134.18873271942141
20
282.34481379191084
10
-134.74171091715499
20
284.51438420613607
10
-135.32378940582279
20
286.72368087768558
10
-135.87148691813152
20
288.93559366861984
10
-136.32391408284508
20
291.11310933430991
10
-136.6202461242676
20
293.21388549804692
10
-136.70491472880047
20
295.20355733235681
10
-136.51177406311038
20
297.0424308776856
10
-135.98525581359866
20
298.69342829386397
10
-135.06185448964439
20
300.11423950195314
10
-133.68072916666671
20
301.27046737670906
10
-131.83658301035567
20
302.40285949707038
10
-130.2676057815552
20
303.3183397928874
10
-128.88648045857749
20
304.02740503946944
10
-127.60589809417726
20
304.5539232889812
10
-126.33854166666669
20
304.90583979288743
10
-124.99446188608808
20
305.10692571004233
10
-123.48633365631105
20
305.17042312622073
10
-121.72420768737794
20
305.11222254435222
10
-119.62341537475588
20
304.95344670613611
10
-117.09399935404461
20
304.70475387573248
10
-114.04864260355632
20
304.38461837768557
10
-110.39739583333336
20
304.01154683430997
10
-108.03202018737794
20
303.59878133138022
10
-106.02383365631106
20
302.88441925048835
10
-104.34637629191081
20
301.89488016764329
10
-102.98112532297772
20
300.66191279093425
10
-101.89898045857748
20
299.20935287475589
10
-101.07612209320069
20
297.56365229288741
10
-100.49404360453289
20
295.75126291910811
10
-100.12362855275472
20
293.80390116373701
10
-99.94635416666668
20
291.74546737670903
10
-99.933128229777026
20
289.60234883626305
10
-100.0654198964437
20
287.40364583333337
10
-100.31676921844485
20
285.17849095662439
10
-100.6633727391561
20
282.9480715433757
10
-101.08405927022301
20
280.74407170613608
10
-101.54972852071128
20
278.59300791422532
10
-102.04449806213378
20
276.52133204142257
10
-102.53662726084393
20
274.55811208089193
10
-103.00758527119956
20
272.72721608479821
10
-103.43356056213381
20
271.05767974853518
10
-103.79074967702232
20
269.57866795857751
10
-103.90187822977703
20
268.0149714152019
10
-103.55527470906577
20
266.54918556213386
10
-102.83295930226645
20
265.16012306213378
10
-101.81431185404462
20
263.83190956115726
10
-100.58135255177817
20
262.54868685404466
10
-99.210812822977715
20
261.29456443786626
10
-97.78735319773358
20
260.05101954142259
10
-96.390353520711272
20
258.80219395955407
10
-95.099185562133798
20
257.53218104044601
10
-93.995877583821624
20
256.22513872782395
10
-93.50110804239911
20
255.38906250000002
10
-93.183604812622093
20
254.48419202168787
10
-93.008978843688993
20
253.52903391520186
10
-92.948121770222997
20
252.53156572977704
10
-92.969292958577498
20
251.50233268737796
10
-93.04337596893312
20
250.45194460550948
10
-93.138622093200695
20
249.39624354044599
10
-93.225939114888519
20
248.34320704142257
10
-93.273562177022313
20
247.30604489644375
10
-93.249750645955416
20
246.29533462524418
10
-93.249750645955416
20
246.09160029093428
10
-93.273562177022313
20
245.08089001973474
10
-93.225939114888519
20
244.04372787475592
10
-93.138622093200695
20
242.99333979288744
10
-93.04337596893312
20
241.93500645955407
10
-92.969292958577498
20
240.88725064595542
10
-92.948121770222997
20
239.85801760355633
10
-93.008978843688965
20
238.86054941813154
10
-93.183604812622065
20
237.90274289449059
10
-93.50110804239911
20
237.00052083333335
10
-93.995877583821624
20
236.16444460550949
10
-95.099185562133798
20
234.85475387573246
10
-96.390353520711272
20
233.58475710550948
10
-97.78735319773358
20
232.33856379191084
10
-99.210812822977715
20
231.09501889546718
10
-100.58135255177817
20
229.8408964792888
10
-101.81431185404462
20
228.55767377217614
10
-102.83295930226645
20
227.22946027119957
10
-103.55527470906577
20
225.84039777119955
10
-103.90187822977703
20
224.37196350097662
10
-103.7907496770223
20
222.81091537475589
10
-103.43356056213379
20
221.33190358479823
10
-103.00758527119956
20
219.66236724853519
10
-102.53662726084393
20
217.83145510355635
10
-102.04449806213381
20
215.86825129191084
10
-101.54972852071128
20
213.79655927022301
10
-101.08405927022298
20
211.64549547831223
10
-100.6633727391561
20
209.44152793884282
10
-100.31676921844485
20
207.21107622782395
10
-100.0654198964437
20
204.98328908284506
10
-99.933128229777026
20
202.78460222880051
10
-99.94635416666668
20
200.6441321055095
10
-100.12362855275472
20
198.5856660207113
10
-100.49404360453289
20
196.63568814595544
10
-101.07612209320069
20
194.82593104044599
10
-101.89898045857748
20
193.18023045857751
10
-102.98112532297772
20
191.72767054239912
10
-104.34637629191081
20
190.4920547485352
10
-106.02383365631106
20
189.50516408284506
10
-108.03202018737794
20
188.79078585306803
10
-110.39739583333335
20
188.37803649902349
10
-114.04864260355632
20
188.00498110453293
10
-117.09399935404463
20
187.68482945760096
10
-119.62341537475588
20
187.4361204783122
10
-121.72420768737794
20
187.27472852071131
10
-123.48633365631105
20
187.21916020711265
10
-124.99446188608808
20
187.28267377217611
10
-126.33854166666669
20
187.48111127217612
10
-127.60589809417726
20
187.83564389546714
10
-128.88648045857749
20
188.35951372782392
10
-130.2676057815552
20
189.07124354044601
10
-131.83658301035567
20
189.98405927022301
10
-133.68072916666671
20
191.11913210550944
10
-135.06185448964439
20
192.27535998026531
10
-135.98525581359866
20
193.6961711883545
10
-136.51177406311038
20
195.34452018737798
10
-136.70491472880047
20
197.18337758382162
10
-136.6202461242676
20
199.17304941813157
10
-136.32391408284508
20
201.27647399902347
10
-135.87148691813152
20
203.45135739644374
10
-135.32378940582279
20
205.66327018737795
10
-134.74171091715496
20
207.87518297831218
10
-134.18873271942141
20
210.04476954142257
10
-133.72041505177819
20
212.13498433430993
10
-133.40027147928876
20
214.10876566569013
10
-132.88697916666669
20
216.59585545857749
10
-132.09851792653404
20
218.82893943786627
10
-131.20687338511149
20
220.82389195760095
10
-130.39196027119957
20
222.59395510355634
10
-129.8310448964437
20
224.15765164693198
10
-129.7040419896444
20
225.52554295857749
10
-130.18822593688967
20
226.71616795857747
10
-131.46087112426758
20
227.7401041666667
10
-133.69925193786622
20
228.61852277119959
10
-137.08326695760093
20
229.36200129191087
10
-139.17877858479818
20
229.67950452168787
10
-141.28485158284508
20
229.93349418640139
10
-143.39358914693199
20
230.12929941813155
10
-145.51025581359863
20
230.2774654388428
10
-147.63220316569013
20
230.38858591715498
10
-149.75416666666669
20
230.47060610453292
10
-151.88141085306808
20
230.53410352071128
10
-154.00867118835453
20
230.587023417155
10
-156.13591537475588
20
230.63994331359868
10
-158.26052729288739
20
230.70344072977704
10
-160.3851230621338
20
230.78546091715498
10
-162.50443814595542
20
230.89658139546717
10
-164.53113937377933
20
231.01829554239913
10
-166.5578567504883
20
231.13206443786626
10
-168.58190956115723
20
231.24053649902348
10
-170.60333010355635
20
231.34372787475587
10
-172.62739906311037
20
231.4416224161784
10
-174.64617118835451
20
231.53423627217614
10
-176.6675755818685
20
231.62153714497887
10
-178.68634770711267
20
231.70355733235681
10
-180.70511983235684
20
231.78029683430992
10
-182.72124354044598
20
231.85172335306805
10
-184.73736724853521
20
231.91786918640139
10
-186.75085868835453
20
231.98138275146488
10
-188.76698239644372
20
232.03958333333335
10
-190.78045768737798
20
232.09250322977707
10
-192.7939329783122
20
232.14012629191086
10
-194.80477600097657
20
232.18510093688968
10
-198.82642974853519
20
232.25919202168785
10
-200.83727277119954
20
232.2882923126221
10
-202.8480996449789
20
232.31474418640141
10
-204.85894266764325
20
232.33856379191084
10
-206.86712112426761
20
232.35708656311039
10
-208.87531572977704
20
232.37031250000004
10
-210.88614260355632
20
232.38089001973475
10
-212.89433720906575
20
232.38883527119958
10
-214.90251566569015
20
232.39148368835453
10
-216.91071027119958
20
232.38883527119955
10
-218.91888872782391
20
232.38618685404461
10
-220.92708333333334
20
232.3782577514649
10
-222.93262952168789
20
232.36766408284507
10
-224.94080797831219
20
232.3517897288005
10
-226.94900258382162
20
232.33326695760096
10
-228.95718104044602
20
232.31211191813156
10
-230.96802406311039
20
232.2882923126221
10
-232.97620251973473
20
232.2618404388428
10
-234.98439712524416
20
232.23007558186853
10
-236.99522399902347
20
232.19832687377934
10
-239.0034186045329
20
232.16129748026535
10
-241.0142454783122
20
232.12160352071126
10
-243.02508850097661
20
232.07927729288741
10
-245.03591537475589
20
232.03693491617841
10
-247.0467422485352
20
231.98931185404462
10
-249.06023368835451
20
231.94168879191082
10
-251.07106056213382
20
231.88876889546717
10
-253.08718427022302
20
231.83584899902345
10
-255.10065956115727
20
231.78029683430992
10
-257.11679941813156
20
231.72208010355635
10
-259.13027470906582
20
231.66123110453293
10
-261.14904683430996
20
231.59773368835454
10
-263.16517054239915
20
231.53423627217614
10
-265.18394266764329
20
231.46809043884278
10
-267.20534706115723
20
231.40194460550947
10
-269.22676760355637
20
231.33315035502119
10
-271.24817199707036
20
231.26170768737794
10
-273.27224095662439
20
231.18763275146489
10
-277.32037887573244
20
231.03945058186852
10
-279.34709625244142
20
230.96272722880047
10
-281.3764297485352
20
230.88600387573246
10
-283.40579554239912
20
230.80663210550944
10
-285.43777745564785
20
230.72724418640144
10
-287.45654958089199
20
230.65052083333336
10
-289.47267328898118
20
230.57907816569013
10
-291.49144541422532
20
230.5129323323568
10
-293.51021753946947
20
230.45473175048829
10
-295.52898966471361
20
230.40181185404461
10
-297.54776178995775
20
230.3515403747559
10
-299.56653391520189
20
230.30921414693199
10
-301.58530604044603
20
230.26952018737796
10
-303.60407816569017
20
230.23512306213379
10
-305.62285029093431
20
230.2060227711996
10
-307.64427083333339
20
230.18220316569014
10
-309.66304295857753
20
230.16104812622075
10
-311.68181508382168
20
230.14517377217615
10
-313.70323562622076
20
230.1319316864014
10
-315.7220077514649
20
230.12400258382166
10
-317.74342829386399
20
230.11870574951175
10
-319.76220041910813
20
230.1160573323568
10
-321.78358866373696
20
230.11870574951175
10
-323.80500920613605
20
230.12135416666669
10
-325.8237813313803
20
230.12929941813155
10
-327.84520187377939
20
230.13722852071129
10
-329.86662241617842
20
230.15045445760094
10
-331.88539454142256
20
230.1636803944906
10
-333.90681508382164
20
230.1795547485352
10
-335.92823562622073
20
230.19807751973474
10
-337.94700775146487
20
230.21924870808925
10
-341.98984883626304
20
230.2615910847982
10
-344.00858866373704
20
230.28539454142253
10
-346.03000920613613
20
230.31184641520184
10
-348.05142974853516
20
230.3356660207113
10
-350.07020187377941
20
230.36211789449058
10
-352.09162241617838
20
230.3912343343099
10
-354.11039454142264
20
230.41768620808924
10
-356.13181508382161
20
230.44413808186852
10
-358.15058720906586
20
230.47060610453292
10
-360.17200775146483
20
230.49970639546714
10
-362.19077987670909
20
230.52617441813155
10
-364.21220041910806
20
230.54997787475588
10
-366.23097254435231
20
230.57642974853519
10
-368.24974466959645
20
230.60024935404465
10
-370.27113291422529
20
230.62406895955408
10
-372.28990503946943
20
230.64522399902347
10
-376.32744928995777
20
230.68226954142258
10
-377.37522125244146
20
230.69284706115724
10
-378.37797012329111
20
230.70079231262213
10
-379.33311208089196
20
230.70872141520184
10
-380.2485923767091
20
230.71666666666673
10
-381.11904958089201
20
230.72461191813153
10
-381.94719670613614
20
230.7325410207113
10
-382.73568216959643
20
230.73783785502118
10
-383.48179295857744
20
230.74576695760095
10
-384.19089050292973
20
230.75106379191084
10
-384.86291020711269
20
230.75636062622073
10
-384.25703633626313
20
228.76933720906578
10
-384.07975387573242
20
226.69764518737796
10
-384.33109512329105
20
224.63389841715497
10
-385.0057955423992
20
222.66804618835451
10
-386.07207412719731
20
220.88210868835449
10
-387.4822916666667
20
219.35810610453291
10
-389.17827987670904
20
218.15690358479821
10
-391.08856379191087
20
217.33138872782391
10
-393.12584253946943
20
216.92128779093429
10
-395.20284754435227
20
216.93716214497886
10
-397.23218104044599
20
217.38695704142256
10
-399.12660675048835
20
218.24420445760094
10
-400.80140762329108
20
219.47452341715496
10
-402.18782170613616
20
221.02497787475588
10
-403.22235158284514
20
222.82678972880049
10
-403.86000645955414
20
224.8058678944906
10
-404.07695058186857
20
226.87226308186851
10
-403.86265487670903
20
228.93867441813154
10
-403.22235158284514
20
230.91775258382165
10
-403.46577987670906
20
230.9204010009766
10
-403.71182428995775
20
230.92304941813154
10
-403.96054941813156
20
230.92568168640139
10
-404.21189066569013
20
230.92568168640142
10
-404.46588033040371
20
230.92833010355636
10
-404.72519912719736
20
230.93097852071128
10
-404.9844856262207
20
230.93362693786622
10
-405.24642054239911
20
230.93627535502119
10
-405.5136522928874
20
230.93892377217614
10
-405.78353246053064
20
230.94155604044599
10
-407.25459899902347
20
230.97067248026531
10
-408.72834625244144
20
231.02357622782392
10
-410.20470962524422
20
231.09501889546718
10
-411.67842458089194
20
231.16646156311043
10
-413.15217183430997
20
231.23260739644371
10
-414.62588678995769
20
231.28023045857753
10
-416.09963404337572
20
231.29875322977708
10
-417.56805216471355
20
231.27758204142253
10
-419.03650258382174
20
231.20350710550949
10
-420.49965616861982
20
231.06856702168787
10
-423.76990229288737
20
230.57907816569016
10
-426.63532816569017
20
229.97583656311039
10
-429.13827616373703
20
229.32230733235681
10
-431.31847254435223
20
228.69789454142256
10
-433.21286595662446
20
228.16872787475589
10
-434.85859883626313
20
227.80625000000003
10
-436.30056508382165
20
227.68190358479819
10
-437.57584253946948
20
227.86709899902348
10
-438.7215090433757
20
228.43331120808924
10
-439.7771939595541
20
229.45459899902346
10
-440.78523966471357
20
230.99447593688967
10
-441.78272399902346
20
233.13231379191083
10
-442.80666020711266
20
235.93424224853518
10
-442.80666020711271
20
256.45534108479819
10
-441.78272399902357
20
259.25726954142254
10
-440.78523966471357
20
261.39245897928879
10
-439.7771939595541
20
262.93498433430995
10
-438.7215090433757
20
263.9536237080892
10
-437.57584253946948
20
264.51983591715498
10
-436.30056508382165
20
264.70767974853521
10
-434.85859883626313
20
264.58333333333337
10
-433.21286595662446
20
264.22085545857749
10
-431.31847254435229
20
263.69168879191085
10
-429.13827616373709
20
263.06462758382168
10
-426.63532816569017
20
262.41374677022299
10
-423.76990229288742
20
261.80785675048833
10
-420.49965616861988
20
261.32101631164551
10
-419.03650258382163
20
261.18607622782395
10
-417.56805216471355
20
261.11200129191081
10
-416.09963404337577
20
261.0908301035563
10
-414.62588678995769
20
261.10670445760098
10
-413.15217183430997
20
261.15432751973475
10
-411.67842458089194
20
261.22047335306809
10
-410.20470962524422
20
261.29456443786626
10
-408.72834625244144
20
261.36335868835454
10
-407.25459899902347
20
261.41891085306804
10
-405.78353246053064
20
261.44802729288739
10
-405.7173866271973
20
261.44802729288745
10
-405.65124079386402
20
261.45065956115724
10
-405.39192199707037
20
261.45065956115724
10
-405.32842458089198
20
261.45330797831218
10
-405.1379323323568
20
261.45330797831218
10
-405.1379323323568
20
264.48014195760095
10
-404.91833979288742
20
266.55976308186848
10
-404.27273966471364
20
268.54678649902348
10
-403.22764841715502
20
270.35654360453287
10
-401.82799224853522
20
271.91227874755862
10
-400.13730087280271
20
273.13994928995771
10
-398.22701695760094
20
273.98928375244145
10
-396.18179295857749
20
274.42582041422531
10
-394.09157816569012
20
274.42582041422531
10
-392.04635416666667
20
273.98928375244145
10
-390.13607025146484
20
273.13994928995771
10
-388.44537887573244
20
271.91227874755862
10
-387.04572270711265
20
270.35654360453293
10
-386.00063145955409
20
268.54678649902348
10
-385.3550313313803
20
266.55976308186848
0
LWPOLYLINE
5
103
100
AcDbEntity
8
0
100
AcDbPolyline
90
471
70
1
43
0.0
10
-526.75896479288747
20
17.277292474110908
10
-526.9230051676434
20
17.219083817799898
10
-528.98673578898126
20
16.740187621116647
10
-531.10605087280283
20
16.705791505177814
10
-533.18567199707036
20
17.118540859222406
10
-535.13038533528652
20
17.959915939966855
10
-536.85547383626306
20
19.192875242233285
10
-538.27890116373703
20
20.761854489644378
10
-539.34253133138031
20
22.595417070388812
10
-539.99607671101899
20
24.614187177022302
10
-540.20772399902353
20
26.722916666666663
10
-539.97224095662443
20
28.828999757766738
10
-539.29492441813159
20
30.837188307444254
10
-540.02252858479824
20
30.540854247411104
10
-540.74483591715511
20
30.268333737055464
10
-541.46184641520199
20
30.02756193478902
10
-542.17356007893886
20
29.831770833333344
10
-542.87474466959645
20
29.688895591100071
10
-543.57056783040366
20
29.60952180226645
10
-544.25586191813159
20
29.604229005177807
10
-544.93056233723973
20
29.683604812622093
10
-545.59466908772799
20
29.858228762944563
10
-546.24553375244159
20
30.136042070388811
10
-546.83290100097668
20
30.429729731877657
10
-547.42556508382177
20
30.710187419255579
10
-548.02352600097674
20
30.985354328155523
10
-548.6241353352865
20
31.257874838511164
10
-549.21944783528647
20
31.535688145955412
10
-549.80946350097656
20
31.821436611811329
10
-550.38888549804699
20
32.125707848866796
10
-550.95248158772802
20
32.453792635599768
10
-551.50012257893889
20
32.808333333333337
10
-552.02399241129569
20
33.194624757766732
10
-552.6484375
20
33.789937257766738
10
-553.20938517252614
20
34.499020671844498
10
-553.73060658772795
20
35.276896317799888
10
-554.22534383138031
20
36.086520671844497
10
-554.72014567057295
20
36.885563468933107
10
-555.23342183430998
20
37.636979166666663
10
-555.78377583821623
20
38.295793120066328
10
-556.39491424560549
20
38.82231136957806
10
-557.0828567504883
20
39.179500484466558
10
-557.87395833333346
20
39.325022125244153
10
-559.12808074951181
20
39.354126453399658
10
-560.38485158284516
20
39.362063630421957
10
-561.64162241617851
20
39.362063630421957
10
-562.89839324951186
20
39.359415213267006
10
-564.1551640828452
20
39.359415213267006
10
-565.41193491617844
20
39.370000807444256
10
-566.66605733235679
20
39.399105135599783
10
-567.91753133138036
20
39.454665374755876
10
-569.16900533040371
20
39.539333979288749
10
-570.41518249511728
20
39.663688468933103
10
-572.39690907796228
20
39.949438953399664
10
-574.36280975341799
20
40.322498385111487
10
-576.31805216471355
20
40.764356104532879
10
-578.26276550292982
20
41.259125645955415
10
-580.2047658284506
20
41.782999515533454
10
-582.14418233235688
20
42.314810562133793
10
-584.08359883626315
20
42.838688468933114
10
-586.02824757893893
20
43.333458010355628
10
-587.98355458577487
20
43.780604489644368
10
-589.9493906656902
20
44.156312338511157
10
-591.9284688313802
20
44.444707202911395
10
-594.03189341227221
20
44.566417312622093
10
-596.08241424560561
20
44.452644379933673
10
-598.09062500000005
20
44.145730781555187
10
-600.06440633138038
20
43.685354328155519
10
-602.01441650390632
20
43.113853359222425
10
-603.95111999511732
20
42.473562177022295
10
-605.88259124755859
20
41.80416666666666
10
-607.81935933430998
20
41.145352713267016
10
-609.77460174560554
20
40.542103036244725
10
-611.75103149414076
20
40.03410352071127
10
-613.7645390828452
20
39.663688468933103
10
-616.24636433919284
20
39.441439437866208
10
-618.55617167154958
20
39.494355297088632
10
-620.7045547485352
20
39.806561692555746
10
-622.69687500000009
20
40.359539890289312
10
-624.53836466471364
20
41.137415536244717
10
-626.23438517252612
20
42.124314276377355
10
-627.79540100097665
20
43.301709302266431
10
-629.22147674560551
20
44.653730297088643
10
-630.52591908772797
20
46.161854489644369
10
-631.71124725341804
20
47.807563145955413
10
-632.78282267252609
20
49.580270671844495
10
-633.74852600097665
20
51.456165536244711
10
-634.61636708577487
20
53.422021802266443
10
-635.39157816569013
20
55.459312661488852
10
-635.35721333821618
20
56.009646479288747
10
-635.32278391520197
20
56.559980297088629
10
-635.28841908772802
20
57.110314114888524
10
-635.25398966471369
20
57.660643895467132
10
-635.21962483723973
20
58.21097771326702
10
-635.18519541422529
20
58.761311531066909
10
-635.15083058675134
20
59.311645348866797
10
-635.11640116373701
20
59.859334786732994
10
-635.08203633626306
20
60.409668604532882
10
-635.04760691324873
20
60.95999838511149
10
-633.98132832845056
20
63.510581556955984
10
-633.02886708577489
20
65.637833817799873
10
-632.14248708089201
20
67.413185723622632
10
-631.26934916178391
20
68.908083979288762
10
-630.36449483235685
20
70.193955103556334
10
-629.37760416666674
20
71.339605458577481
10
-628.25577341715507
20
72.419101905822757
10
-626.95669250488288
20
73.501246770222991
10
-625.42474466959652
20
74.657482719421395
10
-623.61497141520192
20
75.961876614888524
10
-621.47446899414069
20
77.480582364400234
10
-618.95834350585938
20
79.290331395467149
10
-617.16446075439455
20
80.61589647928875
10
-615.44202067057302
20
81.928227551778164
10
-613.76718750000009
20
83.206169573465999
10
-612.11354166666672
20
84.441769218444847
10
-610.45459899902346
20
85.61916828155519
10
-608.77188517252614
20
86.725124677022322
10
-607.03885142008471
20
87.749060885111518
10
-605.22907816569023
20
88.677750968933111
10
-603.32144266764328
20
89.495312499999997
10
-601.28946075439455
20
90.188519541422551
10
-599.11194508870449
20
90.746794573466019
10
-597.13021850585949
20
91.127795219421387
10
-595.12730458577482
20
91.426767603556343
10
-593.11114857991538
20
91.649024709065756
10
-591.07651824951188
20
91.807768249511739
10
-589.03129425048837
20
91.910959625244161
10
-586.97547658284509
20
91.96651986440024
10
-584.90906524658214
20
91.979753875732442
10
-582.83742167154958
20
91.96387144724531
10
-580.76041666666674
20
91.9241855621338
10
-578.68076324462902
20
91.871273740132665
10
-576.59852600097668
20
91.813065083821641
10
-574.51887257893884
20
91.757496770222986
10
-572.4392837524415
20
91.715170542399107
10
-570.36757558186855
20
91.691350936889663
10
-568.30116424560561
20
91.696647771199565
10
-566.24269816080744
20
91.738982073465991
10
-564.19482574462904
20
91.828939437866225
10
-562.16019541422531
20
91.971808624267595
10
-560.14145558675136
20
92.178191375732439
10
-558.13589324951181
20
92.456000645955427
10
-556.31029408772793
20
92.897850290934244
10
-555.36571350097665
20
93.461414082845081
10
-555.08259124755864
20
94.117583656311041
10
-555.23871866861987
20
94.839899063110366
10
-555.60910949707045
20
95.59660352071127
10
-555.9795649210613
20
96.363893572489431
10
-556.11980183919275
20
97.112668927510583
10
-555.81549224853529
20
97.811164728800463
10
-554.84184366861984
20
98.43293717702231
10
-552.97651824951186
20
98.948877906799325
10
-552.22772674560565
20
99.102332687377952
10
-551.4816482543946
20
99.276958656311052
10
-549.98936208089196
20
99.642084948221864
10
-549.24321899414065
20
99.819351259867375
10
-548.49449208577482
20
99.983399709065765
10
-547.74305216471362
20
100.12098013559978
10
-546.9890284220379
20
100.22946027119956
10
-546.2349400838217
20
100.29560610453288
10
-545.47290649414072
20
100.31412887573245
10
-545.40940907796232
20
100.30354328155518
10
-545.25334625244147
20
100.27708333333335
10
-545.00730183919279
20
100.23210061391197
10
-544.68180491129567
20
100.17389195760094
10
-544.27969767252614
20
100.09980894724529
10
-543.80873158772795
20
100.01514841715496
10
-543.27426808675136
20
99.917253875732428
10
-542.68690083821616
20
99.808773740132665
10
-542.04921366373708
20
99.689708010355645
10
-541.36924870808923
20
99.56535352071127
10
-541.46979166666677
20
100.72158139546714
10
-541.43804295857751
20
101.88310610453289
10
-541.26870574951181
20
103.03139680226644
10
-540.96972529093432
20
104.15587596893312
10
-540.54110158284516
20
105.23537241617842
10
-539.9907798767091
20
106.25666828155519
10
-539.32667312622084
20
107.20916989644371
10
-538.55407816569016
20
108.07700290679934
10
-537.68888549804694
20
108.8522301355998
10
-536.73904037475597
20
109.51897722880048
10
-536.59089050292982
20
109.61158301035566
10
-536.44535675048837
20
109.70154037475588
10
-536.29717458089192
20
109.7914977391561
10
-536.15167312622077
20
109.88410352071128
10
-536.00349095662443
20
109.9740608851115
10
-535.85534108479828
20
110.06401824951175
10
-535.70980733235683
20
110.15662403106691
10
-535.56165746053068
20
110.24658139546715
10
-535.41612370808923
20
110.33918717702232
10
-535.26797383626308
20
110.42914454142254
10
-533.36030604044606
20
111.34724903106689
10
-531.29922383626308
20
111.84201857248944
10
-529.18255716959641
20
111.89229005177816
10
-527.10025533040368
20
111.4954150517782
10
-525.15027745564782
20
110.66726792653404
10
-523.41727600097659
20
109.45019105275475
10
-521.98057428995776
20
107.89179134368899
10
-520.90373433431
20
106.06881637573244
10
-520.23433074951174
20
104.0579814275106
10
-520.00414454142265
20
101.95189228057863
10
-520.22373708089196
20
99.845811208089202
10
-520.88254699707034
20
97.83233591715495
10
-519.91154683430989
20
97.980501937866222
10
-518.93786595662436
20
98.139253552754724
10
-517.96686579386392
20
98.303293927510609
10
-516.99583333333339
20
98.469982719421395
10
-516.02480087280287
20
98.63402309417728
10
-515.05380071004242
20
98.798063468933123
10
-514.08276824951179
20
98.956815083821624
10
-513.10911966959645
20
99.104981104532897
10
-512.13808720906582
20
99.24520994822187
10
-511.16440633138029
20
99.369564437866217
10
-510.28600387573249
20
99.478044573465993
10
-509.40495300292974
20
99.583876291910812
10
-508.52651824951175
20
99.692356427510589
10
-507.64546737670906
20
99.798188145955407
10
-506.76703262329107
20
99.904019864400226
10
-505.88863016764327
20
100.01250000000002
10
-505.00754699707039
20
100.11833171844484
10
-504.12914454142259
20
100.22416343688967
10
-503.25074208577485
20
100.33264357248945
10
-502.36965891520191
20
100.43847529093426
10
-500.30063145955415
20
100.68983268737794
10
-498.23157170613615
20
100.94119008382162
10
-496.16254425048839
20
101.19253940582277
10
-494.09348449707039
20
101.44389680226645
10
-492.02445704142264
20
101.69524612426758
10
-489.95542958577482
20
101.94395510355633
10
-487.88636983235682
20
102.19531250000001
10
-485.81734237670906
20
102.44666989644369
10
-483.74828262329112
20
102.69801921844484
10
-481.67925516764336
20
102.94937661488852
10
-479.6101954142253
20
103.20072593688965
10
-475.47214050292979
20
103.70344072977703
10
-473.40308074951179
20
103.95214970906578
10
-471.33140487670909
20
104.20349903106691
10
-469.26234512329108
20
104.45485642751059
10
-467.19331766764333
20
104.70620574951172
10
-464.7273829142253
20
104.99989744822186
10
-462.40963033040367
20
105.24595801035565
10
-460.22946624755866
20
105.43380991617839
10
-458.17629699707038
20
105.54229005177817
10
-456.23691279093435
20
105.55816440582277
10
-454.40071996053064
20
105.46291828155519
10
-452.65444412231443
20
105.2406692504883
10
-450.99023691813159
20
104.87554295857748
10
-449.39479166666672
20
104.35166505177817
10
-447.85754699707036
20
103.65052083333333
10
-446.3653254191081
20
102.75622787475587
10
-444.90482025146486
20
101.65027147928875
10
-443.47076695760103
20
100.32206605275474
10
-442.04730733235681
20
98.750440406799328
10
-440.6238477071127
20
96.919520187377941
10
-439.18717829386401
20
94.81079069773358
10
-438.75060933431001
20
93.609580103556326
10
-438.94375000000002
20
92.461289405822782
10
-439.66605733235679
20
91.371207364400249
10
-440.81172383626313
20
90.349919573465996
10
-442.28014195760096
20
89.405355135599791
10
-443.96553649902353
20
88.545459302266465
10
-445.77001291910818
20
87.778169250488304
10
-447.58505071004237
20
87.111414082845073
10
-449.31275533040372
20
86.553147125244152
10
-450.84735158284508
20
86.113937822977704
10
-452.78411966959641
20
85.600645510355648
10
-454.72615229288749
20
85.108524386088064
10
-456.67348175048835
20
84.634917958577489
10
-458.62610804239915
20
84.179834302266443
10
-460.58403116861984
20
83.740625000000009
10
-462.54986724853524
20
83.317290051778173
10
-464.5183840433757
20
82.909829457600921
10
-466.48951695760098
20
82.518251291910815
10
-468.46594670613615
20
82.139899063110349
10
-470.44767328898115
20
81.774772771199551
10
-472.4294321695964
20
81.422872416178393
10
-474.41642328898121
20
81.084206072489437
10
-476.40344670613615
20
80.756125322977709
10
-478.39576695760104
20
80.438622093200692
10
-480.38543879191087
20
80.131704457600932
10
-482.38040746053065
20
79.835372416178387
10
-484.37269541422529
20
79.54697755177817
10
-486.36766408284507
20
79.266519864400237
10
-488.36263275146496
20
78.993999354044604
10
-490.35756912231454
20
78.729416020711255
10
-492.35253779093432
20
78.47012144724529
10
-494.34485804239921
20
78.218772125244158
10
-496.33717829386404
20
77.970063145955422
10
-498.32681783040368
20
77.72400258382163
10
-500.31384124755868
20
77.485871124267589
10
-502.30086466471363
20
77.247747739156097
10
-504.28259124755868
20
77.012272771199548
10
-506.26170171101899
20
76.779438145955396
10
-508.2381314595541
20
76.546603520711258
10
-508.74084625244154
20
76.446060562133795
10
-510.02671737670909
20
76.186774063110363
10
-511.89465891520194
20
75.803125000000023
10
-514.15421091715507
20
75.342752583821635
10
-516.60955200195315
20
74.840037790934261
10
-519.06224466959645
20
74.337331072489434
10
-521.3191159566245
20
73.874310239156102
10
-523.18708979288749
20
73.493309593200706
10
-524.47031250000009
20
73.231374677022316
10
-524.97037887573254
20
73.130831718444824
10
-526.62402470906591
20
73.003836886088067
10
-528.28826421101894
20
73.009125645955422
10
-529.95776824951179
20
73.107020187377927
10
-531.62730458577482
20
73.260483042399116
10
-533.29151178995778
20
73.429812177022313
10
-534.94250920613615
20
73.575329780578613
10
-536.57764841715505
20
73.65735804239911
10
-538.18630345662439
20
73.64147561391195
10
-539.76589050292978
20
73.482732073465996
10
-541.30839970906584
20
73.146706072489422
10
-542.31644541422531
20
72.561979166666674
10
-543.02292683919279
20
71.559206072489445
10
-543.47270558675132
20
70.252163759867358
10
-543.71080474853522
20
68.75198078155519
10
-543.78489583333339
20
67.169769541422539
10
-543.74258575439467
20
65.624603843688973
10
-543.62876841227217
20
64.222311369578051
10
-543.4911799112956
20
63.076665051778171
10
-543.37477874755871
20
62.304082202911388
10
-543.32452341715498
20
62.010394541422542
10
-543.29274241129565
20
61.727292474110925
10
-543.20812225341808
20
61.444186369578055
10
-543.07318216959641
20
61.163728682200116
10
-542.89586741129574
20
60.899145348866796
10
-542.68425242106127
20
60.655729166666674
10
-542.44608866373699
20
60.438768895467128
10
-542.18680216471364
20
60.261498546600336
10
-541.91162516276052
20
60.129206879933683
10
-541.62853520711269
20
60.047186692555741
10
-541.34809366861987
20
60.026019541422535
10
-540.55699208577482
20
60.15302244822184
10
-539.76850662231448
20
60.43348013559978
10
-538.98535029093432
20
60.819769541422524
10
-538.20749079386405
20
61.261623223622657
10
-537.44019266764337
20
61.711418120066327
10
-536.68083979288747
20
62.118874677022298
10
-535.93204828898126
20
62.439022286732992
10
-535.1965311686198
20
62.618937015533461
10
-534.47422383626315
20
62.610999838511162
10
-533.77042312622075
20
62.367583656311041
10
-531.94479166666679
20
61.438897609710708
10
-530.09800516764335
20
60.613394864400227
10
-528.23267974853525
20
59.888439114888513
10
-526.34619928995778
20
59.248143895467123
10
-524.43856379191084
20
58.687228520711265
10
-522.51768620808923
20
58.197751776377373
10
-520.58095041910815
20
57.769124031066887
10
-518.63097254435229
20
57.390771802266443
10
-516.66510416666677
20
57.057394218444841
10
-514.69132283528654
20
56.758417797088626
10
-512.70694783528654
20
56.485897286733007
10
-510.71462758382165
20
56.229251130421964
10
-508.71701049804693
20
55.980542151133221
10
-506.71148045857751
20
55.731833171844499
10
-504.7033020019532
20
55.47254263559978
10
-502.69244283040371
20
55.194729328155532
10
-500.67896753946945
20
54.887811692555744
10
-498.6681406656902
20
54.546500968933103
10
-496.66790746053067
20
54.181374677022305
10
-494.67029037475589
20
53.808311208089208
10
-492.67267328898117
20
53.42466618220012
10
-490.6750885009767
20
53.038376776377376
10
-488.67747141520181
20
52.641501776377368
10
-486.68253504435228
20
52.241978359222415
10
-484.6875663757325
20
51.834521802266451
10
-482.69259770711272
20
51.421772448221859
10
-480.69766133626308
20
51.006374677022315
10
-478.70534108479825
20
50.588332525889079
10
-476.71302083333336
20
50.165001614888531
10
-472.72838033040375
20
49.313042958577483
10
-470.73609237670905
20
48.884415213267012
10
-468.74377212524422
20
48.455791505177821
10
-466.75410029093433
20
48.02716779708863
10
-464.7617800394695
20
47.598540051778158
10
-462.77214050292974
20
47.172560723622645
10
-460.78246866861991
20
46.746581395467132
10
-458.79014841715502
20
46.320606104532871
10
-456.80047658284514
20
45.89991553624472
10
-454.81080474853525
20
45.484521802266435
10
-452.81848449707036
20
45.069124031066892
10
-451.23628133138027
20
44.831000645955399
10
-449.57733866373701
20
44.719876130421952
10
-447.87343750000002
20
44.677541828155526
10
-446.1615910847982
20
44.651081879933692
10
-444.4708997090658
20
44.590228843688976
10
-442.83311208089202
20
44.439418443044048
10
-441.28265762329113
20
44.145730781555166
10
-439.85128504435227
20
43.653605620066323
10
-438.57067845662442
20
42.915415859222428
10
-437.47529958089206
20
41.872956879933682
10
-437.13665746053061
20
41.47343750000001
10
-436.82708333333335
20
41.121541182200119
10
-436.54925791422528
20
40.798749192555746
10
-436.31380716959649
20
40.489187177022302
10
-436.12328262329106
20
40.176980781555187
10
-435.9856941223145
20
39.848895994822193
10
-435.90633850097663
20
39.486418120066332
10
-435.8957448323568
20
39.073664728800459
10
-435.95394541422536
20
38.594769541422536
10
-436.09153391520192
20
38.033854166666679
10
-436.84297383626307
20
35.985977713267019
10
-437.81397399902352
20
34.170935885111504
10
-438.98609237670911
20
32.580791505177814
10
-440.33810933430993
20
31.204958979288744
10
-441.84886983235685
20
30.038145510355641
10
-443.50251566569023
20
29.072415939966838
10
-445.27785949707038
20
28.297186692555769
10
-447.15907541910815
20
27.707166989644385
10
-449.1222630818686
20
27.291771237055471
10
-451.14898045857751
20
27.045708656311049
10
-453.22330474853521
20
26.961042070388785
10
-455.32411321004241
20
27.02718790372213
10
-456.02261708577481
20
27.103917312622059
10
-456.71052729288749
20
27.233562580744426
10
-457.39314066569023
20
27.402895752588918
10
-458.07313791910815
20
27.601333252588915
10
-458.74780604044599
20
27.815645106633511
10
-459.42250645955414
20
28.035249757766714
10
-460.09982299804699
20
28.249561611811309
10
-460.77982025146497
20
28.44535473187765
10
-461.46508204142259
20
28.612041505177821
10
-462.15828908284504
20
28.736395994822175
10
-462.59220962524421
20
28.7760838985443
10
-463.80663808186858
20
28.887208414077747
10
-465.66666666666669
20
29.059187984466561
10
-468.04791666666665
20
29.278792635599764
10
-470.81809641520186
20
29.53279239336652
10
-473.84759496053061
20
29.810603682200103
10
-477.0093528747559
20
30.101644945144663
10
-480.16849466959638
20
30.392688226699835
10
-483.197960917155
20
30.670499515533454
10
-485.96814066569016
20
30.924499273300174
10
-488.34939066569012
20
31.144103924433395
10
-490.2120676676434
20
31.316083494822191
10
-491.42384770711266
20
31.427208010355638
10
-491.85776824951176
20
31.466895914077764
10
-492.22024612426765
20
31.440437984466563
10
-493.22037887573254
20
31.371645752588915
10
-494.7655364990236
20
31.260521237055467
10
-496.75520833333337
20
31.117645994822176
10
-499.09676437377931
20
30.950959221522023
10
-501.68969395955412
20
30.765749677022303
10
-504.4413670857748
20
30.567312177022306
10
-507.25388921101899
20
30.366228278477987
10
-510.03201421101897
20
30.16779077847799
10
-512.6751991271974
20
29.979936854044595
10
-515.08819783528656
20
29.805312903722125
10
-517.17838033040368
20
29.657144864400244
10
-518.84526824951183
20
29.538083171844498
10
-518.61243362426774
20
28.088167635599781
10
-518.59392700195326
20
26.622375726699836
10
-518.79236450195322
20
25.167167393366512
10
-519.19980087280283
20
23.759584140777577
10
-519.80835545857758
20
22.423437499999999
10
-520.6074022928874
20
21.19312459627789
10
-521.57578633626315
20
20.089812580744422
10
-522.69761708577471
20
19.142603762944539
10
-523.94379425048828
20
18.370020914077756
10
-525.29051437377939
20
17.787938388188671
10
-525.4545547485352
20
17.729729731877661
10
-525.61594670613613
20
17.674167474110938
10
-525.77998708089194
20
17.618603197733549
10
-525.94402745564787
20
17.560396560033169
10
-526.10806783040368
20
17.504834302266445
10
-526.2694920857748
20
17.4466256459554
10
-526.43353246053061
20
17.391063388188677
10
-526.59757283528654
20
17.332854731877632
0
LWPOLYLINE
5
104
100
AcDbEntity
8
0
100
AcDbPolyline
90
454
70
1
43
0.0
10
-91.675476582845064
20
126.51845639546714
10
-91.490273094177255
20
126.3306044896444
10
-90.151482073465985
20
124.65843588511152
10
-89.201628875732439
20
122.73756637573243
10
-88.680399386088055
20
120.66058559417726
10
-88.614253552754732
20
118.51745897928876
10
-89.008480135599797
20
116.41137790679933
10
-89.839267603556323
20
114.43494008382162
10
-91.074875322977704
20
112.68339970906578
10
-92.65178972880048
20
111.23612855275474
10
-94.503873062133806
20
110.1566240310669
10
-96.543816375732447
20
109.49516569773358
10
-98.676357396443692
20
109.28614260355633
10
-100.80360158284508
20
109.53485158284508
10
-102.8303108851115
20
110.23070704142253
10
-104.08179295857748
20
107.85475387573244
10
-105.38089809417727
20
105.38618685404461
10
-106.7091035207113
20
102.86205959320071
10
-108.05054295857747
20
100.31412887573242
10
-109.38668556213381
20
97.776767603556323
10
-110.69902470906577
20
95.284397125244155
10
-111.9716698964437
20
92.866101582845062
10
-113.18345801035564
20
90.561583010355648
10
-114.32116311391196
20
88.399933624267589
10
-115.36362209320069
20
86.418207041422534
10
-116.29496059417725
20
84.648143895467115
10
-117.09664777119956
20
83.12150096893312
10
-117.7501689275106
20
81.87795607248944
10
-118.23964970906576
20
80.943977228800478
10
-118.54391892751059
20
80.359250322977701
10
-118.64975064595542
20
80.152875645955419
10
-118.22906411488853
20
77.806022771199537
10
-117.89568653106691
20
76.186774063110363
10
-117.52791989644371
20
75.109917958577483
10
-117.00669040679934
20
74.384962209065748
10
-116.21294040679933
20
73.824038759867364
10
-115.02231540679932
20
73.236663436889671
10
-113.31839809417727
20
72.434976259867355
10
-110.9821227391561
20
71.231125322977704
10
-107.88650258382162
20
69.434602228800472
10
-103.91775258382162
20
66.857563145955396
10
-102.41227277119955
20
65.955333010355645
10
-100.76391569773357
20
65.148353036244728
10
-99.036186854044615
20
64.396937338511151
10
-97.289935239156108
20
63.658751614888516
10
-95.58337758382163
20
62.891457525889081
10
-93.980003229777026
20
62.055373223622645
10
-92.538020833333348
20
61.105520025889071
10
-91.318295542399113
20
60.004852390289329
10
-90.384308624267589
20
58.705751291910815
10
-89.794292958577486
20
57.17116715113324
10
-89.408003552754721
20
55.274105135599783
10
-89.138123385111498
20
53.340001614888521
10
-88.979371770222997
20
51.37414534886679
10
-88.931748708089202
20
49.384477551778154
10
-88.989957364400226
20
47.370998223622642
10
-89.1513573964437
20
45.341644541422532
10
-89.408003552754735
20
43.301709302266445
10
-89.76254425048829
20
41.253832848866793
10
-90.204393895467121
20
39.208604812622085
10
-90.736208979288747
20
37.166021156311047
10
-91.350044250488281
20
35.131374677022308
10
-92.043251291910835
20
33.112604570388804
10
-92.813189760843926
20
31.114999596277872
10
-93.657211240132654
20
29.141208171844468
10
-94.567378552754747
20
27.196521075566622
10
-95.543683624267587
20
25.286229085922258
10
-96.580853843688971
20
23.418271398544306
10
-97.676232719421407
20
21.592645994822206
10
-98.82452341715495
20
19.819938468933103
10
-100.02308559417726
20
18.102791182200129
10
-101.26927083333335
20
16.443854570388794
10
-102.55779037475588
20
14.853708171844495
10
-103.8833554585775
20
13.332354005177827
10
-105.24595801035565
20
11.887729247411087
10
-106.64030927022299
20
10.525124677022291
10
-108.06112855275472
20
9.2471877018610726
10
-108.6617298126221
20
8.7127292474110973
10
-109.27820542653404
20
8.1438751816749644
10
-109.91056346893313
20
7.5644375403722108
10
-110.56143620808922
20
6.9982293685277241
10
-111.22819137573245
20
6.476999878883376
10
-111.91081282297772
20
6.01927083333333
10
-112.61195704142254
20
5.6541460553805223
10
-113.33162403106691
20
5.4054375807444188
10
-114.06981379191082
20
5.2996043483416244
10
-114.82387790679934
20
5.3604583938916406
10
-116.82676760355633
20
5.7864377220471752
10
-118.80850226084392
20
6.2626875201861054
10
-120.77170607248944
20
6.7865623990694601
10
-122.71639518737794
20
7.3501251816749402
10
-124.6425615310669
20
7.9560207525889126
10
-126.55550193786623
20
8.6016037225723352
10
-128.45255991617842
20
9.28158381779987
10
-130.33375161488851
20
9.9933126211166368
10
-132.20435771942141
20
10.739437540372201
10
-134.06437822977705
20
11.512020389238984
10
-135.91116472880049
20
12.311062177022301
10
-137.75267054239913
20
13.133916505177829
10
-139.58358268737794
20
13.980583373705535
10
-141.40921414693199
20
14.843124596277875
10
-143.22690035502117
20
15.721541182200127
10
-145.04193814595541
20
16.615833131472257
10
-146.85432751973474
20
17.520708656311044
10
-148.66408462524416
20
18.4361667474111
10
-150.47119331359866
20
19.356917635599764
10
-152.28093427022301
20
20.282959302266441
10
-154.09069137573243
20
21.211645348866774
10
-155.90308074951173
20
22.137687015533452
10
-157.71811854044597
20
23.061084302266437
10
-159.54110158284507
20
23.979186773300185
10
-161.36673304239909
20
24.889354085922264
10
-163.2002936045329
20
25.788937822977722
10
-163.23733914693202
20
25.810104974110928
10
-163.27436854044601
20
25.828625726699812
10
-163.31141408284509
20
25.847146479288732
10
-163.34845962524417
20
25.868311611811308
10
-163.38550516764326
20
25.886832364400227
10
-163.42253456115725
20
25.905355135599777
10
-163.46222852071128
20
25.923875888188697
10
-163.49927406311039
20
25.945041020711272
10
-163.5363196055095
20
25.963561773300157
10
-163.57334899902344
20
25.982082525889076
10
-165.36723175048826
20
26.958395671844499
10
-167.16639518737796
20
27.924125242233266
10
-168.96555862426763
20
28.879271237055448
10
-170.77001889546716
20
29.829124434789023
10
-172.57447916666672
20
30.773686854044602
10
-174.37629102071131
20
31.712958494822185
10
-176.17545445760095
20
32.654874515533443
10
-177.97461789449059
20
33.599436934789026
10
-179.7658522288005
20
34.546647771199552
10
-181.55178972880049
20
35.504438145955405
10
-183.32979812622071
20
36.467521317799893
10
-185.09721285502121
20
37.443834463755294
10
-186.85668233235677
20
38.436021963755294
10
-188.60559043884282
20
39.4440838177999
10
-190.3386080423991
20
40.468020025889082
10
-192.06104812622073
20
41.515771802266443
10
-193.76496543884281
20
42.587335109710693
10
-195.4529922485352
20
43.682709948221863
10
-197.1225285847982
20
44.807189114888502
10
-198.77352600097657
20
45.963416989644372
10
-200.40335222880049
20
47.151397609710699
10
-202.01202341715498
20
48.373771317799893
10
-203.59687500000004
20
49.633186531066897
10
-205.15792312622074
20
50.934936046600342
10
-206.68985481262209
20
52.276375484466548
10
-208.19798304239913
20
53.665437984466564
10
-208.68215891520182
20
54.247520510355649
10
-209.02348175048832
20
54.908978843688985
10
-209.23514518737795
20
55.639227390289321
10
-209.34098498026532
20
56.42504021326701
10
-209.36478843688968
20
57.245250161488869
10
-209.32246220906578
20
58.091916020711274
10
-209.2377936045329
20
58.949167474110936
10
-209.12930539449061
20
59.801126130421963
10
-209.02083333333337
20
60.631917635599777
10
-208.9308678944906
20
61.430956395467135
10
-208.70862693786623
20
63.328022448221844
10
-208.40170122782393
20
65.254188791910806
10
-208.01012306213383
20
67.201522286732995
10
-207.53387629191084
20
69.162081718444853
10
-206.98089001973474
20
71.133230781555184
10
-206.34589970906578
20
73.107020187377941
10
-205.63681831359867
20
75.078169250488287
10
-204.85364583333336
20
77.0413730621338
10
-203.99639841715498
20
78.988710594177263
10
-203.07035675048832
20
80.914876937866211
10
-202.07552083333337
20
82.814583333333346
10
-201.01718750000003
20
84.67989260355634
10
-199.89270833333336
20
86.508164405822768
10
-198.70473175048829
20
88.294101905822771
10
-197.45853843688965
20
90.02447916666668
10
-196.15414454142254
20
91.70193653106692
10
-194.79418233235677
20
93.315896479288767
10
-193.37866795857749
20
94.861062177022305
10
-191.91288210550948
20
96.329496447245305
10
-190.39680862426761
20
97.718558947245299
10
-188.83312822977703
20
99.022960917154975
10
-187.22180862426762
20
100.23210061391195
10
-185.56816279093428
20
101.34335384368899
10
-183.87483914693203
20
102.35141569773359
10
-182.13917312622073
20
103.248357073466
10
-180.36646156311036
20
104.0288730621338
10
-178.7736647288005
20
104.43368523915609
10
-177.17558720906578
20
104.42045930226647
10
-175.57221285502118
20
104.06327018737795
10
-173.96354166666671
20
103.43356056213381
10
-172.35487047831219
20
102.60806185404462
10
-170.74091860453291
20
101.65820865631105
10
-169.12959899902347
20
100.66073239644369
10
-167.51829554239913
20
99.68441925048829
10
-165.90962435404464
20
98.803352228800463
10
-164.30095316569015
20
98.096919250488298
10
-159.90622787475587
20
96.345378875732436
10
-156.6518561045329
20
94.858413759867361
10
-154.3182291666667
20
93.643977228800452
10
-152.68045768737795
20
92.717935562133817
10
-151.5136522928874
20
92.08558559417726
10
-150.59553972880047
20
91.762793604532902
10
-149.70389518737795
20
91.757496770222986
10
-148.61116472880047
20
92.080288759867358
10
-147.09775581359867
20
92.741747093200701
10
-144.93874677022302
20
93.752457364400243
10
-144.82497787475586
20
93.969417635599797
10
-144.5101230621338
20
94.588541666666671
10
-144.00477600097656
20
95.575440406799345
10
-143.33537241617842
20
96.890419896443689
10
-142.51517054239909
20
98.499083010355633
10
-141.565309270223
20
100.36439228057861
10
-140.50432751973472
20
102.44931023915611
10
-139.35074806213382
20
104.71943976084393
10
-138.12307751973472
20
107.13243846893313
10
-136.83985481262209
20
109.65656572977701
10
-135.51958656311035
20
112.25212758382163
10
-134.18343588511152
20
114.88472690582277
10
-132.84464486440024
20
117.51733430226645
10
-131.52701695760092
20
120.11024773915609
10
-133.26269105275475
20
121.25589809417725
10
-134.72318814595542
20
122.7349179585775
10
-135.84766731262209
20
124.4838099161784
10
-136.5884974161784
20
126.42585061391196
10
-136.90864906311037
20
128.48166828155519
10
-136.79752858479819
20
130.55600064595544
10
-136.25776824951174
20
132.56418717702229
10
-135.31585222880048
20
134.41891892751062
10
-134.01145833333337
20
136.03815956115727
10
-132.40014680226645
20
137.35314712524416
10
-130.55335222880046
20
138.30564066569013
10
-128.54781411488852
20
138.85333010355635
10
-126.47083333333335
20
138.97769266764325
10
-124.41502374013267
20
138.66811854044599
10
-122.46768620808921
20
137.94051437377934
10
-121.5442929585775
20
139.76614583333335
10
-120.62354005177818
20
141.59440956115725
10
-119.7027952194214
20
143.42268943786624
10
-118.78469072977705
20
145.25095316569013
10
-117.86658624013268
20
147.07923304239912
10
-116.94848175048831
20
148.90749677022302
10
-116.03301760355633
20
150.73577664693201
10
-115.11491311391197
20
152.56668879191082
10
-114.1968086242676
20
154.39495251973472
10
-113.27871220906576
20
156.22323239644371
10
-112.35795930226645
20
158.05149612426763
10
-111.43720639546714
20
159.87712758382165
10
-110.51381314595542
20
161.70274289449057
10
-109.59041989644369
20
163.52837435404462
10
-108.6617298126221
20
165.35135739644372
10
-107.73039938608805
20
167.17434043884279
10
-106.79906088511152
20
168.99465891520182
10
-105.8597932815552
20
170.81499354044598
10
-104.92051760355633
20
172.63004748026532
10
-103.97596124013265
20
174.44508527119956
10
-103.02610804239912
20
176.25747464497888
10
-102.07360642751058
20
178.0672317504883
10
-100.18977438608808
20
181.60735804239914
10
-99.239913113911967
20
183.37212435404464
10
-98.287419573465996
20
185.13689066569015
10
-97.329621124267589
20
186.89902470906583
10
-96.369190406799333
20
188.66114260355633
10
-95.403454780578613
20
190.41797981262209
10
-94.437727228800469
20
192.17481702168786
10
-93.466710917154955
20
193.93163808186853
10
-92.49303811391195
20
195.68582687377932
10
-91.516733042399096
20
197.4373672485352
10
-90.53777147928875
20
199.18892377217614
10
-89.556169573465993
20
200.94046414693199
10
-88.574559593200689
20
202.68935610453292
10
-87.590309270223003
20
204.43824806213382
10
-86.603418604532891
20
206.18714001973473
10
-85.616519864400246
20
207.93339970906578
10
-84.629621124267587
20
209.68229166666671
10
-83.640082041422531
20
211.42853520711267
10
-82.650542958577489
20
213.17479489644373
10
-81.66364421844483
20
214.92103843688966
10
-80.674105135599788
20
216.66729812622077
10
-79.684566052754747
20
218.41354166666667
10
-78.695018895467129
20
220.16243362426761
10
-77.708128229777031
20
221.90869331359866
10
-76.721229489644401
20
223.65758527119959
10
-75.734330749511713
20
225.40382881164555
10
-74.752728843688985
20
227.1553691864014
10
-73.768478520711255
20
228.90427729288743
10
-72.789516957600924
20
230.65581766764325
10
-71.810563468933125
20
232.4073580423991
10
-70.834250322977709
20
234.15889841715497
10
-69.860585594177266
20
235.91573562622074
10
-68.889561208089205
20
237.66992441813156
10
-67.923833656311047
20
239.4267454783122
10
-66.958106104532902
20
241.18623110453291
10
-65.99766731262207
20
242.94834899902349
10
-65.042521317799896
20
244.71048304239915
10
-64.090019702911405
20
246.47524935404462
10
-63.140166505177824
20
248.24266408284507
10
-62.195606104532892
20
250.01272722880049
10
-61.258978843688965
20
251.7827903747559
10
-60.325000000000003
20
253.55815035502121
10
-59.396313953399655
20
255.3334941864014
10
-58.47291666666667
20
257.11415100097656
10
-57.554812177022313
20
258.89479166666672
10
-56.642000484466557
20
260.68072916666671
10
-55.739770348866777
20
262.4904862721761
10
-54.864000161488846
20
264.31345316569013
10
-54.014685885111504
20
266.14966214497889
10
-53.183894379933676
20
267.99646479288742
10
-52.371625645955419
20
269.85647722880049
10
-51.577875645955409
20
271.72443491617844
10
-50.797355620066327
20
273.60032170613613
10
-50.030061531066906
20
275.48150533040365
10
-49.270708656311051
20
277.37063420613606
10
-48.519292958577473
20
279.26241149902347
10
-47.770521640777588
20
281.15418879191088
10
-47.027043120066345
20
283.05126291910813
10
-46.280916182200116
20
284.94565633138023
10
-45.534793281555181
20
286.84008204142253
10
-44.783373546600345
20
288.73185933430995
10
-44.024020671844468
20
290.61833979288741
10
-43.254082202911377
20
292.50217183430993
10
-42.473562177022295
20
294.37541020711268
10
-41.677167797088615
20
296.24338404337573
10
-40.864895025889076
20
298.10076421101888
10
-40.034103520711284
20
299.95019912719732
10
-39.179500484466558
20
301.78374354044598
10
-38.303730297088627
20
303.60672658284506
10
-37.398855781555191
20
305.41381912231452
10
-36.464876937866215
20
307.2050534566244
10
-35.501789728800475
20
308.9777811686198
10
-34.155061531066906
20
310.77957687377932
10
-32.551687177022295
20
311.92259496053066
10
-30.7551661014557
20
312.4914232889812
10
-28.821062580744439
20
312.57081120808925
10
-26.807583252588927
20
312.2480272928874
10
-24.780875968933103
20
311.6050755818685
10
-22.79385457038881
20
310.7293215433757
10
-20.907374111811308
20
309.70538533528651
10
-19.184938065210986
20
308.61795171101892
10
-17.682104651133237
20
307.55167312622075
10
-17.679458252588915
20
307.55167312622075
10
-17.676811854044594
20
307.5490247090658
10
-17.674167474110938
20
307.5490247090658
10
-17.671521075566616
20
307.54637629191086
10
-17.668874677022295
20
307.54637629191086
10
-17.666228278477973
20
307.54372787475586
10
-17.663583898544317
20
307.54107945760092
10
-15.925270469983417
20
306.93255716959641
10
-14.041437419255587
20
306.15201695760095
10
-12.115271075566625
20
305.20746866861987
10
-10.252604166666686
20
304.09090245564784
10
-8.5566250403721966
20
302.80503133138029
10
-7.1305210351944126
20
301.35247141520188
10
-6.0774789849916999
20
299.72527745564781
10
-5.5033331314722744
20
297.92877858479824
10
-5.5112708131472132
20
295.96026178995777
10
-6.2044793685277355
20
293.81979166666673
10
-7.0934790253639335
20
292.01005071004238
10
-8.0168747981389288
20
290.21351954142256
10
-8.9693754037221396
20
288.43023045857751
10
-9.9509793281555048
20
286.662799580892
10
-10.956395792961118
20
284.9059946695964
10
-11.982979408899936
20
283.15971883138025
10
-13.030729166666681
20
281.42406895955412
10
-14.094354287783304
20
279.69633204142258
10
-15.173853762944525
20
277.97389195760093
10
-16.266583212216688
20
276.25939712524422
10
-17.36724983851115
20
274.55019912719729
10
-18.475854651133226
20
272.84361724853522
10
-19.592396640777601
20
271.13706766764324
10
-20.708936611811311
20
269.43579877217616
10
-21.825478601455686
20
267.73188145955407
10
-22.939374192555739
20
266.02796414693205
10
-24.047979005177815
20
264.32139841715502
10
-25.151291020711284
20
262.61218427022305
10
-26.244021479288726
20
260.89768943786629
10
-27.323519945144668
20
259.17524935404464
10
-28.389792474110926
20
257.44752858479819
10
-29.437542231877636
20
255.71184641520188
10
-30.466771237055461
20
253.96825129191086
10
-31.474833091100081
20
252.2114140828451
10
-32.456437015533446
20
250.44399935404465
10
-33.411583010355628
20
248.66335868835452
10
-34.342917474110912
20
246.88799870808921
10
-35.266310723622638
20
245.10735804239911
10
-36.184415213267016
20
243.32670122782395
10
-37.099875322977702
20
241.54341214497887
10
-38.00739421844483
20
239.75482622782391
10
-38.912272771199561
20
237.96625645955407
10
-39.809210109710698
20
236.17237370808925
10
-40.703499031066883
20
234.37850710550947
10
-41.595147609710708
20
232.57932751973473
10
-42.481499354044594
20
230.78016408284509
10
-43.362562338511168
20
228.98100064595542
10
-44.24098094304405
20
227.17654037475586
10
-45.11675113042196
20
225.37208010355636
10
-45.989876937866221
20
223.56497141520185
10
-46.860354328155523
20
221.75787887573247
10
-47.725542958577485
20
219.94812177022305
10
-48.590727551778166
20
218.1357323964437
10
-49.45327180226645
20
216.32597529093428
10
-50.315812015533453
20
214.51093750000001
10
-51.173063468933115
20
212.69854812622071
10
-52.030310885111497
20
210.88349418640144
10
-52.88756233851116
20
209.06845639546714
10
-53.742165374755864
20
207.2534186045329
10
-54.599416828155526
20
205.43573239644371
10
-55.451375484466553
20
203.62069460550944
10
-56.305978520711264
20
201.80299224853519
10
-57.160581556955989
20
199.98795445760092
10
-58.015188630421974
20
198.17026824951174
10
-59.72439470291139
20
194.54019266764323
10
-60.581646156311052
20
192.72513872782395
10
-61.438897609710708
20
190.91010093688965
10
-62.29879344304404
20
189.09506314595544
10
-63.158689276377373
20
187.28267377217611
10
-64.021229489644384
20
185.47026824951175
10
-64.883769702911394
20
183.66052729288739
10
-65.751602713267019
20
181.85077018737798
10
-66.619435723622644
20
180.0436614990235
10
-67.492561531066912
20
178.23656895955406
10
-68.368331718444836
20
176.4321086883545
10
-69.246750322977704
20
174.62764841715497
10
-70.127809270222983
20
172.82583656311036
10
-71.011524709065768
20
171.02667312622071
10
-71.903169250488304
20
169.23014195760095
10
-72.794813791910826
20
167.43627535502117
10
-73.694395510355662
20
165.64239260355635
10
-74.596625645955413
20
163.85380668640138
10
-75.506792958577478
20
162.05729166666669
10
-76.424897448221856
20
160.26340891520186
10
-77.34564228057863
20
158.47219072977705
10
-78.269043604532868
20
156.68360481262209
10
-79.197725613911956
20
154.89501889546713
10
-80.129064114888536
20
153.10908139546714
10
-81.063042958577483
20
151.3257923126221
10
-82.0023105621338
20
149.54250322977703
10
-82.941586240132651
20
147.76184641520183
10
-83.883502260843912
20
145.98120574951173
10
-84.828058624267598
20
144.20321350097657
10
-85.772623062133789
20
142.42520510355635
10
-86.719835917154967
20
140.64721285502119
10
-87.667040697733555
20
138.86920445760094
10
-88.614253552754732
20
137.09121220906579
10
-89.561458333333348
20
135.31321188608808
10
-90.50866311391195
20
133.53785190582278
10
-91.458524386088072
20
131.75985158284507
10
-92.40308074951173
20
129.98185125986737
10
-93.350293604532894
20
128.20385093688967
10
-93.165082041422536
20
128.01599903106691
10
-92.79201857248944
20
127.6429355621338
10
-92.60681508382163
20
127.45508365631105
10
-92.418955103556328
20
127.26723175048831
10
-92.233751614888519
20
127.07937177022301
10
-92.04854005177819
20
126.89416828155518
10
-91.863336563110366
20
126.70631637573244
0
LWPOLYLINE
5
105
100
AcDbEntity
8
0
100
AcDbPolyline
90
355
70
1
43
0.0
10
-473.33958333333334
20
238.79703585306805
10
-475.29750645955409
20
238.79703585306805
10
-475.3821589152019
20
237.34182751973475
10
-475.4641952514649
20
235.89191602071134
10
-475.53563791910813
20
234.44465293884278
10
-475.5858932495118
20
233.00002212524419
10
-475.60178375244152
20
231.55274289449062
10
-475.57529958089196
20
230.10283139546718
10
-475.4959439595541
20
228.64497464497887
10
-475.35570704142259
20
227.1818372090658
10
-475.1387629191081
20
225.70810610453293
10
-474.83978246053061
20
224.22114906311037
10
-474.83978246053073
20
209.85427729288742
10
-475.24457041422534
20
207.71114260355634
10
-475.48535029093438
20
205.59182751973475
10
-475.58854166666669
20
203.4884029388428
10
-475.59119008382169
20
201.39818814595543
10
-475.52239583333341
20
199.30797335306806
10
-475.41125920613609
20
197.21777470906576
10
-475.28956120808925
20
195.11698239644372
10
-475.19166666666678
20
193.00031572977704
10
-475.1440274556478
20
190.85982945760094
10
-475.18107299804694
20
188.68761062622073
10
-475.23400904337575
20
187.8647441864014
10
-475.32130991617839
20
187.04454231262213
10
-475.43244654337576
20
186.22434043884283
10
-475.55944137573249
20
185.4094192504883
10
-475.69438145955411
20
184.59184964497888
10
-475.82932154337573
20
183.77429618835453
10
-475.95631637573251
20
182.95937500000005
10
-476.06745300292977
20
182.13917312622075
10
-476.15210545857758
20
181.31895510355633
10
-476.20500920613614
20
180.49610481262209
10
-476.26589050292978
20
178.85833333333338
10
-476.31084899902356
20
177.21791343688972
10
-476.34259770711265
20
175.58014195760094
10
-476.36113662719731
20
173.93972206115728
10
-476.36378504435231
20
172.29931831359866
10
-476.35583979288748
20
170.658898417155
10
-476.33465245564787
20
169.02112693786623
10
-476.30290374755867
20
167.38070704142257
10
-476.26059366861989
20
165.74028714497888
10
-476.20500920613614
20
164.10251566569013
10
-476.07536595662447
20
162.32452341715498
10
-475.82137629191089
20
160.3851230621338
10
-475.48535029093432
20
158.31079877217613
10
-475.09642054239913
20
156.13591537475588
10
-474.68895187377939
20
153.88695704142256
10
-474.3000221252442
20
151.59830474853518
10
-473.96134770711274
20
149.29644266764325
10
-473.70735804239916
20
147.01043879191081
10
-473.57241795857755
20
144.77470639546715
10
-473.59092458089202
20
142.61306508382165
10
-473.79730733235681
20
140.56254425048832
10
-474.22593104044603
20
138.64961191813154
10
-474.91119283040371
20
136.90070381164554
10
-475.88487370808929
20
135.35289777119957
10
-477.40357945760104
20
133.81302083333335
10
-479.13396479288741
20
132.71235319773356
10
-481.0416002909343
20
131.99003779093428
10
-483.08417587280275
20
131.58522561391197
10
-485.22202987670909
20
131.4370595932007
10
-487.41540374755868
20
131.48733107248944
10
-489.62470041910814
20
131.6725426355998
10
-491.81016133626309
20
131.93712596893312
10
-493.93209253946952
20
132.21758365631106
10
-495.95086466471366
20
132.45305862426758
10
-497.82413533528654
20
132.58270994822186
10
-499.84817199707038
20
132.65149612426762
10
-501.87224095662441
20
132.72029037475588
10
-503.8963099161785
20
132.79173304239913
10
-505.92037887573247
20
132.86051921844486
10
-507.94444783528655
20
132.93196188608806
10
-509.96848449707039
20
133.00339647928877
10
-511.99255345662442
20
133.07747948964439
10
-514.01662241617851
20
133.14891408284507
10
-516.04069137573254
20
133.22035675048829
10
-518.06476033528656
20
133.28914292653405
10
-520.0887969970704
20
133.36058559417725
10
-522.11551437377932
20
133.42937177022299
10
-524.13958333333335
20
133.49816602071127
10
-526.16365229288749
20
133.5643118540446
10
-528.19036966959641
20
133.63045768737794
10
-530.21440633138025
20
133.69395510355633
10
-532.24112370808928
20
133.75746059417727
10
-534.26784108479819
20
133.81830959320072
10
-536.29191004435233
20
133.87651824951172
10
-538.31859512329106
20
133.93208656311037
10
-540.34531250000009
20
133.98499838511151
10
-542.37199757893893
20
134.03526986440025
10
-544.39874725341815
20
134.08289292653404
10
-548.45211741129572
20
134.16756153106692
10
-550.47886708577482
20
134.20460707346598
10
-552.50555216471366
20
134.2363557815552
10
-554.53488566080739
20
134.26545607248943
10
-556.56163533528661
20
134.29191602071128
10
-558.56719767252616
20
134.31043879191083
10
-560.57269541422534
20
134.32102438608808
10
-562.57825775146489
20
134.32366472880045
10
-564.58382008870456
20
134.32102438608808
10
-566.58931783040373
20
134.31043879191083
10
-568.59488016764328
20
134.29456443786623
10
-570.60309092203784
20
134.27339324951174
10
-572.60858866373701
20
134.24958171844483
10
-574.61679941813156
20
134.22048142751061
10
-576.62501017252612
20
134.18873271942141
10
-578.6305079142254
20
134.15697593688969
10
-580.63871866861984
20
134.11993846893313
10
-582.64428100585951
20
134.08554134368896
10
-584.65242716471357
20
134.04850387573245
10
-586.65798950195324
20
134.01410675048828
10
-588.66613566080741
20
133.97970962524414
10
-590.67169799804697
20
133.94531250000003
10
-592.67726033528652
20
133.91621220906578
10
-594.68282267252607
20
133.88710384368898
10
-596.68567199707036
20
133.86594072977704
10
-598.63303375244152
20
133.81037241617841
10
-600.64912516276058
20
133.69925193786625
10
-602.7261301676433
20
133.55372625986737
10
-604.84544525146498
20
133.39233430226645
10
-606.99382832845072
20
133.23623110453289
10
-609.15816650390627
20
133.10657978057864
10
-611.32773691813156
20
133.02191925048828
10
-613.48406524658219
20
133.00604489644368
10
-615.61397399902353
20
133.07483107248945
10
-617.70680491129565
20
133.25210545857749
10
-619.74679667154965
20
133.55902309417726
10
-621.71792958577487
20
134.01145833333337
10
-623.60967458089203
20
134.6332307815552
10
-625.40885416666674
20
135.44285513559981
10
-627.09686482747406
20
136.46150258382161
10
-628.66324208577487
20
137.71032816569013
10
-629.18181508382168
20
138.42205797831218
10
-629.57339324951181
20
139.42747141520184
10
-629.85386708577482
20
140.65779037475588
10
-630.03906250000011
20
142.03097852071127
10
-630.14751841227223
20
143.47296091715495
10
-630.19254150390634
20
144.91229489644371
10
-630.19254150390634
20
146.26696027119957
10
-630.1634089152019
20
147.46288210550946
10
-630.12374725341806
20
148.42860158284506
10
-630.08666941324884
20
149.08213081359864
10
-630.02317199707034
20
149.69859835306804
10
-629.8671091715496
20
151.19879748026531
10
-629.6368906656902
20
153.36573562622073
10
-629.36171366373708
20
155.97717183430993
10
-629.06011708577478
20
158.81084899902345
10
-628.76110432942721
20
161.64189389546715
10
-628.48334350585947
20
164.25333010355632
10
-628.25577341715507
20
166.42291666666668
10
-628.09964599609384
20
167.92839647928875
10
-628.03614857991545
20
168.54488016764324
10
-627.92769266764333
20
170.5689329783122
10
-627.8297658284506
20
172.59035352071129
10
-627.74514567057292
20
174.60912564595546
10
-627.67105458577487
20
176.62789777119957
10
-627.60490875244147
20
178.64666989644374
10
-627.55200500488297
20
180.66544202168785
10
-627.50433349609386
20
182.68156572977705
10
-627.46467183430991
20
184.6950410207113
10
-627.43024241129569
20
186.71116472880047
10
-627.40382283528652
20
188.72464001973472
10
-627.37998708089196
20
190.73813145955404
10
-627.35886433919279
20
192.75160675048829
10
-627.34032541910824
20
194.76508204142254
10
-627.32443491617846
20
196.7785573323568
10
-627.30589599609391
20
198.79204877217614
10
-627.29007008870451
20
200.8055240631104
10
-627.27153116861996
20
202.81899935404465
10
-627.25034383138029
20
204.8324746449789
10
-627.22657267252612
20
206.84596608479819
10
-627.19744008382168
20
208.86208979288742
10
-627.16042683919284
20
210.87556508382164
10
-627.1207005818685
20
212.89168879191084
10
-627.07309366861989
20
214.91046091715501
10
-627.01489308675139
20
216.92658462524417
10
-627.01489308675139
20
217.14619331359867
10
-627.07574208577489
20
219.32635739644371
10
-627.12864583333339
20
221.50652147928878
10
-627.17095591227223
20
223.68403714497887
10
-627.20538533528656
20
225.86156895955409
10
-627.23445332845063
20
228.03643620808924
10
-627.26093750000007
20
230.21131960550949
10
-627.28212483723973
20
232.38883527119955
10
-627.30059916178391
20
234.5637025197347
10
-627.31913808186857
20
236.73858591715501
10
-627.33767700195324
20
238.91345316569013
10
-627.40647125244141
20
238.90817248026534
10
-627.47526550292969
20
238.90552406311036
10
-627.54405975341808
20
238.9002272288005
10
-627.61020558675136
20
238.89757881164556
10
-627.67899983723964
20
238.89493039449059
10
-627.74779408772793
20
238.89229812622074
10
-627.81658833821621
20
238.89229812622074
10
-627.88538258870449
20
238.88964970906579
10
-629.75064341227221
20
238.88964970906579
10
-631.83029683431005
20
239.10660998026532
10
-633.81732025146493
20
239.75482622782391
10
-635.62967732747404
20
240.79993362426762
10
-637.18281250000007
20
242.19694137573245
10
-638.41045074462909
20
243.89026501973473
10
-639.26246592203779
20
245.79791666666668
10
-639.69635416666665
20
247.84314066569013
10
-639.69635416666677
20
249.93335545857749
10
-639.2624659220379
20
251.97857945760094
10
-638.41045074462897
20
253.88887952168787
10
-637.18281250000007
20
255.5795547485352
10
-635.62967732747416
20
256.97921091715494
10
-633.81732025146493
20
258.02431831359866
10
-631.83029683430993
20
258.6699022928874
10
-629.75064341227221
20
258.88949483235683
10
-627.90385691324877
20
258.88949483235683
10
-627.87214050292982
20
258.88684641520183
10
-627.75309092203781
20
258.88684641520183
10
-627.72130991617848
20
258.88421414693204
10
-627.74779408772804
20
259.5483047485352
10
-627.7742136637371
20
260.21241149902346
10
-627.80334625244154
20
260.87651824951178
10
-627.83241424560561
20
261.54062500000003
10
-627.86154683431005
20
262.20473175048835
10
-627.895911661784
20
262.86883850097661
10
-627.92769266764333
20
263.53557751973472
10
-627.96205749511728
20
264.19968427022303
10
-627.9991353352865
20
264.86379102071129
10
-628.03614857991545
20
265.53054618835455
10
-628.09964599609384
20
266.14701372782395
10
-628.25577341715507
20
267.64986127217617
10
-628.48334350585947
20
269.8194316864014
10
-628.76110432942721
20
272.43088404337567
10
-629.06011708577478
20
275.26456120808922
10
-629.36171366373708
20
278.09558995564782
10
-629.6368906656902
20
280.707026163737
10
-629.86710917154949
20
282.87398045857748
10
-630.02317199707045
20
284.37682800292976
10
-630.08666941324884
20
284.99329554239915
10
-630.12374725341806
20
285.64680862426763
10
-630.1634089152019
20
286.60989583333338
10
-630.19254150390634
20
287.80846608479817
10
-630.19254150390634
20
289.16313145955411
10
-630.14751841227223
20
290.59980087280275
10
-630.03906250000011
20
292.04444783528652
10
-629.85386708577482
20
293.41761983235682
10
-629.57339324951181
20
294.64529037475592
10
-629.18181508382168
20
295.65336837768558
10
-628.66324208577475
20
296.36243362426762
10
-627.09686482747406
20
297.61125920613608
10
-625.40885416666674
20
298.63254699707034
10
-623.60967458089203
20
299.44218750000005
10
-621.71792958577475
20
300.06395187377933
10
-619.74679667154965
20
300.51641133626305
10
-617.70680491129565
20
300.82065633138023
10
-615.61397399902353
20
300.99793879191088
10
-613.48406524658219
20
301.06938145955411
10
-611.32773691813156
20
301.05084253946944
10
-609.15816650390639
20
300.96619008382169
10
-606.9938283284506
20
300.83654683430996
10
-604.84544525146487
20
300.68306783040367
10
-602.7261301676433
20
300.5216758728028
10
-600.64912516276058
20
300.37617441813154
10
-598.63303375244152
20
300.26503779093429
10
-596.68567199707036
20
300.20948562622073
10
-594.68282267252607
20
300.18568216959642
10
-592.67726033528652
20
300.15919799804692
10
-588.66613566080741
20
300.09570058186853
10
-586.65798950195324
20
300.06130345662439
10
-584.65242716471369
20
300.0242579142253
10
-582.64428100585951
20
299.98986078898116
10
-580.63871866861984
20
299.95284754435227
10
-578.6305079142254
20
299.91845041910813
10
-576.62501017252612
20
299.88405329386399
10
-574.61679941813168
20
299.85495300292973
10
-572.60858866373712
20
299.82582041422529
10
-570.60309092203784
20
299.80201695760098
10
-568.59488016764328
20
299.78086191813156
10
-566.58931783040373
20
299.7649714152019
10
-564.58382008870456
20
299.75441004435226
10
-562.57825775146489
20
299.74911321004237
10
-560.57269541422534
20
299.75441004435226
10
-558.56719767252616
20
299.7649714152019
10
-556.56163533528661
20
299.78351033528651
10
-554.53488566080739
20
299.80731379191081
10
-552.50555216471366
20
299.83641408284507
10
-550.47886708577482
20
299.87081120808921
10
-548.4521174112956
20
299.90785675048835
10
-546.42543233235688
20
299.94755071004238
10
-544.39874725341804
20
299.99250920613611
10
-542.37199757893882
20
300.04014841715497
10
-540.34531250000009
20
300.09040374755864
10
-538.31859512329106
20
300.14333979288739
10
-536.29191004435233
20
300.19889195760095
10
-534.26784108479819
20
300.25709253946945
10
-532.24112370808928
20
300.31797383626309
10
-530.21440633138025
20
300.37882283528648
10
-528.19036966959641
20
300.44232025146488
10
-526.16365229288749
20
300.50846608479821
10
-524.13958333333335
20
300.5772603352865
10
-522.11551437377932
20
300.64340616861983
10
-520.0887969970704
20
300.71484883626306
10
-518.06476033528656
20
300.78361078898121
10
-509.96848449707039
20
301.06938145955411
10
-507.94444783528655
20
301.14082412719733
10
-505.92037887573247
20
301.21223449707037
10
-503.89630991617844
20
301.28367716471359
10
-499.84817199707038
20
301.42126566569016
10
-497.82413533528654
20
301.49005991617844
10
-495.95086466471366
20
301.62235158284511
10
-493.93209253946952
20
301.85783462524421
10
-491.81016133626309
20
302.13827616373703
10
-489.62470041910814
20
302.40024337768557
10
-487.41540374755863
20
302.5880872090658
10
-485.22202987670903
20
302.63569412231448
10
-483.0841758728028
20
302.49019266764327
10
-481.04160029093435
20
302.08537241617842
10
-479.13396479288741
20
301.36041666666671
10
-477.40357945760093
20
300.2597409566244
10
-475.88487370808923
20
298.72252858479823
10
-474.91119283040371
20
297.17207412719733
10
-474.22593104044603
20
295.42579828898118
10
-473.79730733235681
20
293.51286595662441
10
-473.59092458089202
20
291.45969670613613
10
-473.57241795857755
20
289.30071996053061
10
-473.70735804239916
20
287.06232299804691
10
-473.96134770711274
20
284.77896753946948
10
-474.3000221252442
20
282.47710545857751
10
-474.68895187377939
20
280.18580474853519
10
-475.09642054239919
20
277.93949483235679
10
-475.48535029093438
20
275.76462758382166
10
-475.82137629191089
20
273.69030329386396
10
-476.07536595662447
20
271.75088678995775
10
-476.20500920613614
20
269.97024612426759
10
-476.24205474853522
20
268.8537122090658
10
-476.27645187377937
20
267.73716214497887
10
-476.30290374755867
20
266.62062822977708
10
-476.32673950195317
20
265.50407816569015
10
-476.34524612426765
20
264.38489583333336
10
-476.35583979288748
20
263.26836191813152
10
-476.36378504435231
20
262.14916343688969
10
-476.36378504435231
20
261.03262952168785
10
-476.35848821004237
20
259.91607945760097
10
-476.34789454142259
20
258.79689712524419
10
-473.33958333333339
20
258.79689712524419
10
-471.25996220906586
20
258.5799368540446
10
-469.27293879191086
20
257.93435287475586
10
-467.46319783528656
20
256.88659706115726
10
-465.90744654337578
20
255.4896054585775
10
-464.67977600097663
20
253.79891408284507
10
-463.83047383626308
20
251.88863016764327
10
-463.39390487670903
20
249.84339001973473
10
-463.39390487670903
20
247.75319137573246
10
-463.83047383626308
20
245.70795122782391
10
-464.67977600097663
20
243.79766731262211
10
-465.90744654337573
20
242.10697593688968
10
-467.46319783528645
20
240.70733591715498
10
-469.27293879191092
20
239.6622285207113
10
-471.25996220906586
20
239.01664454142258
0
LWPOLYLINE
5
106
100
AcDbEntity
8
0
100
AcDbPolyline
90
510
70
1
43
0.0
10
-357.15045445760097
20
110.80749677022298
10
-360.32280604044604
20
110.807496770223
10
-360.56358591715502
20
108.804607073466
10
-360.80436579386401
20
106.80170930226646
10
-361.0477617899578
20
104.79616311391196
10
-361.29648691813151
20
102.79062500000001
10
-361.55047658284514
20
100.78508688608807
10
-361.80976308186848
20
98.77954069773358
10
-362.07964324951178
20
96.776642926534038
10
-362.36011708577479
20
94.77639357248944
10
-362.65115229288739
20
92.776144218444827
10
-362.95807800292971
20
90.778543281555187
10
-363.27821350097668
20
88.786231104532888
10
-363.61688791910814
20
86.796559270222986
10
-363.97406895955413
20
84.809543927510589
10
-364.34975662231443
20
82.827809270223
10
-364.74928003946951
20
80.851371447245285
10
-365.16999079386392
20
78.88287887573243
10
-365.41603520711271
20
77.734580103556326
10
-365.65946350097659
20
76.586289405822754
10
-365.90024337768563
20
75.432709948221856
10
-366.1542330423992
20
74.284419250488298
10
-366.42146479288738
20
73.138768895467123
10
-366.71249999999998
20
72.001063791910823
10
-367.03263549804694
20
70.873936208089219
10
-367.39246495564782
20
69.762691052754747
10
-367.79463678995774
20
68.664663759867352
10
-368.24974466959645
20
67.587811692555761
10
-368.71803003946945
20
66.772894541422545
10
-369.32658462524415
20
66.010897286733012
10
-370.02773691813161
20
65.291230297088632
10
-370.77649612426762
20
64.595374838511148
10
-371.52790374755858
20
63.904812177022308
10
-372.23170445760098
20
63.208956718444824
10
-372.84817199707038
20
62.486645348866787
10
-373.32973175048835
20
61.724644056955981
10
-373.62871220906584
20
60.907082525889095
10
-373.70015487670906
20
60.018082364400236
10
-373.57051162719733
20
57.93845720291138
10
-373.44086837768566
20
55.856187661488867
10
-373.17098821004237
20
51.696937338511155
10
-373.03339970906575
20
49.617312177022299
10
-372.8931627909343
20
47.537687015533464
10
-372.75292587280273
20
45.455417474110931
10
-372.61272125244142
20
43.375792312622075
10
-372.47248433430997
20
41.296167151133218
10
-372.32959899902346
20
39.216541989644384
10
-372.18936208089195
20
37.13691682815552
10
-372.05180587768558
20
35.057291666666671
10
-371.91421737670902
20
32.977666505177829
10
-371.82953262329102
20
32.067499192555751
10
-371.70783462524417
20
31.154687500000016
10
-371.56494928995767
20
30.239229408899941
10
-371.41679941813157
20
29.326415697733559
10
-371.27921091715501
20
28.410957606633502
10
-371.1680742899577
20
27.498145914077767
10
-371.09928003946942
20
26.59062500000001
10
-371.09136708577478
20
25.68839486440023
10
-371.15751291910811
20
24.791457525889093
10
-371.3136080423991
20
23.90245736440022
10
-371.92213033040366
20
21.447124354044611
10
-372.56508204142256
20
19.184938065210986
10
-373.27417958577479
20
17.113250080744429
10
-374.08908462524414
20
15.224125242233271
10
-375.03628133138028
20
13.512270752588904
10
-376.15284754435231
20
11.972395833333351
10
-377.473115793864
20
10.599208696683249
10
-379.03151550292978
20
9.3874165455500247
10
-380.85976308186855
20
8.3343749999999872
10
-382.99232025146495
20
7.4294999798139116
10
-383.63523966471354
20
7.1887291868527825
10
-384.30199483235685
20
6.9267917474110874
10
-384.98464050292972
20
6.6648543079694278
10
-385.67784754435223
20
6.4240835150082987
10
-386.3710545857748
20
6.2203542272249734
10
-387.05896479288748
20
6.0748330911000537
10
-387.73363291422527
20
6.0060418685277384
10
-388.38717829386405
20
6.0298544088999506
10
-389.01423950195317
20
6.1700832525889027
10
-389.60955200195315
20
6.4426042675971829
10
-390.21277745564782
20
6.8050831516583798
10
-390.81603520711263
20
7.1728543281555091
10
-391.4192929585775
20
7.5379791061083523
10
-392.01990229288742
20
7.9057497779528418
10
-392.62316004435218
20
8.2761668483416173
10
-393.22373708089202
20
8.6439370155334316
10
-394.42495574951175
20
9.3847711563110536
10
-395.02556508382168
20
9.7525418281555076
10
-395.62882283528654
20
10.120312499999997
10
-395.69761708577471
20
10.120312499999997
10
-396.29819412231456
20
9.7525418281555076
10
-396.89880345662436
20
9.3847711563110181
10
-397.50206120808917
20
9.0143540859222426
10
-398.10267054239915
20
8.6439370155334316
10
-398.70327987670908
20
8.2761668483416173
10
-399.30388921101894
20
7.9057497779528418
10
-399.90711466471362
20
7.5379791061083523
10
-400.51037241617843
20
7.1728543281555091
10
-401.11363016764324
20
6.8050831516583798
10
-401.7168879191081
20
6.4426042675971829
10
-402.30955200195319
20
6.1700832525889027
10
-402.93661321004237
20
6.0298544088999506
10
-403.59277470906585
20
6.0060418685277384
10
-404.2674428304037
20
6.0748330911000537
10
-404.95538533528651
20
6.2203542272249734
10
-405.64859237670902
20
6.4240835150082987
10
-406.33915100097659
20
6.6648543079694278
10
-407.02176437377938
20
6.9267917474110874
10
-407.68851954142258
20
7.1887291868527825
10
-408.33411966959636
20
7.4294999798139116
10
-410.46664454142262
20
8.3343749999999872
10
-412.29492441813159
20
9.3874165455500247
10
-413.85067571004237
20
10.599208696683249
10
-415.17094395955405
20
11.972395833333351
10
-416.29012629191089
20
13.512270752588904
10
-417.23732299804692
20
15.224125242233271
10
-418.04961191813157
20
17.113250080744429
10
-418.7613255818685
20
19.184938065210986
10
-419.40162887573246
20
21.447124354044611
10
-420.01015116373708
20
23.90245736440022
10
-420.16892700195314
20
24.791457525889093
10
-420.23507283528653
20
25.68839486440023
10
-420.2271275838217
20
26.59062500000001
10
-420.15833333333342
20
27.498145914077767
10
-420.04719670613611
20
28.410957606633502
10
-419.90964050292973
20
29.326415697733559
10
-419.76145833333339
20
30.239229408899941
10
-419.61857299804694
20
31.154687499999998
10
-419.49687500000005
20
32.067499192555751
10
-419.41222254435223
20
32.977666505177829
10
-419.27463404337567
20
35.057291666666671
10
-418.85392328898121
20
41.296167151133218
10
-418.71371866861983
20
43.375792312622075
10
-418.57083333333333
20
45.455417474110931
10
-418.43324483235682
20
47.537687015533464
10
-418.29300791422531
20
49.617312177022299
10
-418.15545171101894
20
51.696937338511155
10
-417.88557154337576
20
55.856187661488867
10
-417.75327987670903
20
57.93845720291138
10
-417.62628504435224
20
60.018082364400236
10
-417.69769541422534
20
60.907082525889095
10
-417.99667587280283
20
61.724644056955995
10
-418.47823562622079
20
62.486645348866787
10
-419.09205474853525
20
63.208956718444824
10
-419.79850387573254
20
63.904812177022308
10
-420.54726308186855
20
64.595374838511148
10
-421.29605458577481
20
65.291230297088632
10
-421.99717458089196
20
66.010897286733012
10
-422.60572916666666
20
66.772894541422545
10
-423.07669525146491
20
67.587811692555761
10
-423.53177083333344
20
68.664663759867352
10
-423.93394266764335
20
69.762691052754747
10
-424.29377212524423
20
70.873936208089219
10
-424.61390762329108
20
72.001063791910823
10
-424.90494283040368
20
73.138768895467123
10
-425.17217458089198
20
74.284419250488298
10
-425.42354812622079
20
75.432709948221856
10
-425.66694412231459
20
76.586289405822754
10
-425.90772399902346
20
77.734580103556326
10
-426.15380071004239
20
78.88287887573243
10
-426.5850728352865
20
80.888416989644384
10
-426.98986078898116
20
82.899251937866225
10
-427.37087758382165
20
84.915375645955407
10
-427.73335545857753
20
86.936788113911959
10
-428.07467829386405
20
88.960857073466002
10
-428.40011062622074
20
90.990206718444838
10
-428.70965245564781
20
93.022204780578619
10
-429.00598449707036
20
95.056851259867358
10
-429.28910675048837
20
97.094146156311055
10
-429.5616353352865
20
99.134081395467121
10
-429.82621866861984
20
101.17402470906578
10
-430.0828567504883
20
103.21395994822184
10
-430.33419799804688
20
105.25389518737795
10
-430.5802747090658
20
107.29647884368899
10
-430.82631912231449
20
109.33377374013267
10
-431.07239583333342
20
111.37370897928875
10
-431.31847254435229
20
113.41100387573243
10
-433.29225387573251
20
113.06968911488852
10
-435.29248708089199
20
113.12789777119954
10
-437.24246495564785
20
113.5829814275106
10
-439.06279958089203
20
114.41906572977703
10
-440.6794321695964
20
115.60175355275474
10
-442.02880071004239
20
117.08077341715496
10
-443.05538533528653
20
118.80056508382162
10
-443.71949208577485
20
120.68968588511152
10
-443.99463678995778
20
122.67406088511152
10
-443.86764195760094
20
124.6716698964437
10
-443.34377212524424
20
126.60577341715496
10
-442.44683074951183
20
128.39435125986736
10
-441.21121495564785
20
129.97127374013269
10
-439.68724466959645
20
131.26773045857749
10
-437.93305587768566
20
132.23610642751061
10
-436.02273966471358
20
132.83670768737795
10
-434.03045171101894
20
133.04308236440025
10
-434.32413533528654
20
135.00364583333337
10
-434.61781895955414
20
136.96949806213379
10
-434.91679941813163
20
138.94594395955406
10
-435.21577987670912
20
140.92502212524414
10
-435.52005716959638
20
142.91469395955406
10
-435.82695058186857
20
144.90699806213382
10
-436.13652470906584
20
146.90459899902348
10
-436.4513633728028
20
148.90484835306805
10
-436.7688827514649
20
150.90774612426759
10
-437.0916666666667
20
152.91329231262208
10
-437.41974741617844
20
154.92148691813154
10
-437.75047658284512
20
156.92966537475587
10
-438.0865025838217
20
158.93785998026533
10
-438.43047383626305
20
160.94339001973475
10
-438.77706120808921
20
162.94893620808924
10
-439.1315938313802
20
164.95183397928878
10
-439.4914232889812
20
166.9494349161784
10
-439.85654958089196
20
168.94440358479818
10
-440.22962112426762
20
170.934059270223
10
-440.60798950195311
20
172.92108268737795
10
-440.99427083333342
20
174.89752858479821
10
-441.38849741617844
20
176.86866149902346
10
-441.78802083333346
20
178.8318814595541
10
-442.19813791910809
20
180.78714001973469
10
-442.61351954142265
20
182.73183720906582
10
-443.03949483235681
20
184.66858914693199
10
-443.47076695760097
20
186.59209899902345
10
-443.91263275146486
20
188.50504748026535
10
-444.06607945760101
20
189.02362047831221
10
-444.4444478352865
20
190.26981379191085
10
-445.00801162719733
20
192.10867118835452
10
-445.71707687377938
20
194.41054941813152
10
-446.52671737670909
20
197.04578908284506
10
-447.39982299804694
20
199.87683397928876
10
-448.29146753946941
20
202.77402470906577
10
-449.16195704142251
20
205.60242118835453
10
-449.97159754435233
20
208.23502858479821
10
-450.68066279093438
20
210.53689066569012
10
-451.24157816569016
20
212.37309964497885
10
-451.6199465433757
20
213.61664454142254
10
-451.7707448323568
20
214.13258527119962
10
-451.82894541422536
20
214.57178649902346
10
-451.81838404337577
20
215.09302406311036
10
-451.74694137573249
20
215.6724622090658
10
-451.61464970906582
20
216.27835222880049
10
-451.42150904337569
20
216.88953908284506
10
-451.17013549804688
20
217.47162564595541
10
-450.8658905029298
20
218.006089146932
10
-450.50602874755867
20
218.45851631164552
10
-450.09594395955412
20
218.80511983235678
10
-449.63821996053065
20
219.01943168640142
10
-449.07995300292976
20
219.22051760355635
10
-447.97398045857756
20
219.62268943786626
10
-446.44468104044608
20
220.14920768737798
10
-444.61640116373707
20
220.72070058186853
10
-442.60557428995776
20
221.25781250000003
10
-440.53919525146489
20
221.68113937377933
10
-438.53892974853522
20
221.91397399902345
10
-436.72654037475593
20
221.87429618835452
10
-435.22369283040376
20
221.48270187377932
10
-434.15479812622073
20
220.66250000000002
10
-432.96152470906577
20
218.93476308186851
10
-431.96668879191088
20
217.15412241617841
10
-431.1411900838217
20
215.32585868835451
10
-430.46384124755866
20
213.45525258382165
10
-429.90557428995777
20
211.54232025146487
10
-429.43990503946941
20
209.59762306213381
10
-429.0403816223145
20
207.61854489644372
10
-428.68055216471362
20
205.61299870808921
10
-428.33396479288746
20
203.58629748026533
10
-427.97678375244146
20
201.53840891520187
10
-427.5799087524415
20
199.47466214497888
10
-427.18303375244147
20
197.51940358479823
10
-426.79142328898115
20
195.55618362426759
10
-426.40249354044602
20
193.59033139546713
10
-426.01886062622077
20
191.62183074951173
10
-425.64049224853528
20
189.64804941813154
10
-425.26215616861981
20
187.67160352071127
10
-424.88643620808921
20
185.69517377217613
10
-424.51071624755861
20
183.71343104044601
10
-424.13502858479831
20
181.73170445760093
10
-423.75930862426765
20
179.74997787475587
10
-423.38358866373704
20
177.76560287475587
10
-423.00525258382163
20
175.78387629191084
10
-422.62423578898114
20
173.79950129191084
10
-422.23795445760095
20
171.81777470906579
10
-421.84902470906582
20
169.83604812622073
10
-421.45744654337568
20
167.85695381164555
10
-421.05527470906577
20
165.88052406311039
10
-420.65045445760097
20
163.90672658284507
10
-420.23772125244147
20
161.93294525146487
10
-419.8170104980469
20
159.96707687377932
10
-419.38573837280279
20
158.00122464497886
10
-418.94655329386404
20
156.04331766764327
10
-418.49939066569021
20
154.08804295857749
10
-418.03901824951174
20
152.13806508382163
10
-417.56540374755866
20
150.19601631164551
10
-417.08122787475588
20
148.25926437377933
10
-416.60496495564786
20
146.71940358479819
10
-415.98849741617846
20
145.25889841715497
10
-415.25559641520192
20
143.86453908284506
10
-414.42744928995774
20
142.5257480621338
10
-413.52259496053068
20
141.2319316864014
10
-412.56480458577477
20
139.96988016764325
10
-411.56996866861982
20
138.72898368835453
10
-410.56453908284516
20
137.49601631164552
10
-409.56440633138021
20
136.26041666666669
10
-408.59075775146493
20
135.01158301035565
10
-408.26797383626314
20
134.45860481262207
10
-408.07215245564782
20
133.85535513559978
10
-407.97955474853524
20
133.2150599161784
10
-407.95839970906582
20
132.54566440582278
10
-407.98485158284512
20
131.85774612426758
10
-408.02984237670904
20
131.15925032297773
10
-408.06953633626307
20
130.4607464472453
10
-408.07215245564782
20
129.77018782297773
10
-408.01130345662443
20
129.09814389546713
10
-407.86050516764334
20
128.45255991617842
10
-407.56946996053068
20
127.69850387573244
10
-407.21490503946944
20
126.97089970906578
10
-406.81276550292978
20
126.26181023915609
10
-406.38149337768567
20
125.56595478057864
10
-405.93433074951179
20
124.878044573466
10
-405.49246495564785
20
124.18747787475588
10
-405.06913808186857
20
123.488982073466
10
-404.68550516764321
20
122.77460384368899
10
-404.35742441813159
20
122.03906250000003
10
-404.10078633626307
20
121.27441279093425
10
-403.96849466959634
20
120.64206282297773
10
-403.91026178995781
20
120.00176760355632
10
-403.90496495564781
20
119.35354328155519
10
-403.9420104980469
20
118.70002212524415
10
-404.00285949707035
20
118.04385255177817
10
-404.06900533040368
20
117.3850426355998
10
-404.12988662719732
20
116.7262327194214
10
-404.16428375244146
20
116.0700631459554
10
-404.15898691813152
20
115.41919040679934
10
-404.10078633626307
20
114.77095801035566
10
-403.83881912231453
20
112.93739744822187
10
-403.54778391520193
20
110.94243685404463
10
-403.21440633138025
20
108.83370736440025
10
-402.82017974853517
20
106.65354328155519
10
-402.35186208089203
20
104.4416224161784
10
-401.79359512329108
20
102.24029521942141
10
-401.12948837280277
20
100.09452018737795
10
-400.34368362426761
20
98.046647771199559
10
-399.41764195760095
20
96.133707364400252
10
-398.34080200195319
20
94.405978520711272
10
-397.09459253946943
20
92.900498708089202
10
-395.66321996053063
20
91.659602228800466
10
-394.23181508382163
20
92.900498708089202
10
-392.98563791910806
20
94.405978520711272
10
-391.90611724853522
20
96.133707364400237
10
-390.98272399902351
20
98.046647771199545
10
-390.19691925048835
20
100.09452018737795
10
-389.53016408284509
20
102.24029521942141
10
-388.97189712524425
20
104.4416224161784
10
-388.50357945760101
20
106.65354328155519
10
-388.11200129191087
20
108.83370736440025
10
-387.77862370808924
20
110.94243685404462
10
-387.48758850097664
20
112.93739744822184
10
-387.22565358479818
20
114.77095801035566
10
-387.16480458577485
20
115.41919040679934
10
-387.1595077514649
20
116.07006314595543
10
-387.19655329386399
20
116.72623271942142
10
-387.25475387573249
20
117.38504263559977
10
-387.32354812622077
20
118.04385255177817
10
-387.38439712524416
20
118.70002212524417
10
-387.4187942504883
20
119.35354328155519
10
-387.41614583333342
20
120.00176760355632
10
-387.35529683430997
20
120.64206282297772
10
-387.22565358479824
20
121.27441279093425
10
-386.96901550292978
20
122.03906250000003
10
-386.64090245564785
20
122.77460384368896
10
-386.25462112426766
20
123.488982073466
10
-385.83394266764321
20
124.18747787475588
10
-385.39207687377939
20
124.878044573466
10
-384.94494654337575
20
125.56595478057864
10
-384.51102600097664
20
126.26181023915609
10
-384.10885416666673
20
126.97089970906576
10
-383.75432154337574
20
127.69850387573243
10
-383.46590245564789
20
128.45255991617842
10
-383.31510416666674
20
129.09814389546713
10
-383.25425516764335
20
129.77018782297773
10
-383.25690358479818
20
130.4607464472453
10
-383.29394912719738
20
131.15925032297773
10
-383.33890762329111
20
131.85774612426761
10
-383.36535949707036
20
132.54566440582278
10
-383.34685287475588
20
133.2150599161784
10
-383.25160675048835
20
133.85535513559978
10
-383.05846608479828
20
134.45860481262207
10
-382.73303375244149
20
135.01158301035565
10
-381.76200129191091
20
136.26041666666669
10
-380.76186854044602
20
137.49601631164555
10
-379.75382283528654
20
138.7289836883545
10
-378.76163533528654
20
139.96988016764323
10
-377.80119654337574
20
141.2319316864014
10
-376.89630991617838
20
142.5257480621338
10
-376.06816279093431
20
143.86453908284508
10
-375.33526178995771
20
145.25889841715497
10
-374.72144266764326
20
146.71940358479819
10
-374.24253133138029
20
148.25926437377933
10
-373.75835545857746
20
150.19601631164554
10
-373.28738937377932
20
152.13806508382166
10
-372.82701695760096
20
154.08804295857749
10
-372.37723821004238
20
156.04331766764324
10
-371.93802083333338
20
158.00122464497886
10
-371.50939712524416
20
159.96707687377932
10
-371.08871866861983
20
161.93294525146484
10
-370.67595316569009
20
163.90672658284507
10
-370.2684844970704
20
165.88052406311039
10
-369.86899337768563
20
167.85695381164555
10
-369.47473449707041
20
169.83604812622073
10
-369.08580474853522
20
171.81777470906579
10
-368.70217183430998
20
173.79950129191084
10
-368.32115503946943
20
175.78387629191084
10
-367.94281895955407
20
177.7656028747559
10
-367.56445058186853
20
179.7499778747559
10
-367.18876291910817
20
181.73170445760093
10
-366.81569137573251
20
183.71343104044598
10
-366.43997141520185
20
185.6951737721761
10
-366.0642837524415
20
187.6716035207113
10
-365.68591537475589
20
189.64804941813156
10
-365.30493087768559
20
191.62183074951173
10
-364.92126566569021
20
193.59033139546713
10
-364.53498433430991
20
195.55618362426759
10
-364.14340616861983
20
197.51940358479823
10
-363.74388275146487
20
199.47466214497888
10
-363.34700775146484
20
201.53840891520187
10
-362.98982671101891
20
203.58629748026533
10
-362.64585545857756
20
205.61299870808924
10
-362.28602600097668
20
207.61854489644375
10
-361.8865025838216
20
209.59762306213381
10
-361.42083333333341
20
211.54232025146487
10
-360.86256637573251
20
213.45525258382165
10
-360.18256912231448
20
215.32585868835451
10
-359.35971883138023
20
217.15412241617841
10
-358.36488291422529
20
218.93476308186851
10
-357.17160949707034
20
220.66250000000002
10
-356.10271479288741
20
221.48270187377932
10
-354.59986724853525
20
221.87429618835452
10
-352.78747787475595
20
221.91397399902345
10
-350.78724466959636
20
221.68113937377933
10
-348.72083333333342
20
221.25781250000003
10
-346.71000645955411
20
220.72070058186853
10
-344.87907816569015
20
220.14920768737795
10
-343.34977874755862
20
219.62268943786623
10
-342.24648691813161
20
219.22051760355635
10
-341.68821996053066
20
219.01943168640142
10
-341.22784754435224
20
218.80511983235681
10
-340.8177304585775
20
218.45851631164555
10
-340.46054941813156
20
218.006089146932
10
-340.15362370808924
20
217.47162564595544
10
-339.90493087768556
20
216.88953908284509
10
-339.7117579142253
20
216.27835222880049
10
-339.57681783040368
20
215.6724622090658
10
-339.50540746053065
20
215.09302406311039
10
-339.49746220906582
20
214.57178649902349
10
-339.55301437377943
20
214.13258527119956
10
-339.70384496053066
20
213.61664454142254
10
-340.08218104044602
20
212.37309964497888
10
-340.6457448323568
20
210.53689066569012
10
-341.35219395955409
20
208.23502858479821
10
-342.16180216471355
20
205.6024211883545
10
-343.03494008382165
20
202.77402470906577
10
-343.92658462524417
20
199.87683397928879
10
-344.79707412719728
20
197.04578908284506
10
-345.6093307495118
20
194.41054941813152
10
-346.31577987670909
20
192.10867118835452
10
-346.87934366861981
20
190.26981379191085
10
-347.25767974853517
20
189.02362047831221
10
-347.41115875244139
20
188.50504748026535
10
-347.85564066569015
20
186.58152147928877
10
-348.29220962524414
20
184.64741795857751
10
-348.71818491617842
20
182.70273691813156
10
-349.1362149556478
20
180.74746220906576
10
-349.54633204142254
20
178.78424224853518
10
-349.94850387573246
20
176.81046091715498
10
-350.34537887573242
20
174.82873433430993
10
-350.73166020711267
20
172.83906250000001
10
-351.11267700195322
20
170.8441099802653
10
-351.48836466471357
20
168.8438606262207
10
-351.8534909566244
20
166.83831443786625
10
-352.21596883138028
20
164.83011983235681
10
-352.57053375244146
20
162.81664454142256
10
-352.91976954142257
20
160.80052083333334
10
-353.26374079386397
20
158.78439712524417
10
-353.60238291422536
20
156.76827341715497
10
-353.93576049804693
20
154.74950129191083
10
-354.26384124755862
20
152.73072916666669
10
-354.58665746053066
20
150.71725387573244
10
-354.90679295857751
20
148.70377858479819
10
-355.22163162231448
20
146.69293556213381
10
-355.53385416666674
20
144.68475710550945
10
-355.84077987670901
20
142.68185933430993
10
-356.14505716959638
20
140.68689066569013
10
-356.44665374755868
20
138.69458656311036
10
-356.74563420613617
20
136.71021156311036
10
-357.04196624755861
20
134.73377374013265
10
-357.3356821695964
20
132.76791343688967
10
-357.626717376709
20
130.8073580423991
10
-357.15045445760097
20
130.8073580423991
10
-355.07083333333344
20
130.59039777119955
10
-353.08380991617844
20
129.94481379191083
10
-351.27406895955409
20
128.89970639546715
10
-349.7183176676433
20
127.50006637573244
10
-348.49064712524415
20
125.80937500000003
10
-347.6413449605306
20
123.89908301035564
10
-347.20477600097666
20
121.85385093688966
10
-347.20477600097661
20
119.76364421844482
10
-347.6413449605306
20
117.71842021942142
10
-348.49064712524421
20
115.80812822977704
10
-349.71831766764325
20
114.11743685404461
10
-351.27406895955403
20
112.71778875986737
10
-353.08380991617844
20
111.67268943786623
10
-355.07083333333344
20
111.02710545857748
0
LWPOLYLINE
5
107
100
AcDbEntity
8
0
100
AcDbPolyline
90
4
70
1
43
0.0
10
0
20
0
10
0
20
316.99993362426761
10
-650.9993464152019
20
316.99993362426761
10
-650.9993464152019
20
0
0
ENDSEC
0
SECTION
2
OBJECTS
0
DICTIONARY
5
C
100
AcDbDictionary
3
ACAD_GROUP
350
D
3
ACAD_MLINESTYLE
350
17
0
DICTIONARY
5
D
100
AcDbDictionary
0
DICTIONARY
5
1A
330
C
100
AcDbDictionary
0
DICTIONARY
5
17
100
AcDbDictionary
0
ENDSEC
0
EOF
