0
SECTION
2
HEADER
9
$INSUNITS
70
4
9
$ACADVER
1
AC1014
9
$HANDSEED
5
FFFF
0
ENDSEC
0
SECTION
2
TABLES
0
TABLE
2
VPORT
5
8
100
AcDbSymbolTable
0
ENDTAB
0
TABLE
2
LTYPE
5
5
100
AcDbSymbolTable
0
LTYPE
5
14
100
AcDbSymbolTableRecord
100
AcDbLinetypeTableRecord
2
BYBLOCK
70
0
0
LTYPE
5
15
100
AcDbSymbolTableRecord
100
AcDbLinetypeTableRecord
2
BYLAYER
70
0
0
LTYPE
5
16
100
AcDbSymbolTableRecord
100
AcDbLinetypeTableRecord
2
DASHED
70
0
3
Dashed __ __ __ __ __ __ __ __ __ __ __ __ __ _
72
65
73
2
40
0.75
49
0.5
74
0
49
-0.25
74
0
0
ENDTAB
0
TABLE
2
LAYER
5
2
100
AcDbSymbolTable
70
2
0
LAYER
5
50
100
AcDbSymbolTableRecord
100
AcDbLayerTableRecord
2
0
70
0
62
7
6
CONTINUOUS
0
ENDTAB
0
TABLE
2
STYLE
5
3
100
AcDbSymbolTable
70
1
0
STYLE
5
11
100
AcDbSymbolTableRecord
100
AcDbTextStyleTableRecord
2
STANDARD
70
0
0
ENDTAB
0
TABLE
2
VIEW
5
6
100
AcDbSymbolTable
70
0
0
ENDTAB
0
TABLE
2
UCS
5
7
100
AcDbSymbolTable
70
0
0
ENDTAB
0
TABLE
2
APPID
5
9
100
AcDbSymbolTable
70
2
0
APPID
5
12
100
AcDbSymbolTableRecord
100
AcDbRegAppTableRecord
2
ACAD
70
0
0
ENDTAB
0
TABLE
2
DIMSTYLE
5
A
100
AcDbSymbolTable
70
1
0
ENDTAB
0
TABLE
2
BLOCK_RECORD
5
1
100
AcDbSymbolTable
70
1
0
BLOCK_RECORD
5
1F
100
AcDbSymbolTableRecord
100
AcDbBlockTableRecord
2
*MODEL_SPACE
0
BLOCK_RECORD
5
1B
100
AcDbSymbolTableRecord
100
AcDbBlockTableRecord
2
*PAPER_SPACE
0
ENDTAB
0
ENDSEC
0
SECTION
2
BLOCKS
0
BLOCK
5
20
100
AcDbEntity
100
AcDbBlockBegin
2
*MODEL_SPACE
0
ENDBLK
5
21
100
AcDbEntity
100
AcDbBlockEnd
0
BLOCK
5
1C
100
AcDbEntity
100
AcDbBlockBegin
2
*PAPER_SPACE
0
ENDBLK
5
1D
100
AcDbEntity
100
AcDbBlockEnd
0
ENDSEC
0
SECTION
2
ENTITIES
0
LWPOLYLINE
5
100
100
AcDbEntity
8
0
100
AcDbPolyline
90
345
70
1
43
0.0
10
-433.39014841715493
20
225.5202461242676
10
-433.31870574951176
20
225.44881960550947
10
-432.03283462524416
20
223.87189712524415
10
-431.09355087280278
20
222.0647884368897
10
-430.54058074951178
20
220.10688145955407
10
-430.39504699707038
20
218.07486724853518
10
-430.66227874755867
20
216.05874354044599
10
-431.33433074951176
20
214.13788210550945
10
-432.37942199707038
20
212.39162241617839
10
-433.75792312622076
20
210.89408785502118
10
-435.41156895955407
20
209.70611127217612
10
-437.26894912719735
20
208.87796414693199
10
-439.2585886637371
20
208.44139518737794
10
-441.29325129191091
20
208.4175755818685
10
-443.29086837768563
20
208.80916989644373
10
-445.16940358479826
20
209.59497464497889
10
-446.84950129191088
20
210.74327341715497
10
-446.94209899902347
20
210.43634770711267
10
-447.04529037475589
20
210.12943814595542
10
-447.15907541910815
20
209.82780927022304
10
-447.27812500000005
20
209.52618039449061
10
-447.41041666666672
20
209.22721608479821
10
-447.55065358479828
20
208.92823562622073
10
-447.70145187377932
20
208.63453585306809
10
-447.86284383138025
20
208.34085222880049
10
-448.03482945760095
20
208.0524654388428
10
-448.22005716959637
20
207.76406250000005
10
-448.75978520711271
20
207.03910675048832
10
-449.35509770711269
20
206.37235158284508
10
-450.00334625244147
20
205.76381314595545
10
-450.69655329386399
20
205.2055461883545
10
-451.42680587768558
20
204.69753456115725
10
-452.19142328898113
20
204.23188145955407
10
-452.97990875244147
20
203.81118685404462
10
-453.78951695760094
20
203.43018620808922
10
-454.60971883138029
20
203.08093427022303
10
-455.43521753946948
20
202.76607945760091
10
-455.9485260009767
20
202.62056185404464
10
-456.49884770711265
20
202.52796414693196
10
-457.0756535847982
20
202.46709899902351
10
-457.66037241617846
20
202.41419525146486
10
-458.23982671101896
20
202.3506816864014
10
-458.80339050292974
20
202.25543556213381
10
-459.33255716959644
20
202.10726954142257
10
-459.81938145955411
20
201.88502858479822
10
-460.24270833333338
20
201.56752535502122
10
-460.59194412231449
20
201.13095639546714
10
-460.92005716959642
20
200.2340150197347
10
-460.93856379191089
20
199.22067248026534
10
-460.70837758382169
20
198.12794202168786
10
-460.2876991271973
20
197.00346285502118
10
-459.74264195760099
20
195.88956120808919
10
-459.13411966959643
20
194.83122787475591
10
-458.52291666666673
20
193.87078908284508
10
-457.97259496053067
20
193.04793879191084
10
-457.5466196695964
20
192.4129323323568
10
-457.30319137573252
20
192.00283139546715
10
-456.72373708089196
20
190.22219072977705
10
-456.67877858479818
20
188.59764518737796
10
-457.08621495564785
20
187.12656250000003
10
-457.86145833333336
20
185.8009974161784
10
-458.92508850097664
20
184.62096608479817
10
-460.19245300292971
20
183.57850710550949
10
-461.58678003946943
20
182.67097206115724
10
-463.02348175048837
20
181.89046414693198
10
-464.42048950195323
20
181.2369349161784
10
-465.698415374756
20
180.70247141520187
10
-480.660615793864
20
180.70247141520184
10
-481.93854166666677
20
181.2369349161784
10
-483.33554941813162
20
181.890464146932
10
-484.7722188313802
20
182.67097206115724
10
-486.16657816569017
20
183.57850710550946
10
-487.43394266764324
20
184.62096608479817
10
-488.49757283528646
20
185.80099741617843
10
-489.2727839152019
20
187.12656250000003
10
-489.6802525838217
20
188.59764518737794
10
-489.63526178995778
20
190.22219072977703
10
-489.05583979288747
20
192.00283139546715
10
-488.81241149902348
20
192.4129323323568
10
-488.38378779093432
20
193.04793879191084
10
-487.83611450195326
20
193.87078908284508
10
-487.22491149902345
20
194.83122787475591
10
-486.61638921101894
20
195.88956120808922
10
-486.07133204142264
20
197.00346285502121
10
-485.65065358479819
20
198.12794202168786
10
-485.4204673767091
20
199.22067248026534
10
-485.43632558186857
20
200.23401501973473
10
-485.76705474853526
20
201.13095639546717
10
-486.11632283528655
20
201.56752535502119
10
-486.53964970906577
20
201.88502858479819
10
-487.02382558186861
20
202.10726954142257
10
-487.55564066569013
20
202.25543556213381
10
-488.11920445760097
20
202.3506816864014
10
-488.69865875244153
20
202.41419525146486
10
-489.28337758382162
20
202.46709899902345
10
-489.8601511637371
20
202.52796414693196
10
-490.41050516764329
20
202.62056185404464
10
-490.92378133138027
20
202.76607945760091
10
-491.74928003946945
20
203.08093427022303
10
-492.56951421101894
20
203.4301862080892
10
-493.37912241617846
20
203.81118685404462
10
-494.1675755818685
20
204.23188145955407
10
-494.93222529093435
20
204.69753456115725
10
-495.66247787475589
20
205.2055461883545
10
-496.35568491617846
20
205.76381314595545
10
-497.00390116373705
20
206.37235158284508
10
-497.59921366373703
20
207.03910675048832
10
-498.13897399902351
20
207.76406250000005
10
-498.4961550394695
20
208.34350064595543
10
-498.81102600097671
20
208.9308678944906
10
-499.08090616861983
20
209.52618039449055
10
-499.31374079386393
20
210.13208656311039
10
-499.512178293864
20
210.74857025146488
10
-499.67886708577481
20
211.36768620808922
10
-499.81642328898118
20
211.99739583333337
10
-499.93020833333338
20
212.63240229288741
10
-500.02280604044597
20
213.27004102071129
10
-500.0995455423992
20
213.91562500000003
10
-501.89607671101896
20
213.02662887573246
10
-503.83546091715505
20
212.51333656311036
10
-505.83834253946947
20
212.39691925048834
10
-507.82271753946941
20
212.68530604044599
10
-509.70919799804699
20
213.36000645955406
10
-511.42634124755875
20
214.39981702168782
10
-512.89744008382161
20
215.76241149902347
10
-514.06952616373712
20
217.38960545857751
10
-514.8924087524415
20
219.2178691864014
10
-515.33424224853525
20
221.17314389546718
10
-515.37658462524428
20
223.17869008382166
10
-515.01940358479817
20
225.15247141520183
10
-514.27590891520185
20
227.01514841715496
10
-513.17261708577485
20
228.68996543884279
10
-511.75971883138033
20
230.11340891520183
10
-510.09021479288742
20
231.22466214497888
10
-508.23283462524415
20
231.98138275146488
10
-506.26431783040374
20
232.3517897288005
10
-507.4231941223145
20
234.13507881164554
10
-508.60325775146492
20
235.90514195760096
10
-509.79123433430999
20
237.66992441813153
10
-510.96861724853522
20
239.43997141520185
10
-512.12749354044604
20
241.22855733235681
10
-513.24932428995771
20
243.04096285502118
10
-514.32089970906577
20
244.88774935404464
10
-515.32629699707036
20
246.77952664693203
10
-516.25498708089196
20
248.72685610453291
10
-517.08843104044604
20
250.73768297831222
10
-517.83192571004247
20
252.8331946055095
10
-518.4536900838217
20
254.90751889546718
10
-518.95905329386403
20
256.96333656311037
10
-519.36119283040375
20
259.00591214497888
10
-519.67076695760102
20
261.04320704142253
10
-519.89565633138022
20
263.08050193786625
10
-520.04383850097656
20
265.12572593688969
10
-520.12849095662443
20
267.17889518737798
10
-520.15494283040368
20
269.25323562622071
10
-520.13908462524432
20
271.35136337280278
10
-520.08618087768559
20
273.47862370808923
10
-520.00414454142265
20
275.64028116861982
10
-519.97504425048839
20
276.94201049804695
10
-519.98298950195317
20
278.24642054239911
10
-520.02003504435231
20
279.55079828898118
10
-520.07029037475593
20
280.85785675048834
10
-520.12584253946955
20
282.16223449707036
10
-520.16818491617846
20
283.46664454142257
10
-520.19198837280283
20
284.76840616861983
10
-520.17877858479824
20
286.07013549804697
10
-520.12057800292973
20
287.36924870808923
10
-520.00414454142265
20
288.66571350097661
10
-519.58081766764326
20
290.52839050292971
10
-518.78706766764333
20
292.26139195760095
10
-517.67844670613613
20
293.83038533528645
10
-516.30792312622077
20
295.21679941813159
10
-514.72836837768557
20
296.38888549804688
10
-512.99003779093437
20
297.32552083333337
10
-511.14854812622076
20
297.99757283528652
10
-509.25147399902352
20
298.37590891520188
10
-507.35704828898122
20
298.43940633138027
10
-505.51555862426767
20
298.16161321004239
10
-503.51532541910814
20
297.48956120808924
10
-501.78758850097665
20
296.584674580892
10
-500.31648966471369
20
295.46284383138027
10
-499.07825775146489
20
294.14522399902347
10
-498.05696996053064
20
292.65032170613614
10
-497.22882283528645
20
290.99402745564782
10
-496.57792587280284
20
289.19752858479825
10
-496.08050791422534
20
287.27929941813153
10
-495.72067845662446
20
285.25787887573244
10
-495.47728246053066
20
283.1518058776856
10
-495.32910029093438
20
280.98220316569018
10
-495.2576576232911
20
278.76499354044603
10
-495.24179941813156
20
276.52133204142257
10
-495.26295445760098
20
274.26972529093428
10
-495.30264841715501
20
272.02606379191087
10
-495.3396939595541
20
269.81415100097661
10
-495.35290374755868
20
267.64721285502117
10
-495.32380345662443
20
265.54906895955406
10
-495.23385416666667
20
263.53557751973477
10
-495.06186854044608
20
261.62529360453289
10
-494.78933995564785
20
259.8393561045329
10
-494.39246495564788
20
258.19363937377932
10
-494.18081766764328
20
257.68034706115725
10
-493.8527369181316
20
257.13795445760093
10
-493.43997141520191
20
256.58233591715498
10
-492.97165374755872
20
256.02934964497888
10
-492.47953262329105
20
255.49490229288739
10
-491.99270833333344
20
254.99748433430992
10
-491.53763275146497
20
254.54768943786627
10
-491.14870300292972
20
254.16668879191087
10
-490.85233866373704
20
253.86770833333338
10
-490.68038533528647
20
253.66662241617843
10
-489.60880991617842
20
252.09499677022302
10
-488.51343104044611
20
250.48369331359865
10
-487.40484237670904
20
248.84062500000005
10
-486.28827616373707
20
247.17375322977705
10
-485.17174224853522
20
245.49100710550948
10
-484.06580200195316
20
243.80031572977708
10
-482.97836837768563
20
242.1122727711996
10
-481.91473821004246
20
240.43215891520185
10
-480.88285675048832
20
238.76793556213386
10
-479.89331766764332
20
237.13016408284511
10
-479.10486450195322
20
235.67760416666673
10
-478.45926437377943
20
234.25944137573242
10
-477.91688791910809
20
232.87565956115728
10
-477.42738291422535
20
231.52893943786626
10
-476.95115229288746
20
230.21395187377931
10
-476.44049224853524
20
228.93867441813154
10
-475.85312500000009
20
227.69777793884282
10
-475.1414113362631
20
226.49127858479824
10
-474.26562500000011
20
225.32180862426765
10
-473.18083979288747
20
224.18940035502118
10
-473.17819137573252
20
224.18940035502118
10
-472.09340616861988
20
225.32180862426759
10
-471.21497141520189
20
226.49127858479818
10
-470.50590616861984
20
227.69777793884282
10
-469.91850662231457
20
228.93867441813154
10
-469.40787887573242
20
230.21395187377934
10
-468.9316159566244
20
231.52893943786626
10
-468.44214324951179
20
232.87565956115725
10
-467.89711837768562
20
234.25944137573248
10
-467.25416666666672
20
235.67760416666673
10
-466.46571350097668
20
237.13016408284506
10
-465.47617441813156
20
238.76793556213383
10
-464.44429295857753
20
240.43215891520185
10
-463.38066279093431
20
242.1122727711996
10
-462.29322916666672
20
243.80031572977703
10
-461.18464050292977
20
245.49100710550948
10
-460.07072270711268
20
247.17375322977705
10
-458.95418879191084
20
248.84062500000002
10
-457.84556783040375
20
250.48369331359865
10
-456.75022125244146
20
252.09499677022305
10
-455.67864583333341
20
253.66662241617843
10
-455.5066602071127
20
253.86770833333338
10
-455.21032816569016
20
254.16668879191087
10
-454.82139841715502
20
254.54768943786627
10
-454.3663228352865
20
254.99748433430995
10
-453.87946624755864
20
255.49490229288745
10
-453.38734512329103
20
256.02934964497888
10
-452.91902745564789
20
256.58233591715498
10
-452.50629425048834
20
257.13795445760093
10
-452.17821350097665
20
257.68034706115725
10
-451.96653391520192
20
258.19363937377938
10
-451.5696589152019
20
259.8393561045329
10
-451.29713033040366
20
261.62529360453289
10
-451.1251770019532
20
263.53557751973472
10
-451.03519541422537
20
265.54906895955406
10
-451.00609512329117
20
267.64721285502117
10
-451.01933720906578
20
269.81415100097661
10
-451.05638275146487
20
272.02606379191087
10
-451.0960767110189
20
274.26972529093428
10
-451.11723175048837
20
276.52133204142257
10
-451.10134124755865
20
278.76499354044603
10
-451.02993087768562
20
280.98220316569018
10
-450.88174870808928
20
283.1518058776856
10
-450.63832041422535
20
285.2578788757325
10
-450.27849095662441
20
287.27929941813159
10
-449.78107299804691
20
289.19752858479819
10
-449.13020833333337
20
290.99402745564782
10
-448.30206120808924
20
292.65032170613614
10
-447.28077341715499
20
294.14522399902347
10
-446.04250920613617
20
295.46284383138027
10
-444.57144266764328
20
296.584674580892
10
-442.84370574951186
20
297.48956120808924
10
-440.84347254435221
20
298.16161321004239
10
-439.00195058186858
20
298.43940633138027
10
-437.10755716959636
20
298.37590891520188
10
-435.21048304239912
20
297.99757283528652
10
-433.36899337768557
20
297.32552083333337
10
-431.63066279093437
20
296.38888549804693
10
-430.05110804239911
20
295.21679941813153
10
-428.68055216471356
20
293.83038533528645
10
-427.57196350097666
20
292.26139195760095
10
-426.77821350097668
20
290.52839050292971
10
-426.35488662719729
20
288.66571350097661
10
-426.2384531656902
20
287.36924870808923
10
-426.1802525838217
20
286.07013549804691
10
-426.16701049804698
20
284.76840616861983
10
-426.18819783528659
20
283.46664454142257
10
-426.23315633138026
20
282.16223449707036
10
-426.28874079386401
20
280.85785675048828
10
-426.33899612426768
20
279.55079828898118
10
-426.37604166666677
20
278.24642054239911
10
-426.38398691813154
20
276.9420104980469
10
-426.3548866271974
20
275.64028116861982
10
-426.27285029093429
20
273.47862370808923
10
-426.21994654337573
20
271.35136337280278
10
-426.20405604044601
20
269.25323562622071
10
-426.23050791422531
20
267.17889518737798
10
-426.31519266764337
20
265.12572593688969
10
-426.46334253946947
20
263.08050193786625
10
-426.68826421101897
20
261.04320704142259
10
-426.99780604044605
20
259.00591214497888
10
-427.39997787475596
20
256.96333656311037
10
-427.90534108479824
20
254.90751889546718
10
-428.52710545857752
20
252.83319460550945
10
-429.27056783040371
20
250.73768297831222
10
-430.09080200195319
20
248.75595639546717
10
-431.00360158284514
20
246.83507881164556
10
-431.99314066569013
20
244.96976954142258
10
-433.04617716471364
20
243.14678649902348
10
-434.14950129191089
20
241.35820058186852
10
-435.28722254435223
20
239.59608268737796
10
-436.4460988362631
20
237.849839146932
10
-437.61818491617845
20
236.11152470906578
10
-438.78235804239915
20
234.36791343688967
10
-439.92799224853519
20
232.61372464497884
10
-441.04191004435228
20
230.83838081359869
10
-442.11080474853526
20
229.03392054239913
10
-441.22445704142262
20
229.08419202168784
10
-440.33810933430999
20
229.05507558186852
10
-439.459674580892
20
228.94925193786622
10
-438.59186579386397
20
228.76668879191084
10
-437.74253133138023
20
228.50740229288738
10
-436.92232945760099
20
228.17137629191083
10
-436.13387629191089
20
227.76655604044601
10
-435.38511708577482
20
227.29295768737796
10
-434.67866795857753
20
226.75586191813153
10
-434.02515487670905
20
226.15525258382164
10
-433.95371220906583
20
226.08645833333338
10
-433.88491795857755
20
226.01501566569013
10
-433.81347529093432
20
225.94358914693203
10
-433.74203262329104
20
225.87214647928877
10
-433.67058995564781
20
225.80335222880052
10
-433.60182800292978
20
225.73190956115727
10
-433.5303853352865
20
225.66048304239914
10
-433.45894266764333
20
225.59168879191083
0
LWPOLYLINE
5
101
100
AcDbEntity
8
0
100
AcDbPolyline
90
296
70
1
43
0.0
10
-377.81705474853516
20
75.612624677022325
10
-377.88584899902344
20
75.684059270222988
10
-379.16115875244145
20
77.393273417154958
10
-380.04485804239914
20
79.332665697733574
10
-380.49993362426761
20
81.414935239156108
10
-380.49993362426761
20
83.547476259867352
10
-380.05015487670903
20
85.629753875732433
10
-379.16907170613615
20
87.571794573465979
10
-377.89644266764327
20
89.281000645955416
10
-376.29040374755868
20
90.683289082845064
10
-374.42246220906583
20
91.712522125244149
10
-372.37988662719738
20
92.321060562133809
10
-370.25527470906582
20
92.485100936889665
10
-368.14125645955409
20
92.194065729777023
10
-366.14099095662436
20
91.461164728800469
10
-366.13569412231448
20
93.474648094177269
10
-366.14363937377931
20
95.485483042399096
10
-366.16217829386403
20
97.493669573465979
10
-366.19392700195317
20
99.499207687377961
10
-366.23358866373707
20
101.50475387573243
10
-366.28387629191087
20
103.50764357248943
10
-366.34207687377938
20
105.51054134368897
10
-366.40557428995777
20
107.5107906977336
10
-366.47436854044605
20
109.51104005177818
10
-366.54845962524416
20
111.50864906311037
10
-366.62784754435228
20
113.50625000000002
10
-366.7072031656902
20
115.50385093688966
10
-366.7892395019532
20
117.50145994822185
10
-366.87124354044607
20
119.49642054239909
10
-366.95063145955407
20
121.49402147928876
10
-367.02998708089194
20
123.4916224161784
10
-367.10407816569017
20
125.48923142751059
10
-367.17552083333339
20
127.48683236440024
10
-367.24166666666667
20
129.48444137573244
10
-367.30251566569007
20
131.4820423126221
10
-367.35545171101899
20
133.4822916666667
10
-367.39776178995771
20
135.4825410207113
10
-367.43215891520185
20
137.48543879191084
10
-367.45599466959641
20
139.48833656311035
10
-367.46920445760099
20
141.49388275146487
10
-367.46920445760099
20
143.50206120808923
10
-367.45334625244146
20
145.51025581359866
10
-367.45599466959641
20
147.43111724853517
10
-367.49830474853519
20
149.40756314595544
10
-367.56445058186847
20
151.42898368835452
10
-367.64383850097664
20
153.48478520711265
10
-367.71792958577475
20
155.56970316569013
10
-367.77613016764326
20
157.6704954783122
10
-367.80258204142257
20
159.77923304239911
10
-367.78407541910809
20
161.88530604044601
10
-367.70468749999998
20
163.98346608479818
10
-367.551240793864
20
166.06043879191083
10
-367.31310933430996
20
168.10566279093428
10
-366.97178649902349
20
170.11385739644368
10
-366.51406250000002
20
172.07441279093428
10
-365.92669525146493
20
173.97411918640137
10
-365.19644266764328
20
175.81032816569009
10
-364.3074465433757
20
177.56716537475592
10
-363.24646479288742
20
179.23933397928877
10
-361.97910029093435
20
180.6522160847982
10
-360.40219395955404
20
181.82695058186852
10
-358.58185933430997
20
182.78475710550947
10
-356.58159383138025
20
183.55203908284508
10
-354.47022399902352
20
184.15000000000003
10
-352.31386337280287
20
184.61037241617842
10
-350.17604166666672
20
184.94904683430991
10
-348.12287241617844
20
185.19510739644372
10
-346.22318216959638
20
185.37237370808921
10
-344.54040374755863
20
185.50201695760092
10
-344.00597254435229
20
185.51261062622075
10
-342.56662241617846
20
185.53376566569011
10
-340.42085545857753
20
185.56551437377934
10
-337.76972529093428
20
185.60520833333339
10
-334.8143178304037
20
185.64753456115724
10
-331.75310287475588
20
185.69252535502116
10
-328.78448562622077
20
185.7348515828451
10
-326.1095520019532
20
185.77454554239915
10
-323.92938791910814
20
185.80629425048829
10
-322.44243087768558
20
185.82746543884281
10
-321.8471183776856
20
185.83804295857749
10
-321.55605087280276
20
185.83804295857749
10
-320.96338678995772
20
185.82746543884281
10
-319.47642974853517
20
185.80629425048829
10
-317.29361724853516
20
185.7745455423991
10
-314.62133204142253
20
185.73485158284507
10
-311.65271479288742
20
185.69252535502119
10
-308.59146753946948
20
185.64753456115727
10
-305.63344395955409
20
185.60520833333334
10
-302.98231379191083
20
185.56551437377931
10
-300.8391952514649
20
185.53376566569014
10
-299.39984512329102
20
185.51261062622075
10
-298.86276550292973
20
185.50201695760092
10
-297.17998708089198
20
185.37237370808924
10
-295.28029683430992
20
185.19510739644372
10
-293.22977600097659
20
184.94904683430991
10
-291.09192199707036
20
184.61037241617842
10
-288.93294525146484
20
184.15000000000003
10
-286.82157541910811
20
183.55203908284508
10
-284.82395833333339
20
182.78475710550947
10
-283.00362370808921
20
181.82695058186852
10
-281.42406895955406
20
180.6522160847982
10
-280.15670445760094
20
179.23933397928877
10
-279.0983711242676
20
177.56716537475592
10
-278.20937500000002
20
175.81032816569012
10
-277.47912241617837
20
173.97411918640142
10
-276.89175516764328
20
172.07441279093428
10
-276.43403116861981
20
170.11385739644371
10
-276.09270833333335
20
168.10566279093428
10
-275.85192845662436
20
166.0604387919108
10
-275.70113016764327
20
163.98346608479818
10
-275.62174224853521
20
161.88530604044598
10
-275.60323562622079
20
159.77923304239911
10
-275.62968750000005
20
157.6704954783122
10
-275.68523966471355
20
155.56970316569016
10
-275.76197916666666
20
153.48478520711265
10
-275.83871866861983
20
151.42898368835449
10
-275.90751291910811
20
149.40756314595544
10
-275.94717458089201
20
147.43111724853517
10
-275.95247141520184
20
145.51025581359866
10
-275.93661321004237
20
143.44386062622073
10
-275.93661321004237
20
141.37746543884279
10
-275.94982299804695
20
139.31370251973473
10
-275.97365875244145
20
137.25260416666669
10
-276.01067199707035
20
135.19149773915609
10
-276.05831120808921
20
133.13303972880047
10
-276.11386337280277
20
131.07458171844485
10
-276.17736078898116
20
129.01612370808922
10
-276.24615503946944
20
126.96031411488853
10
-276.32024612426761
20
124.90449644724529
10
-276.39963404337567
20
122.84868685404462
10
-276.48163808186848
20
120.79287726084394
10
-276.56632283528654
20
118.73970801035566
10
-276.64832687377935
20
116.68389841715496
10
-276.7330116271973
20
114.62808074951172
10
-276.81501566569017
20
112.57227115631105
10
-276.89175516764328
20
110.51646156311037
10
-276.96584625244145
20
108.45800355275473
10
-277.03464050292973
20
106.3995455423991
10
-277.09813791910813
20
104.33843911488852
10
-277.15104166666669
20
102.27733268737794
10
-277.19868087768555
20
100.21622625986737
10
-277.23307800292974
20
98.149831072489434
10
-277.25688145955405
20
96.083435885111498
10
-277.27009124755864
20
94.014392280578619
10
-277.2674428304037
20
91.945356750488287
10
-277.24893620808922
20
89.871024386088067
10
-275.33335545857756
20
90.601268895467143
10
-273.30663808186853
20
90.921420542399119
10
-271.25611724853519
20
90.823517926534009
10
-269.26910998026534
20
90.310225613911967
10
-267.4302525838217
20
89.40006637573245
10
-265.81628456115726
20
88.135350290934269
10
-264.49336789449058
20
86.566373062133806
10
-263.5170547485352
20
84.761912790934261
10
-262.932335917155
20
82.796060562133803
10
-262.7603502909343
20
80.750836563110369
10
-263.00905927022302
20
78.713541666666686
10
-263.66786918640139
20
76.771500968933125
10
-264.70767974853521
20
75.004086240132665
10
-266.08881314595544
20
73.485372416178407
10
-267.75038808186855
20
72.281521479288742
10
-269.62099418640139
20
71.440148417154958
10
-271.6265403747559
20
71.000939114888524
10
-273.67706120808924
20
70.979767926534009
10
-275.69053649902349
20
71.376642926534032
10
-275.55824483235676
20
70.122520510355628
10
-275.49739583333337
20
69.495459302266454
10
-275.44184366861987
20
68.868398094177252
10
-275.38890762329106
20
68.241336886088078
10
-275.34130071004239
20
67.611623223622644
10
-275.29630991617842
20
66.984562015533442
10
-275.25926437377933
20
66.354852390289309
10
-275.22751566569013
20
65.727791182200122
10
-275.20371220906577
20
65.098081556955975
10
-275.14551162719732
20
63.044916343688975
10
-275.11902745564782
20
60.983813953399668
10
-275.11641133626307
20
58.92006314595541
10
-275.14021479288738
20
56.851019541422545
10
-275.17990875244146
20
54.779331556955988
10
-275.23810933430991
20
52.704999192555739
10
-275.30955200195319
20
50.630666828155526
10
-275.38890762329106
20
48.553686046600362
10
-275.47624079386401
20
46.479353682200113
10
-275.56619008382165
20
44.4050213177999
10
-275.6587877909343
20
42.333333333333343
10
-275.74347254435224
20
40.261645348866786
10
-275.82547658284506
20
38.197894541422528
10
-275.89427083333339
20
36.136792151133221
10
-275.95247141520184
20
34.083626937866214
10
-275.97101033528651
20
32.051624838511152
10
-275.95247141520184
20
30.11487491925557
10
-275.93396479288742
20
28.252208010355631
10
-275.9498229980469
20
26.450396156311022
10
-276.03715616861984
20
24.690916585922231
10
-276.2355936686198
20
22.96054134368898
10
-276.58218104044602
20
21.243396075566601
10
-277.11134770711271
20
19.523604408899935
10
-277.86013921101892
20
17.785291989644385
10
-278.86818491617839
20
16.009937055905645
10
-280.1461107889811
20
14.41714627742769
10
-281.69659754435224
20
13.139208292961122
10
-283.4772382100424
20
12.141729005177808
10
-285.43516133626309
20
11.390312298138952
10
-287.52269541422527
20
10.850562055905648
10
-289.69759496053064
20
10.490729570388808
10
-291.90685933430996
20
10.273771317799891
10
-294.1028816223145
20
10.167937580744422
10
-296.24338404337567
20
10.138833252588917
10
-298.27536595662434
20
10.15470861593883
10
-300.15128504435228
20
10.178521156311042
10
-301.82608591715501
20
10.178521156311042
10
-303.81310933430996
20
10.1652911822001
10
-305.8001327514649
20
10.186458333333341
10
-307.78715616861984
20
10.236728803316737
10
-309.77417958577479
20
10.305521035194403
10
-311.76120300292973
20
10.390187621116631
10
-313.74557800292973
20
10.482791384061194
10
-315.73256912231449
20
10.580687944094329
10
-317.71959253946943
20
10.675937096277863
10
-319.70661595662443
20
10.76589546998342
10
-321.69363937377932
20
10.839979489644378
10
-321.71217829386393
20
10.839979489644378
10
-323.69920171101899
20
10.76589546998342
10
-325.68619283040368
20
10.675937096277863
10
-327.67056783040368
20
10.580687944094329
10
-329.65759124755863
20
10.482791384061194
10
-331.64461466471357
20
10.390187621116631
10
-333.63163808186857
20
10.305521035194403
10
-335.61866149902352
20
10.236728803316737
10
-337.60568491617846
20
10.186458333333341
10
-339.59270833333341
20
10.1652911822001
10
-341.57973175048829
20
10.178521156311042
10
-343.25453262329108
20
10.178521156311042
10
-345.13045171101896
20
10.15470861593883
10
-347.16243362426769
20
10.138833252588917
10
-349.30025533040373
20
10.167937580744422
10
-351.49895833333341
20
10.273771317799891
10
-353.70822270711267
20
10.490729570388808
10
-355.88047383626304
20
10.850562055905648
10
-357.97065633138033
20
11.390312298138952
10
-359.9285794576009
20
12.141729005177808
10
-361.70657170613606
20
13.139208292961122
10
-363.25967458089195
20
14.41714627742769
10
-364.53763275146486
20
16.009937055905645
10
-365.5430300394695
20
17.785291989644385
10
-366.29446996053071
20
19.523604408899935
10
-366.82363662719729
20
21.243396075566601
10
-367.16757558186856
20
22.96054134368898
10
-367.36601308186857
20
24.690916585922231
10
-367.45599466959641
20
26.450396156311022
10
-367.47185287475588
20
28.252208010355631
10
-367.45069783528652
20
30.11487491925557
10
-367.43215891520185
20
32.051624838511152
10
-367.45334625244146
20
34.083626937866214
10
-367.50889841715502
20
36.136792151133221
10
-367.58034108479819
20
38.197894541422528
10
-367.65969670613617
20
40.261645348866786
10
-367.74702987670906
20
42.333333333333343
10
-367.83697916666677
20
44.4050213177999
10
-367.92692845662441
20
46.479353682200113
10
-368.0142616271973
20
48.553686046600362
10
-368.09626566569017
20
50.630666828155526
10
-368.16770833333339
20
52.704999192555739
10
-368.22326049804695
20
54.779331556955988
10
-368.26560287475593
20
56.851019541422545
10
-368.28675791422535
20
58.92006314595541
10
-368.28675791422535
20
60.983813953399668
10
-368.25765762329115
20
63.044916343688975
10
-368.20210545857748
20
65.098081556955975
10
-368.17300516764334
20
65.791292635599774
10
-368.13860804239914
20
66.481855297088629
10
-368.09361724853522
20
67.17506233851114
10
-368.04601033528655
20
67.865625000000009
10
-367.99042587280275
20
68.556183624267604
10
-367.92957687377935
20
69.249398740132648
10
-367.86343104044602
20
69.939957364400243
10
-367.79463678995774
20
70.627875645955413
10
-367.72057800292976
20
71.318434270223008
10
-367.64383850097664
20
72.009000968933123
10
-368.67571996053067
20
71.829086240132654
10
-369.72081120808929
20
71.757643572489442
10
-370.76590245564785
20
71.797329457600924
10
-371.80308074951176
20
71.942855135599785
10
-372.81907170613613
20
72.199501291910821
10
-373.80069783528654
20
72.55933074951173
10
-374.74259770711262
20
73.019711240132665
10
-375.62894541422531
20
73.577978197733557
10
-376.4518280029298
20
74.223562177022302
10
-377.20323562622076
20
74.951166343688982
10
-377.34082412719727
20
75.099332364400226
10
-377.40961837768566
20
75.170766957600932
10
-377.47576421101894
20
75.244858042399088
10
-377.54452616373703
20
75.318941052754724
10
-377.61332041422526
20
75.393024063110374
10
-377.68211466471365
20
75.464458656311024
10
-377.74826049804693
20
75.538541666666674
0
LWPOLYLINE
5
102
100
AcDbEntity
8
0
100
AcDbPolyline
90
298
70
1
43
0.0
10
-395.40390116373709
20
162.53353843688967
10
-395.41184641520192
20
162.44094072977703
10
-393.96458333333339
20
161.27941602071127
10
-392.74750645955413
20
159.95120251973472
10
-391.73942845662441
20
158.46424547831222
10
-390.91922658284511
20
156.83441925048831
10
-390.27101033528652
20
155.06700452168783
10
-389.77359237670902
20
153.17787564595542
10
-389.40581766764325
20
151.17762629191083
10
-389.15444412231454
20
149.07948239644369
10
-388.99305216471362
20
146.89137306213382
10
-388.90839970906586
20
144.62918879191082
10
-388.87665100097661
20
142.30085868835451
10
-388.87929941813155
20
139.91960868835451
10
-388.89780604044603
20
137.49866472880046
10
-388.90575129191086
20
136.53557751973472
10
-388.91369654337564
20
135.57250645955403
10
-388.92160949707039
20
134.60941925048832
10
-388.93220316569011
20
133.64633204142254
10
-388.94014841715494
20
132.68325290679934
10
-388.94809366861983
20
131.72016569773359
10
-388.95600662231453
20
130.75708656311039
10
-388.96395187377937
20
129.79399935404462
10
-388.97189712524414
20
128.83092021942142
10
-388.97984237670903
20
127.86783301035564
10
-388.9957005818685
20
125.94166666666668
10
-389.01423950195317
20
124.01550032297772
10
-389.03009770711265
20
122.08933397928875
10
-389.04598821004242
20
120.16316763559979
10
-389.06449483235684
20
118.23700129191083
10
-389.08038533528656
20
116.31083494822187
10
-389.09624354044604
20
114.38466860453289
10
-389.1121340433757
20
112.45850226084393
10
-389.13064066569018
20
110.53233591715497
10
-389.14653116861984
20
108.606169573466
10
-389.15182800292973
20
106.58474903106692
10
-389.14123433430996
20
104.55010255177818
10
-389.11478246053065
20
102.50487855275475
10
-389.07508850097662
20
100.44906088511149
10
-389.0300977071127
20
98.38531411488853
10
-388.97719395955414
20
96.316270510355636
10
-388.92425791422534
20
94.241938145955416
10
-388.87665100097661
20
92.162308947245307
10
-388.83166020711269
20
90.082687822977704
10
-388.79726308186861
20
88.003058624267595
10
-388.77345962524419
20
85.923437500000006
10
-388.7681627909343
20
83.849105135599785
10
-388.78405329386402
20
81.777413113911948
10
-388.82109883626305
20
79.713666343688985
10
-388.88459625244144
20
77.657856750488293
10
-388.97984237670903
20
75.612624677022325
10
-389.10948562622076
20
73.577978197733557
10
-389.27352600097663
20
71.553917312622076
10
-389.48255716959642
20
69.548371124267589
10
-389.60690358479826
20
68.744043604532891
10
-389.78680216471361
20
67.94764518737793
10
-390.00642700195323
20
67.159187984466541
10
-390.25247141520191
20
66.373375161488866
10
-390.51175791422531
20
65.592855135599777
10
-390.76577987670902
20
64.809686692555772
10
-391.00391133626306
20
64.026522286733012
10
-391.20761337280277
20
63.235416666666673
10
-391.363740793864
20
62.439022286732992
10
-391.46163533528647
20
61.629393895467111
10
-391.57009124755865
20
59.750854651133203
10
-391.6256757100424
20
57.872311369578036
10
-391.64153391520188
20
55.991123708089212
10
-391.6256757100424
20
54.109936046600353
10
-391.58863016764326
20
52.226104005177838
10
-391.5409909566244
20
50.342271963755287
10
-391.49603246053061
20
48.458435885111477
10
-391.45898691813159
20
46.574603843688962
10
-391.44309641520186
20
44.690771802266447
10
-391.46163533528647
20
42.809584140777588
10
-391.46693216959642
20
42.666706879933685
10
-391.48279037475589
20
42.526478036244733
10
-391.50394541422531
20
42.383604812622089
10
-391.5330780029297
20
42.243375968933101
10
-391.57009124755859
20
42.105791505177841
10
-391.61243362426768
20
41.968207041422545
10
-391.66007283528654
20
41.8332709948222
10
-391.71562500000005
20
41.700979328155512
10
-391.77647399902349
20
41.571332041422515
10
-391.84526824951178
20
41.446977551778161
10
-392.37178649902347
20
40.616186046600333
10
-392.98563791910806
20
39.809210109710698
10
-393.64709625244143
20
39.020748869578057
10
-394.32706120808922
20
38.237584463755283
10
-394.99116795857753
20
37.451771640777594
10
-395.60233866373699
20
36.655373223622654
10
-396.13150533040374
20
35.835167312622076
10
-396.54427083333337
20
34.983208656311042
10
-396.80620574951178
20
34.091564114888513
10
-396.88029683431
20
33.149646075566608
10
-396.62630716959643
20
29.080355135599767
10
-396.16590245564788
20
26.513895591100045
10
-395.54943491617848
20
25.156583817799891
10
-394.82712758382161
20
24.714730135599758
10
-394.04132283528656
20
24.897291262944528
10
-393.24492441813157
20
25.410583575566612
10
-392.48292312622078
20
25.963561773300192
10
-391.80822270711269
20
26.262542231877646
10
-391.26319783528652
20
26.013833252588903
10
-390.89807154337569
20
24.929041989644354
10
-390.77634124755866
20
24.198791424433388
10
-390.65464324951176
20
23.468540859222422
10
-390.53559366861987
20
22.738292312622086
10
-390.42180862426761
20
22.008041747411085
10
-390.3133204142253
20
21.275146802266427
10
-390.22072270711271
20
20.54224983851114
10
-390.14136708577485
20
19.806708494822196
10
-390.08313420613615
20
19.071167151133217
10
-390.04608866373701
20
18.335625807444238
10
-390.03552729288742
20
17.597438065210973
10
-390.2577682495118
20
15.909396115938819
10
-390.85043233235689
20
14.634104530016572
10
-391.7447252909343
20
13.734520792961114
10
-392.86920445760097
20
13.178896196683247
10
-394.15507558186852
20
12.924895429611212
10
-395.52827987670901
20
12.943416182200131
10
-396.92263921101892
20
13.197416949272167
10
-398.26406250000002
20
13.647208817799878
10
-399.48113937377934
20
14.258395671844468
10
-400.50772399902348
20
14.99922880331674
10
-401.13213678995777
20
15.658041747411104
10
-401.62690633138027
20
16.393583091100048
10
-402.02642974853524
20
17.187333091100072
10
-402.35980733235687
20
18.020770994822186
10
-402.66408462524424
20
18.878020429611198
10
-402.97101033528645
20
19.740562661488852
10
-403.31230087280284
20
20.587228520711278
10
-403.72506637573252
20
21.404792070388794
10
-404.23834253946944
20
22.169437742233278
10
-404.88923950195323
20
22.865291182200131
10
-405.54010416666677
20
22.169437742233278
10
-406.05338033040368
20
21.404792070388794
10
-406.46614583333337
20
20.587228520711278
10
-406.80746866861989
20
19.740562661488852
10
-407.11436208089202
20
18.878020429611198
10
-407.41599095662434
20
18.020770994822186
10
-407.75201695760103
20
17.187333091100072
10
-408.14889195760094
20
16.393583091100048
10
-408.64366149902344
20
15.658041747411104
10
-409.27072270711272
20
14.99922880331674
10
-410.29465891520192
20
14.258395671844504
10
-411.51438420613613
20
13.647208817799878
10
-412.85583979288742
20
13.197416949272167
10
-414.24755071004245
20
12.943416182200131
10
-415.62337112426758
20
12.924895429611212
10
-416.90659383138029
20
13.178896196683247
10
-418.03372141520185
20
13.734520792961114
10
-418.92801437377932
20
14.634104530016572
10
-419.52067845662441
20
15.909396115938819
10
-419.74030329386403
20
17.597438065210973
10
-419.7297096252442
20
18.335625807444238
10
-419.69531250000011
20
19.071167151133217
10
-419.63446350097661
20
19.806708494822196
10
-419.55772399902349
20
20.54224983851114
10
-419.4624778747559
20
21.275146802266427
10
-419.35663808186854
20
22.008041747411085
10
-419.24023691813153
20
22.738292312622086
10
-419.12115503946944
20
23.468540859222422
10
-418.99945704142254
20
24.198791424433388
10
-418.88040746053071
20
24.929041989644354
10
-418.51528116861982
20
26.013833252588903
10
-417.97022399902352
20
26.262542231877646
10
-417.29290746053067
20
25.963561773300192
10
-416.53355458577482
20
25.410583575566612
10
-415.73450775146489
20
24.897291262944528
10
-414.95131912231449
20
24.714730135599758
10
-414.22636337280278
20
25.156583817799891
10
-413.60989583333344
20
26.513895591100045
10
-413.15217183430997
20
29.080355135599767
10
-412.89553375244145
20
33.149646075566608
10
-412.97224095662443
20
34.091564114888513
10
-413.23417587280284
20
34.983208656311042
10
-413.64429295857752
20
35.835167312622076
10
-414.17345962524422
20
36.655373223622654
10
-414.78727874755867
20
37.451771640777594
10
-415.44873708089199
20
38.237584463755283
10
-416.12873433430997
20
39.020748869578057
10
-416.79284108479828
20
39.809210109710698
10
-417.40401178995774
20
40.616186046600333
10
-417.93317845662443
20
41.446977551778161
10
-417.99932428995771
20
41.571332041422515
10
-418.06017328898116
20
41.700979328155512
10
-418.11575775146486
20
41.8332709948222
10
-418.16601308186853
20
41.968207041422545
10
-418.20835545857756
20
42.105791505177841
10
-418.24540100097664
20
42.243375968933101
10
-418.27450129191084
20
42.383604812622089
10
-418.29565633138026
20
42.526478036244733
10
-418.31154683430998
20
42.666706879933685
10
-418.31684366861987
20
42.809584140777588
10
-418.33270187377934
20
44.690771802266447
10
-418.31949208577475
20
46.574603843688962
10
-418.28244654337567
20
48.458435885111477
10
-418.23480733235681
20
50.342271963755287
10
-418.18720041910814
20
52.226104005177838
10
-418.15015487670905
20
54.109936046600353
10
-418.13426437377933
20
55.991123708089212
10
-418.15015487670905
20
57.872311369578036
10
-418.20835545857756
20
59.750854651133238
10
-418.31684366861987
20
61.629393895467111
10
-418.41208979288746
20
62.439022286732992
10
-418.57083333333344
20
63.235416666666673
10
-418.77456766764334
20
64.026522286733012
10
-419.01269912719732
20
64.809686692555744
10
-419.26668879191089
20
65.592855135599777
10
-419.5233268737793
20
66.373375161488866
10
-419.76940358479823
20
67.159187984466541
10
-419.9916445414226
20
67.947645187377944
10
-420.17157541910814
20
68.744043604532891
10
-420.29592183430992
20
69.548371124267589
10
-420.50230458577471
20
71.553917312622076
10
-420.66899337768564
20
73.577978197733557
10
-420.79863662719731
20
75.612624677022325
10
-420.8912343343099
20
77.657856750488293
10
-420.95738016764329
20
79.713666343688985
10
-420.99442571004238
20
81.777413113911962
10
-421.00763549804697
20
83.8491051355998
10
-421.00233866373708
20
85.923437500000006
10
-420.98118362426766
20
88.003058624267595
10
-420.94678649902357
20
90.082687822977704
10
-420.90182800292973
20
92.162308947245293
10
-420.85154037475593
20
94.241938145955402
10
-420.79863662719731
20
96.31627051035565
10
-420.74834899902351
20
98.38531411488853
10
-420.70074208577478
20
100.44906088511149
10
-420.66369654337569
20
102.50487855275475
10
-420.63724466959638
20
104.55010255177817
10
-420.62400258382172
20
106.58474903106692
10
-420.6319478352865
20
108.606169573466
10
-420.64780604044597
20
110.53233591715497
10
-420.66369654337569
20
112.45850226084393
10
-420.67955474853522
20
114.38466860453289
10
-420.69809366861983
20
116.31083494822185
10
-420.71395187377931
20
118.23700129191081
10
-420.72984237670909
20
120.16316763559979
10
-420.74834899902351
20
122.08933397928875
10
-420.76423950195317
20
124.01550032297772
10
-420.7800977071127
20
125.94166666666668
10
-420.79598821004242
20
127.86783301035564
10
-420.80390116373707
20
128.83092021942139
10
-420.8144948323569
20
129.79399935404462
10
-420.82244008382162
20
130.75708656311039
10
-420.83038533528651
20
131.72016569773356
10
-420.83829828898115
20
132.68325290679934
10
-420.84624354044598
20
133.64633204142254
10
-420.8621340433757
20
135.57250645955406
10
-420.8700469970704
20
136.53557751973472
10
-420.87799224853518
20
137.49866472880046
10
-420.89917958577479
20
140.00427729288737
10
-420.90182800292973
20
142.46225064595544
10
-420.86478246053059
20
144.86732025146486
10
-420.76688791910817
20
147.19829877217612
10
-420.58695704142258
20
149.44725710550946
10
-420.30386708577481
20
151.60095316569013
10
-419.89639841715501
20
153.64619331359864
10
-419.34342829386401
20
155.56705474853518
10
-418.623737080892
20
157.35564066569012
10
-417.71358591715506
20
158.99606056213383
10
-416.59175516764333
20
160.47508850097657
10
-415.24238662719733
20
161.78213081359866
10
-415.2661900838217
20
161.94087435404464
10
-415.28734512329106
20
162.09698562622071
10
-415.30588404337573
20
162.2557291666667
10
-415.3217422485352
20
162.41447270711265
10
-415.33498433430992
20
162.5732323964437
10
-415.34819412231457
20
162.73197593688965
10
-415.3561393737794
20
162.89073562622076
10
-415.36408462524423
20
163.05212758382166
10
-415.36673304239912
20
163.21087112426761
10
-415.36673304239912
20
164.36974741617843
10
-415.1497566223145
20
166.44936854044599
10
-414.50418879191085
20
168.43639195760093
10
-413.45909754435229
20
170.24614906311035
10
-412.05944137573249
20
171.80190035502119
10
-410.36875000000003
20
173.02955474853519
10
-408.45846608479826
20
173.87887306213383
10
-406.41324208577481
20
174.31544202168789
10
-404.32302729288745
20
174.31544202168783
10
-402.277803293864
20
173.87887306213378
10
-400.36748708089198
20
173.02955474853519
10
-398.67682800292977
20
171.80190035502119
10
-397.27717183430997
20
170.24614906311035
10
-396.23204828898116
20
168.43639195760093
10
-395.58648045857751
20
166.44936854044599
10
-395.36688791910814
20
164.36974741617843
10
-395.36688791910814
20
163.36963081359866
10
-395.36953633626308
20
163.27701695760095
10
-395.36953633626308
20
163.1844192504883
10
-395.37215245564789
20
163.08917312622071
10
-395.37480087280278
20
162.996559270223
10
-395.37744928995772
20
162.90396156311036
10
-395.38274612426761
20
162.81134770711265
10
-395.38804295857756
20
162.71875
10
-395.39598821004233
20
162.62615229288738
0
LWPOLYLINE
5
103
100
AcDbEntity
8
0
100
AcDbPolyline
90
465
70
1
43
0.0
10
-17.999603843688945
20
228.25339647928874
10
-17.917583656311038
20
228.19517974853517
10
-16.327437257766704
20
226.75321350097659
10
-15.081249999999997
20
225.0069538116455
10
-14.237229530016577
20
223.03317248026534
10
-13.832416343688934
20
220.92708333333337
10
-13.887979610761008
20
218.78131637573247
10
-14.398624515533456
20
216.69639841715497
10
-15.343187944094367
20
214.77022399902347
10
-16.676687177022274
20
213.0874778747559
10
-18.33827018737793
20
211.73016408284508
10
-20.251208575566579
20
210.75649935404459
10
-22.325540939966828
20
210.21675516764327
10
-24.471311934789028
20
210.12943814595545
10
-24.479249111811328
20
209.15312500000005
10
-24.489832687377913
20
208.0365910847982
10
-24.503062661488855
20
206.76657816569013
10
-24.516292635599797
20
205.33518943786621
10
-24.532166989644395
20
203.73181508382163
10
-24.548041343688993
20
201.95117441813153
10
-24.566562096277877
20
199.97737693786621
10
-24.587729247411119
20
197.80514195760094
10
-24.608896398544289
20
195.42389195760094
10
-24.635354328155543
20
192.82304941813155
10
-24.661812257766726
20
189.99465293884282
10
-24.690916585922267
20
186.92812500000002
10
-24.722667312622093
20
183.61553649902348
10
-24.741188065210977
20
181.57560933430995
10
-24.759708817799861
20
179.53831443786626
10
-24.778229570388817
20
177.49837112426761
10
-24.799396721521987
20
175.45844395955407
10
-24.817917474110942
20
173.41850064595545
10
-24.836438226699826
20
171.38120574951176
10
-24.857603359222438
20
169.3412785847982
10
-24.876124111811322
20
167.30133527119958
10
-24.894644864400206
20
165.26404037475589
10
-24.913167635599791
20
163.22409706115729
10
-24.934332768122331
20
161.18416989644371
10
-24.952853520711287
20
159.14687500000002
10
-24.971374273300171
20
157.1069316864014
10
-24.992541424433412
20
155.06700452168783
10
-25.011062177022296
20
153.02970962524415
10
-25.02958292961118
20
150.98976631164552
10
-25.048103682200136
20
148.94983914693196
10
-25.069270833333306
20
146.90989583333337
10
-25.087791585922261
20
144.87260093688968
10
-25.106312338511145
20
142.83267377217612
10
-25.127479489644386
20
140.79273045857749
10
-25.146000242233271
20
138.75543556213381
10
-25.164520994822155
20
136.71549224853518
10
-25.18304174741111
20
134.67556508382162
10
-25.204208898544351
20
132.63827018737794
10
-25.24125040372212
20
128.55839970906578
10
-25.259771156311075
20
126.51845639546714
10
-25.280938307444245
20
124.481169573466
10
-25.2994590600332
20
122.44122625986736
10
-25.317979812622085
20
120.40129102071128
10
-25.339144945144625
20
118.3639961242676
10
-25.35766569773358
20
116.32406088511152
10
-25.376188468933094
20
114.28412564595541
10
-25.397353601455706
20
112.24683074951173
10
-25.434395106633474
20
108.16696027119957
10
-25.455562257766715
20
106.12966537475587
10
-25.492603762944555
20
102.04979489644371
10
-25.511124515533439
20
100.00985158284506
10
-25.53229166666668
20
97.972564760843937
10
-25.550812419255564
20
95.932621447245282
10
-25.569333171844448
20
93.892686208089202
10
-25.59050032297769
20
91.855399386088067
10
-25.609021075566645
20
89.81545607248944
10
-25.627541828155529
20
87.775520833333346
10
-25.64870897928877
20
85.738225936889663
10
-25.704271237055494
20
79.618420219421395
10
-25.725438388188664
20
77.581125322977712
10
-25.743959140777619
20
75.541190083821618
10
-25.762479893366503
20
73.501246770223005
10
-25.781000645955388
20
71.463959948221856
10
-25.802165778477999
20
69.424024709065776
10
-25.820686531066883
20
67.384081395467135
10
-25.839209302266468
20
65.346790536244725
10
-25.860374434789009
20
63.306855297088624
10
-25.878895187377964
20
61.266916020711264
10
-25.886832364400263
20
59.160834948221854
10
-25.870958010355665
20
57.05474983851115
10
-25.839209302266468
20
54.946020348866789
10
-25.796874999999986
20
52.837290859222428
10
-25.749249919255561
20
50.725916989644375
10
-25.701624838511137
20
48.617187500000014
10
-25.659292554855355
20
46.508458010355618
10
-25.627541828155529
20
44.399728520711257
10
-25.611667474110931
20
42.293647448221847
10
-25.61960465113323
20
40.187562338511142
10
-25.653999757766712
20
38.081477228800473
10
-25.722791989644378
20
35.980688953399671
10
-25.828625726699812
20
33.879896640777609
10
-25.976791747411099
20
31.781750726699833
10
-26.177875645955382
20
29.686249192555749
10
-26.331332445144682
20
28.577646398544303
10
-26.561520671844505
20
27.450520833333343
10
-26.868438307444222
20
26.323395268122347
10
-27.257374111811288
20
25.214792474110936
10
-27.725687742233305
20
24.143229166666664
10
-28.281312338511171
20
23.127230135599781
10
-28.921603520711301
20
22.190604893366519
10
-29.654500484466553
20
21.346583414077749
10
-30.477354812622082
20
20.618979247411104
10
-31.39545930226646
20
20.023666747411077
10
-32.28975024223331
20
19.523604408899935
10
-33.176104005177791
20
18.994437742233288
10
-34.062459786732973
20
18.454687499999984
10
-34.95145994822181
20
17.917583656311038
10
-35.845748869578031
20
17.401644945144668
10
-36.753271802266454
20
16.917457969983438
10
-37.676665051778144
20
16.486187863349926
10
-38.618585109710679
20
16.115770792961115
10
-39.584312661488852
20
15.827374919255561
10
-40.576500161488838
20
15.634229207038892
10
-40.867543443044028
20
15.636874596277863
10
-41.700979328155512
20
15.642166384061191
10
-43.015958817799884
20
15.652749959627776
10
-44.751624838511148
20
15.66862532297769
10
-46.849772771199554
20
15.684499677022288
10
-49.252185885111501
20
15.705666828155529
10
-51.898019218444844
20
15.72683296998342
10
-54.726415697733586
20
15.750645510355632
10
-57.681811046600373
20
15.774458050727844
10
-60.700707848866813
20
15.800916989644378
10
-63.727541828155552
20
15.82472953001659
10
-66.698811531066866
20
15.848542070388802
10
-69.558956718444804
20
15.872354610761015
10
-72.24712435404463
20
15.896167151133227
10
-74.702457364400203
20
15.914687903722147
10
-76.866747093200729
20
15.933208656311031
10
-78.681792958577503
20
15.949083010355629
10
-80.086729812622082
20
15.95966658592225
10
-81.020708656311058
20
15.967603762944549
10
-81.428169250488267
20
15.97025016148887
10
-81.75360158284505
20
15.97025016148887
10
-82.16106217702233
20
15.967603762944549
10
-83.095041020711307
20
15.95966658592225
10
-84.499977874755885
20
15.949083010355629
10
-86.315023740132659
20
15.933208656311031
10
-88.479313468933114
20
15.914687903722147
10
-90.934646479288759
20
15.896167151133227
10
-93.622814114888513
20
15.872354610761015
10
-96.482959302266451
20
15.848542070388802
10
-99.454233042399096
20
15.82472953001659
10
-102.48105894724532
20
15.800916989644378
10
-105.49995574951176
20
15.774458050727844
10
-108.4553551355998
20
15.750645510355632
10
-111.28375161488854
20
15.72683296998342
10
-113.92958494822184
20
15.705666828155529
10
-116.33199806213381
20
15.684499677022288
10
-118.43014195760091
20
15.66862532297769
10
-120.16581605275474
20
15.652749959627776
10
-121.48079554239914
20
15.642166384061191
10
-122.31423142751058
20
15.636874596277863
10
-122.60527470906578
20
15.634229207038892
10
-123.5974622090658
20
15.827374919255561
10
-124.56318976084393
20
16.115770792961115
10
-125.50510578155517
20
16.486187863349926
10
-126.42849903106693
20
16.917457969983438
10
-127.33601792653403
20
17.401644945144668
10
-128.23031088511152
20
17.917583656311038
10
-129.11931508382165
20
18.454687499999984
10
-130.00566279093425
20
18.994437742233288
10
-130.89201857248946
20
19.523604408899935
10
-131.78366311391198
20
20.023666747411077
10
-132.70441602071128
20
20.618979247411104
10
-133.5272743860881
20
21.346583414077749
10
-134.25751889546717
20
22.190604893366519
10
-134.90045445760092
20
23.127230135599781
10
-135.45608107248944
20
24.143229166666664
10
-135.92439066569014
20
25.214792474110936
10
-136.31333656311034
20
26.323395268122347
10
-136.62024612426762
20
27.450520833333343
10
-136.85043233235683
20
28.577646398544303
10
-137.00389518737794
20
29.686249192555749
10
-137.20233268737792
20
31.781750726699833
10
-137.35314712524413
20
33.879896640777609
10
-137.45898691813153
20
35.980688953399671
10
-137.52776501973472
20
38.081477228800473
10
-137.56216214497886
20
40.187562338511142
10
-137.57010739644372
20
42.293647448221847
10
-137.55423304239912
20
44.399728520711257
10
-137.52248433430992
20
46.508458010355618
10
-137.48014195760092
20
48.617187500000014
10
-137.43251889546713
20
50.725916989644375
10
-137.38489583333333
20
52.837290859222428
10
-137.34256960550942
20
54.946020348866789
10
-137.31080474853516
20
57.05474983851115
10
-137.29493039449056
20
59.160834948221854
10
-137.30287564595542
20
61.266916020711264
10
-137.32139841715497
20
63.306855297088624
10
-137.34256960550948
20
65.346790536244725
10
-137.3610762278239
20
67.384081395467135
10
-137.37959899902347
20
69.424024709065748
10
-137.39812177022301
20
71.463959948221856
10
-137.4192929585775
20
73.501246770223005
10
-137.43781572977701
20
75.541190083821618
10
-137.45633850097661
20
77.581125322977712
10
-137.47749354044601
20
79.618420219421395
10
-137.5330618540446
20
85.738225936889663
10
-137.55423304239912
20
87.775520833333346
10
-137.57275581359863
20
89.81545607248944
10
-137.5912785847982
20
91.855399386088067
10
-137.61243362426762
20
93.892686208089202
10
-137.63095639546714
20
95.932621447245282
10
-137.64947916666671
20
97.972564760843923
10
-137.66800193786622
20
100.00985158284506
10
-137.68917312622074
20
102.04979489644371
10
-137.70767974853521
20
104.08973013559978
10
-137.72620251973473
20
106.12966537475587
10
-137.74737370808921
20
108.16696027119957
10
-137.78441925048833
20
112.24683074951173
10
-137.80559043884281
20
114.28412564595541
10
-137.82409706115726
20
116.32406088511149
10
-137.8426198323568
20
118.36399612426759
10
-137.86379102071129
20
120.40129102071128
10
-137.8823137919108
20
122.44122625986736
10
-137.9008365631104
20
124.481169573466
10
-137.91935933430992
20
126.51845639546714
10
-137.94051437377931
20
128.55839970906578
10
-137.97755991617839
20
132.63827018737794
10
-137.99873110453291
20
134.67556508382162
10
-138.01725387573242
20
136.71549224853518
10
-138.03577664693199
20
138.75543556213381
10
-138.05429941813151
20
140.79273045857749
10
-138.07545445760096
20
142.83267377217615
10
-138.0939772288005
20
144.87260093688968
10
-138.11250000000001
20
146.90989583333337
10
-138.13367118835453
20
148.94983914693199
10
-138.15219395955407
20
150.98976631164555
10
-138.17070058186852
20
153.02970962524415
10
-138.18922335306806
20
155.06700452168783
10
-138.21039454142254
20
157.1069316864014
10
-138.22891731262212
20
159.14687500000002
10
-138.24744008382163
20
161.18416989644371
10
-138.2659628550212
20
163.22409706115724
10
-138.28711789449059
20
165.26404037475587
10
-138.30564066569011
20
167.30133527119958
10
-138.32416343688971
20
169.3412785847982
10
-138.34533462524419
20
171.38120574951174
10
-138.36385739644371
20
173.41850064595542
10
-138.38238016764325
20
175.45844395955407
10
-138.40090293884282
20
177.49837112426761
10
-138.42205797831218
20
179.53831443786623
10
-138.44058074951175
20
181.57560933430989
10
-138.4591035207113
20
183.61553649902348
10
-138.48820381164552
20
186.6794160207113
10
-138.51467183430992
20
189.53426437377931
10
-138.5411237080892
20
192.18539454142257
10
-138.56494331359866
20
194.63808720906576
10
-138.58609835306808
20
196.90556831359862
10
-138.6046211242676
20
198.99048627217613
10
-138.62314389546714
20
200.90077018737793
10
-138.63901824951174
20
202.64438145955407
10
-138.65489260355633
20
204.23188145955407
10
-138.66811854044599
20
205.66591860453292
10
-138.68136062622071
20
206.95973498026532
10
-138.69193814595542
20
208.11331443786625
10
-139.03059641520187
20
208.07362047831219
10
-139.36927083333336
20
208.04716860453289
10
-139.71057751973473
20
208.03129425048832
10
-140.05190035502119
20
208.0259974161784
10
-140.39320704142256
20
208.03129425048832
10
-140.73188145955407
20
208.04981702168786
10
-141.07318814595544
20
208.08156572977705
10
-141.41184641520184
20
208.12124354044599
10
-141.74787241617844
20
208.17416343688967
10
-142.08389841715498
20
208.24030927022304
10
-142.17914454142254
20
208.26148045857749
10
-142.27703908284508
20
208.28000322977704
10
-142.37493362426761
20
208.30117441813155
10
-142.47282816569012
20
208.32232945760094
10
-142.66861724853521
20
208.36467183430995
10
-142.76652793884281
20
208.38319460550949
10
-142.86442248026532
20
208.40434964497888
10
-143.06021156311036
20
208.44669202168785
10
-145.04986724853518
20
209.08697916666668
10
-146.86227277119957
20
210.12943814595542
10
-148.4206724802653
20
211.52642974853521
10
-149.65097529093427
20
213.21447270711263
10
-150.50559043884277
20
215.12212435404464
10
-150.94479166666667
20
217.16734835306809
10
-150.94744008382165
20
219.25756314595543
10
-150.51881637573246
20
221.30278714497888
10
-149.67214647928876
20
223.21573562622075
10
-148.44447593688969
20
224.909059270223
10
-146.89402147928874
20
226.31134770711267
10
-145.08691279093426
20
227.3591035207113
10
-143.09988937377932
20
228.00998433430993
10
-141.02026824951173
20
228.23222529093428
10
-138.9406471252442
20
228.01791343688967
10
-138.93535029093428
20
228.01526501973473
10
-138.93006960550946
20
228.01526501973473
10
-138.9221243540446
20
228.01263275146488
10
-138.91682751973474
20
228.01263275146488
10
-138.91154683430989
20
228.00998433430993
10
-138.90360158284508
20
228.00998433430993
10
-138.89830474853517
20
228.00733591715499
10
-138.89302406311037
20
228.00733591715499
10
-138.88772722880049
20
228.00468750000005
10
-138.87979812622069
20
228.00468750000005
10
-138.89302406311037
20
229.30115229288742
10
-138.90625
20
230.67962112426761
10
-138.91947593688968
20
232.13747787475592
10
-138.93535029093428
20
233.67735481262213
10
-138.94857622782388
20
235.30190035502119
10
-138.9644505818685
20
237.01639518737795
10
-138.98297335306808
20
238.81820704142257
10
-139.00149612426759
20
240.71263275146489
10
-139.02001889546713
20
242.70228843688969
10
-139.03854166666667
20
244.78720639546714
10
-139.06764195760093
20
246.86154683430993
10
-139.10733591715498
20
248.93322270711266
10
-139.16025581359864
20
251.00491472880049
10
-139.21845639546714
20
253.07925516764325
10
-139.27930539449056
20
255.15093104044604
10
-139.34017054239911
20
257.22527147928878
10
-139.39837112426758
20
259.29696350097657
10
-139.45129102071127
20
261.37128779093428
10
-139.4909849802653
20
263.44297981262207
10
-139.5174368540446
20
265.51467183430992
10
-139.52801437377931
20
267.58634770711268
10
-139.52008527119958
20
269.65803972880047
10
-139.48568814595541
20
271.72973175048833
10
-139.42483914693199
20
273.79875920613608
10
-139.33222529093428
20
275.87046737670903
10
-139.26872787475588
20
277.28333333333342
10
-139.21052729288738
20
278.74119008382166
10
-139.13113937377932
20
280.22020187377933
10
-139.00414454142253
20
281.69659754435224
10
-138.81100387573241
20
283.14915746053066
10
-138.52260093688969
20
284.55937500000005
10
-138.11250000000001
20
285.90609512329104
10
-137.56216214497883
20
287.16286595662439
10
-136.84250322977704
20
288.31118087768562
10
-135.93233591715494
20
289.33246866861981
10
-135.19149773915612
20
290.01773045857749
10
-134.44537887573247
20
290.69769541422534
10
-133.69131476084391
20
291.37239583333337
10
-132.93196188608806
20
292.03915100097663
10
-132.16731217702232
20
292.70060933430995
10
-131.39737370808922
20
293.35412241617843
10
-130.6194980621338
20
293.99707412719732
10
-129.83368523915607
20
294.6320482889812
10
-129.03993523915608
20
295.25649337768562
10
-128.23824806213381
20
295.87031250000007
10
-127.10319137573244
20
296.5450129191081
10
-125.87287241617841
20
296.95509770711271
10
-124.56583010355632
20
297.14297383626308
10
-123.20058720906576
20
297.15883204142256
10
-121.79035352071125
20
297.0424308776856
10
-120.35101954142256
20
296.8386965433757
10
-118.9011080423991
20
296.58997141520189
10
-117.45912564595542
20
296.34657541910809
10
-116.03831443786625
20
296.14548950195319
10
-114.65454069773358
20
296.03435287475588
10
-112.59079392751062
20
295.95761337280283
10
-110.52439874013267
20
295.88090616861984
10
-108.46064389546711
20
295.80416666666673
10
-106.39424870808924
20
295.72742716471362
10
-104.3305019378662
20
295.65071996053064
10
-102.26410675048825
20
295.57398045857752
10
-100.20035190582277
20
295.49724095662441
10
-98.133956718444821
20
295.41788533528654
10
-96.070209948221859
20
295.34114583333337
10
-94.003814760843909
20
295.26440633138026
10
-91.940059916178427
20
295.18769912719733
10
-89.873664728800478
20
295.11095962524416
10
-87.809917958577515
20
295.03422012329105
10
-85.743522771199565
20
294.95751291910813
10
-83.679767926534012
20
294.88077341715501
10
-81.613372739156063
20
294.8013854980469
10
-81.568398094177255
20
294.8013854980469
10
-79.502002906799305
20
294.88077341715501
10
-77.438248062133823
20
294.95751291910813
10
-75.371852874755874
20
295.03422012329105
10
-73.308106104532911
20
295.11095962524416
10
-71.241710917154961
20
295.18769912719728
10
-69.177956072489408
20
295.2644063313802
10
-67.11156088511153
20
295.34114583333337
10
-65.047814114888496
20
295.41788533528648
10
-62.981414890289358
20
295.49724095662435
10
-60.917668120066324
20
295.57398045857752
10
-58.851268895467115
20
295.65071996053064
10
-56.787522125244152
20
295.72742716471356
10
-54.721126937866202
20
295.80416666666667
10
-52.65737613042198
20
295.88090616861984
10
-50.59098094304403
20
295.95761337280277
10
-48.527230135599808
20
296.03435287475588
10
-47.14345639546714
20
296.14548950195319
10
-45.722645187377964
20
296.34657541910815
10
-44.280666828155546
20
296.58997141520189
10
-42.830751291910829
20
296.83869654337565
10
-41.391417312622067
20
297.0424308776856
10
-39.981187661488846
20
297.15883204142256
10
-38.615936692555763
20
297.14297383626308
10
-37.30889437993369
20
296.95509770711271
10
-36.078583494822212
20
296.5450129191081
10
-34.943522771199582
20
295.87031250000007
10
-34.141831556955964
20
295.25649337768556
10
-33.348083575566605
20
294.6320482889812
10
-32.562270752588915
20
293.99707412719732
10
-31.784395106633525
20
293.35412241617843
10
-31.014458656311064
20
292.70060933430995
10
-30.247166585922258
20
292.03915100097663
10
-29.490458091100038
20
291.37239583333337
10
-28.736395994822175
20
290.69769541422534
10
-27.990271075566611
20
290.01773045857755
10
-27.24943693478906
20
289.33246866861987
10
-26.339271640777611
20
288.31118087768562
10
-25.61960465113323
20
287.16286595662439
10
-25.069270833333306
20
285.90609512329104
10
-24.659165859222441
20
284.55937500000005
10
-24.370770994822166
20
283.14915746053066
10
-24.174979893366526
20
281.69659754435224
10
-24.050625403722137
20
280.22020187377933
10
-23.971249596277886
20
278.74119008382166
10
-23.913040939966805
20
277.28333333333342
10
-23.849541505177854
20
275.87046737670903
10
-23.756937742233291
20
273.79875920613608
10
-23.696082687377924
20
271.72973175048833
10
-23.661687580744442
20
269.65803972880047
10
-23.651104005177785
20
267.58634770711268
10
-23.661687580744442
20
265.51467183430992
10
-23.690791908899911
20
263.44297981262213
10
-23.730479812622036
20
261.37128779093428
10
-23.783395671844474
20
259.29696350097657
10
-23.841604328155555
20
257.22527147928878
10
-23.90245736440022
20
255.15093104044598
10
-23.963312419255587
20
253.07925516764325
10
-24.021521075566596
20
251.00491472880051
10
-24.074436934789034
20
248.93322270711266
10
-24.11412483851116
20
246.86154683430993
10
-24.1432291666667
20
244.78720639546714
10
-24.159103520711298
20
243.11238937377934
10
-24.172333494822169
20
241.50108591715497
10
-24.188207848866767
20
239.9479830423991
10
-24.201437822977709
20
238.45572916666669
10
-24.214665778478022
20
237.02169202168784
10
-24.227895752588893
20
235.6458554585775
10
-24.241125726699835
20
234.32558720906576
10
-24.254353682200147
20
233.05822270711263
10
-24.264937257766732
20
231.8490910847982
10
-24.275520833333317
20
230.69021479288739
10
-23.680208333333326
20
230.65052083333339
10
-23.090186611811347
20
230.57907816569013
10
-22.505457687377941
20
230.47060610453292
10
-21.926021560033178
20
230.32773691813156
10
-21.357166989644369
20
230.15310287475589
10
-20.801542393366503
20
229.94143943786625
10
-20.256499354044593
20
229.69802729288739
10
-19.729979085922267
20
229.42285029093429
10
-19.219333171844468
20
229.11858914693198
10
-18.727208010355625
20
228.78256314595544
10
-18.645187822977718
20
228.72434641520186
10
-18.565812015533467
20
228.66349741617842
10
-18.483791828155489
20
228.60529683430991
10
-18.401771640777582
20
228.54708010355634
10
-18.322395833333331
20
228.48887952168783
10
-18.240375645955424
20
228.42801437377932
10
-18.160999838511174
20
228.36981379191084
10
-18.078979651133196
20
228.31159706115727
0
LWPOLYLINE
5
104
100
AcDbEntity
8
0
100
AcDbPolyline
90
341
70
1
43
0.0
10
-557.68611450195317
20
67.283542474110931
10
-558.14648691813159
20
67.534895833333337
10
-558.16767425537125
20
67.51108430226644
10
-558.18879699707043
20
67.484624354044612
10
-558.20998433430998
20
67.45816844304403
10
-558.23117167154965
20
67.434352874755888
10
-558.25229441324882
20
67.407896963755292
10
-558.27348175048837
20
67.384081395467135
10
-558.29466908772793
20
67.357625484466567
10
-558.3184402465821
20
67.33381395339967
10
-558.33962758382177
20
67.307354005177842
10
-558.36081492106132
20
67.283542474110931
10
-558.69948933919272
20
66.894604651133221
10
-559.03809916178398
20
66.503022448221856
10
-559.37412516276049
20
66.106147448221861
10
-559.71544799804701
20
65.714561208089208
10
-560.0620676676433
20
65.328271802266443
10
-560.41663258870449
20
64.955208333333331
10
-560.78437500000007
20
64.595374838511148
10
-561.16800791422531
20
64.256708494822192
10
-561.57017974853522
20
63.939209302266455
10
-561.9935389200848
20
63.650814437866217
10
-562.83224741617846
20
63.235416666666673
10
-563.7900700887044
20
62.923210271199572
10
-564.81397399902357
20
62.679790051778177
10
-565.86701049804697
20
62.470770994822189
10
-566.89892425537118
20
62.253810723622642
10
-567.86727600097663
20
61.997168604532895
10
-568.72717183430996
20
61.663791020711294
10
-569.43358866373705
20
61.211355781555206
10
-569.94163258870446
20
60.610750484466571
10
-570.20621592203781
20
59.819644864400239
10
-570.44961191813161
20
58.144831879933676
10
-570.58720041910817
20
57.176459948221847
10
-570.6321589152019
20
56.710790697733557
10
-570.59514567057295
20
56.541457525889065
10
-570.49192199707034
20
56.462081718444814
10
-570.3305623372396
20
56.271581395467116
10
-570.12153116861987
20
55.760937500000018
10
-569.88336741129569
20
54.72641569773355
10
-569.62408091227223
20
52.961645348866782
10
-569.354200744629
20
50.262896156311037
10
-569.22455749511732
20
48.310269864400226
10
-569.15311482747404
20
46.251811854044611
10
-569.13464050292976
20
44.111333656311054
10
-569.16900533040371
20
41.912646802266451
10
-569.25633850097665
20
39.684855620066308
10
-569.39392700195322
20
37.451771640777594
10
-569.58177083333339
20
35.237206395467133
10
-569.8172215779623
20
33.070270268122357
10
-570.10034383138031
20
30.969479974110925
10
-570.43107299804694
20
28.96922860145569
10
-570.80417683919279
20
27.085396560033175
10
-571.47616424560556
20
25.000478601455676
10
-572.40750274658217
20
23.479124434789007
10
-573.54787241617851
20
22.476353359222401
10
-574.83907267252607
20
21.947186692555753
10
-576.2333674112956
20
21.846645752588927
10
-577.67010142008462
20
22.132396237055474
10
-579.0988255818686
20
22.75681306521097
10
-580.46670074462907
20
23.674917554855348
10
-581.7155909220379
20
24.844375403722125
10
-582.79504699707036
20
26.220207929611199
10
-583.8745676676433
20
24.844375403722125
10
-585.12339324951176
20
23.674917554855348
10
-586.48861999511723
20
22.75681306521097
10
-587.92005716959648
20
22.132396237055474
10
-589.35672658284511
20
21.846645752588927
10
-590.74843750000014
20
21.947186692555753
10
-592.04222157796232
20
22.476353359222401
10
-593.18259124755866
20
23.479124434789007
10
-594.11392974853527
20
25.000478601455676
10
-594.78333333333342
20
27.085396560033175
10
-595.15902099609377
20
28.96922860145569
10
-595.48975016276052
20
30.969479974110925
10
-595.77287241617853
20
33.070270268122357
10
-596.00832316080732
20
35.237206395467133
10
-596.19623158772799
20
37.451771640777594
10
-596.33382008870456
20
39.684855620066344
10
-596.42108866373701
20
41.912646802266451
10
-596.45551808675134
20
44.111333656311054
10
-596.43697916666679
20
46.251811854044611
10
-596.3628880818685
20
48.310269864400226
10
-596.23589324951172
20
50.262896156311037
10
-595.9660130818686
20
52.961645348866782
10
-595.70672658284514
20
54.72641569773355
10
-595.46597900390634
20
55.760937500000018
10
-595.2595962524415
20
56.271581395467116
10
-595.09817199707038
20
56.462081718444814
10
-594.99236450195315
20
56.541457525889065
10
-594.95793507893882
20
56.710790697733557
10
-595.00295817057304
20
57.176459948221847
10
-595.1405466715496
20
58.144831879933676
10
-595.3839426676434
20
59.819644864400239
10
-595.64852600097663
20
60.610750484466571
10
-596.15650533040377
20
61.211355781555206
10
-596.86298675537114
20
61.663791020711294
10
-597.72288258870458
20
61.997168604532895
10
-598.69123433431002
20
62.253810723622642
10
-599.72308349609386
20
62.470770994822189
10
-600.77347157796237
20
62.679790051778177
10
-601.8000885009767
20
62.923210271199572
10
-602.75519816080737
20
63.235416666666673
10
-603.59661966959641
20
63.650814437866217
10
-604.00143992106121
20
63.925979328155513
10
-604.38772125244145
20
64.227604166666652
10
-604.75546366373703
20
64.550396156311052
10
-605.10738016764333
20
64.889062500000023
10
-605.45135142008473
20
65.246251614888536
10
-605.78472900390625
20
65.611373869578074
10
-606.1101613362631
20
65.984437338511157
10
-606.43294525146484
20
66.362793604532882
10
-606.7557291666667
20
66.741145833333348
10
-607.07851308186855
20
67.114209302266445
10
-608.87239583333348
20
66.16700048446657
10
-610.81975758870453
20
65.603436692555761
10
-612.84114583333337
20
65.444689114888519
10
-614.85200500488293
20
65.693394056955981
10
-616.77288258870453
20
66.34691521326701
10
-618.52174224853525
20
67.373499838511165
10
-620.02720591227228
20
68.730809593200703
10
-621.22842458089201
20
70.363292312622079
10
-622.07507832845056
20
72.20743846893312
10
-622.53545074462897
20
74.181227874755876
10
-622.58312225341808
20
76.207937177022302
10
-622.2232604980469
20
78.205538113911956
10
-621.46923675537118
20
80.086729812622082
10
-620.34998982747402
20
81.777413113911962
10
-618.91332041422538
20
83.20880991617841
10
-617.21736450195317
20
84.320063145955402
10
-615.33085174560551
20
85.06354166666668
10
-613.33329925537112
20
85.41543394724529
10
-611.30654958089201
20
85.354584948221856
10
-612.02356007893889
20
86.521398417154955
10
-612.79353892008476
20
87.656455103556326
10
-613.60053100585947
20
88.772997093200701
10
-614.43129425048835
20
89.873664728800478
10
-615.27265116373701
20
90.969043604532914
10
-616.11142425537116
20
92.067062822977718
10
-616.93159383138027
20
93.175667635599794
10
-617.72269541422543
20
94.302795219421398
10
-618.47148691813163
20
95.453726259867366
10
-619.16201324462895
20
96.641710917154967
10
-620.18333333333339
20
98.591688791910826
10
-621.11996866861989
20
100.54166666666669
10
-621.97456766764333
20
102.49164454142254
10
-622.75242716471359
20
104.44691925048831
10
-623.45096333821618
20
106.40218588511149
10
-624.07269541422534
20
108.36539777119955
10
-624.62304941813159
20
110.33389841715497
10
-625.10460917154955
20
112.31033624013267
10
-625.51466166178398
20
114.29735158284507
10
-625.85863291422538
20
116.2923121770223
10
-626.13645833333339
20
118.29785029093428
10
-626.35343475341801
20
120.31662241617839
10
-626.50949757893886
20
122.34862855275475
10
-626.60742441813159
20
124.39650096893311
10
-626.64708607991554
20
126.4602477391561
10
-626.63384399414076
20
128.54251728057864
10
-626.56769816080737
20
130.64330959320071
10
-626.45394541422536
20
132.7626246770223
10
-626.28993733723962
20
134.90575129191083
10
-626.16559092203784
20
137.00919202168785
10
-626.13645833333339
20
138.89302406311037
10
-626.13910675048839
20
140.59164454142257
10
-626.10997416178395
20
142.1447474161784
10
-625.98562774658217
20
143.58672981262208
10
-625.70257008870453
20
144.9493404388428
10
-625.19982299804701
20
146.27225710550948
10
-624.41401824951174
20
147.58722852071128
10
-623.27894541422529
20
148.93396479288739
10
-621.73382008870453
20
150.34418233235681
10
-619.7176640828452
20
151.78086789449057
10
-617.72799224853532
20
152.78364906311037
10
-615.77804667154953
20
153.37366472880046
10
-613.8835886637371
20
153.58797658284507
10
-612.05534108479821
20
153.45038808186851
10
-610.30906524658212
20
152.99266408284507
10
-608.65541941324875
20
152.2438887278239
10
-607.11029408772799
20
151.22789777119957
10
-605.68680216471364
20
149.97905604044598
10
-604.39566650390634
20
148.52384770711265
10
-603.252648417155
20
146.89137306213379
10
-602.26840616861989
20
145.11073239644369
10
-601.46141408284518
20
143.21102600097657
10
-600.83961741129565
20
141.21870574951174
10
-600.41897125244145
20
139.16553649902346
10
-600.18080749511728
20
137.01976954142256
10
-600.10413258870449
20
134.91897722880049
10
-600.14644266764333
20
132.85523045857749
10
-600.27078908284511
20
130.81529521942142
10
-600.43486175537123
20
128.79652309417727
10
-600.59886983235685
20
126.78303972880047
10
-600.72586466471364
20
124.77220478057865
10
-600.77347157796237
20
122.75079231262208
10
-600.70467732747397
20
120.7134974161784
10
-600.47717183430996
20
118.64710222880048
10
-600.05116424560561
20
116.54366957346599
10
-599.38705749511723
20
114.39524612426759
10
-598.5774815877279
20
112.44526824951173
10
-597.61171366373696
20
110.55349903106689
10
-596.52431233723962
20
108.70406411488852
10
-595.33898417154955
20
106.88901824951174
10
-594.08751017252609
20
105.09779198964438
10
-592.79895833333342
20
103.32244008382162
10
-591.49987742106123
20
101.54972852071128
10
-590.22456766764333
20
99.769079780578636
10
-588.99686482747393
20
97.969916343688965
10
-587.84861450195319
20
96.141644541422536
10
-586.80882008870458
20
94.276335271199542
10
-585.90390116373703
20
92.363394864400234
10
-584.79531250000014
20
89.606441052754718
10
-584.13385416666677
20
87.659103520711284
10
-583.81636708577491
20
86.375872739156108
10
-583.74227600097663
20
85.608582687377947
10
-583.8137186686198
20
85.209059270222994
10
-583.92747141520192
20
85.026496124267595
10
-583.98302357991543
20
84.915375645955436
10
-583.87986450195319
20
84.727523740132668
10
-583.51735432942723
20
84.314774386088075
10
-582.79504699707036
20
83.528961563110357
10
-582.07009124755871
20
84.314774386088075
10
-581.70764567057302
20
84.727523740132668
10
-581.6044219970704
20
84.915375645955407
10
-581.65997416178402
20
85.026496124267581
10
-581.7737915039063
20
85.209059270222994
10
-581.84523417154958
20
85.608582687377947
10
-581.7737915039063
20
86.375872739156108
10
-581.45623982747406
20
87.659103520711284
10
-580.79478149414069
20
89.606441052754747
10
-579.6861928304038
20
92.363394864400249
10
-578.78133850097674
20
94.276335271199542
10
-577.7415440877279
20
96.141644541422536
10
-576.59322916666679
20
97.969916343688965
10
-575.36559092203777
20
99.769079780578636
10
-574.08763275146487
20
101.54972852071127
10
-572.79113566080741
20
103.32244008382162
10
-571.502648417155
20
105.09779198964439
10
-570.25117441813154
20
106.88901824951174
10
-569.06584625244147
20
108.70406411488852
10
-567.97573191324875
20
110.55349903106691
10
-567.01267700195319
20
112.44526824951174
10
-566.2003880818686
20
114.39524612426759
10
-565.53892974853522
20
116.54366957346599
10
-565.11298675537114
20
118.64710222880048
10
-564.88541666666674
20
120.7134974161784
10
-564.81397399902357
20
122.7507923126221
10
-564.86422932942719
20
124.77220478057865
10
-564.98857574462897
20
126.78303972880046
10
-565.15529683430998
20
128.79652309417727
10
-565.3193049112956
20
130.81529521942142
10
-565.44106750488288
20
132.85523045857749
10
-565.48602600097661
20
134.91897722880049
10
-565.40663808186855
20
137.01976954142253
10
-565.17118733723964
20
139.16553649902346
10
-564.75047658284518
20
141.21870574951174
10
-564.12867991129565
20
143.21102600097657
10
-563.31910400390632
20
145.11073239644372
10
-562.33751017252621
20
146.89137306213379
10
-561.19449208577487
20
148.52384770711265
10
-559.90329182942719
20
149.97905604044598
10
-558.47986450195322
20
151.22789777119957
10
-556.93202616373708
20
152.2438887278239
10
-555.28102874755871
20
152.99266408284507
10
-553.53216908772788
20
153.45038808186851
10
-551.70650533040373
20
153.58797658284507
10
-549.80946350097668
20
153.37366472880046
10
-547.86210174560563
20
152.78364906311037
10
-545.87242991129563
20
151.78086789449057
10
-543.85369008382168
20
150.34418233235678
10
-542.31114857991543
20
148.93396479288737
10
-541.17610804239916
20
147.58722852071128
10
-540.39030329386401
20
146.27225710550948
10
-539.88494008382168
20
144.9493404388428
10
-539.60446624755866
20
143.58672981262208
10
-539.48011983235688
20
142.1447474161784
10
-539.45101954142262
20
140.59164454142254
10
-539.45101954142262
20
138.89302406311037
10
-539.42191925048837
20
137.00919202168785
10
-539.29757283528659
20
134.90575129191083
10
-539.13618087768566
20
132.7626246770223
10
-539.01974741617846
20
130.64330959320071
10
-538.95625000000007
20
128.54251728057864
10
-538.9430079142254
20
126.4602477391561
10
-538.98270187377932
20
124.39650096893314
10
-539.08059641520185
20
122.34862855275473
10
-539.23672383626308
20
120.31662241617839
10
-539.45366795857763
20
118.29785029093428
10
-539.73149337768564
20
116.2923121770223
10
-540.07543233235685
20
114.29735158284508
10
-540.48554941813154
20
112.31033624013266
10
-540.96442845662443
20
110.33389841715496
10
-541.51478246053068
20
108.36539777119955
10
-542.13919525146491
20
106.40218588511149
10
-542.83766682942723
20
104.44691925048829
10
-543.61294250488288
20
102.49164454142253
10
-544.47018992106132
20
100.54166666666669
10
-545.40676066080744
20
98.591688791910826
10
-546.42808074951176
20
96.641710917154967
10
-547.06835174560547
20
95.533106104532891
10
-547.76159108479828
20
94.45889841715497
10
-548.49184366861982
20
93.405853843688988
10
-549.25116424560554
20
92.368683624267604
10
-550.02908833821618
20
91.344747416178393
10
-550.81489308675134
20
90.323459625244155
10
-551.59275258382172
20
89.299523417154944
10
-552.35736999511721
20
88.267641957600929
10
-553.09821624755864
20
87.22254263559978
10
-553.79940083821623
20
86.153623708089214
10
-553.73060658772795
20
86.158920542399102
10
-553.66181233723967
20
86.164209302266457
10
-553.59301808675139
20
86.166857719421415
10
-553.52687225341799
20
86.169498062133812
10
-553.38928375244154
20
86.174794896443686
10
-553.32048950195315
20
86.1747948964437
10
-553.25434366861987
20
86.177435239156097
10
-552.11662241617842
20
86.177435239156097
10
-550.03696899414069
20
85.960483042399119
10
-548.05001017252619
20
85.312250645955402
10
-546.2375885009767
20
84.267143249511747
10
-544.68445332845067
20
82.870143572489425
10
-543.45681508382165
20
81.176811854044615
10
-542.60486450195322
20
79.269168281555196
10
-542.17091166178398
20
77.223936208089185
10
-542.17091166178398
20
75.133729489644381
10
-542.60486450195322
20
73.088497416178399
10
-543.45681508382177
20
71.178205426534021
10
-544.68445332845067
20
69.487522125244141
10
-546.23758850097659
20
68.087874031066903
10
-548.05001017252619
20
67.042770671844494
10
-550.03696899414069
20
66.397186692555749
10
-552.11662241617853
20
66.177582041422539
10
-553.1167551676433
20
66.177582041422539
10
-553.64327341715511
20
66.190812015533453
10
-554.16979166666681
20
66.233146317799907
10
-554.69101308186862
20
66.3019365310669
10
-555.20958607991543
20
66.399835109710708
10
-555.72292683919284
20
66.524185562133795
10
-556.22825775146487
20
66.675000000000011
10
-556.72299499511723
20
66.852270348866796
10
-557.20985158284509
20
67.053352228800463
0
LWPOLYLINE
5
105
100
AcDbEntity
8
0
100
AcDbPolyline
90
372
70
1
43
0.0
10
-436.7450469970704
20
78.110291989644367
10
-436.69479166666679
20
78.025623385111516
10
-435.80579554239921
20
76.115331395467138
10
-435.33747787475596
20
74.062170219421404
10
-435.3110260009766
20
71.95608107248944
10
-435.7264076232911
20
69.892334302266448
10
-436.56250000000006
20
67.960871124267584
10
-437.78487370808926
20
66.246376291910821
10
-439.34062500000005
20
64.825561046600342
10
-441.15831120808923
20
63.764583333333356
10
-443.15857671101895
20
63.105769379933676
10
-445.25140762329107
20
62.878227551778174
10
-447.34691925048833
20
63.097832202911377
10
-449.34715245564792
20
63.748708979288757
10
-451.17013549804699
20
64.807042312622087
10
-451.25217183430999
20
64.090019702911405
10
-451.36327616373705
20
63.38358268737796
10
-451.50880991617845
20
62.690375645955427
10
-451.69400533040374
20
62.00775016148885
10
-451.92422383626308
20
61.338354651133216
10
-452.19936854044602
20
60.684833494822179
10
-452.52744928995776
20
60.047186692555776
10
-452.91376291910814
20
59.428062661488852
10
-453.36089324951183
20
58.827457364400253
10
-453.87681783040375
20
58.245374838511168
10
-454.34513549804694
20
57.763835271199575
10
-454.82139841715502
20
57.284936046600343
10
-455.30822270711269
20
56.813978036244741
10
-455.80299224853519
20
56.350957202911367
10
-456.30835545857747
20
55.903810723622662
10
-456.82692845662444
20
55.469894218444828
10
-457.35609512329114
20
55.054500484466544
10
-457.90115229288739
20
54.660269864400242
10
-458.46206766764334
20
54.287206395467145
10
-459.03884124755871
20
53.943251291910812
10
-459.69238662719738
20
53.633689276377368
10
-460.38294525146489
20
53.395561854044615
10
-461.10260416666671
20
53.207709948221869
10
-461.83550516764336
20
53.051602713267023
10
-462.56840616861984
20
52.903436692555736
10
-463.29336191813155
20
52.739396317799887
10
-463.99451421101895
20
52.538314437866234
10
-464.65858866373702
20
52.27901986440024
10
-465.27508850097666
20
51.940353520711255
10
-465.83070704142256
20
51.498499838511158
10
-466.08734512329107
20
51.175707848866772
10
-466.25138549804694
20
50.807937177022318
10
-466.33607025146495
20
50.40576937993368
10
-466.35722529093425
20
49.971852874755847
10
-466.330773417155
20
49.516769218444843
10
-466.27522125244138
20
49.048459625244156
10
-466.20377858479827
20
48.577501614888519
10
-466.13498433430999
20
48.106543604532881
10
-466.08469670613613
20
47.646167151133234
10
-466.06883850097665
20
47.204313468933101
10
-466.06354166666671
20
45.796728197733572
10
-466.02119928995774
20
44.38649854660035
10
-465.95770187377934
20
42.976268895467129
10
-465.88361078898117
20
41.563394864400216
10
-465.81746495564789
20
40.153165213266995
10
-465.76985804239916
20
38.742935562133773
10
-465.75661595662444
20
37.337998708089195
10
-465.79366149902347
20
35.935710271199532
10
-465.89155604044601
20
34.536062177022302
10
-466.0688385009766
20
33.144353278478
10
-466.49746220906582
20
31.064730135599774
10
-467.09012629191085
20
29.215291182200112
10
-467.84683074951175
20
27.585458898544317
10
-468.7596303304037
20
26.169938468933118
10
-469.8338541666667
20
24.958146317799894
10
-471.06417312622079
20
23.942145268122346
10
-472.45058720906582
20
23.114000161488839
10
-473.99309641520188
20
22.465771802266445
10
-475.68908462524416
20
21.986874596277879
10
-477.53851954142254
20
21.666729005177814
10
-478.14972254435224
20
21.666729005177814
10
-479.99915746053063
20
21.986874596277879
10
-481.69511337280284
20
22.465771802266445
10
-483.23500645955414
20
23.114000161488839
10
-484.62406895955411
20
23.942145268122346
10
-485.85438791910815
20
24.958146317799894
10
-486.92857945760102
20
26.169938468933118
10
-487.84141133626304
20
27.585458898544317
10
-488.59546737670905
20
29.215291182200112
10
-489.18813145955414
20
31.064730135599774
10
-489.61940358479819
20
33.144353278478
10
-489.79665374755859
20
34.536062177022302
10
-489.89454828898118
20
35.935710271199532
10
-489.93159383138027
20
37.337998708089195
10
-489.91838404337568
20
38.742935562133809
10
-489.87074483235682
20
40.153165213266995
10
-489.8045989990236
20
41.563394864400216
10
-489.73050791422531
20
42.976268895467129
10
-489.66701049804692
20
44.38649854660035
10
-489.62470041910819
20
45.796728197733572
10
-489.61940358479819
20
47.204313468933101
10
-489.60086466471358
20
47.646167151133234
10
-489.55060933430991
20
48.106543604532881
10
-489.41302083333341
20
49.048459625244156
10
-489.35746866861984
20
49.516769218444843
10
-489.33098449707029
20
49.971852874755882
10
-489.35217183431001
20
50.40576937993368
10
-489.43682428995777
20
50.807937177022318
10
-489.5982162475587
20
51.175707848866772
10
-489.85753504435229
20
51.498499838511158
10
-490.41315358479829
20
51.940353520711291
10
-491.02962112426769
20
52.27901986440024
10
-491.69372787475595
20
52.538314437866198
10
-492.39488016764335
20
52.739396317799887
10
-493.11718750000006
20
52.903436692555736
10
-493.85273691813154
20
53.051602713267023
10
-494.58563791910819
20
53.207709948221869
10
-495.30264841715501
20
53.395561854044615
10
-495.99585545857747
20
53.633689276377368
10
-496.64672012329112
20
53.943251291910812
10
-497.22352600097656
20
54.287206395467145
10
-497.78444137573251
20
54.660269864400242
10
-498.32946624755868
20
55.05450048446658
10
-498.86128133138027
20
55.469894218444828
10
-499.37988662719732
20
55.903810723622662
10
-499.88521753946947
20
56.350957202911367
10
-500.37998708089196
20
56.813978036244706
10
-500.86419525146488
20
57.284936046600343
10
-501.34307428995777
20
57.763835271199575
10
-501.81139195760096
20
58.245374838511133
10
-502.36171366373702
20
58.872436046600356
10
-502.83797658284516
20
59.520668443044045
10
-503.24014841715501
20
60.192708333333336
10
-503.57882283528653
20
60.885915374755868
10
-503.85926437377941
20
61.595000807444258
10
-504.08415374755867
20
62.322604974110938
10
-504.26143620808932
20
63.06608349482218
10
-504.39637629191088
20
63.820147609710709
10
-504.49691925048842
20
64.587437661488849
10
-504.5657135009767
20
65.365313307444268
10
-506.53419799804692
20
64.613897609710705
10
-508.6191159566244
20
64.293750000000003
10
-510.72522125244149
20
64.415460109710693
10
-512.75720316569027
20
64.976375484466587
10
-514.62782541910815
20
65.95268863042196
10
-516.25233866373708
20
67.299416828155529
10
-517.55674870808923
20
68.955707041422528
10
-518.48543879191084
20
70.850124677022308
10
-518.99871495564787
20
72.895356750488276
10
-519.06750920613615
20
75.004086240132665
10
-518.69446996053068
20
77.078418604532885
10
-517.89542312622075
20
79.031044896443703
10
-516.70214970906579
20
80.771999677022308
10
-516.51957041422531
20
80.983663113911959
10
-516.33702341715502
20
81.197983042399102
10
-516.15444412231454
20
81.412294896443711
10
-515.97454554239914
20
81.626606750488293
10
-515.79196624755866
20
81.838270187377944
10
-515.60941925048837
20
82.052582041422539
10
-515.42683995564789
20
82.266893895467135
10
-515.2442929585776
20
82.48120574951173
10
-515.06171366373701
20
82.692877260843929
10
-514.87916666666683
20
82.907189114888524
10
-514.49553375244147
20
83.333164405822771
10
-514.08806508382168
20
83.735336240132654
10
-513.65679295857751
20
84.113688468933105
10
-513.20701421101899
20
84.468229166666674
10
-512.73604812622079
20
84.793669573465991
10
-512.24657541910813
20
85.092641957600932
10
-511.74121220906579
20
85.365170542399099
10
-511.21999079386399
20
85.605934270222988
10
-510.6881757100424
20
85.817605781555187
10
-510.14311854044604
20
85.997520510355642
10
-510.60084253946957
20
86.915625000000006
10
-511.04800516764328
20
87.81256637573243
10
-511.47398045857756
20
88.680399386088055
10
-511.87880071004236
20
89.50589809417724
10
-512.25713678995771
20
90.283773740132673
10
-512.59845962524423
20
91.000792312622067
10
-512.90273691813161
20
91.651665051778167
10
-513.15937500000007
20
92.225814437866219
10
-513.3684061686198
20
92.709998385111504
10
-513.52185287475595
20
93.101584625244143
10
-514.19655329386399
20
95.088608042399088
10
-514.75746866861994
20
97.070334625244158
10
-515.21784108479824
20
99.052061208089214
10
-515.57767054239912
20
101.0284990310669
10
-515.84755071004236
20
103.00493685404462
10
-516.03274612426765
20
104.97872625986737
10
-516.13858591715507
20
106.95252374013266
10
-516.17033462524421
20
108.92896156311038
10
-516.13593750000007
20
110.90275096893313
10
-516.04069137573242
20
112.87918879191083
10
-515.8898607889812
20
114.85826695760093
10
-515.69142328898113
20
116.84000161488852
10
-515.45067571004233
20
118.82437661488852
10
-515.17285029093432
20
120.81404037475588
10
-514.86592458089194
20
122.80635255177819
10
-514.53254699707043
20
124.80660190582277
10
-514.18331120808932
20
126.81214809417726
10
-513.9002212524415
20
128.64306023915611
10
-513.64884770711274
20
130.57187500000001
10
-513.38426437377939
20
132.55096124013266
10
-513.05618362426776
20
134.53797658284509
10
-512.6222630818686
20
136.48795445760095
10
-512.03754425048839
20
138.36120897928876
10
-511.25438791910818
20
140.10745251973472
10
-510.2251548767091
20
141.68967183430991
10
-508.90488662719741
20
143.06021156311036
10
-507.24859237670904
20
144.17409706115723
10
-505.1980715433757
20
145.13190358479821
10
-503.05756912231453
20
145.86743685404463
10
-500.8879987080893
20
146.34103520711267
10
-498.74488016764332
20
146.51302083333337
10
-496.68111724853526
20
146.34633204142256
10
-494.75494283040376
20
145.79864260355632
10
-493.02458979288747
20
144.82762629191083
10
-491.54028116861986
20
143.39622141520184
10
-490.36286595662443
20
141.46476631164552
10
-489.54796091715502
20
138.99091860453291
10
-489.21193491617839
20
136.9800755818685
10
-489.07964324951172
20
134.9533743540446
10
-489.12198562622081
20
132.91607945760094
10
-489.3071810404461
20
130.86820704142255
10
-489.60616149902353
20
128.81239744822187
10
-489.98717829386402
20
126.74864260355633
10
-490.42109883626313
20
124.6822474161784
10
-490.8761744181316
20
122.61321188608807
10
-491.32065633138029
20
120.54151986440024
10
-491.72547658284509
20
118.47247625986736
10
-492.06150258382172
20
116.40608107248944
10
-492.29433720906576
20
114.34498271942141
10
-492.39752858479824
20
112.28916505177816
10
-492.33667958577485
20
110.24129263559979
10
-492.08530604044603
20
108.20399773915611
10
-491.61172383626308
20
106.17993685404463
10
-491.32860158284507
20
105.36766408284507
10
-490.98201421101896
20
104.58449967702231
10
-490.582490793864
20
103.8224983851115
10
-490.143273417155
20
103.07901986440024
10
-489.6776041666667
20
102.34347852071127
10
-489.19869283040373
20
101.61587435404462
10
-488.71716537475595
20
100.88827018737796
10
-488.24619928995776
20
100.15537726084392
10
-487.80171737670906
20
99.409250322977712
10
-487.39160029093432
20
98.647249031066906
10
-486.65869928995778
20
97.18939228057863
10
-485.92318216959643
20
95.731543604532888
10
-485.18763275146489
20
94.271038436889668
10
-484.46002858479824
20
92.807892926534038
10
-483.74298578898117
20
91.339458656311038
10
-483.04451421101896
20
89.865727551778178
10
-482.36716537475593
20
88.381418927510609
10
-481.71365229288745
20
86.883876291910823
10
-481.0945363362631
20
85.375748062133795
10
-480.50978520711271
20
83.85175355275473
10
-480.31399612426759
20
83.171772448221844
10
-480.13144912719736
20
82.290705426534018
10
-479.94886983235682
20
81.258832041422536
10
-479.75837758382164
20
80.129064114888507
10
-479.55199483235685
20
78.951665051778178
10
-479.31121495564781
20
77.782211240132654
10
-479.03342183430999
20
76.668309593200689
10
-478.70269266764325
20
75.665544573465993
10
-478.31111450195323
20
74.821523094177266
10
-477.84279683431004
20
74.191813468933105
10
-477.37712758382168
20
74.821523094177252
10
-476.98554941813154
20
75.665544573465979
10
-476.65482025146491
20
76.668309593200689
10
-476.3743464152019
20
77.782211240132682
10
-476.13621495564786
20
78.95166505177815
10
-475.92721608479826
20
80.129064114888507
10
-475.73933995564789
20
81.258832041422551
10
-475.5567929585776
20
82.290705426534032
10
-475.37421366373707
20
83.171772448221873
10
-475.17577616373705
20
83.85175355275473
10
-474.5937057495118
20
85.375748062133795
10
-473.97194137573251
20
86.883876291910823
10
-473.32107671101892
20
88.381418927510595
10
-472.64372787475594
20
89.865727551778164
10
-471.94257558186854
20
91.339458656311052
10
-471.22821350097661
20
92.807892926534038
10
-470.50060933430996
20
94.271038436889654
10
-469.76505991617847
20
95.731543604532888
10
-469.02951049804699
20
97.18939228057863
10
-468.29660949707034
20
98.647249031066906
10
-467.88652470906584
20
99.409250322977712
10
-467.44201049804695
20
100.15537726084392
10
-466.97107671101895
20
100.88827018737794
10
-466.48951695760098
20
101.61587435404459
10
-466.01063791910809
20
102.34347852071127
10
-465.5423202514649
20
103.07901986440024
10
-465.10575129191091
20
103.8224983851115
10
-464.70622787475588
20
104.58449967702231
10
-464.35699208577483
20
105.36766408284507
10
-464.07651824951182
20
106.1799368540446
10
-463.60025533040368
20
108.20399773915609
10
-463.34891408284511
20
110.24129263559979
10
-463.29071350097661
20
112.28916505177818
10
-463.39390487670903
20
114.34498271942141
10
-463.62673950195312
20
116.40608107248943
10
-463.96276550292981
20
118.47247625986738
10
-464.36755345662442
20
120.54151986440026
10
-464.8120676676433
20
122.61321188608807
10
-465.26714324951178
20
124.6822474161784
10
-465.69841537475588
20
126.74864260355633
10
-466.08204828898118
20
128.81239744822187
10
-466.37838033040367
20
130.86820704142255
10
-466.56625645955415
20
132.91607945760094
10
-466.60859883626307
20
134.95337435404463
10
-466.4763071695964
20
136.9800755818685
10
-466.14028116861982
20
138.99091860453291
10
-465.32534383138028
20
141.46476631164552
10
-464.14796091715505
20
143.39622141520184
10
-462.66365229288743
20
144.82762629191083
10
-460.93061854044606
20
145.79864260355632
10
-459.00709253946951
20
146.34633204142256
10
-456.94336191813159
20
146.51302083333334
10
-454.79759496053066
20
146.34103520711267
10
-452.62799224853518
20
145.86743685404463
10
-450.4901705423992
20
145.13190358479821
10
-448.43700129191092
20
144.17409706115725
10
-446.7807070414226
20
143.06021156311039
10
-445.4630872090658
20
141.68967183430991
10
-444.43385416666672
20
140.10745251973472
10
-443.65069783528656
20
138.36120897928876
10
-443.06329828898123
20
136.48795445760095
10
-442.63202616373712
20
134.53797658284509
10
-442.30394541422532
20
132.55096124013266
10
-442.03671366373703
20
130.57187500000003
10
-441.78537241617846
20
128.64306023915611
10
-441.50228246053069
20
126.81214809417726
10
-441.15301437377934
20
124.80660190582277
10
-440.82228520711271
20
122.80635255177816
10
-440.51535949707039
20
120.81404037475586
10
-440.23756637573251
20
118.82437661488852
10
-439.99678649902353
20
116.84000161488852
10
-439.79834899902352
20
114.85826695760093
10
-439.64755071004242
20
112.87918879191082
10
-439.55230458577483
20
110.90275096893311
10
-439.51790746053069
20
108.92896156311038
10
-439.54965616861983
20
106.95252374013266
10
-439.65546366373701
20
104.97872625986737
10
-439.83804295857749
20
103.00493685404462
10
-440.10792312622073
20
101.0284990310669
10
-440.47040100097666
20
99.052061208089199
10
-440.92812500000008
20
97.070334625244143
10
-441.49168879191086
20
95.088608042399102
10
-442.16374079386401
20
93.101584625244158
10
-442.36482671101891
20
92.598877906799331
10
-442.64791666666673
20
91.9532939275106
10
-443.00509770711272
20
91.178058624267607
10
-443.42577616373711
20
90.294351259867369
10
-443.89939066569013
20
89.318038113911967
10
-444.41534754435224
20
88.267641957600929
10
-444.9630208333333
20
87.164333979288756
10
-445.53188145955409
20
86.021332041422539
10
-446.1113034566244
20
84.859815406799328
10
-446.69340616861979
20
83.695642280578625
10
-445.57157541910811
20
83.735336240132654
10
-444.45500920613608
20
83.64801921844483
10
-443.35436579386402
20
83.436355781555193
10
-442.28279037475596
20
83.105626614888521
10
-441.25620574951176
20
82.653191375732433
10
-440.28782170613613
20
82.092267926534035
10
-439.38826421101896
20
81.425520833333351
10
-438.56803003946942
20
80.660871124267587
10
-437.83777745564794
20
79.808920542399093
10
-437.20806783040371
20
78.88287887573243
10
-437.15781250000009
20
78.795561854044607
10
-437.10490875244147
20
78.710893249511727
10
-437.05462112426767
20
78.623584302266465
10
-437.00171737670905
20
78.538915697733557
10
-436.95142974853525
20
78.454247093200706
10
-436.89852600097657
20
78.366938145955416
10
-436.84823837280277
20
78.282269541422536
10
-436.79533462524421
20
78.194960594177275
0
LINE
5
106
100
AcDbEntity
8
0
100
AcDbLine
10
-332.53890762329104
20
271.29581120808922
30
0
11
-332.58654683430996
21
271.15027745564782
31
0
0
LINE
5
107
100
AcDbEntity
8
0
100
AcDbLine
10
-332.58654683430996
20
271.15027745564782
30
0
11
-332.58389841715507
21
269.9332005818685
31
0
0
LINE
5
108
100
AcDbEntity
8
0
100
AcDbLine
10
-332.58389841715507
20
269.9332005818685
30
0
11
-332.38016408284511
21
268.74522399902344
31
0
0
LINE
5
109
100
AcDbEntity
8
0
100
AcDbLine
10
-332.38016408284511
20
268.74522399902344
30
0
11
-332.01768620808923
21
267.58106702168783
31
0
0
LINE
5
110
100
AcDbEntity
8
0
100
AcDbLine
10
-332.01768620808923
20
267.58106702168783
30
0
11
-331.53351033528651
21
266.43276824951175
31
0
0
LINE
5
111
100
AcDbEntity
8
0
100
AcDbLine
10
-331.53351033528651
20
266.43276824951175
30
0
11
-330.96994654337573
21
265.29241472880051
31
0
0
LINE
5
112
100
AcDbEntity
8
0
100
AcDbLine
10
-330.96994654337573
20
265.29241472880051
30
0
11
-330.36404037475592
21
264.1573580423991
31
0
0
LINE
5
113
100
AcDbEntity
8
0
100
AcDbLine
10
-330.36404037475592
20
264.1573580423991
30
0
11
-329.76078262329111
21
263.01700452168785
31
0
0
LINE
5
114
100
AcDbEntity
8
0
100
AcDbLine
10
-329.76078262329111
20
263.01700452168785
30
0
11
-329.19457041422527
21
261.86870574951178
31
0
0
LINE
5
115
100
AcDbEntity
8
0
100
AcDbLine
10
-329.19457041422527
20
261.86870574951178
30
0
11
-328.71039454142254
21
260.70190035502117
31
0
0
LINE
5
116
100
AcDbEntity
8
0
100
AcDbLine
10
-328.71039454142254
20
260.70190035502117
30
0
11
-328.34526824951178
21
259.51127535502121
31
0
0
LINE
5
117
100
AcDbEntity
8
0
100
AcDbLine
10
-328.34526824951178
20
259.51127535502121
30
0
11
-328.12832412719729
21
258.50321350097664
31
0
0
LINE
5
118
100
AcDbEntity
8
0
100
AcDbLine
10
-328.12832412719729
20
258.50321350097664
30
0
11
-327.8901926676433
21
257.18294525146484
31
0
0
LINE
5
119
100
AcDbEntity
8
0
100
AcDbLine
10
-327.8901926676433
20
257.18294525146484
30
0
11
-327.64676437377938
21
255.61660029093429
31
0
0
LINE
5
120
100
AcDbEntity
8
0
100
AcDbLine
10
-327.64676437377938
20
255.61660029093429
30
0
11
-327.41128133138028
21
253.88093427022301
31
0
0
LINE
5
121
100
AcDbEntity
8
0
100
AcDbLine
10
-327.41128133138028
20
253.88093427022301
30
0
11
-327.19698562622079
21
252.04472529093431
31
0
0
LINE
5
122
100
AcDbEntity
8
0
100
AcDbLine
10
-327.19698562622079
20
252.04472529093431
30
0
11
-327.01705474853526
21
250.18206443786625
31
0
0
LINE
5
123
100
AcDbEntity
8
0
100
AcDbLine
10
-327.01705474853526
20
250.18206443786625
30
0
11
-326.89005991617842
21
248.36172981262209
31
0
0
LINE
5
124
100
AcDbEntity
8
0
100
AcDbLine
10
-326.89005991617842
20
248.36172981262209
30
0
11
-326.82921091715502
21
246.65781250000006
31
0
0
LINE
5
125
100
AcDbEntity
8
0
100
AcDbLine
10
-326.82921091715502
20
246.65781250000006
30
0
11
-326.8477175394695
21
245.13910675048831
31
0
0
LINE
5
126
100
AcDbEntity
8
0
100
AcDbLine
10
-326.8477175394695
20
245.13910675048831
30
0
11
-326.95885416666675
21
243.87968750000002
31
0
0
LINE
5
127
100
AcDbEntity
8
0
100
AcDbLine
10
-326.95885416666675
20
243.87968750000002
30
0
11
-327.34513549804689
21
241.68629748026532
31
0
0
LINE
5
128
100
AcDbEntity
8
0
100
AcDbLine
10
-327.34513549804689
20
241.68629748026532
30
0
11
-327.83990503946944
21
239.5722630818685
31
0
0
LINE
5
129
100
AcDbEntity
8
0
100
AcDbLine
10
-327.83990503946944
20
239.5722630818685
30
0
11
-328.44051437377937
21
237.53498433430994
31
0
0
LINE
5
130
100
AcDbEntity
8
0
100
AcDbLine
10
-328.44051437377937
20
237.53498433430994
30
0
11
-329.14166666666677
21
235.57970962524419
31
0
0
LINE
5
131
100
AcDbEntity
8
0
100
AcDbLine
10
-329.14166666666677
20
235.57970962524419
30
0
11
-329.94336191813159
21
233.70645510355638
31
0
0
LINE
5
132
100
AcDbEntity
8
0
100
AcDbLine
10
-329.94336191813159
20
233.70645510355638
30
0
11
-330.84030329386394
21
231.91523691813157
31
0
0
LINE
5
133
100
AcDbEntity
8
0
100
AcDbLine
10
-330.84030329386394
20
231.91523691813157
30
0
11
-331.82984237670905
21
230.20867118835451
31
0
0
LINE
5
134
100
AcDbEntity
8
0
100
AcDbLine
10
-331.82984237670905
20
230.20867118835451
30
0
11
-332.90933074951175
21
228.58412564595545
31
0
0
LINE
5
135
100
AcDbEntity
8
0
100
AcDbLine
10
-332.90933074951175
20
228.58412564595545
30
0
11
-334.07350387573246
21
227.04424870808921
31
0
0
LINE
5
136
100
AcDbEntity
8
0
100
AcDbLine
10
-334.07350387573246
20
227.04424870808921
30
0
11
-335.31968104044603
21
225.5943372090658
31
0
0
LINE
5
137
100
AcDbEntity
8
0
100
AcDbLine
10
-335.31968104044603
20
225.5943372090658
30
0
11
-336.64259770711271
21
224.22907816569017
31
0
0
LINE
5
138
100
AcDbEntity
8
0
100
AcDbLine
10
-336.64259770711271
20
224.22907816569017
30
0
11
-338.04490229288746
21
222.95115229288743
31
0
0
LINE
5
139
100
AcDbEntity
8
0
100
AcDbLine
10
-338.04490229288746
20
222.95115229288743
30
0
11
-339.51596883138023
21
221.76315956115727
31
0
0
LINE
5
140
100
AcDbEntity
8
0
100
AcDbLine
10
-339.51596883138023
20
221.76315956115727
30
0
11
-341.05851033528654
21
220.66779683430994
31
0
0
LINE
5
141
100
AcDbEntity
8
0
100
AcDbLine
10
-341.05851033528654
20
220.66779683430994
30
0
11
-342.66451695760099
21
219.65973498026534
31
0
0
LINE
5
142
100
AcDbEntity
8
0
100
AcDbLine
10
-342.66451695760099
20
219.65973498026534
30
0
11
-344.33405329386397
21
218.7469192504883
31
0
0
LINE
5
143
100
AcDbEntity
8
0
100
AcDbLine
10
-344.33405329386397
20
218.7469192504883
30
0
11
-346.06440633138021
21
217.92406895955409
31
0
0
LINE
5
144
100
AcDbEntity
8
0
100
AcDbLine
10
-346.06440633138021
20
217.92406895955409
30
0
11
-347.84769541422531
21
217.19646479288738
31
0
0
LINE
5
145
100
AcDbEntity
8
0
100
AcDbLine
10
-347.84769541422531
20
217.19646479288738
30
0
11
-349.68392054239916
21
216.56410675048832
31
0
0
LINE
5
146
100
AcDbEntity
8
0
100
AcDbLine
10
-349.68392054239916
20
216.56410675048832
30
0
11
-351.56775258382169
21
216.02699483235682
31
0
0
LINE
5
147
100
AcDbEntity
8
0
100
AcDbLine
10
-351.56775258382169
20
216.02699483235682
30
0
11
-353.49657541910813
21
215.58779360453289
31
0
0
LINE
5
148
100
AcDbEntity
8
0
100
AcDbLine
10
-353.49657541910813
20
215.58779360453289
30
0
11
-355.47035675048841
21
215.24648691813152
31
0
0
LINE
5
149
100
AcDbEntity
8
0
100
AcDbLine
10
-355.47035675048841
20
215.24648691813152
30
0
11
-357.4811836242676
21
215.0030586242676
31
0
0
LINE
5
150
100
AcDbEntity
8
0
100
AcDbLine
10
-357.4811836242676
20
215.0030586242676
30
0
11
-359.52905604044599
21
214.8575410207113
31
0
0
LINE
5
151
100
AcDbEntity
8
0
100
AcDbLine
10
-359.52905604044599
20
214.8575410207113
30
0
11
-361.60602874755864
21
214.81521479288742
31
0
0
LINE
5
152
100
AcDbEntity
8
0
100
AcDbLine
10
-361.60602874755864
20
214.81521479288742
30
0
11
-363.71478246053067
21
214.87341537475589
31
0
0
LINE
5
153
100
AcDbEntity
8
0
100
AcDbLine
10
-363.71478246053067
20
214.87341537475589
30
0
11
-365.84730733235682
21
215.03480733235679
31
0
0
LINE
5
154
100
AcDbEntity
8
0
100
AcDbLine
10
-365.84730733235682
20
215.03480733235679
30
0
11
-368.00366795857747
21
215.29939066569014
31
0
0
LINE
5
155
100
AcDbEntity
8
0
100
AcDbLine
10
-368.00366795857747
20
215.29939066569014
30
0
11
-369.53561579386405
21
215.56662241617843
31
0
0
LINE
5
156
100
AcDbEntity
8
0
100
AcDbLine
10
-369.53561579386405
20
215.56662241617843
30
0
11
-370.9564270019531
21
215.89735158284509
31
0
0
LINE
5
157
100
AcDbEntity
8
0
100
AcDbLine
10
-370.9564270019531
20
215.89735158284509
30
0
11
-372.28725662231454
21
216.28629748026532
31
0
0
LINE
5
158
100
AcDbEntity
8
0
100
AcDbLine
10
-372.28725662231454
20
216.28629748026532
30
0
11
-373.54667587280278
21
216.73344395955408
31
0
0
LINE
5
159
100
AcDbEntity
8
0
100
AcDbLine
10
-373.54667587280278
20
216.73344395955408
30
0
11
-374.7584882100424
21
217.23086191813155
31
0
0
LINE
5
160
100
AcDbEntity
8
0
100
AcDbLine
10
-374.7584882100424
20
217.23086191813155
30
0
11
-375.94646479288741
21
217.77590293884282
31
0
0
LINE
5
161
100
AcDbEntity
8
0
100
AcDbLine
10
-375.94646479288741
20
217.77590293884282
30
0
11
-377.12649612426759
21
218.36856702168785
31
0
0
LINE
5
162
100
AcDbEntity
8
0
100
AcDbLine
10
-377.12649612426759
20
218.36856702168785
30
0
11
-378.32771479288743
21
219.00090891520182
31
0
0
LINE
5
163
100
AcDbEntity
8
0
100
AcDbLine
10
-378.32771479288743
20
219.00090891520182
30
0
11
-379.56594670613612
21
219.672960917155
31
0
0
LINE
5
164
100
AcDbEntity
8
0
100
AcDbLine
10
-379.56594670613612
20
219.672960917155
30
0
11
-380.86505991617844
21
220.37939389546716
31
0
0
LINE
5
165
100
AcDbEntity
8
0
100
AcDbLine
10
-380.86505991617844
20
220.37939389546716
30
0
11
-381.82814712524419
21
218.55641085306809
31
0
0
LINE
5
166
100
AcDbEntity
8
0
100
AcDbLine
10
-381.82814712524419
20
218.55641085306809
30
0
11
-383.14311854044604
21
216.971559270223
31
0
0
LINE
5
167
100
AcDbEntity
8
0
100
AcDbLine
10
-383.14311854044604
20
216.971559270223
30
0
11
-384.75442199707038
21
215.6883365631104
31
0
0
LINE
5
168
100
AcDbEntity
8
0
100
AcDbLine
10
-384.75442199707038
20
215.6883365631104
30
0
11
-386.59594395955412
21
214.76229489644371
31
0
0
LINE
5
169
100
AcDbEntity
8
0
100
AcDbLine
10
-386.59594395955412
20
214.76229489644371
30
0
11
-388.58826421101895
21
214.23577664693198
31
0
0
LINE
5
170
100
AcDbEntity
8
0
100
AcDbLine
10
-388.58826421101895
20
214.23577664693198
30
0
11
-390.64404958089199
21
214.12728843688967
31
0
0
LINE
5
171
100
AcDbEntity
8
0
100
AcDbLine
10
-390.64404958089199
20
214.12728843688967
30
0
11
-392.68136062622079
21
214.44214324951176
31
0
0
LINE
5
172
100
AcDbEntity
8
0
100
AcDbLine
10
-392.68136062622079
20
214.44214324951176
30
0
11
-394.61015116373699
21
215.16709899902349
31
0
0
LINE
5
173
100
AcDbEntity
8
0
100
AcDbLine
10
-394.61015116373699
20
215.16709899902349
30
0
11
-396.3484817504883
21
216.27305539449057
31
0
0
LINE
5
174
100
AcDbEntity
8
0
100
AcDbLine
10
-396.3484817504883
20
216.27305539449057
30
0
11
-397.82219670613608
21
217.7123893737793
31
0
0
LINE
5
175
100
AcDbEntity
8
0
100
AcDbLine
10
-397.82219670613608
20
217.7123893737793
30
0
11
-397.88834253946948
21
217.78912887573244
31
0
0
LINE
5
176
100
AcDbEntity
8
0
100
AcDbLine
10
-397.88834253946948
20
217.78912887573244
30
0
11
-397.95183995564787
21
217.86585222880049
31
0
0
LINE
5
177
100
AcDbEntity
8
0
100
AcDbLine
10
-397.95183995564787
20
217.86585222880049
30
0
11
-398.0153696695964
21
217.94257558186854
31
0
0
LINE
5
178
100
AcDbEntity
8
0
100
AcDbLine
10
-398.0153696695964
20
217.94257558186854
30
0
11
-398.07886708577479
21
218.01931508382165
31
0
0
LINE
5
179
100
AcDbEntity
8
0
100
AcDbLine
10
-398.07886708577479
20
218.01931508382165
30
0
11
-398.14236450195324
21
218.09603843688967
31
0
0
LINE
5
180
100
AcDbEntity
8
0
100
AcDbLine
10
-398.14236450195324
20
218.09603843688967
30
0
11
-398.20851033528646
21
218.17277793884278
31
0
0
LINE
5
181
100
AcDbEntity
8
0
100
AcDbLine
10
-398.20851033528646
20
218.17277793884278
30
0
11
-398.33550516764325
21
218.32622464497888
31
0
0
LINE
5
182
100
AcDbEntity
8
0
100
AcDbLine
10
-398.33550516764325
20
218.32622464497888
30
0
11
-398.39900258382164
21
218.40296414693199
31
0
0
LINE
5
183
100
AcDbEntity
8
0
100
AcDbLine
10
-398.39900258382164
20
218.40296414693199
30
0
11
-398.46250000000003
21
218.47968750000004
31
0
0
LINE
5
184
100
AcDbEntity
8
0
100
AcDbLine
10
-398.46250000000003
20
218.47968750000004
30
0
11
-399.49967829386395
21
219.98251889546714
31
0
0
LINE
5
185
100
AcDbEntity
8
0
100
AcDbLine
10
-399.49967829386395
20
219.98251889546714
30
0
11
-400.24314066569019
21
221.64939066569013
31
0
0
LINE
5
186
100
AcDbEntity
8
0
100
AcDbLine
10
-400.24314066569019
20
221.64939066569013
30
0
11
-400.6744127909343
21
223.42475064595544
31
0
0
LINE
5
187
100
AcDbEntity
8
0
100
AcDbLine
10
-400.6744127909343
20
223.42475064595544
30
0
11
-400.77495574951178
21
225.24773368835451
31
0
0
LINE
5
188
100
AcDbEntity
8
0
100
AcDbLine
10
-400.77495574951178
20
225.24773368835451
30
0
11
-400.54212112426768
21
227.05747464497887
31
0
0
LINE
5
189
100
AcDbEntity
8
0
100
AcDbLine
10
-400.54212112426768
20
227.05747464497887
30
0
11
-399.98385416666673
21
228.79578908284509
31
0
0
LINE
5
190
100
AcDbEntity
8
0
100
AcDbLine
10
-399.98385416666673
20
228.79578908284509
30
0
11
-399.11866149902352
21
230.40446027119955
31
0
0
LINE
5
191
100
AcDbEntity
8
0
100
AcDbLine
10
-399.11866149902352
20
230.40446027119955
30
0
11
-397.97567571004237
21
231.82791989644372
31
0
0
LINE
5
192
100
AcDbEntity
8
0
100
AcDbLine
10
-397.97567571004237
20
231.82791989644372
30
0
11
-396.59452616373704
21
233.0185448964437
31
0
0
LINE
5
193
100
AcDbEntity
8
0
100
AcDbLine
10
-396.59452616373704
20
233.0185448964437
30
0
11
-395.01761983235679
21
233.9392897288005
31
0
0
LINE
5
194
100
AcDbEntity
8
0
100
AcDbLine
10
-395.01761983235679
20
233.9392897288005
30
0
11
-395.56532541910815
21
234.50815035502117
31
0
0
LINE
5
195
100
AcDbEntity
8
0
100
AcDbLine
10
-395.56532541910815
20
234.50815035502117
30
0
11
-396.1182955423991
21
235.07699483235683
31
0
0
LINE
5
196
100
AcDbEntity
8
0
100
AcDbLine
10
-396.1182955423991
20
235.07699483235683
30
0
11
-396.67391408284516
21
235.64320704142256
31
0
0
LINE
5
197
100
AcDbEntity
8
0
100
AcDbLine
10
-396.67391408284516
20
235.64320704142256
30
0
11
-397.23482945760099
21
236.20941925048834
31
0
0
LINE
5
198
100
AcDbEntity
8
0
100
AcDbLine
10
-397.23482945760099
20
236.20941925048834
30
0
11
-397.80104166666672
21
236.77563145955406
31
0
0
LINE
5
199
100
AcDbEntity
8
0
100
AcDbLine
10
-397.80104166666672
20
236.77563145955406
30
0
11
-398.37255071004245
21
237.34182751973475
31
0
0
LINE
5
200
100
AcDbEntity
8
0
100
AcDbLine
10
-398.37255071004245
20
237.34182751973475
30
0
11
-398.94932428995776
21
237.91333656311039
31
0
0
LINE
5
201
100
AcDbEntity
8
0
100
AcDbLine
10
-398.94932428995776
20
237.91333656311039
30
0
11
-399.53407541910815
21
238.48482945760097
31
0
0
LINE
5
202
100
AcDbEntity
8
0
100
AcDbLine
10
-399.53407541910815
20
238.48482945760097
30
0
11
-400.12409108479824
21
239.05898691813152
31
0
0
LINE
5
203
100
AcDbEntity
8
0
100
AcDbLine
10
-400.12409108479824
20
239.05898691813152
30
0
11
-400.72205200195322
21
239.63577664693196
31
0
0
LINE
5
204
100
AcDbEntity
8
0
100
AcDbLine
10
-400.72205200195322
20
239.63577664693196
30
0
11
-401.16918233235685
21
240.20726954142259
31
0
0
LINE
5
205
100
AcDbEntity
8
0
100
AcDbLine
10
-401.16918233235685
20
240.20726954142259
30
0
11
-401.5131535847982
21
240.91635093688967
31
0
0
LINE
5
206
100
AcDbEntity
8
0
100
AcDbLine
10
-401.5131535847982
20
240.91635093688967
30
0
11
-401.76714324951178
21
241.73127212524417
31
0
0
LINE
5
207
100
AcDbEntity
8
0
100
AcDbLine
10
-401.76714324951178
20
241.73127212524417
30
0
11
-401.95498708089195
21
242.60439389546715
31
0
0
LINE
5
208
100
AcDbEntity
8
0
100
AcDbLine
10
-401.95498708089195
20
242.60439389546715
30
0
11
-402.08463033040368
21
243.50398368835454
31
0
0
LINE
5
209
100
AcDbEntity
8
0
100
AcDbLine
10
-402.08463033040368
20
243.50398368835454
30
0
11
-402.17990875244141
21
244.38503456115725
31
0
0
LINE
5
210
100
AcDbEntity
8
0
100
AcDbLine
10
-402.17990875244141
20
244.38503456115725
30
0
11
-402.25131912231456
21
245.20790100097659
31
0
0
LINE
5
211
100
AcDbEntity
8
0
100
AcDbLine
10
-402.25131912231456
20
245.20790100097659
30
0
11
-402.32011337280284
21
245.93550516764327
31
0
0
LINE
5
212
100
AcDbEntity
8
0
100
AcDbLine
10
-402.32011337280284
20
245.93550516764327
30
0
11
-402.39950129191084
21
246.5281692504883
31
0
0
LINE
5
213
100
AcDbEntity
8
0
100
AcDbLine
10
-402.39950129191084
20
246.5281692504883
30
0
11
-402.50798950195315
21
246.94621543884281
31
0
0
LINE
5
214
100
AcDbEntity
8
0
100
AcDbLine
10
-402.50798950195315
20
246.94621543884281
30
0
11
-403.64567845662441
21
249.51530927022301
31
0
0
LINE
5
215
100
AcDbEntity
8
0
100
AcDbLine
10
-403.64567845662441
20
249.51530927022301
30
0
11
-404.72255071004241
21
251.57642377217613
31
0
0
LINE
5
216
100
AcDbEntity
8
0
100
AcDbLine
10
-404.72255071004241
20
251.57642377217613
30
0
11
-405.73854166666672
21
253.24857622782392
31
0
0
LINE
5
217
100
AcDbEntity
8
0
100
AcDbLine
10
-405.73854166666672
20
253.24857622782392
30
0
11
-406.68838678995769
21
254.6588099161784
31
0
0
LINE
5
218
100
AcDbEntity
8
0
100
AcDbLine
10
-406.68838678995769
20
254.6588099161784
30
0
11
-407.57473449707044
21
255.92880668640137
31
0
0
LINE
5
219
100
AcDbEntity
8
0
100
AcDbLine
10
-407.57473449707044
20
255.92880668640137
30
0
11
-408.39496866861987
21
257.1829452514649
31
0
0
LINE
5
220
100
AcDbEntity
8
0
100
AcDbLine
10
-408.39496866861987
20
257.1829452514649
30
0
11
-409.14637629191083
21
258.54553972880046
31
0
0
LINE
5
221
100
AcDbEntity
8
0
100
AcDbLine
10
-409.14637629191083
20
258.54553972880046
30
0
11
-409.82898966471362
21
260.13833656311033
31
0
0
LINE
5
222
100
AcDbEntity
8
0
100
AcDbLine
10
-409.82898966471362
20
260.13833656311033
30
0
11
-410.4428410847982
21
262.08831443786625
31
0
0
LINE
5
223
100
AcDbEntity
8
0
100
AcDbLine
10
-410.4428410847982
20
262.08831443786625
30
0
11
-410.98256912231449
21
264.51983591715498
31
0
0
LINE
5
224
100
AcDbEntity
8
0
100
AcDbLine
10
-410.98256912231449
20
264.51983591715498
30
0
11
-411.45088678995768
21
267.55195058186854
31
0
0
LINE
5
225
100
AcDbEntity
8
0
100
AcDbLine
10
-411.45088678995768
20
267.55195058186854
30
0
11
-411.54613291422538
21
268.63675193786628
31
0
0
LINE
5
226
100
AcDbEntity
8
0
100
AcDbLine
10
-411.54613291422538
20
268.63675193786628
30
0
11
-411.60171737670908
21
270.13428649902346
31
0
0
LINE
5
227
100
AcDbEntity
8
0
100
AcDbLine
10
-411.60171737670908
20
270.13428649902346
30
0
11
-411.58582687377935
21
271.93611450195317
31
0
0
LINE
5
228
100
AcDbEntity
8
0
100
AcDbLine
10
-411.58582687377935
20
271.93611450195317
30
0
11
-411.46677729288746
21
273.93634770711265
31
0
0
LINE
5
229
100
AcDbEntity
8
0
100
AcDbLine
10
-411.46677729288746
20
273.93634770711265
30
0
11
-411.21540374755858
21
276.02656250000001
31
0
0
LINE
5
230
100
AcDbEntity
8
0
100
AcDbLine
10
-411.21540374755858
20
276.02656250000001
30
0
11
-410.80531895955409
21
278.10353520711266
31
0
0
LINE
5
231
100
AcDbEntity
8
0
100
AcDbLine
10
-410.80531895955409
20
278.10353520711266
30
0
11
-410.19941279093428
21
280.05880991617846
31
0
0
LINE
5
232
100
AcDbEntity
8
0
100
AcDbLine
10
-410.19941279093428
20
280.05880991617846
30
0
11
-409.37391408284509
21
281.783898417155
31
0
0
LINE
5
233
100
AcDbEntity
8
0
100
AcDbLine
10
-409.37391408284509
20
281.783898417155
30
0
11
-408.29442571004233
21
283.17296091715502
31
0
0
LINE
5
234
100
AcDbEntity
8
0
100
AcDbLine
10
-408.29442571004233
20
283.17296091715502
30
0
11
-406.93446350097656
21
284.12280604044599
31
0
0
LINE
5
235
100
AcDbEntity
8
0
100
AcDbLine
10
-406.93446350097656
20
284.12280604044599
30
0
11
-404.99243087768554
21
284.91125920613615
31
0
0
LINE
5
236
100
AcDbEntity
8
0
100
AcDbLine
10
-404.99243087768554
20
284.91125920613615
30
0
11
-403.03980458577485
21
285.5171653747559
31
0
0
LINE
5
237
100
AcDbEntity
8
0
100
AcDbLine
10
-403.03980458577485
20
285.5171653747559
30
0
11
-401.0792330423991
21
285.9563827514649
31
0
0
LINE
5
238
100
AcDbEntity
8
0
100
AcDbLine
10
-401.0792330423991
20
285.9563827514649
30
0
11
-399.10806783040368
21
286.2474179585775
31
0
0
LINE
5
239
100
AcDbEntity
8
0
100
AcDbLine
10
-399.10806783040368
20
286.2474179585775
30
0
11
-397.13163808186857
21
286.40086466471359
31
0
0
LINE
5
240
100
AcDbEntity
8
0
100
AcDbLine
10
-397.13163808186857
20
286.40086466471359
30
0
11
-395.14726308186857
21
286.43791020711268
31
0
0
LINE
5
241
100
AcDbEntity
8
0
100
AcDbLine
10
-395.14726308186857
20
286.43791020711268
30
0
11
-393.15759124755863
21
286.37441279093429
31
0
0
LINE
5
242
100
AcDbEntity
8
0
100
AcDbLine
10
-393.15759124755863
20
286.37441279093429
30
0
11
-391.16265487670898
21
286.22361450195319
31
0
0
LINE
5
243
100
AcDbEntity
8
0
100
AcDbLine
10
-391.16265487670898
20
286.22361450195319
30
0
11
-389.16503779093426
21
286.00134124755863
31
0
0
LINE
5
244
100
AcDbEntity
8
0
100
AcDbLine
10
-389.16503779093426
20
286.00134124755863
30
0
11
-387.16480458577479
21
285.72884496053064
31
0
0
LINE
5
245
100
AcDbEntity
8
0
100
AcDbLine
10
-387.16480458577479
20
285.72884496053064
30
0
11
-385.16189066569012
21
285.41927083333337
31
0
0
LINE
5
246
100
AcDbEntity
8
0
100
AcDbLine
10
-385.16189066569012
20
285.41927083333337
30
0
11
-383.15900904337576
21
285.08854166666674
31
0
0
LINE
5
247
100
AcDbEntity
8
0
100
AcDbLine
10
-383.15900904337576
20
285.08854166666674
30
0
11
-381.15609512329104
21
284.75251566569011
31
0
0
LINE
5
248
100
AcDbEntity
8
0
100
AcDbLine
10
-381.15609512329104
20
284.75251566569011
30
0
11
-379.15321350097662
21
284.42708333333337
31
0
0
LINE
5
249
100
AcDbEntity
8
0
100
AcDbLine
10
-379.15321350097662
20
284.42708333333337
30
0
11
-377.15294799804695
21
284.13075129191083
31
0
0
LINE
5
250
100
AcDbEntity
8
0
100
AcDbLine
10
-377.15294799804695
20
284.13075129191083
30
0
11
-375.15801162719731
21
283.87676162719731
31
0
0
LINE
5
251
100
AcDbEntity
8
0
100
AcDbLine
10
-375.15801162719731
20
283.87676162719731
30
0
11
-373.16304295857753
21
283.686237080892
31
0
0
LINE
5
252
100
AcDbEntity
8
0
100
AcDbLine
10
-373.16304295857753
20
283.686237080892
30
0
11
-371.17601954142259
21
283.56983591715499
31
0
0
LINE
5
253
100
AcDbEntity
8
0
100
AcDbLine
10
-371.17601954142259
20
283.56983591715499
30
0
11
-369.19429295857753
21
283.54603246053063
31
0
0
LINE
5
254
100
AcDbEntity
8
0
100
AcDbLine
10
-369.19429295857753
20
283.54603246053063
30
0
11
-367.21786321004237
21
283.63068491617844
31
0
0
LINE
5
255
100
AcDbEntity
8
0
100
AcDbLine
10
-367.21786321004237
20
283.63068491617844
30
0
11
-365.13824208577483
21
283.82912241617839
31
0
0
LINE
5
256
100
AcDbEntity
8
0
100
AcDbLine
10
-365.13824208577483
20
283.82912241617839
30
0
11
-363.05067571004236
21
284.10959625244141
31
0
0
LINE
5
257
100
AcDbEntity
8
0
100
AcDbLine
10
-363.05067571004236
20
284.10959625244141
30
0
11
-360.95251566569016
21
284.45088678995774
31
0
0
LINE
5
258
100
AcDbEntity
8
0
100
AcDbLine
10
-360.95251566569016
20
284.45088678995774
30
0
11
-358.85173950195326
21
284.83190358479823
31
0
0
LINE
5
259
100
AcDbEntity
8
0
100
AcDbLine
10
-358.85173950195326
20
284.83190358479823
30
0
11
-356.74563420613606
21
285.23407541910808
31
0
0
LINE
5
260
100
AcDbEntity
8
0
100
AcDbLine
10
-356.74563420613606
20
285.23407541910808
30
0
11
-354.63691279093428
21
285.63886337280275
31
0
0
LINE
5
261
100
AcDbEntity
8
0
100
AcDbLine
10
-354.63691279093428
20
285.63886337280275
30
0
11
-352.53083979288749
21
286.02252858479824
31
0
0
LINE
5
262
100
AcDbEntity
8
0
100
AcDbLine
10
-352.53083979288749
20
286.02252858479824
30
0
11
-350.42473449707029
21
286.37176437377934
31
0
0
LINE
5
263
100
AcDbEntity
8
0
100
AcDbLine
10
-350.42473449707029
20
286.37176437377934
30
0
11
-348.32130991617845
21
286.66015116373705
31
0
0
LINE
5
264
100
AcDbEntity
8
0
100
AcDbLine
10
-348.32130991617845
20
286.66015116373705
30
0
11
-346.22318216959638
21
286.87183074951179
31
0
0
LINE
5
265
100
AcDbEntity
8
0
100
AcDbLine
10
-346.22318216959638
20
286.87183074951179
30
0
11
-344.13296737670908
21
286.98826421101893
31
0
0
SPLINE
5
266
100
AcDbEntity
8
0
100
AcDbSpline
70
4
71
5
72
31
73
25
74
0
42
0.000000001
43
0.0000000001
44
0.0000000001
40
-1
40
-1
40
-1
40
-1
40
-1
40
-1
40
-0.95000000000000029
40
-0.90000000000000024
40
-0.8500000000000002
40
-0.80000000000000016
40
-0.75000000000000011
40
-0.70000000000000007
40
-0.65000000000000002
40
-0.59999999999999998
40
-0.54999999999999993
40
-0.49999999999999994
40
-0.44999999999999996
40
-0.39999999999999997
40
-0.34999999999999998
40
-0.29999999999999999
40
-0.25
40
-0.20000000000000001
40
-0.15000000000000002
40
-0.10000000000000001
40
-0.050000000000000003
40
0
40
0
40
0
40
0
40
0
40
0
41
1
41
1
41
1
41
1
41
1
41
1
41
1
41
1
41
1
41
1
41
1
41
1
41
1
41
1
41
1
41
1
41
1
41
1
41
1
41
1
41
1
41
1
41
1
41
1
41
1
10
-344.13296737670908
20
286.98826421101893
30
0
10
-343.92463616562952
20
286.96701826164781
30
0
10
-343.51541931279888
20
286.91142216810539
30
0
10
-342.92393108486078
20
286.78871485905597
30
0
10
-342.18013355400012
20
286.54616296751226
30
0
10
-341.32525565076668
20
286.11127736471275
30
0
10
-340.54363608259519
20
285.54775010072814
30
0
10
-339.83065224860019
20
284.8641638116398
30
0
10
-339.17687704235971
20
284.07784809175394
30
0
10
-338.56737897108985
20
283.21623957682289
30
0
10
-337.98529286956477
20
282.31094935238815
30
0
10
-337.41467221337882
20
281.39307361924966
30
0
10
-336.84353214105056
20
280.48817694177819
30
0
10
-336.26698058341157
20
279.61116206385066
30
0
10
-335.69003103373302
20
278.76161600107702
30
0
10
-335.12420109413802
20
277.92874170134178
30
0
10
-334.58455538536282
20
277.09557122392187
30
0
10
-334.08668827438134
20
276.24325092427659
30
0
10
-333.64362943433525
20
275.35536976844929
30
0
10
-333.26300719633218
20
274.42192302179626
30
0
10
-332.94864199020503
20
273.43750570868588
30
0
10
-332.75112809710606
20
272.6074856739391
30
0
10
-332.63328554032677
20
271.96095102101305
30
0
10
-332.56813218740228
20
271.51929641533593
30
0
10
-332.53890762329104
20
271.29581120808922
30
0
0
LWPOLYLINE
5
267
100
AcDbEntity
8
0
100
AcDbPolyline
90
309
70
1
43
0.0
10
-211.76697733872777
20
37.590894117396836
10
-213.32801739050598
20
37.887226158819338
10
-214.10589303646137
20
38.035392179530625
10
-215.75425010992734
20
39.20220564846371
10
-217.38672879212749
20
40.390184249919407
10
-219.01127029730532
20
41.591392825486011
10
-220.63051900539452
20
42.800538578074914
10
-222.25241613063861
20
44.004393552185839
10
-223.88225043290507
20
45.197664950730179
10
-225.52531067206115
20
46.372413578074934
10
-227.18424930248312
20
47.518059895874813
10
-228.86699946397198
20
48.626664708496889
10
-230.57885395361635
20
49.687642421763911
10
-232.32245715134991
20
50.695706294419125
10
-233.93641709957171
20
51.510621426941725
10
-235.21699946397194
20
52.021267341019488
10
-236.23299849503888
20
52.325540596685585
10
-237.04527126623842
20
52.513392502508331
10
-237.7120183594391
20
52.677432877264181
10
-238.30204209957174
20
52.910267502508326
10
-238.87089465134989
20
53.30714250250832
10
-239.48472992254943
20
53.9580192788857
10
-240.20174849503886
20
54.958143955907985
10
-241.09074461930643
20
56.402766695064095
10
-241.49820521348369
20
57.376435461085826
10
-241.63843405717262
20
58.395078872086366
10
-241.55641386979471
20
59.448123445552348
10
-241.30241613063862
20
60.530268309952611
10
-240.92406390183817
20
61.630935945552388
10
-240.46633182837218
20
62.747477935196727
10
-239.97685104681699
20
63.866664304774758
10
-239.50324461930643
20
64.983206294419134
10
-239.09579209957172
20
66.09181110704121
10
-238.79681164099424
20
67.179248768530073
10
-238.39728822383933
20
69.171560945552358
10
-238.02687317206119
20
71.1691659196633
10
-237.68555841121724
20
73.172059653641554
10
-237.36806325588276
20
75.177601804774781
10
-237.07172717723896
20
77.188436752996637
10
-236.79391386979472
20
79.201912043930861
10
-236.53197895361632
20
81.218039789241345
10
-236.28062155717262
20
83.234163497330528
10
-236.03720537497253
20
85.252935622574668
10
-235.79908198986104
20
87.271703710597535
10
-235.79908198986104
20
88.404120054286494
10
-236.04779096914979
20
89.38043320024191
10
-236.48435185426123
20
90.232391856552937
10
-237.05056002610576
20
90.997041565618701
10
-237.68820682837219
20
91.71141172095318
10
-238.3337908076609
20
92.404618762375719
10
-238.92645489050597
20
93.116348574997758
10
-239.41328725490621
20
93.878349866908565
10
-239.72550172481587
20
94.727660106064661
10
-239.8101622549062
20
95.696036074997778
10
-239.73872766170552
20
96.529480034551796
10
-239.61702158921608
20
97.36026750250835
10
-239.46091839148255
20
98.196351804774778
10
-239.28893276526182
20
99.027139272731347
10
-239.12225204779358
20
99.860583232285364
10
-238.97672636979468
20
100.69137070024192
10
-238.87089465134989
20
101.5168694083311
10
-238.82591193192849
20
102.34237619086285
10
-238.85766871446023
20
103.16257806464215
10
-238.98202320410459
20
103.97749925299664
10
-239.11695521348366
20
104.14418804490744
10
-239.43445844326067
20
104.43258290930768
10
-239.89218244228411
20
104.82152073228536
10
-240.43987188015029
20
105.28983032548607
10
-241.02724720312804
20
105.82693416917502
10
-241.60933376623836
20
106.40902073228537
10
-242.13320359859517
20
107.02020758632997
10
-242.55653854681699
20
107.63933161739686
10
-242.82377029730529
20
108.25316688859643
10
-242.89256454779354
20
108.84054221157413
10
-242.68089303646136
20
110.90693739895204
10
-242.41366128597306
20
112.96803575202007
10
-242.10145489050592
20
115.02385341966333
10
-241.76278854681701
20
117.07701459570904
10
-241.40824784908344
20
119.13018384619734
10
-241.05635556850478
20
121.18070467953066
10
-240.7150408076609
20
123.23387393001894
10
-240.40547475490621
20
125.28703510606468
10
-240.13825107886046
20
127.34814153357527
10
-239.92922798468322
20
129.41189637824078
10
-239.79164755814921
20
131.48358032548606
10
-239.72020489050593
20
133.61083258632999
10
-239.70168211930641
20
135.73278801286401
10
-239.70697895361633
20
137.85210309668562
10
-239.72020489050595
20
139.96347292904238
10
-239.71491613063861
20
142.07485083584172
10
-239.67258182837216
20
144.18622874264102
10
-239.56939045263977
20
146.29495823228538
10
-239.38683538112687
20
148.40632806464217
10
-239.09843244228412
20
150.5177059714415
10
-238.68568308823953
20
152.63437263810815
10
-238.12741613063855
20
154.75367964748722
10
-238.0427475261057
20
154.97328833584172
10
-237.8681215571726
20
155.37281175299665
10
-237.61412381801651
20
155.90462683681827
10
-237.29133182837214
20
156.52639121059758
10
-236.90768680248308
20
157.19314637824081
10
-236.47377029730524
20
157.86253381415386
10
-236.00016386979468
20
158.48959502224307
10
-235.50010153128355
20
159.02935535752954
10
-234.98152045879411
20
159.43680787726424
10
-234.45499817206112
20
159.67229091966334
10
-233.95758021348365
20
159.75166268988627
10
-233.40725043290502
20
159.77548229539573
10
-232.83045666688332
20
159.76488862677596
10
-232.2430813439056
20
159.74373358730654
10
-231.66893599503882
20
159.7357883358417
10
-231.13183215134984
20
159.76224020962098
10
-230.65293696397191
20
159.84690881415386
10
-230.25341354681697
20
160.01359760606471
10
-229.95708150539443
20
160.280829356553
10
-229.78245553646133
20
160.67770435655297
10
-229.36176900539442
20
162.64090816819848
10
-228.97283118241674
20
164.60940881415385
10
-228.60770489050594
20
166.5832062944192
10
-228.2637497869496
20
168.56228446010928
10
-227.93830938015032
20
170.54401104295434
10
-227.62345860474952
20
172.52838604295434
10
-227.3138925519948
20
174.51276104295434
10
-227.00433053646134
20
176.49978446010925
10
-226.69476852092788
20
178.48415946010928
10
-226.37726932837214
20
180.46853446010931
10
-226.04389578177179
20
182.44762877468452
10
-225.91689287497249
20
183.28370500250838
10
-225.81370553646133
20
184.12242964748719
10
-225.72639255199476
20
184.96909954393092
10
-225.63908360474949
20
185.81576944037462
10
-225.54647782319432
20
186.65714250250841
10
-225.43799768759456
20
187.49851556464219
10
-225.30041322383926
20
188.32931110704126
10
-225.12314287497247
20
189.14951298082056
10
-224.90089384390558
20
189.9565050665953
10
-224.62043615652763
20
190.74760664944034
10
-224.3267484950388
20
191.33762231513046
10
-223.95897782319429
20
191.88796017015162
10
-223.53564287497247
20
192.40653316819851
10
-223.07527045879408
20
192.90130270962101
10
-222.59637527141615
20
193.38814314846383
10
-222.11747604681693
20
193.87498358730659
10
-221.65710363063855
20
194.36975312872909
10
-221.23376868241675
20
194.88832612677598
10
-220.8686423905059
20
195.43866398179713
10
-220.57760314617201
20
196.03132806464217
10
-220.13839384390559
20
197.23517900153186
10
-219.76268599503879
20
198.46020112677596
10
-219.43989400539439
20
199.70109760606471
10
-219.1541435209279
20
200.95522002224311
10
-218.89485298468318
20
202.21728768988635
10
-218.64878838532809
20
203.48200377468453
10
-218.40272782319431
20
204.74935212775253
10
-218.14343728694962
20
206.01141979539577
10
-217.85768680248307
20
207.26554221157414
10
-217.53225043290499
20
208.50908710801781
10
-216.89724801057221
20
209.88755593939806
10
-215.93416483872775
20
210.87181433681832
10
-214.71443551057223
20
211.51474989895209
10
-213.31214303646132
20
211.86928252224308
10
-211.79608166688325
20
211.99364508632996
10
-210.23768599503879
20
211.94337360704125
10
-208.71103903128352
20
211.7687395636656
10
-207.2849350261057
20
211.53062425299666
10
-206.03345698986095
20
211.27926685655297
10
-205.02539513581638
20
211.07025183681827
10
-202.78172758096105
20
210.33205400153182
10
-201.19422758096101
20
209.17582612677595
10
-200.16764497432752
20
207.67829156561874
10
-199.60143680248305
20
205.90822841966332
10
-199.40299930248304
20
203.93707935655297
10
-199.4691451358164
20
201.83893546108584
10
-199.70726852092787
20
199.68257483486514
10
-200.01418615652767
20
197.53945629441918
10
-200.29729024244986
20
195.48099020962101
10
-200.45603983872775
20
193.58128381415386
10
-200.39254040393874
20
191.90911520962101
10
-200.01947693500566
20
189.73159954393088
10
-199.64112268759453
20
188.51452267015159
10
-199.27599841429438
20
188.01180787726423
10
-198.93733207060541
20
187.98005916917504
10
-198.64099801057222
20
188.17319983486513
10
-198.39758182837213
20
188.34518546108583
10
-198.22560225798333
20
188.24993933681824
10
-198.13828927351679
20
187.64403316819846
10
-198.1488728490834
20
186.28143869086284
10
-198.27322733872774
20
183.91341462775247
10
-198.43462333354995
20
181.92374279344261
10
-198.65422798468316
20
179.93936779344261
10
-198.92410209649449
20
177.95764121059756
10
-199.23631051057225
20
175.9759146277525
10
-199.58026965134985
20
173.99946873033224
10
-199.94539392465001
20
172.0230389817971
10
-200.32374817206113
20
170.04660923326196
10
-200.70210241947223
20
168.07281175299664
10
-201.07516588840528
20
166.09636585557638
10
-201.43235298468315
20
164.11993610704121
10
-201.76043575280551
20
162.14085794135113
10
-202.05412341429437
20
160.15911520962104
10
-202.30018599503879
20
158.17738862677595
10
-202.49333271656081
20
156.18773294135113
10
-202.42189408613885
20
155.40456046108585
10
-202.10174849503881
20
154.72457935655297
10
-201.58316540393872
20
154.12397002224307
10
-200.91376989358312
20
153.58422583584169
10
-200.13854064617203
20
153.08151911739688
10
-199.30774914099419
20
152.59468675299664
10
-198.46637406024979
20
152.09991721157411
10
-197.66733126316115
20
151.57868772192975
10
-196.95560346914974
20
151.00982709570906
10
-196.37616532319436
20
150.36689153357526
10
-195.89991451575005
20
149.65516172095317
10
-195.46599801057226
20
148.91698003455181
10
-195.07441580766087
20
148.15233032548608
10
-194.71458231283867
20
147.37180626237571
10
-194.38385314617204
20
146.57276750250836
10
-194.07693551057224
20
145.76314314846377
10
-193.78589424762771
20
144.94558161739687
10
-193.50543656024979
20
144.12537166917502
10
-193.22762325280553
20
143.30516172095318
10
-192.95245634390562
20
142.49024860704122
10
-192.29629080766088
20
140.46089088761985
10
-191.70626908613886
20
138.42360406561872
10
-191.18239521656082
20
136.37572357499775
10
-190.7273115602498
20
134.31726556464213
10
-190.33837373727209
20
132.25087037726419
10
-190.01293534908342
20
130.173889595709
10
-189.75364481283873
20
128.08633129441913
10
-189.55785169277235
20
125.99082774166442
10
-189.42820642465
20
123.884746669175
10
-189.36206059131666
20
121.77072841966327
10
-189.35676981283871
20
119.64876491868672
10
-189.41762284908339
20
117.51622389797546
10
-189.52081018759458
20
116.1218726381081
10
-189.69808255507201
20
114.73016172095315
10
-189.92562438322747
20
113.34109922095315
10
-190.18226852092792
20
111.9546851381081
10
-190.44685185426121
20
110.57091139797546
10
-190.69820723209429
20
109.18714573228534
10
-190.91251908613887
20
107.80072357499775
10
-191.0686243024831
20
106.41166107499774
10
-191.1427073128387
20
105.02259857499774
10
-191.11889376316117
20
103.62824731513041
10
-190.93368623727207
20
102.83978607499775
10
-190.51299768759458
20
102.194202095709
10
-189.90181083354997
20
101.66239508632995
10
-189.1371651617055
20
101.22053736690856
10
-188.26668575280553
20
100.83953672095316
10
-187.33270690911655
20
100.49293320024189
10
-186.37491451575011
20
100.15426685655292
10
-185.44093567206113
20
99.794437398952013
10
-184.56781087392218
20
99.392265564642116
10
-183.80581059131671
20
98.913370377264172
10
-182.61783198986097
20
97.881496992152677
10
-181.5224571513499
20
96.667060461085811
10
-180.51703967723893
20
95.301809492152699
10
-179.59893619689984
20
93.830726804774756
10
-178.76285290393878
20
92.29084986690853
10
-178.01143619689987
20
90.719224220953137
10
-177.33939428799994
20
89.158184169174973
10
-176.74672768189157
20
87.642118762375674
10
-176.22814408613888
20
86.210730034551787
10
-175.78364451004711
20
84.903683684708412
10
-175.25183194948877
20
83.112457424841068
10
-174.81791493965832
20
81.247144117396815
10
-174.48189448986102
20
79.318329356552908
10
-174.24376908613885
20
77.339247153641537
10
-174.10618613634156
20
75.317830648463726
10
-174.06120694948879
20
73.264665435196719
10
-174.11676920725552
20
71.18768465364154
10
-174.26758162651109
20
69.102766695064048
10
-174.51629010114715
20
67.017852773707858
10
-174.85760284338045
20
64.94351637208635
10
-175.29681113634157
20
62.887706778885679
10
-175.83126908613889
20
60.866290273707868
10
-176.45833180818607
20
58.884559653641517
10
-177.18329008096106
20
56.955748930018864
10
-178.00085262133325
20
55.087787205419687
10
-178.91101892465005
20
53.293912528397378
10
-179.91643639876099
20
51.584706455907963
10
-181.01445662651111
20
49.968102127752445
10
-182.20508162651112
20
48.457331536652397
10
-183.48831139876097
20
47.060329841019453
10
-184.28470678799997
20
46.282456213674692
10
-185.10226932837216
20
45.523101320308186
10
-185.93835262133328
20
44.782267179530599
10
-186.78501948986104
20
44.054663012863919
10
-187.64491532319437
20
43.340288820308182
10
-188.51274833355001
20
42.636498203319064
10
-189.38587414099425
20
41.937996346197259
10
-190.26164432837217
20
41.242142906230441
10
-191.13741451575009
20
40.548933846197279
10
-192.01054032319433
20
39.85043400768614
10
-192.58997846914977
20
39.601727047008026
10
-193.72768559131671
20
39.276288658819354
10
-195.28872766170551
20
38.897934411408244
10
-197.13287381801652
20
38.485185057363651
10
-199.11989521656091
20
38.061852127752438
10
-201.10691459649451
20
37.649100755097216
10
-202.96164432837216
20
37.270746507686141
10
-204.53856277141622
20
36.945310138108098
10
-205.70272782319438
20
36.699247557363641
10
-206.31127029730527
20
36.55108153665239
10
-207.08914594326069
20
36.699247557363677
10
-207.86966596914976
20
36.847413578074928
10
-208.65018599503884
20
36.998225997330501
10
-209.42806164099423
20
37.146394036652417
10
-210.98910169277244
20
37.442726078074919
0
LWPOLYLINE
5
268
100
AcDbEntity
8
0
100
AcDbPolyline
90
4
70
1
43
0.0
10
0
20
0
10
0
20
316.99993362426761
10
-650.9993464152019
20
316.99993362426761
10
-650.9993464152019
20
0
0
LWPOLYLINE
5
269
100
AcDbEntity
8
0
100
AcDbPolyline
90
385
70
1
43
0.0
10
-544.37755991617848
20
228.205773417155
10
-544.3087656656902
20
228.13433074951175
10
-542.9726069132488
20
226.47803649902346
10
-542.01749725341801
20
224.57833010355637
10
-541.48568216959643
20
222.51723175048829
10
-541.40099741617848
20
220.39261983235679
10
-541.76877212524425
20
218.29712435404463
10
-542.57043507893889
20
216.32597529093428
10
-543.77165374755873
20
214.57178649902346
10
-545.31949208577487
20
213.10864906311039
10
-547.13714599609386
20
212.00797335306805
10
-549.15065358479819
20
211.31476631164554
10
-551.26202341715509
20
211.06340891520182
10
-553.37869008382177
20
211.26449483235683
10
-555.40802357991549
20
211.91007881164555
10
-555.62764841715511
20
211.3068372090658
10
-555.86045074462902
20
210.70622787475588
10
-556.10920817057308
20
210.11356379191085
10
-556.36849466959643
20
209.52089970906582
10
-556.63572642008478
20
208.93351631164552
10
-556.9109034220379
20
208.34614906311035
10
-557.18866424560565
20
207.76406250000005
10
-557.46913808186855
20
207.1819759368897
10
-557.74696350097668
20
206.59988937377932
10
-558.02478892008469
20
206.01781895955406
10
-558.55395558675139
20
205.14204877217611
10
-559.23388824462904
20
204.39592183430995
10
-560.03823191324875
20
203.75826695760094
10
-560.94315083821618
20
203.21322593688967
10
-561.92209625244141
20
202.73962758382166
10
-562.95394541422536
20
202.3189329783122
10
-564.01227874755864
20
201.93000322977707
10
-565.07061208089203
20
201.55429941813156
10
-566.10782267252614
20
201.17593104044599
10
-567.09736175537114
20
200.77112693786626
10
-567.27196350097665
20
200.71820704142254
10
-567.46510416666672
20
200.69440358479821
10
-567.66883850097668
20
200.69440358479821
10
-568.08160400390636
20
200.72085545857749
10
-568.28004150390632
20
200.72350387573243
10
-568.46258850097661
20
200.70762952168786
10
-568.62394816080734
20
200.66528714497883
10
-568.75888824462902
20
200.58326695760093
10
-568.85946350097663
20
200.45097529093428
10
-569.11610158284509
20
199.72072270711266
10
-569.18224741617837
20
198.96931508382164
10
-569.09756266276054
20
198.19936854044599
10
-568.89912516276047
20
197.41091537475586
10
-568.61871592203784
20
196.61451695760096
10
-568.2985158284506
20
195.80754102071128
10
-567.97308349609375
20
194.99526824951175
10
-567.67943216959645
20
194.18034706115725
10
-567.45451049804694
20
193.37072270711269
10
-567.33281250000005
20
192.56374677022302
10
-567.24283091227232
20
191.07149289449058
10
-567.18198191324882
20
189.57660675048831
10
-567.15026550292987
20
188.07905604044601
10
-567.14496866861987
20
186.58152147928877
10
-567.16873982747404
20
185.08133850097661
10
-567.21905975341804
20
183.58378779093428
10
-567.29579925537121
20
182.08890164693202
10
-567.39895833333344
20
180.5939993540446
10
-567.53125000000011
20
179.10439389546713
10
-567.68737742106134
20
177.61478843688965
10
-568.08954925537114
20
175.81827341715496
10
-568.8276824951173
20
174.17785352071132
10
-569.84900258382163
20
172.74646479288737
10
-571.1004765828452
20
171.57171414693198
10
-572.52655232747406
20
170.70652147928877
10
-574.0717422485352
20
170.19322916666667
10
-575.68042958577485
20
170.08738937377933
10
-577.30229441324877
20
170.43399289449056
10
-578.87655232747409
20
171.28595962524417
10
-580.35294799804694
20
172.69089647928877
10
-580.81861724853525
20
173.3417772928874
10
-581.23932800292982
20
174.10641085306807
10
-581.62031250000007
20
174.95837758382166
10
-581.96428375244147
20
175.86589647928875
10
-582.27382558186855
20
176.80781250000001
10
-582.55165100097668
20
177.75237693786625
10
-582.80299224853525
20
178.67577018737796
10
-583.02791392008476
20
179.54889195760092
10
-583.2316482543946
20
180.34793879191082
10
-583.41684366861989
20
181.04114583333339
10
-583.60203908284518
20
180.34793879191082
10
-583.80577341715502
20
179.54889195760097
10
-584.03069508870453
20
178.67577018737794
10
-584.2820363362631
20
177.75237693786622
10
-584.55986175537123
20
176.80781250000001
10
-584.86940358479831
20
175.86589647928875
10
-585.21337483723971
20
174.95837758382163
10
-585.59435933430996
20
174.10641085306804
10
-586.01507008870453
20
173.3417772928874
10
-586.48073933919272
20
172.69089647928877
10
-587.95707041422531
20
171.28595962524415
10
-589.53132832845063
20
170.43399289449059
10
-591.15325775146493
20
170.08738937377933
10
-592.76194508870458
20
170.19322916666667
10
-594.30707041422534
20
170.7065214792888
10
-595.73321075439469
20
171.57171414693198
10
-596.98203633626304
20
172.74646479288742
10
-598.00594024658221
20
174.17785352071132
10
-598.74413808186864
20
175.81827341715496
10
-599.14366149902355
20
177.61478843688968
10
-599.30243733723967
20
179.10439389546713
10
-599.43208058675145
20
180.5939993540446
10
-599.53788808186857
20
182.08890164693199
10
-599.61462758382163
20
183.58378779093425
10
-599.66488291422536
20
185.08133850097661
10
-599.68871866861991
20
186.58152147928877
10
-599.68342183431002
20
188.07905604044601
10
-599.65164082845058
20
189.57660675048831
10
-599.5881434122723
20
191.07149289449058
10
-599.50087483723973
20
192.56374677022302
10
-599.37917683919284
20
193.37072270711263
10
-599.15425516764333
20
194.18034706115722
10
-598.86053924560554
20
194.99526824951175
10
-598.5351069132488
20
195.80754102071128
10
-598.21232299804694
20
196.61451695760093
10
-597.93449757893893
20
197.41091537475586
10
-597.73606007893886
20
198.19936854044602
10
-597.6514399210613
20
198.96931508382164
10
-597.71758575439458
20
199.72072270711266
10
-597.97422383626315
20
200.45097529093428
10
-598.07473449707038
20
200.58326695760093
10
-598.20702616373705
20
200.66528714497889
10
-598.37109883626317
20
200.70762952168789
10
-598.55364583333335
20
200.72350387573243
10
-598.75208333333342
20
200.72085545857749
10
-598.95581766764326
20
200.70762952168786
10
-599.1648488362631
20
200.69440358479821
10
-599.36858317057295
20
200.69440358479821
10
-599.55907541910824
20
200.71820704142254
10
-599.73367716471364
20
200.77112693786626
10
-600.72586466471364
20
201.17593104044599
10
-601.76301066080737
20
201.55429941813154
10
-602.82134399414076
20
201.93000322977701
10
-603.87967732747404
20
202.3189329783122
10
-604.91159108479826
20
202.73962758382166
10
-605.89053649902348
20
203.21322593688967
10
-606.79539082845065
20
203.75826695760094
10
-607.59973449707036
20
204.39592183430992
10
-608.27973175048839
20
205.14204877217611
10
-608.80889841715509
20
206.01781895955409
10
-609.09996592203788
20
206.63163808186852
10
-609.39626566569018
20
207.24547335306806
10
-609.69263000488286
20
207.86195704142256
10
-609.98628133138027
20
208.47844072977705
10
-610.27205200195317
20
209.10020510355633
10
-610.55252583821618
20
209.72198562622077
10
-610.82240600585942
20
210.34904683430992
10
-611.07904408772799
20
210.97875645955406
10
-611.31979166666679
20
211.61374677022303
10
-611.5447133382163
20
212.25403391520186
10
-612.11354166666683
20
212.010621770223
10
-612.69826049804703
20
211.80425516764328
10
-613.29357299804701
20
211.63226954142254
10
-613.89683074951188
20
211.49997787475593
10
-614.51068216959641
20
211.40473175048828
10
-615.12711741129567
20
211.34651501973474
10
-615.7462656656902
20
211.32535998026532
10
-616.36541392008462
20
211.34388275146489
10
-616.981849161784
20
211.40208333333334
10
-617.59570058186864
20
211.49732945760093
10
-617.69362742106125
20
211.51585222880047
10
-617.79148966471359
20
211.53437500000001
10
-617.88941650390632
20
211.55289777119958
10
-617.98727874755866
20
211.57142054239912
10
-618.08785400390639
20
211.58994331359867
10
-618.18571624755873
20
211.60846608479824
10
-618.28364308675145
20
211.62697270711266
10
-618.38150533040368
20
211.64549547831223
10
-618.47943216959641
20
211.66401824951174
10
-618.57729441324875
20
211.68254102071128
10
-620.61722157796237
20
212.29372787475586
10
-622.48254699707036
20
213.32560933430995
10
-624.08593750000011
20
214.73054618835454
10
-625.35330200195312
20
216.43974418640138
10
-626.23173675537123
20
218.38179295857753
10
-626.68151550292976
20
220.46406250000001
10
-626.67621866861987
20
222.59395510355634
10
-626.22114308675134
20
224.67622464497884
10
-625.33476308186857
20
226.61297658284508
10
-624.05945332845056
20
228.3195423126221
10
-622.45083058675141
20
229.71653391520186
10
-620.58285675048842
20
230.74048627217616
10
-618.54028116861991
20
231.34637629191081
10
-619.7176640828452
20
233.04234835306804
10
-620.87657267252621
20
234.7436172485352
10
-622.01687774658217
20
236.45812822977706
10
-623.13076324462895
20
238.18584899902348
10
-624.22087758382168
20
239.93738937377935
10
-625.28185933430996
20
241.71274935404466
10
-626.31106007893891
20
243.51985804239911
10
-627.30589599609391
20
245.36399612426763
10
-628.26636708577485
20
247.2504765828451
10
-629.18976033528656
20
249.17929941813156
10
-629.98086191813161
20
250.9996178944906
10
-630.70846608479826
20
252.86229489644373
10
-631.37257283528652
20
254.76464970906579
10
-631.97583058675139
20
256.70140164693203
10
-632.52082316080748
20
258.66725387573246
10
-633.01032816569023
20
260.65955797831225
10
-633.44686482747409
20
262.67304941813154
10
-633.83056233723971
20
264.69975064595542
10
-634.16658833821634
20
266.73704554239913
10
-634.45759124755864
20
268.77962112426763
10
-634.70363566080732
20
270.81956443786623
10
-634.90736999511728
20
272.85685933430989
10
-635.07409108479828
20
274.88357671101892
10
-635.20638275146496
20
276.89705200195317
10
-635.3015965779623
20
278.88933995564787
10
-635.36774241129569
20
280.85520833333339
10
-635.43388824462897
20
282.53265762329107
10
-635.51327616373715
20
284.07784754435227
10
-635.56882832845065
20
285.51186854044602
10
-635.55829925537114
20
286.85332412719731
10
-635.43918507893886
20
288.12595316569013
10
-635.16930491129574
20
289.35097529093429
10
-634.7142293294271
20
290.54689712524419
10
-634.02635142008467
20
291.73487370808925
10
-633.06852874755873
20
292.93609237670904
10
-631.7985158284506
20
294.17167587280278
10
-629.75064341227221
20
295.71156895955409
10
-627.72130991617848
20
296.76725387573248
10
-625.72369283040371
20
297.37316004435223
10
-623.76845041910815
20
297.56100387573247
10
-621.87399241129572
20
297.36521479288746
10
-620.04839324951183
20
296.82015762329104
10
-618.31006266276052
20
295.95761337280277
10
-616.67230733235681
20
294.81197916666667
10
-615.14565633138022
20
293.41497141520188
10
-613.74335174560554
20
291.80366795857753
10
-612.4839324951173
20
290.00978520711266
10
-611.37534383138029
20
288.06775258382169
10
-610.75626017252614
20
286.66809641520189
10
-610.29059092203784
20
285.21818491617842
10
-609.94926808675143
20
283.72857945760097
10
-609.70845591227226
20
282.20987370808922
10
-609.54444783528652
20
280.67527745564786
10
-609.43592732747402
20
279.1301198323568
10
-609.35395558675145
20
277.59025904337568
10
-609.27721608479828
20
276.0662564595541
10
-609.17928924560556
20
274.56605733235682
10
-609.03646850585938
20
273.10290374755863
10
-608.82743733723964
20
271.50749079386395
10
-608.5681508382163
20
269.8511803944906
10
-608.26384124755873
20
268.14726308186852
10
-607.90934092203781
20
266.41954231262213
10
-607.5071690877279
20
264.68387629191085
10
-607.054677327474
20
262.96143620808925
10
-606.55464324951186
20
261.26809641520185
10
-606.0016408284506
20
259.62239583333337
10
-605.40103149414074
20
258.04547335306802
10
-604.75016682942714
20
256.55586789449058
10
-603.80565083821625
20
254.70378456115728
10
-602.76049499511726
20
252.91256637573244
10
-601.62813517252619
20
251.16895510355633
10
-600.42691650390634
20
249.4650377909343
10
-599.17279408772799
20
247.79286918640142
10
-597.88689066569009
20
246.13922335306808
10
-596.58516133626313
20
244.49881960550948
10
-595.28071899414067
20
242.85839970906579
10
-593.99488016764326
20
241.21003456115727
10
-592.7434061686198
20
239.5431627909343
10
-591.54483591715507
20
237.84983914693203
10
-590.41505991617851
20
236.11945381164554
10
-589.62925516764335
20
234.77801437377931
10
-588.96250000000009
20
233.50536918640142
10
-588.38042958577478
20
232.2882923126221
10
-587.8433176676433
20
231.11619008382164
10
-587.31150258382172
20
229.97583656311036
10
-586.74790649414069
20
228.85663808186854
10
-586.11293233235688
20
227.74275258382164
10
-585.37208607991545
20
226.62885093688968
10
-584.48577067057295
20
225.49909108479821
10
-583.41684366861989
20
224.34284706115727
10
-582.34526824951183
20
225.49909108479821
10
-581.45888824462895
20
226.62885093688968
10
-580.71810658772802
20
227.74275258382164
10
-580.08571624755871
20
228.85663808186851
10
-579.52218475341806
20
229.97583656311036
10
-578.99036966959648
20
231.11619008382166
10
-578.45325775146489
20
232.2882923126221
10
-577.86853892008469
20
233.50536918640142
10
-577.20443216959643
20
234.77801437377934
10
-576.41862742106127
20
236.11945381164557
10
-575.28885142008471
20
237.849839146932
10
-574.09028116861987
20
239.54316279093428
10
-572.83880716959641
20
241.21003456115727
10
-571.55290374755862
20
242.85839970906579
10
-570.24852600097665
20
244.49881960550948
10
-568.94679667154958
20
246.13922335306808
10
-567.65824483235679
20
247.79286918640139
10
-566.40677083333333
20
249.46503779093428
10
-565.20555216471371
20
251.16895510355636
10
-564.07312774658214
20
252.91256637573247
10
-563.02803649902353
20
254.70378456115725
10
-562.08345591227226
20
256.55586789449058
10
-561.43259124755866
20
258.04547335306808
10
-560.8319819132488
20
259.62239583333337
10
-560.27904408772793
20
261.26809641520185
10
-559.77894541422529
20
262.96143620808925
10
-559.32651824951176
20
264.68387629191085
10
-558.92434641520185
20
266.41954231262213
10
-558.56978149414067
20
268.14726308186852
10
-558.26553649902348
20
269.8511803944906
10
-558.00625000000014
20
271.50749079386395
10
-557.79721883138029
20
273.10290374755863
10
-557.65433349609384
20
274.56605733235682
10
-557.5564712524415
20
276.0662564595541
10
-557.47973175048833
20
277.59025904337568
10
-557.39769541422538
20
279.1301198323568
10
-557.28659108479826
20
280.6752774556478
10
-557.12516682942714
20
282.20987370808922
10
-556.88441925048835
20
283.72857945760097
10
-556.54309641520183
20
285.21818491617842
10
-556.07477874755875
20
286.66809641520183
10
-555.45834350585938
20
288.06775258382163
10
-554.34969024658221
20
290.00978520711266
10
-553.09027099609375
20
291.80366795857753
10
-551.68803100585944
20
293.41497141520188
10
-550.16138000488286
20
294.81197916666667
10
-548.52356007893889
20
295.95761337280277
10
-546.78264567057295
20
296.82015762329104
10
-544.95963033040368
20
297.3652147928874
10
-543.06523691813163
20
297.56100387573247
10
-541.10996220906588
20
297.37316004435229
10
-539.11234512329111
20
296.76725387573248
10
-537.08301162719738
20
295.71156895955409
10
-535.03513921101899
20
294.17167587280278
10
-533.76512629191086
20
292.93609237670904
10
-532.807335917155
20
291.73487370808925
10
-532.11942571004238
20
290.54689712524419
10
-531.66431783040366
20
289.35097529093429
10
-531.39446996053061
20
288.12595316569013
10
-531.27538808186853
20
286.85332412719731
10
-531.26482671101894
20
285.51186854044602
10
-531.32037887573256
20
284.07784754435227
10
-531.39973449707031
20
282.53265762329107
10
-531.46588033040371
20
280.85520833333339
10
-531.5320261637371
20
278.88933995564787
10
-531.62730458577482
20
276.89705200195317
10
-531.75694783528661
20
274.88357671101892
10
-531.92363662719731
20
272.85685933430995
10
-532.12998708089208
20
270.81956443786629
10
-532.37606379191095
20
268.77962112426763
10
-532.66709899902344
20
266.73704554239913
10
-533.00312500000007
20
264.69975064595542
10
-533.38675791422543
20
262.67304941813154
10
-533.82332687377937
20
260.65955797831225
10
-534.31279958089203
20
258.66725387573246
10
-534.85785675048828
20
256.70140164693203
10
-535.46111450195315
20
254.76464970906579
10
-536.12522125244152
20
252.86229489644373
10
-536.85282541910817
20
250.9996178944906
10
-537.64392700195322
20
249.17929941813156
10
-538.58053003946952
20
247.22137629191084
10
-539.55421091715505
20
245.3084439595541
10
-540.56755345662441
20
243.44048627217614
10
-541.6153254191081
20
241.60690956115727
10
-542.69219767252616
20
239.80509770711265
10
-543.80078633626317
20
238.03240229288741
10
-544.93585917154962
20
236.27821350097659
10
-546.09205474853513
20
234.53989906311037
10
-547.27208607991543
20
232.8148105621338
10
-548.46800791422527
20
231.0923704783122
10
-548.08437500000002
20
230.93362693786622
10
-547.70868733723978
20
230.76164131164552
10
-547.33823191324882
20
230.5711490631104
10
-546.97843475341801
20
230.3674147288005
10
-546.62386983235695
20
230.147806040446
10
-546.28254699707031
20
229.912339146932
10
-545.9491694132488
20
229.66627858479822
10
-545.62638549804694
20
229.40432751973475
10
-545.31419525146487
20
229.12916666666666
10
-545.0151824951173
20
228.84076372782391
10
-544.94373982747402
20
228.76933720906581
10
-544.87236175537123
20
228.70054295857753
10
-544.80356750488295
20
228.62910029093428
10
-544.73212483723967
20
228.55767377217614
10
-544.66068216959638
20
228.48887952168786
10
-544.5918879191081
20
228.41743685404464
10
-544.52044525146493
20
228.34599418640138
10
-544.44900258382165
20
228.27456766764328
0
ENDSEC
0
SECTION
2
OBJECTS
0
DICTIONARY
5
C
100
AcDbDictionary
3
ACAD_GROUP
350
D
3
ACAD_MLINESTYLE
350
17
0
DICTIONARY
5
D
100
AcDbDictionary
0
DICTIONARY
5
1A
330
C
100
AcDbDictionary
0
DICTIONARY
5
17
100
AcDbDictionary
0
ENDSEC
0
EOF
