<?xml version="1.0" encoding="UTF-8" standalone="no"?>
<!-- Created with Inkscape (http://www.inkscape.org/) -->

<svg
   width="114.05678mm"
   height="263.49722mm"
   viewBox="0 0 114.05678 263.49722"
   version="1.1"
   id="svg1"
   xml:space="preserve"
   inkscape:version="1.4.3 (0d15f75, 2025-12-25)"
   sodipodi:docname="final nadec draft.svg"
   xmlns:inkscape="http://www.inkscape.org/namespaces/inkscape"
   xmlns:sodipodi="http://sodipodi.sourceforge.net/DTD/sodipodi-0.dtd"
   xmlns="http://www.w3.org/2000/svg"
   xmlns:svg="http://www.w3.org/2000/svg"><sodipodi:namedview
     id="namedview1"
     pagecolor="#ffffff"
     bordercolor="#000000"
     borderopacity="0.25"
     inkscape:showpageshadow="2"
     inkscape:pageopacity="0.0"
     inkscape:pagecheckerboard="0"
     inkscape:deskcolor="#d1d1d1"
     inkscape:document-units="mm"
     inkscape:zoom="0.5052024"
     inkscape:cx="434.47933"
     inkscape:cy="642.31682"
     inkscape:window-width="1920"
     inkscape:window-height="991"
     inkscape:window-x="-9"
     inkscape:window-y="-9"
     inkscape:window-maximized="1"
     inkscape:current-layer="layer1" /><defs
     id="defs1"><marker
       id="DistanceX"
       orient="auto"
       refX="0"
       refY="0"
       style="overflow:visible"><path
         d="M 3,-3 -3,3 M 0,-5 V 5"
         style="stroke:#000000;stroke-width:0.5"
         id="path1" /></marker><pattern
       id="Hatch"
       patternUnits="userSpaceOnUse"
       width="8"
       height="8"
       x="0"
       y="0"><path
         d="M8 4 l-4,4"
         stroke="#000000"
         stroke-width="0.25"
         linecap="square"
         id="path2" /><path
         d="M6 2 l-4,4"
         stroke="#000000"
         stroke-width="0.25"
         linecap="square"
         id="path3" /><path
         d="M4 0 l-4,4"
         stroke="#000000"
         stroke-width="0.25"
         linecap="square"
         id="path4" /></pattern><symbol
       id="*MODEL_SPACE" /><symbol
       id="*PAPER_SPACE" /><marker
       id="DistanceX-0"
       orient="auto"
       refX="0"
       refY="0"
       style="overflow:visible"><path
         d="M 3,-3 -3,3 M 0,-5 V 5"
         style="stroke:#000000;stroke-width:0.5"
         id="path1-9" /></marker><pattern
       id="Hatch-4"
       patternUnits="userSpaceOnUse"
       width="8"
       height="8"
       x="0"
       y="0"><path
         d="M8 4 l-4,4"
         stroke="#000000"
         stroke-width="0.25"
         linecap="square"
         id="path2-8" /><path
         d="M6 2 l-4,4"
         stroke="#000000"
         stroke-width="0.25"
         linecap="square"
         id="path3-8" /><path
         d="M4 0 l-4,4"
         stroke="#000000"
         stroke-width="0.25"
         linecap="square"
         id="path4-2" /></pattern><symbol
       id="*MODEL_SPACE-4" /><symbol
       id="*PAPER_SPACE-5" /><marker
       id="DistanceX-5"
       orient="auto"
       refX="0"
       refY="0"
       style="overflow:visible"><path
         d="M 3,-3 -3,3 M 0,-5 V 5"
         style="stroke:#000000;stroke-width:0.5"
         id="path1-1" /></marker><pattern
       id="Hatch-7"
       patternUnits="userSpaceOnUse"
       width="8"
       height="8"
       x="0"
       y="0"><path
         d="M8 4 l-4,4"
         stroke="#000000"
         stroke-width="0.25"
         linecap="square"
         id="path2-1" /><path
         d="M6 2 l-4,4"
         stroke="#000000"
         stroke-width="0.25"
         linecap="square"
         id="path3-1" /><path
         d="M4 0 l-4,4"
         stroke="#000000"
         stroke-width="0.25"
         linecap="square"
         id="path4-5" /></pattern><symbol
       id="*MODEL_SPACE-2" /><symbol
       id="*PAPER_SPACE-7" /></defs><g
     inkscape:label="Layer 1"
     inkscape:groupmode="layer"
     id="layer1"
     transform="translate(-1.0236673,-1.8822376)"><g
       id="g1"
       style="fill:none;fill-opacity:1;stroke:#ff0000;stroke-opacity:1;stroke-width:0.1;stroke-dasharray:none"><path
         d="m 9.9175063,55.02607 h 4.4999987 v 2.5 H 9.9175063 Z"
         style="fill:none;stroke:#ff0000;stroke-width:0.1;fill-opacity:1;stroke-opacity:1;stroke-dasharray:none"
         id="path5" /><path
         d="m 9.9175063,175.22607 h 4.4999987 v 2.5 H 9.9175063 Z"
         style="fill:none;stroke:#ff0000;stroke-width:0.1;fill-opacity:1;stroke-opacity:1;stroke-dasharray:none"
         id="path6" /><path
         d="m 9.9175063,187.82606 v -2.49999 h 4.4999987 v 2.49999 z"
         style="fill:none;stroke:#ff0000;stroke-width:0.1;fill-opacity:1;stroke-opacity:1;stroke-dasharray:none"
         id="path7" /><path
         d="m 9.9175063,65.12607 h 4.4999987 v 2.5 H 9.9175063 Z"
         style="fill:none;stroke:#ff0000;stroke-width:0.1;fill-opacity:1;stroke-opacity:1;stroke-dasharray:none"
         id="path8" /><path
         d="m 18.417504,52.226072 -1,-1.000001 H 6.9175043 l -0.999998,1.000001 v 19.200002 h -3.85 V 171.42608 h 3.85 v 19.19999 l 0.999998,0.99999 H 17.417504 l 1,-0.99999 v -19.19999 h 3.85 V 71.426074 h -3.85 z"
         style="fill:none;stroke:#ff0000;stroke-width:0.1;fill-opacity:1;stroke-opacity:1;stroke-dasharray:none"
         id="path9" /><path
         d="m 44.368606,83.287159 v -2.49999 h 11.499998 v 2.49999 z"
         style="fill:none;stroke:#ff0000;stroke-width:0.1;fill-opacity:1;stroke-opacity:1;stroke-dasharray:none"
         id="path10" /><path
         d="m 44.368606,73.187169 v -2.49999 h 11.499998 v 2.49999 z"
         style="fill:none;stroke:#ff0000;stroke-width:0.1;fill-opacity:1;stroke-opacity:1;stroke-dasharray:none"
         id="path11" /><path
         d="m 47.868606,102.23718 1,-1.00002 v -6.575001 h 2.5 v 6.575001 l 1,1.00002 H 75.368604 V 79.237159 l -1,-0.99999 h -6.575 v -2.5 h 6.575 l 1,-1.00002 V 51.737162 H 52.368606 l -1,1 v 6.575 h -2.5 v -6.575 l -1,-1 h -23 v 22.999987 l 1,1.00002 h 6.575 v 2.5 h -6.575 l -1,0.99999 v 23.000021 z"
         style="fill:none;stroke:#ff0000;stroke-width:0.1;fill-opacity:1;stroke-opacity:1;stroke-dasharray:none"
         id="path12" /><path
         d="m 48.648835,152.40375 -1,-0.99999 h -23 v 22.99999 l 1,1.00002 h 11.625 v 2.49999 h -11.625 l -1,0.99999 v 23 h 23 l 1,-1 v -11.625 h 2.5 v 11.625 l 0.999996,1 h 23 v -23 l -1,-0.99999 h -11.625 v -2.49999 h 11.625 l 1,-1.00002 v -22.99999 h -23 l -0.999996,0.99999 v 11.625 h -2.5 z"
         style="fill:none;stroke:#ff0000;stroke-width:0.1;fill-opacity:1;stroke-opacity:1;stroke-dasharray:none"
         id="path13" /><path
         d="m 55.648831,170.35374 v 2.50003 H 44.148835 v -2.50003 z"
         style="fill:none;stroke:#ff0000;stroke-width:0.1;fill-opacity:1;stroke-opacity:1;stroke-dasharray:none"
         id="path14" /><path
         d="m 44.148835,182.95376 v -2.5 h 11.499996 v 2.5 z"
         style="fill:none;stroke:#ff0000;stroke-width:0.1;fill-opacity:1;stroke-opacity:1;stroke-dasharray:none"
         id="path15" /><path
         d="m 21.629183,241.07755 h -2.5 v -11.50001 h 2.5 z"
         style="fill:none;stroke:#ff0000;stroke-width:0.1;fill-opacity:1;stroke-opacity:1;stroke-dasharray:none"
         id="path16" /><path
         d="m 27.129183,221.57755 h 11.5 v 2.49999 h -11.5 z"
         style="fill:none;stroke:#ff0000;stroke-width:0.1;fill-opacity:1;stroke-opacity:1;stroke-dasharray:none"
         id="path17" /><path
         d="m 44.129183,229.57754 h 2.5 v 11.50001 h -2.5 z"
         style="fill:none;stroke:#ff0000;stroke-width:0.1;fill-opacity:1;stroke-opacity:1;stroke-dasharray:none"
         id="path18" /><path
         d="m 38.629183,246.57755 v 2.5 h -11.5 v -2.5 z"
         style="fill:none;stroke:#ff0000;stroke-width:0.1;fill-opacity:1;stroke-opacity:1;stroke-dasharray:none"
         id="path19" /><path
         d="m 3.9052429,236.57754 -0.94169,0.9983 a 30,30 0 0 0 27.6673401,27.66732 l 0.9983,-0.94167 v -11.59894 h 2.49999 v 11.59894 l 0.9983,0.94167 a 30,30 0 0 0 27.66734,-27.66732 l -0.94169,-0.9983 h -11.59894 v -2.49999 h 11.59894 l 0.94169,-0.9983 A 30,30 0 0 0 35.127483,205.4119 l -0.9983,0.94168 v 11.59897 h -2.49999 v -11.59897 l -0.9983,-0.94168 A 30,30 0 0 0 2.9635529,233.07925 l 0.94169,0.9983 H 15.504183 v 2.49999 z"
         style="fill:none;stroke:#ff0000;stroke-width:0.1;fill-opacity:1;stroke-opacity:1;stroke-dasharray:none"
         id="path20" /><path
         d="m 91.101307,123.85173 1.00001,1 h 22.749993 l -11.37499,-19.70208 -1.36603,-0.36602 -5.694123,3.2875 -1.25,-2.16506 5.694123,-3.2875 0.36603,-1.36603 -11.375003,-19.702074 -11.375,19.702074 0.36602,1.36603 5.69412,3.2875 -1.25,2.16506 -5.69412,-3.2875 -1.36602,0.36602 -11.375,19.70208 h 22.75 l 1,-1 v -6.575 h 2.49999 z"
         style="fill:none;stroke:#ff0000;stroke-width:0.1;fill-opacity:1;stroke-opacity:1;stroke-dasharray:none"
         id="path21" /><path
         d="m 89.623553,37.062633 -1.25,2.165065 -3.10464,-1.792468 v 3.584935 h -2.5 V 37.43523 l -3.104651,1.792468 -1.25,-2.165065 3.10465,-1.792467 -3.10465,-1.792467 1.25,-2.165065 3.104651,1.792468 v -3.584935 h 2.5 v 3.584935 l 3.10464,-1.792468 1.25,2.165065 -3.10464,1.792467 z"
         style="fill:none;stroke:#ff0000;stroke-width:0.1;fill-opacity:1;stroke-opacity:1;stroke-dasharray:none"
         id="path22" /><path
         d="m 97.643913,30.001846 -1.36603,-0.366027 -5.69412,3.287501 -1.24999,-2.165064 5.69411,-3.287501 0.36603,-1.366025 -11.375,-19.7020759 -11.375001,19.7020759 0.36602,1.366025 5.69412,3.287501 -1.25,2.165064 -5.69412,-3.287501 -1.36602,0.366027 -11.375,19.702079 h 22.750001 l 1,-1 v -6.575002 h 2.5 v 6.575002 l 1,1 h 22.749997 z"
         style="fill:none;stroke:#ff0000;stroke-width:0.1;fill-opacity:1;stroke-opacity:1;stroke-dasharray:none"
         id="path23" /><path
         d="m 51.31,20.663973 v -2.500001 h 4.499999 v 2.500001 z"
         style="fill:none;stroke:#ff0000;stroke-width:0.1;fill-opacity:1;stroke-opacity:1;stroke-dasharray:none"
         id="path24" /><path
         d="M 55.809999,7.6639723 H 51.31 v -2.5 h 4.499999 z"
         style="fill:none;stroke:#ff0000;stroke-width:0.1;fill-opacity:1;stroke-opacity:1;stroke-dasharray:none"
         id="path25" /><path
         d="m 55.809999,11.163971 v 2.5 H 51.31 v -2.5 z"
         style="fill:none;stroke:#ff0000;stroke-width:0.1;fill-opacity:1;stroke-opacity:1;stroke-dasharray:none"
         id="path26" /><path
         d="m 51.31,26.663971 v -2.5 h 4.499999 v 2.5 z"
         style="fill:none;stroke:#ff0000;stroke-width:0.1;fill-opacity:1;stroke-opacity:1;stroke-dasharray:none"
         id="path27" /><path
         d="m 59.809999,4.4139713 -1,-0.999998 h -10.5 l -1,0.999998 V 27.413972 l 1,1.000001 h 10.5 l 1,-1.000001 z"
         style="fill:none;stroke:#ff0000;stroke-width:0.1;fill-opacity:1;stroke-opacity:1;stroke-dasharray:none"
         id="path28" /><path
         d="m 103.8019,66.831301 -1,-0.99999 h -6.575004 v -2.5 h 6.575004 l 1,-1.00002 v -2.92499 h -7.575004 v -7.575 h -2.925 l -1,1 v 6.575 h -2.5 v -6.575 l -1,-1 h -2.925 v 7.575 h -7.575 v 2.92499 l 1,1.00002 h 6.575 v 2.5 h -6.575 l -1,0.99999 v 2.925 h 7.575 v 7.57502 h 2.925 l 1,-1.00002 v -6.575 h 2.5 v 6.575 l 1,1.00002 h 2.925 v -7.57502 h 7.575004 z"
         style="fill:none;stroke:#ff0000;stroke-width:0.1;fill-opacity:1;stroke-opacity:1;stroke-dasharray:none"
         id="path29" /><path
         d="m 43.172441,123.97756 v -2.5 h 11.5 v 2.5 z"
         style="fill:none;stroke:#ff0000;stroke-width:0.1;fill-opacity:1;stroke-opacity:1;stroke-dasharray:none"
         id="path30" /><path
         d="m 60.564911,134.18362 2.16507,1.24999 -5.75,9.9593 -2.16507,-1.25 z"
         style="fill:none;stroke:#ff0000;stroke-width:0.1;fill-opacity:1;stroke-opacity:1;stroke-dasharray:none"
         id="path31" /><path
         d="m 37.279971,134.18362 5.75001,9.95929 -2.16507,1.25 -5.75,-9.9593 z"
         style="fill:none;stroke:#ff0000;stroke-width:0.1;fill-opacity:1;stroke-opacity:1;stroke-dasharray:none"
         id="path32" /><path
         d="m 36.663471,128.46702 -1.36603,0.36602 -11.375,19.70208 h 22.75 l 1,-1 v -6.575 h 2.5 v 6.575 l 1,1 h 22.75 l -11.375,-19.70208 -1.36602,-0.36602 -5.69412,3.28749 -1.25,-2.16506 5.69412,-3.2875 0.36602,-1.36602 -11.375,-19.70208 -11.375,19.70208 0.36603,1.36602 5.69412,3.2875 -1.25,2.16506 z"
         style="fill:none;stroke:#ff0000;stroke-width:0.1;fill-opacity:1;stroke-opacity:1;stroke-dasharray:none"
         id="path33" /><path
         style="fill:none;stroke:#ff0000;stroke-width:0.1;fill-opacity:1;stroke-opacity:1;stroke-dasharray:none"
         d="m 52.55282,40.065675 1.000125,1.00013"
         id="path34" /><path
         style="fill:none;stroke:#ff0000;stroke-width:0.1;fill-opacity:1;stroke-opacity:1;stroke-dasharray:none"
         d="M 53.552945,41.065805 H 55.55293"
         id="path35" /><path
         style="fill:none;stroke:#ff0000;stroke-width:0.1;fill-opacity:1;stroke-opacity:1;stroke-dasharray:none"
         d="m 55.55293,41.065805 1.148292,-0.98954"
         id="path36" /><path
         style="fill:none;stroke:#ff0000;stroke-width:0.1;fill-opacity:1;stroke-opacity:1;stroke-dasharray:none"
         d="m 56.701222,40.076265 1.351756,-9.01171"
         id="path37" /><path
         style="fill:none;stroke:#ff0000;stroke-width:0.1;fill-opacity:1;stroke-opacity:1;stroke-dasharray:none"
         d="M 58.052978,31.064555 H 52.55282"
         id="path38" /><path
         style="fill:none;stroke:#ff0000;stroke-width:0.1;fill-opacity:1;stroke-opacity:1;stroke-dasharray:none"
         d="m 52.55282,31.064555 v 6.17008"
         id="path39" /><path
         style="fill:none;stroke:#ff0000;stroke-width:0.1;fill-opacity:1;stroke-opacity:1;stroke-dasharray:none"
         d="m 52.55282,37.234635 -0.113242,0.0185"
         id="path40" /><path
         d="m 52.55292,37.503585 c -0.03848,-0.0828 -0.07587,-0.16706 -0.113257,-0.25133"
         style="fill:none;stroke:#ff0000;stroke-width:0.1;fill-opacity:1;stroke-opacity:1;stroke-dasharray:none"
         id="path41" /><path
         style="fill:none;stroke:#ff0000;stroke-width:0.1;fill-opacity:1;stroke-opacity:1;stroke-dasharray:none"
         d="m 52.55282,37.504515 v 2.56116"
         id="path42" /><path
         style="fill:none;stroke:#ff0000;stroke-width:0.1;fill-opacity:1;stroke-opacity:1;stroke-dasharray:none"
         d="m 62.73301,31.556058 1.000125,1.00013"
         id="path34-2" /><path
         style="fill:none;stroke:#ff0000;stroke-width:0.1;fill-opacity:1;stroke-opacity:1;stroke-dasharray:none"
         d="M 63.733135,32.556188 H 65.73312"
         id="path35-1" /><path
         style="fill:none;stroke:#ff0000;stroke-width:0.1;fill-opacity:1;stroke-opacity:1;stroke-dasharray:none"
         d="m 65.73312,32.556188 1.148292,-0.98954"
         id="path36-6" /><path
         style="fill:none;stroke:#ff0000;stroke-width:0.1;fill-opacity:1;stroke-opacity:1;stroke-dasharray:none"
         d="m 66.881412,31.566648 1.351756,-9.01171"
         id="path37-8" /><path
         style="fill:none;stroke:#ff0000;stroke-width:0.1;fill-opacity:1;stroke-opacity:1;stroke-dasharray:none"
         d="M 68.233168,22.554938 H 62.73301"
         id="path38-5" /><path
         style="fill:none;stroke:#ff0000;stroke-width:0.1;fill-opacity:1;stroke-opacity:1;stroke-dasharray:none"
         d="m 62.73301,22.554938 v 6.17008"
         id="path39-7" /><path
         style="fill:none;stroke:#ff0000;stroke-width:0.1;fill-opacity:1;stroke-opacity:1;stroke-dasharray:none"
         d="m 62.73301,28.725018 -0.113242,0.0185"
         id="path40-6" /><path
         d="m 62.73311,28.993968 c -0.03848,-0.0828 -0.07587,-0.16706 -0.113257,-0.25133"
         style="fill:none;stroke:#ff0000;stroke-width:0.1;fill-opacity:1;stroke-opacity:1;stroke-dasharray:none"
         id="path41-1" /><path
         style="fill:none;stroke:#ff0000;stroke-width:0.1;fill-opacity:1;stroke-opacity:1;stroke-dasharray:none"
         d="m 62.73301,28.994898 v 2.56116"
         id="path42-8" /><path
         d="m 34.357449,35.693556 -1.25,2.165061 -3.104645,-1.792467 v 3.584935 h -2.5 V 36.06615 l -3.104647,1.792467 -1.250001,-2.165061 3.104648,-1.79247 -3.104648,-1.792468 1.250001,-2.165064 3.104647,1.792468 v -3.584935 h 2.5 v 3.584935 l 3.104645,-1.792468 1.25,2.165064 -3.104648,1.792468 z"
         style="fill:none;stroke:#ff0000;stroke-width:0.1;fill-opacity:1;stroke-opacity:1;stroke-dasharray:none"
         id="path5-6" /><path
         d="m 43.627803,27.911078 -1.366025,-0.366027 -5.694117,3.287501 -1.25,-2.165065 5.694117,-3.287498 0.366024,-1.366025 L 28.752804,2.1468206 16.127803,24.013964 l 0.366024,1.366025 5.694119,3.287498 -1.25,2.165065 -5.694119,-3.287501 -1.366025,0.366027 -12.6249991,21.86714 H 26.502803 l 1.000001,-1 v -6.574999 h 2.5 v 6.574999 l 0.999998,1 h 25.249999 z"
         style="fill:none;stroke:#ff0000;stroke-width:0.1;fill-opacity:1;stroke-opacity:1;stroke-dasharray:none"
         id="path6-1" /></g></g></svg>
