<?xml version="1.0" encoding="UTF-8" standalone="no"?>
<!-- Created with Inkscape (http://www.inkscape.org/) -->

<svg
   version="1.1"
   id="svg1"
   width="600"
   height="300"
   viewBox="0 0 600 300"
   sodipodi:docname="WhatsApp Image 2025-02-09 at 18.38.08_6adceb79.svg"
   inkscape:version="1.4.3 (0d15f75, 2025-12-25)"
   xmlns:inkscape="http://www.inkscape.org/namespaces/inkscape"
   xmlns:sodipodi="http://sodipodi.sourceforge.net/DTD/sodipodi-0.dtd"
   xmlns="http://www.w3.org/2000/svg"
   xmlns:svg="http://www.w3.org/2000/svg">
  <defs
     id="defs1" />
  <sodipodi:namedview
     id="namedview1"
     pagecolor="#ffffff"
     bordercolor="#000000"
     borderopacity="0.25"
     inkscape:showpageshadow="2"
     inkscape:pageopacity="0.0"
     inkscape:pagecheckerboard="0"
     inkscape:deskcolor="#d1d1d1"
     inkscape:zoom="1.2078125"
     inkscape:cx="317.51617"
     inkscape:cy="170.97025"
     inkscape:window-width="1920"
     inkscape:window-height="991"
     inkscape:window-x="-9"
     inkscape:window-y="-9"
     inkscape:window-maximized="1"
     inkscape:current-layer="g1" />
  <g
     inkscape:groupmode="layer"
     inkscape:label="Image"
     id="g1">
    <path
       style="fill:#000000;stroke-width:1.14083"
       d="m 184.54667,278.4895 c -11.53176,-3.78762 -21.40077,-12.18296 -26.98037,-22.95167 -2.96937,-5.73082 -3.25102,-7.3122 -3.25102,-18.2529 0,-10.57995 0.35,-12.71106 2.99778,-18.25292 1.64876,-3.45094 4.88909,-8.29883 7.20075,-10.77308 l 4.20304,-4.49866 -1.94668,-5.19818 c -7.25967,-19.38567 -15.22103,-27.05511 -32.41901,-31.23029 -8.79271,-2.13463 -23.95694,-3.71434 -23.95694,-2.49569 0,0.4717 3.05905,4.12774 6.79787,8.12461 7.37329,7.88207 13.63459,19.5883 16.09953,30.1 1.87101,7.97889 1.80805,22.5411 -0.13567,31.37219 l -1.5065,6.84483 -0.99826,-5.1336 c -4.86653,-25.02685 -13.73309,-37.89424 -42.378854,-61.50152 -8.242983,-6.79314 -16.9786,-14.60039 -19.412491,-17.34949 -4.637085,-5.23761 -9.062755,-13.83085 -10.359109,-20.114 -1.030676,-4.99551 -0.171831,-4.91348 19.950856,1.90549 18.368047,6.22436 24.918728,7.59332 41.639498,8.70169 12.41691,0.82306 22.47013,3.98995 30.88823,9.73011 6.94961,4.73884 17.24071,16.38602 20.9298,23.68774 5.66755,11.21766 10.60129,13.84311 25.23234,13.42724 13.72753,-0.39017 17.50198,-2.67043 23.18025,-14.00385 3.40351,-6.79319 13.83716,-18.4939 20.60845,-23.11113 8.46933,-5.77507 18.4822,-8.93911 30.88827,-9.76058 16.82823,-1.11423 23.34135,-2.47052 41.63944,-8.67122 20.12268,-6.81897 20.98155,-6.901 19.95089,-1.90549 -2.55468,12.38199 -9.26602,20.79609 -30.22649,37.89544 -27.86591,22.73276 -37.16918,36.28094 -41.93519,61.06957 l -0.98703,5.1336 -1.53591,-6.84483 c -1.95414,-8.70869 -2.00347,-23.28095 -0.1062,-31.37219 2.46476,-10.51152 8.72609,-22.21786 16.09941,-30.1 3.73885,-3.99687 6.7979,-7.65291 6.7979,-8.12461 0,-1.14776 -14.77728,0.31543 -23.68193,2.34493 -16.95349,3.86392 -25.43953,12.00914 -32.69402,31.38105 l -1.94666,5.19818 4.20302,4.49866 c 2.31167,2.47425 5.55201,7.32214 7.20078,10.77308 2.64775,5.54186 2.99775,7.67297 2.99775,18.25292 0,10.9407 -0.28165,12.52208 -3.251,18.2529 -4.38704,8.46702 -11.31253,15.43973 -19.56512,19.69861 -5.91694,3.05348 -8.23677,3.57693 -17.11213,3.86108 -5.64697,0.18081 -11.55069,-0.0926 -13.11928,-0.60802 z m 21.85936,-13.29961 c 5.71638,-1.94781 13.59653,-8.87579 16.51505,-14.51959 2.91229,-5.63174 3.41887,-18.0047 0.99683,-24.34675 -9.70072,-25.40094 -46.22564,-25.40094 -55.92632,0 -2.42208,6.34205 -1.91548,18.71501 0.99679,24.34675 2.80064,5.41581 10.73895,12.56354 16.04388,14.44607 6.19398,2.19803 15.0493,2.22848 21.37377,0.0735 z m -15.5849,-104.46837 c -5.10978,-9.0109 -17.84839,-21.81082 -26.55148,-26.67933 -8.74423,-4.89148 -16.64029,-7.00002 -40.50269,-10.8156 -12.40943,-1.98422 -26.182263,-4.61078 -30.606276,-5.83675 C 78.230823,113.25257 64.761509,105.03285 53.869996,93.412433 45.767273,84.767451 42.696574,79.970006 29.127095,54.755779 22.542528,42.520622 14.747939,28.217195 11.805794,22.970395 8.8636543,17.723596 6.6891392,13.198045 6.9735535,12.913631 7.9770189,11.910176 22.054238,19.688402 27.685674,24.357911 35.5185,30.852775 41.364178,37.37857 51.33878,50.762955 c 12.3742,16.604269 24.248692,27.072599 37.039879,32.653679 13.344001,5.822268 19.240031,6.817577 46.634901,7.872324 31.88268,1.227542 46.30686,3.810113 57.2101,10.243182 3.68579,2.17469 3.7764,2.17469 7.46217,0 11.0184,-6.501007 24.88564,-8.978565 57.30209,-10.237741 20.56815,-0.798955 27.84109,-1.502241 33.65382,-3.254315 21.66229,-6.529433 33.85957,-15.751145 50.81419,-38.417935 10.01447,-13.388399 15.48176,-19.420488 23.47751,-25.902865 5.45085,-4.419131 18.99999,-11.808127 19.93606,-10.872072 0.32093,0.320944 -1.82412,4.876384 -4.76679,10.123183 -2.94267,5.2468 -11.00072,20.063592 -17.90682,32.926193 -15.67882,29.201905 -21.95258,37.626273 -35.66598,47.892092 -13.71825,10.26948 -23.93813,13.66764 -58.49947,19.4513 -34.21128,5.72506 -40.69073,8.42074 -55.30615,23.00893 -5.80109,5.79027 -10.78986,12.01536 -12.84255,16.02521 -1.84614,3.60635 -3.61327,6.54288 -3.92701,6.52571 -0.3137,-0.017 -2.62385,-3.65241 -5.1336,-8.07831 z"
       id="path1" />
    <path
       style="fill:#000000;stroke-width:0.570418"
       d="m 472.00212,152.1204 c -5.76589,-1.89383 -10.70038,-6.09148 -13.49019,-11.47584 -1.48467,-2.86541 -1.6255,-3.6561 -1.6255,-9.12646 0,-5.28997 0.175,-6.35553 1.49891,-9.12646 0.82438,-1.72544 2.44454,-4.14942 3.60034,-5.38651 l 2.10154,-2.24934 -0.97333,-2.59911 c -3.62983,-9.69282 -7.61052,-13.527538 -16.2095,-15.615148 -4.39637,-1.06729 -11.9785,-1.85714 -11.9785,-1.24783 0,0.23586 1.52956,2.06387 3.39897,4.06233 3.68661,3.940998 6.81727,9.794138 8.04977,15.049988 0.93549,3.98944 0.90401,11.27052 -0.0679,15.68607 l -0.75323,3.42243 -0.49912,-2.56682 c -2.4333,-12.5134 -6.86657,-18.94709 -21.18942,-30.75076 -4.12151,-3.396538 -8.48934,-7.300198 -9.70625,-8.674738 -2.31854,-2.61879 -4.53139,-6.91543 -5.17955,-10.05697 -0.51535,-2.49778 -0.0859,-2.45675 9.97543,0.95273 9.18401,3.1122 12.45935,3.79667 20.81973,4.35085 6.20845,0.41154 11.23507,1.99497 15.44411,4.86505 3.47481,2.36942 8.62035,8.19299 10.4649,11.843858 2.83376,5.60882 5.30065,6.92157 12.61618,6.7136 6.86375,-0.19508 8.75099,-1.33517 11.59011,-7.00189 1.70174,-3.396608 6.91858,-9.246958 10.30423,-11.555568 4.23466,-2.88756 9.2411,-4.46955 15.44412,-4.88029 8.41411,-0.55714 11.67069,-1.23526 20.81972,-4.33561 10.06135,-3.40948 10.49078,-3.45051 9.97545,-0.95273 -1.27736,6.191 -4.633,10.39803 -15.11323,18.947698 -13.93299,11.36639 -18.58459,18.14047 -20.96761,30.53477 l -0.49351,2.56682 -0.76798,-3.42243 c -0.97705,-4.35434 -1.0017,-11.64048 -0.0531,-15.68607 1.23239,-5.25576 4.36302,-11.10895 8.0497,-15.049988 1.86942,-1.99846 3.39894,-3.82647 3.39894,-4.06233 0,-0.57386 -7.38862,0.1577 -11.84093,1.17249 -8.47675,1.93193 -12.7198,6.004568 -16.34703,15.690488 l -0.97332,2.59911 2.10149,2.24934 c 1.15584,1.23709 2.77601,3.66107 3.60039,5.38651 1.32387,2.77093 1.49887,3.83649 1.49887,9.12646 0,5.47036 -0.14079,6.26105 -1.62547,9.12646 -2.19354,4.2335 -5.65626,7.71986 -9.78257,9.84931 -2.95846,1.52675 -4.11837,1.78844 -8.55608,1.93054 -2.82347,0.0904 -5.77534,-0.0463 -6.55963,-0.30401 z m 10.92968,-6.6498 c 2.85821,-0.97393 6.79829,-4.43792 8.25754,-7.2598 1.45616,-2.81587 1.70943,-9.00235 0.49841,-12.17339 -4.85037,-12.70047 -23.11281,-12.70047 -27.96314,0 -1.21105,3.17104 -0.95777,9.35752 0.49837,12.17339 1.40032,2.7079 5.36947,6.28176 8.02196,7.22303 3.09697,1.09901 7.52465,1.11423 10.68686,0.0366 z m -7.79243,-52.234208 c -2.55489,-4.50541 -8.92419,-10.90537 -13.27574,-13.33967 -4.37214,-2.4457 -8.32015,-3.50001 -20.25135,-5.40777 -6.20472,-0.99213 -13.09115,-2.3054 -15.30312,-2.91836 -7.46494,-2.06867 -14.19958,-6.17852 -19.64535,-11.988739 -4.05138,-4.32246 -5.58673,-6.721175 -12.37146,-19.328313 -3.29226,-6.117569 -7.18957,-13.269284 -8.66066,-15.892682 -1.47108,-2.623399 -2.55831,-4.886176 -2.41614,-5.02838 0.50176,-0.501729 7.54036,3.387384 10.35608,5.722136 3.91643,3.247431 6.83925,6.510331 11.82657,13.20252 6.18711,8.302141 12.12433,13.5363 18.51993,16.326836 6.67201,2.91115 9.62002,3.408782 23.31743,3.936176 15.94135,0.613766 23.15346,1.905066 28.60504,5.121556 1.84292,1.08737 1.88823,1.08737 3.7311,0 5.50919,-3.25047 12.44284,-4.489271 28.65105,-5.118858 10.28407,-0.399468 13.92054,-0.751135 16.82691,-1.627125 10.83112,-3.264721 16.92979,-7.875577 25.40708,-19.208987 5.00725,-6.694201 7.74089,-9.710245 11.73878,-12.95143 2.72539,-2.209566 9.5,-5.904063 9.96801,-5.436036 0.16047,0.160472 -0.91207,2.438193 -2.38338,5.061592 -1.47135,2.623398 -5.50036,10.031793 -8.95343,16.463098 -7.8394,14.600953 -10.97626,18.813119 -17.83298,23.946046 -6.85911,5.13474 -11.96906,6.83382 -29.24972,9.72566 -17.10565,2.8625 -20.34536,4.21037 -27.6531,11.50446 -2.90051,2.89514 -5.39492,6.00766 -6.42125,8.01258 -0.92309,1.8032 -1.80664,3.27145 -1.96353,3.26288 -0.15682,-0.009 -1.3119,-1.82621 -2.56677,-4.03919 z"
       id="path1-8" />
    <path
       style="fill:#000000;stroke-width:0.570418"
       d="m 464.50023,246.3455 c -5.76589,-1.89383 -10.70038,-6.09148 -13.49019,-11.47584 -1.48467,-2.86541 -1.6255,-3.6561 -1.6255,-9.12646 0,-5.28997 0.175,-6.35553 1.49891,-9.12646 0.82438,-1.72544 2.44454,-4.14942 3.60034,-5.38651 l 2.10154,-2.24934 -0.97333,-2.59911 c -3.62983,-9.69282 -7.61052,-13.52754 -16.2095,-15.61515 -4.39637,-1.06729 -11.9785,-1.85714 -11.9785,-1.24783 0,0.23586 1.52956,2.06387 3.39897,4.06233 3.68661,3.941 6.81727,9.79414 8.04977,15.04999 0.93549,3.98944 0.90401,11.27052 -0.0679,15.68607 l -0.75323,3.42243 -0.49912,-2.56682 c -2.4333,-12.5134 -6.86657,-18.94709 -21.18942,-30.75076 -4.12151,-3.39654 -8.48934,-7.3002 -9.70625,-8.67474 -2.31854,-2.61879 -4.53139,-6.91543 -5.17955,-10.05697 -0.51535,-2.49778 -0.0859,-2.45675 9.97543,0.95273 9.18401,3.1122 12.45935,3.79667 20.81973,4.35085 6.20845,0.41154 11.23507,1.99497 15.44411,4.86505 3.47481,2.36942 8.62035,8.19299 10.4649,11.84386 2.83376,5.60882 5.30065,6.92157 12.61618,6.7136 6.86375,-0.19508 8.75099,-1.33517 11.59011,-7.00189 1.70174,-3.39661 6.91858,-9.24696 10.30423,-11.55557 4.23466,-2.88756 9.2411,-4.46955 15.44412,-4.88029 8.41411,-0.55714 11.67069,-1.23526 20.81972,-4.33561 10.06135,-3.40948 10.49078,-3.45051 9.97545,-0.95273 -1.27736,6.191 -4.633,10.39803 -15.11323,18.9477 -13.93299,11.36639 -18.58459,18.14047 -20.96761,30.53477 l -0.49351,2.56682 -0.76798,-3.42243 c -0.97705,-4.35434 -1.0017,-11.64048 -0.0531,-15.68607 1.23239,-5.25576 4.36302,-11.10895 8.0497,-15.04999 1.86942,-1.99846 3.39894,-3.82647 3.39894,-4.06233 0,-0.57386 -7.38862,0.1577 -11.84093,1.17249 -8.47675,1.93193 -12.7198,6.00457 -16.34703,15.69049 l -0.97332,2.59911 2.10149,2.24934 c 1.15584,1.23709 2.77601,3.66107 3.60039,5.38651 1.32387,2.77093 1.49887,3.83649 1.49887,9.12646 0,5.47036 -0.14079,6.26105 -1.62547,9.12646 -2.19354,4.2335 -5.65626,7.71986 -9.78257,9.84931 -2.95846,1.52675 -4.11837,1.78844 -8.55608,1.93054 -2.82347,0.0904 -5.77534,-0.0463 -6.55963,-0.30401 z m 10.92968,-6.6498 c 2.85821,-0.97393 6.79829,-4.43792 8.25754,-7.2598 1.45616,-2.81587 1.70943,-9.00235 0.49841,-12.17339 -4.85037,-12.70047 -23.11281,-12.70047 -27.96314,0 -1.21105,3.17104 -0.95777,9.35752 0.49837,12.17339 1.40032,2.7079 5.36947,6.28176 8.02196,7.22303 3.09697,1.09901 7.52465,1.11423 10.68686,0.0366 z m -7.79243,-52.23421 c -2.55489,-4.50541 -8.92419,-10.90537 -13.27574,-13.33967 -4.37214,-2.4457 -8.32015,-3.50001 -20.25135,-5.40777 -6.20472,-0.99213 -13.09115,-2.3054 -15.30312,-2.91836 -7.46494,-2.06867 -14.19958,-6.17852 -19.64535,-11.98874 -4.05138,-4.32246 -5.58673,-6.72117 -12.37146,-19.32831 -3.29226,-6.11757 -7.18957,-13.26929 -8.66066,-15.89268 -1.47108,-2.6234 -2.55831,-4.88618 -2.41614,-5.02838 0.50176,-0.50173 7.54036,3.38738 10.35608,5.72213 3.91643,3.24743 6.83925,6.51033 11.82657,13.20252 6.18711,8.30214 12.12433,13.5363 18.51993,16.32684 6.67201,2.91115 9.62002,3.40878 23.31743,3.93617 15.94135,0.61377 23.15346,1.90507 28.60504,5.12156 1.84292,1.08737 1.88823,1.08737 3.7311,0 5.50919,-3.25047 12.44284,-4.48927 28.65105,-5.11886 10.28407,-0.39947 13.92054,-0.75113 16.82691,-1.62712 10.83112,-3.26472 16.92979,-7.87558 25.40708,-19.20899 5.00725,-6.6942 7.74089,-9.71024 11.73878,-12.95143 2.72539,-2.20957 9.5,-5.90406 9.96801,-5.43604 0.16047,0.16048 -0.91207,2.4382 -2.38338,5.0616 -1.47135,2.62339 -5.50036,10.03179 -8.95343,16.46309 -7.8394,14.60096 -10.97626,18.81312 -17.83298,23.94605 -6.85911,5.13474 -11.96906,6.83382 -29.24972,9.72566 -17.10565,2.8625 -20.34536,4.21037 -27.6531,11.50446 -2.90051,2.89514 -5.39492,6.00766 -6.42125,8.01258 -0.92309,1.8032 -1.80664,3.27145 -1.96353,3.26288 -0.15682,-0.009 -1.3119,-1.82621 -2.56677,-4.03919 z"
       id="path1-8-1" />
    <path
       style="fill:#000000;stroke-width:0.570418"
       d="m 413.63816,253.9811 c -4.25981,4.32275 -10.2136,6.87654 -16.27687,6.98166 -3.22672,0.0559 -3.99758,-0.16943 -8.89758,-2.60147 -4.73842,-2.35185 -5.61508,-2.98234 -7.50851,-5.40013 -1.17903,-1.50553 -2.62998,-4.03443 -3.22423,-5.61972 l -1.0805,-2.88245 -2.76085,-0.28368 c -10.29598,-1.05792 -15.50063,0.80287 -21.19357,7.57717 -2.91057,3.46348 -6.98897,9.90392 -6.44319,10.17481 0.21127,0.10486 2.5287,-0.45252 5.14991,-1.23853 5.16911,-1.55012 11.80383,-1.75214 17.05963,-0.51946 3.98939,0.9357 10.49733,4.20096 14.0204,7.03462 l 2.73072,2.19626 -2.5211,-0.69409 c -12.29052,-3.38368 -20.02437,-2.27297 -36.96508,5.30878 -4.87477,2.18174 -10.3133,4.35865 -12.08554,4.83758 -3.37654,0.91252 -8.209,0.98443 -11.31115,0.16832 -2.46647,-0.64886 -2.23879,-1.01529 5.28833,-8.51178 6.87079,-6.84281 8.94006,-9.47235 13.15337,-16.71466 3.12882,-5.37817 6.78192,-9.17673 11.22403,-11.67092 3.66723,-2.0591 11.17124,-4.07907 15.26152,-4.10818 6.28387,-0.0447 8.5565,-1.67075 11.62259,-8.316 2.87679,-6.23484 2.69461,-8.43218 -1.11905,-13.49462 -2.2859,-3.0344 -5.20693,-10.30829 -5.76963,-14.36732 -0.70382,-5.0769 0.10492,-10.26468 2.49478,-16.00356 3.24175,-7.78452 4.08216,-11.00304 5.37259,-20.57653 1.41914,-10.52813 1.57331,-10.93102 3.58155,-9.35895 4.97761,3.89661 7.25413,8.77277 10.25302,21.96135 3.98688,17.53362 7.98663,24.71189 18.0292,32.35677 l 2.07978,1.58323 -3.40702,-0.83366 c -4.33473,-1.06069 -10.87215,-4.27793 -14.07419,-6.92624 -4.15988,-3.44053 -8.01096,-8.84699 -9.90204,-13.90142 -0.95898,-2.56299 -1.91639,-4.74574 -2.12766,-4.8506 -0.51403,-0.25513 -3.14362,6.68836 -4.21407,11.12762 -2.03814,8.45184 -0.27653,14.06313 6.78689,21.6184 l 1.89539,2.02736 2.94911,-0.88235 c 1.62197,-0.48534 4.51353,-0.85892 6.42557,-0.83024 3.0706,0.0461 4.10286,0.36306 8.84128,2.7149 4.9,2.43205 5.54566,2.90969 7.45224,5.51349 2.81688,3.84699 4.40027,8.49866 4.47319,13.14147 0.0523,3.32877 -0.22899,4.48408 -2.07465,8.52228 -1.1743,2.56927 -2.60911,5.15259 -3.18863,5.74054 z m -1.09729,-12.74651 c 0.39834,-2.9932 -0.95278,-8.06252 -2.83168,-10.62419 -1.87489,-2.55623 -7.30374,-5.53351 -10.68256,-5.85856 -13.53268,-1.30179 -21.6519,15.05654 -12.43201,25.0476 2.302,2.49458 7.95605,5.01813 11.12571,4.96571 3.04813,-0.0504 8.01399,-2.01685 10.03638,-3.9743 2.36129,-2.28547 4.34341,-6.24474 4.78401,-9.55634 z m -50.25248,-16.24263 c -5.17153,0.28547 -13.7359,3.14535 -17.85103,5.96094 -4.13449,2.82896 -6.83411,5.8966 -13.8474,15.73565 -3.64722,5.1167 -7.88517,10.70127 -9.41763,12.4101 -5.17179,5.76691 -11.84725,9.97219 -19.47279,12.26703 -5.67296,1.70727 -8.50418,2.0161 -22.81324,2.48847 -6.94343,0.22921 -15.08216,0.54063 -18.08606,0.69201 -3.0039,0.15137 -5.51412,0.11924 -5.57828,-0.0713 -0.22635,-0.67251 6.38653,-5.2482 9.72969,-6.73234 4.65003,-2.06432 8.87217,-3.23176 17.0839,-4.72383 10.18723,-1.85101 17.51526,-4.84216 22.85823,-9.3303 5.5739,-4.68211 7.33029,-7.10151 13.89238,-19.1363 7.63706,-14.00638 12.00013,-19.89243 17.30495,-23.3456 1.79333,-1.16734 1.81348,-1.20793 1.65879,-3.34208 -0.46225,-6.3799 1.51071,-13.14137 8.15271,-27.93956 4.21433,-9.38941 5.51605,-12.80308 6.02353,-15.79587 1.89103,-11.15328 0.4723,-18.666 -5.91057,-31.29809 -3.77008,-7.46132 -5.25632,-11.25083 -6.38217,-16.27287 -0.76751,-3.42357 -1.06491,-11.13436 -0.43761,-11.34549 0.21508,-0.0724 1.77848,1.90096 3.47423,4.38519 1.69573,2.48427 6.54046,9.38686 10.76603,15.33917 9.59332,13.51341 11.97171,18.19588 13.52105,26.61972 1.54991,8.42678 0.80003,13.75934 -4.29238,30.52392 -5.04089,16.59478 -5.27388,20.09595 -1.98922,29.88461 1.30376,3.88523 2.98278,7.50334 4.32237,9.31402 1.2048,1.62853 2.12715,3.07272 2.04972,3.20944 -0.0778,0.13647 -2.21906,0.36321 -4.7592,0.50338 z"
       id="path1-8-2" />
    <path
       style="fill:#000000;stroke-width:0.399293"
       d="m 191.84876,97.278642 c -4.03695,-1.323184 -7.49292,-4.259395 -9.44812,-8.02723 -1.04049,-2.005158 -1.13944,-2.558561 -1.14182,-6.387815 -0.002,-3.702973 0.11973,-4.448955 1.04527,-6.38918 0.57631,-1.208165 1.70937,-2.905647 2.5179,-3.772116 l 1.4701,-1.575455 -0.68247,-1.81895 c -2.54508,-6.783394 -5.33324,-9.465969 -11.35344,-10.923561 -3.07791,-0.745194 -8.38575,-1.294781 -8.38549,-0.868271 1.1e-4,0.165103 1.0716,1.444038 2.38105,2.842148 2.58234,2.757099 4.77635,6.852939 5.64138,10.5315 0.65657,2.792195 0.63771,7.888974 -0.0408,10.980279 l -0.52577,2.39603 -0.3505,-1.796567 c -1.70876,-8.758313 -4.81484,-13.259969 -14.84596,-21.516312 -2.88655,-2.375791 -5.94572,-5.106456 -6.79816,-6.068098 -1.62411,-1.832154 -3.17498,-4.838838 -3.63005,-7.037634 -0.36183,-1.748224 -0.0612,-1.71969 6.98321,0.662585 6.43016,2.174541 8.7232,2.652239 14.57571,3.036539 4.3461,0.285381 7.86542,1.391591 10.81299,3.398815 2.4334,1.657092 6.0378,5.731346 7.33058,8.286153 1.98606,3.924944 3.71346,4.842802 8.83424,4.694034 4.80455,-0.139536 6.12513,-0.93842 8.11004,-4.906352 1.18974,-2.378373 4.83899,-6.475875 7.20794,-8.093383 2.963,-2.023131 6.46682,-3.132701 10.80875,-3.422921 5.88965,-0.393645 8.16896,-0.86975 14.57193,-3.043976 7.04147,-2.391008 7.34205,-2.419918 6.9824,-0.671248 -0.89146,4.33426 -3.23857,7.280648 -10.57102,13.269961 -9.74816,7.962535 -13.00133,12.706418 -14.66406,21.38346 l -0.34433,1.796988 -0.53907,-2.395365 c -0.68585,-3.047616 -0.70627,-8.147904 -0.0439,-10.980226 0.86038,-3.679577 3.04928,-7.778173 5.62825,-10.538492 1.30772,-1.399737 2.37759,-2.680011 2.37748,-2.845115 -2.5e-4,-0.401703 -5.17196,0.113602 -8.28814,0.825887 -5.93289,1.35604 -8.90125,4.208732 -11.4361,10.990455 l -0.6802,1.819798 1.47203,1.573627 c 0.80962,0.865462 1.9448,2.561545 2.52261,3.768992 0.9279,1.939088 1.05088,2.684894 1.05318,6.387868 0.002,3.829253 -0.0958,4.382805 -1.13386,6.389232 -1.53365,2.964401 -3.95603,5.40636 -6.84353,6.898769 -2.07025,1.070028 -2.88207,1.2537 -5.98841,1.355103 -1.97639,0.06458 -4.04276,-0.02992 -4.59188,-0.209956 z m 7.64788,-4.65962 c 2.00032,-0.68299 4.75689,-3.109493 5.77713,-5.085445 1.01809,-1.971742 1.19269,-6.302388 0.34359,-8.52159 -3.40078,-8.888223 -16.18449,-8.880287 -19.57419,0.01216 -0.84636,2.22026 -0.66638,6.550679 0.35415,8.521161 0.98139,1.894926 3.76136,4.394895 5.6185,5.052632 2.16837,0.767953 5.26775,0.776685 7.48082,0.021 z m -5.4774,-36.56056 c -1.79039,-3.152677 -6.25167,-7.629877 -9.29882,-9.331997 -3.06156,-1.710083 -5.82563,-2.446395 -14.17831,-3.77664 -4.34372,-0.691793 -9.1648,-1.608084 -10.71344,-2.036195 -5.22635,-1.444826 -9.94239,-4.31879 -13.75696,-8.383576 -2.83785,-3.023956 -3.91363,-4.702399 -8.66842,-13.524438 -2.30724,-4.280876 -5.03848,-9.2853768 -6.06937,-11.121118 -1.0309,-1.8357413 -1.79294,-3.41922 -1.6935,-3.5188037 0.35102,-0.351435 5.27973,2.3678812 7.25174,4.0009899 2.74292,2.2714998 4.79031,4.5542608 8.28433,9.2366218 4.3346,5.80881 8.49293,9.470143 12.97106,11.420728 4.67167,2.0349 6.7355,2.38196 16.32392,2.74519 11.15921,0.422704 16.20824,1.32349 20.02575,3.57266 1.29052,0.760348 1.32224,0.76034 2.61177,-0.0018 3.85503,-2.27773 8.70803,-3.1479 20.05351,-3.595655 7.19868,-0.284095 9.74405,-0.531851 11.77814,-1.146303 7.58036,-2.290015 11.84743,-5.520261 17.77659,-13.457342 3.50218,-4.68811 5.41441,-6.800526 8.21153,-9.0710985 1.90682,-1.547875 6.64744,-4.1369737 6.97525,-3.8095575 0.11239,0.1122625 -0.6374,1.707125 -1.66618,3.5441525 -1.0288,1.8370187 -3.84588,7.0246395 -6.26024,11.5280545 -5.48123,10.224078 -7.6752,13.173965 -12.47268,16.769987 -4.79914,3.5973 -8.37537,4.788875 -20.47057,6.820678 -11.97271,2.011187 -14.23993,2.9561 -19.35217,8.065137 -2.0291,2.027865 -3.77384,4.207718 -4.4914,5.611612 -0.64538,1.262633 -1.26323,2.290793 -1.37306,2.284861 -0.10977,-0.0061 -0.91911,-1.27778 -1.79848,-2.826311 z"
       id="path1-8-2-2" />
  </g>
</svg>
