<svg xmlns="http://www.w3.org/2000/svg" width="450.0000000066666mm" height="153.99999999969444mm" viewBox="0 0 1275.5905512 436.53543307"><g transform="translate(0 0)"><g transform="translate(-183.28818519788948 -183.28818519788948) rotate(360)"><path d="M199.445669 199.445669 L257.924409 199.445669 L257.924409 186.122835 L294.32126 186.122835 L294.32126 199.445669 L329.924409 199.445669 L329.924409 186.122835 L366.32126 186.122835 L366.32126 199.445669 L401.924409 199.445669 L401.924409 186.122835 L438.32126 186.122835 L438.32126 199.445669 L473.924409 199.445669 L473.924409 186.122835 L510.32126 186.122835 L510.32126 199.445669 L568.8 199.445669 L568.8 239.924409 L582.122835 239.924409 L582.122835 276.32126 L568.8 276.32126 L568.8 311.924409 L582.122835 311.924409 L582.122835 348.32126 L568.8 348.32126 L568.8 383.924409 L582.122835 383.924409 L582.122835 420.32126 L568.8 420.32126 L568.8 460.8 L510.32126 460.8 L510.32126 474.122835 L473.924409 474.122835 L473.924409 460.8 L438.32126 460.8 L438.32126 474.122835 L401.924409 474.122835 L401.924409 460.8 L366.32126 460.8 L366.32126 474.122835 L329.924409 474.122835 L329.924409 460.8 L294.32126 460.8 L294.32126 474.122835 L257.924409 474.122835 L257.924409 460.8 L199.445669 460.8 L199.445669 420.32126 L186.122835 420.32126 L186.122835 383.924409 L199.445669 383.924409 L199.445669 348.32126 L186.122835 348.32126 L186.122835 311.924409 L199.445669 311.924409 L199.445669 276.32126 L186.122835 276.32126 L186.122835 239.924409 L199.445669 239.924409 L199.445669 199.445669 Z " fill="none" stroke="#000000" stroke-width="0.72" stroke-linecap="round" stroke-linejoin="round"/><path d="M 331.652837 318.386831 L 324.308837 318.386831 L 324.308835 344.090835 L 333.344832 344.090835 C 335.192836 344.090835 336.782837 343.808832 338.114836 343.244827 C 339.446836 342.680834 340.472839 341.852825 341.192832 340.760827 C 341.912838 339.668829 342.272835 338.342831 342.272835 336.782832 C 342.272837 335.438827 342.020836 334.346828 341.516834 333.506829 C 341.012834 332.66683 340.322835 332.018826 339.446836 331.562833 C 338.570835 331.106832 337.592835 330.794828 336.512834 330.626828 L 336.512836 330.446828 C 337.568835 330.254829 338.462837 329.900829 339.194835 329.384828 C 339.926834 328.868831 340.478836 328.220826 340.850837 327.440831 C 341.222832 326.660828 341.408838 325.766832 341.408836 324.758828 C 341.408836 322.406827 340.586837 320.756831 338.942836 319.808831 C 337.298835 318.860827 334.868838 318.386835 331.652837 318.386831 z" fill="#9d61ff" fill-rule="evenodd" stroke="none"/><path d="M 332.300837 329.330832 L 327.548838 329.330832 L 327.548836 321.158832 L 331.796837 321.158827 C 333.980835 321.158827 335.570836 321.464835 336.566837 322.076829 C 337.562835 322.688828 338.060836 323.702827 338.060836 325.118832 C 338.060836 326.51083 337.652835 327.560831 336.836837 328.268831 C 336.020836 328.976831 334.508836 329.330832 332.300837 329.330832 z" fill="#9d61ff" fill-rule="evenodd" stroke="none"/><path d="M 327.548832 332.030833 L 332.480837 332.030833 C 334.064836 332.030829 335.318837 332.216828 336.242837 332.588827 C 337.166836 332.96083 337.826836 333.482831 338.222837 334.15483 C 338.618836 334.826828 338.816837 335.618826 338.816835 336.530829 C 338.816837 337.970832 338.372832 339.134833 337.484837 340.022829 C 336.596837 340.910833 335.012831 341.354836 332.732836 341.354827 L 327.548836 341.354827 L 327.548832 332.030833 z" fill="#9d61ff" fill-rule="evenodd" stroke="none"/><path d="M 363.422835 338.672833 C 363.842831 337.436832 364.052832 336.014832 364.052832 334.406828 C 364.052837 332.270833 363.674834 330.464831 362.918833 328.988831 C 362.162836 327.51283 361.118831 326.384831 359.786837 325.604831 C 358.454831 324.824832 356.912835 324.43483 355.160833 324.434832 C 353.312834 324.434832 351.716834 324.824832 350.372833 325.604831 C 349.028836 326.384833 347.996835 327.51283 347.276834 328.988833 C 346.556837 330.464827 346.196835 332.270833 346.196835 334.406833 C 346.196835 336.014828 346.418836 337.436832 346.862834 338.672828 C 347.306834 339.908829 347.924834 340.95883 348.716835 341.822827 C 349.508835 342.686833 350.444834 343.340829 351.524835 343.784827 C 352.604834 344.228833 353.780832 344.45083 355.052835 344.45083 C 356.420831 344.45083 357.662832 344.228829 358.778837 343.784827 C 359.894833 343.340829 360.842838 342.686829 361.622833 341.822827 C 362.402828 340.95883 363.002831 339.908829 363.422835 338.672833 z" fill="#9d61ff" fill-rule="evenodd" stroke="none"/><path d="M 350.066836 338.348826 C 349.670834 337.23283 349.472833 335.91883 349.472831 334.406833 C 349.472833 332.126829 349.916834 330.338829 350.804836 329.042831 C 351.692834 327.746828 353.120833 327.09883 355.088834 327.09883 C 356.408836 327.098833 357.482835 327.392833 358.310832 327.980831 C 359.138832 328.568829 359.756835 329.402831 360.164835 330.48283 C 360.572836 331.562829 360.776838 332.870832 360.77683 334.406828 C 360.77683 335.91883 360.578835 337.23283 360.182834 338.34883 C 359.786833 339.464831 359.168835 340.322829 358.328831 340.922828 C 357.488832 341.522832 356.420834 341.822832 355.124836 341.822827 C 353.828835 341.822832 352.760831 341.522832 351.920836 340.922828 C 351.080835 340.322833 350.462835 339.464831 350.066836 338.348826 z" fill="#9d61ff" fill-rule="evenodd" stroke="none"/><path d="M376.976833 341.732836 C376.472835 341.816834 375.980832 341.858835 375.500832 341.858835 C374.612832 341.858835 373.886834 341.576838 373.322836 341.012836 C372.758834 340.448835 372.476828 339.578836 372.476833 338.402834 L372.476833 327.242837 L378.056832 327.242839 L378.056832 324.794834 L372.476833 324.794838 L372.476833 320.36684 L370.604835 320.366838 L369.344832 324.470834 L366.572836 325.730835 L366.572832 327.242835 L369.308831 327.242835 L369.308831 338.474834 C369.308835 340.034838 369.572829 341.246834 370.100833 342.110837 C370.628834 342.974836 371.318835 343.580837 372.170829 343.928836 C373.022836 344.276836 373.952833 344.450836 374.960833 344.450836 C375.53683 344.450834 376.136834 344.396836 376.760831 344.288835 C377.384833 344.180837 377.864828 344.042834 378.20083 343.874835 L378.20083 341.462834 C377.888827 341.558834 377.480839 341.648838 376.976833 341.732836 Z " fill="#9d61ff" fill-rule="evenodd" stroke="none"/><path d="M389.972833 341.732836 C389.468835 341.816834 388.976832 341.858835 388.496832 341.858835 C387.608832 341.858835 386.882834 341.576838 386.318836 341.012836 C385.754834 340.448835 385.472828 339.578836 385.472833 338.402834 L385.472833 327.242837 L391.052832 327.242839 L391.052832 324.794834 L385.472833 324.794838 L385.472833 320.36684 L383.600835 320.366838 L382.340832 324.470834 L379.568836 325.730835 L379.568832 327.242835 L382.304831 327.242835 L382.304831 338.474834 C382.304835 340.034838 382.568829 341.246834 383.096833 342.110837 C383.624834 342.974836 384.314835 343.580837 385.166829 343.928836 C386.018836 344.276836 386.948833 344.450836 387.956833 344.450836 C388.53283 344.450834 389.132834 344.396836 389.756831 344.288835 C390.380833 344.180837 390.860828 344.042834 391.19683 343.874835 L391.19683 341.462834 C390.884827 341.558834 390.476839 341.648838 389.972833 341.732836 Z " fill="#9d61ff" fill-rule="evenodd" stroke="none"/><path d="M 411.194835 338.672833 C 411.614831 337.436832 411.824832 336.014832 411.824832 334.406828 C 411.824837 332.270833 411.446834 330.464831 410.690833 328.988831 C 409.934836 327.51283 408.890831 326.384831 407.558837 325.604831 C 406.226831 324.824832 404.684835 324.43483 402.932833 324.434832 C 401.084834 324.434832 399.488834 324.824832 398.144833 325.604831 C 396.800836 326.384833 395.768835 327.51283 395.048834 328.988833 C 394.328837 330.464827 393.968835 332.270833 393.968835 334.406833 C 393.968835 336.014828 394.190836 337.436832 394.634834 338.672828 C 395.078834 339.908829 395.696834 340.95883 396.488835 341.822827 C 397.280835 342.686833 398.216834 343.340829 399.296835 343.784827 C 400.376834 344.228833 401.552832 344.45083 402.824835 344.45083 C 404.192831 344.45083 405.434832 344.228829 406.550837 343.784827 C 407.666833 343.340829 408.614838 342.686829 409.394833 341.822827 C 410.174828 340.95883 410.774831 339.908829 411.194835 338.672833 z" fill="#9d61ff" fill-rule="evenodd" stroke="none"/><path d="M 397.838836 338.348826 C 397.442834 337.23283 397.244833 335.91883 397.244831 334.406833 C 397.244833 332.126829 397.688834 330.338829 398.576836 329.042831 C 399.464834 327.746828 400.892833 327.09883 402.860834 327.09883 C 404.180836 327.098833 405.254835 327.392833 406.082832 327.980831 C 406.910832 328.568829 407.528835 329.402831 407.936835 330.48283 C 408.344836 331.562829 408.548838 332.870832 408.54883 334.406828 C 408.54883 335.91883 408.350835 337.23283 407.954834 338.34883 C 407.558833 339.464831 406.940835 340.322829 406.100831 340.922828 C 405.260832 341.522832 404.192834 341.822832 402.896836 341.822827 C 401.600835 341.822832 400.532831 341.522832 399.692836 340.922828 C 398.852835 340.322833 398.234835 339.464831 397.838836 338.348826 z" fill="#9d61ff" fill-rule="evenodd" stroke="none"/><path d="M442.892831 326.10883 C441.812828 324.992833 440.180834 324.43483 437.996834 324.43483 C436.748834 324.43483 435.566834 324.698828 434.450829 325.226829 C433.334828 325.754829 432.452832 326.570829 431.804832 327.67483 L431.624832 327.674832 C431.168827 326.570829 430.442828 325.754829 429.446831 325.226829 C428.450831 324.698833 427.20883 324.434826 425.720835 324.43483 C424.952831 324.43483 424.208833 324.542827 423.488834 324.758828 C422.768835 324.97483 422.114839 325.304827 421.52683 325.748829 C420.93883 326.192826 420.440832 326.750829 420.032827 327.422827 L419.852831 327.422827 L419.384831 324.794834 L416.828836 324.79483 L416.828827 344.090831 L419.99683 344.090834 L419.99683 334.082827 C419.99683 332.570827 420.158826 331.298834 420.482837 330.266827 C420.806831 329.234829 421.340835 328.44883 422.084833 327.908826 C422.82883 327.368831 423.848831 327.098832 425.144834 327.098829 C426.056837 327.098833 426.800834 327.266828 427.376831 327.602829 C427.952837 327.938831 428.384831 328.44883 428.672836 329.13283 C428.960832 329.81683 429.10483 330.662831 429.10483 331.670828 L429.104835 344.090827 L432.236835 344.090831 L432.236835 333.434831 C432.236835 331.370829 432.638832 329.798827 433.442833 328.718828 C434.246835 327.638827 435.584833 327.098829 437.45683 327.098829 C438.800831 327.098831 439.790833 327.482831 440.426834 328.250829 C441.062835 329.018832 441.380833 330.158828 441.380833 331.67083 L441.380829 344.090831 L444.512829 344.090829 L444.512829 331.526832 C444.512829 329.030831 443.97283 327.224831 442.892831 326.10883 Z " fill="#9d61ff" fill-rule="evenodd" stroke="none"/></g><g transform="translate(218.3811038 -484.6110216) rotate(0)"><path d="M568.8 660.245669 L199.445669 660.245669 L186.122835 660.245669 L186.122835 598.308661 L199.445669 598.308661 L199.445669 562.705512 L186.122835 562.705512 L186.122835 500.768504 L186.122835 487.445669 L199.445669 487.445669 L258.32126 487.445669 L258.32126 500.768504 L293.924409 500.768504 L293.924409 487.445669 L330.32126 487.445669 L330.32126 500.768504 L365.924409 500.768504 L365.924409 487.445669 L402.32126 487.445669 L402.32126 500.768504 L437.924409 500.768504 L437.924409 487.445669 L474.32126 487.445669 L474.32126 500.768504 L509.924409 500.768504 L509.924409 487.445669 L568.8 487.445669 L582.122835 487.445669 L582.122835 500.768504 L582.122835 562.705512 L568.8 562.705512 L568.8 598.308661 L582.122835 598.308661 L582.122835 660.245669 L568.8 660.245669 Z " fill="none" stroke="#000000" stroke-width="0.72" stroke-linecap="round" stroke-linejoin="round"/><path d="M 413.336833 592.24309 L 420.680832 592.24309 L 420.680835 566.539087 L 411.644837 566.539087 C 409.796834 566.539087 408.206832 566.821089 406.874833 567.385094 C 405.542833 567.949087 404.51683 568.777096 403.796837 569.869094 C 403.076832 570.961092 402.716834 572.287091 402.716834 573.847089 C 402.716832 575.191095 402.968833 576.283093 403.472835 577.123092 C 403.976835 577.963091 404.666834 578.611096 405.542833 579.067088 C 406.418834 579.52309 407.396834 579.835093 408.476835 580.003094 L 408.476833 580.183093 C 407.420834 580.375092 406.526833 580.729092 405.794834 581.245094 C 405.062836 581.761091 404.510833 582.409095 404.138832 583.18909 C 403.766837 583.969094 403.580832 584.863089 403.580834 585.871093 C 403.580834 588.223094 404.402832 589.873091 406.046833 590.82109 C 407.690834 591.769095 410.120832 592.243086 413.336833 592.24309 z" fill="#9d61ff" fill-rule="evenodd" stroke="none"/><path d="M 412.688832 581.29909 L 417.440831 581.29909 L 417.440833 589.47109 L 413.192832 589.471094 C 411.008834 589.471094 409.418833 589.165086 408.422832 588.553092 C 407.426834 587.941093 406.928833 586.927094 406.928833 585.511089 C 406.928833 584.119091 407.336834 583.06909 408.152833 582.36109 C 408.968834 581.65309 410.480834 581.29909 412.688832 581.29909 z" fill="#9d61ff" fill-rule="evenodd" stroke="none"/><path d="M 417.440838 578.599088 L 412.508832 578.599088 C 410.924834 578.599092 409.670832 578.413093 408.746833 578.041094 C 407.822833 577.669091 407.162834 577.14709 406.766832 576.475092 C 406.370833 575.803093 406.172832 575.011095 406.172835 574.099092 C 406.172832 572.659089 406.616837 571.495088 407.504833 570.607092 C 408.392833 569.719088 409.976838 569.275086 412.256834 569.275094 L 417.440833 569.275094 L 417.440838 578.599088 z" fill="#9d61ff" fill-rule="evenodd" stroke="none"/><path d="M 385.184836 584.611084 C 386.312837 585.643086 388.052837 586.159087 390.404835 586.159087 C 391.652835 586.159089 392.852834 585.997084 394.004838 585.673086 C 395.156834 585.349084 396.152835 584.959086 396.992834 584.503087 L 396.020834 582.127088 C 395.228835 582.511086 394.376837 582.853084 393.464834 583.153084 C 392.552834 583.453088 391.592835 583.603086 390.584835 583.603088 C 389.312835 583.603086 388.328833 583.291085 387.632834 582.667085 C 386.936833 582.043087 386.588837 580.927084 386.588833 579.319087 L 386.588833 578.167085 L 389.864833 578.059089 C 393.008835 577.963087 395.336834 577.393085 396.848834 576.349084 C 398.360834 575.305082 399.116835 573.823084 399.116837 571.903088 C 399.116835 570.607088 398.852836 569.533088 398.324834 568.681082 C 397.796834 567.829088 397.070835 567.199086 396.146835 566.791081 C 395.222835 566.383088 394.184835 566.17909 393.032836 566.179087 C 391.952834 566.179091 391.034834 566.287088 390.278836 566.503085 C 389.522835 566.719086 388.850836 567.061087 388.262836 567.529088 C 387.674836 567.997084 387.104834 568.579085 386.552835 569.275086 L 386.408833 569.275086 L 385.796834 566.539091 L 383.492838 566.539087 L 383.492838 579.679087 C 383.492834 581.935087 384.056836 583.579085 385.184836 584.611084 z" fill="#9d61ff" fill-rule="evenodd" stroke="none"/><path d="M 389.468836 575.863085 L 386.624834 575.971085 L 386.624834 574.243086 C 386.624837 572.371087 387.164837 570.985088 388.244835 570.085087 C 389.324834 569.185087 390.680834 568.735086 392.312836 568.735086 C 393.344834 568.735086 394.190835 568.987089 394.850835 569.491083 C 395.510834 569.995085 395.840836 570.787088 395.840836 571.867091 C 395.840836 573.091084 395.378835 574.039088 394.454833 574.711087 C 393.530833 575.383084 391.868834 575.767083 389.468836 575.863085 z" fill="#9d61ff" fill-rule="evenodd" stroke="none"/><path d="M374.330837 567.223093 C372.998839 566.527089 371.480839 566.179087 369.776836 566.179087 C368.672836 566.17909 367.730836 566.26909 366.950835 566.449089 C366.170838 566.629093 365.456838 566.887091 364.808836 567.223093 L364.808836 570.031087 C365.480837 569.719088 366.218837 569.45509 367.022834 569.239088 C367.826836 569.023087 368.756837 568.91509 369.812838 568.915086 C371.036837 568.915086 372.056836 569.191092 372.872837 569.743086 C373.688836 570.295089 374.300837 571.11109 374.708837 572.191089 C375.116833 573.271088 375.320836 574.579092 375.320836 576.115088 C375.320836 577.723087 375.116836 579.067093 374.708837 580.147092 C374.300837 581.227088 373.676837 582.043087 372.836833 582.595088 C371.996836 583.147089 370.928837 583.423088 369.632838 583.423088 C368.960835 583.42309 368.240838 583.327086 367.472836 583.13509 C366.704836 582.943089 366.032835 582.73909 365.456838 582.523089 L364.484838 585.151087 C365.060837 585.439088 365.804837 585.685089 366.716835 585.889087 C367.628838 586.093086 368.576838 586.195087 369.560835 586.195085 C371.288836 586.195087 372.830836 585.847088 374.186836 585.151089 C375.542835 584.455088 376.616838 583.36309 377.408835 581.875087 C378.200835 580.387091 378.596834 578.45509 378.596834 576.07909 C378.596834 573.799088 378.218838 571.927091 377.462837 570.46309 C376.706835 568.999087 375.662835 567.919088 374.330837 567.223093 Z " fill="#9d61ff" fill-rule="evenodd" stroke="none"/><path d="M357.104837 579.607085 L357.104841 593.899091 L360.236838 593.899086 L360.236842 566.539086 L357.104841 566.539086 L357.104841 573.631089 L354.908842 575.539086 L348.212838 566.539086 L344.39684 566.539086 L352.748835 577.591089 L344.936844 585.835087 L348.644841 585.835087 L354.800841 579.319086 C355.016838 579.079084 355.274841 578.773087 355.574845 578.401086 C355.87484 578.029083 356.168845 577.663088 356.456841 577.303089 C356.744837 576.943087 356.960839 576.667087 357.104846 576.475086 L357.248844 576.475086 C357.224837 576.931083 357.194843 577.471089 357.158842 578.095083 C357.122844 578.719087 357.104837 579.223085 357.104837 579.607085 Z " fill="#9d61ff" fill-rule="evenodd" stroke="none"/></g><g transform="translate(218.3811038 181.3039388) rotate(0)"><path d="M199.445669 0 L568.8 0 L582.122835 0 L582.122835 61.937008 L568.8 61.937008 L568.8 97.540157 L582.122835 97.540157 L582.122835 159.477165 L582.122835 172.8 L568.8 172.8 L509.924409 172.8 L509.924409 159.477165 L474.32126 159.477165 L474.32126 172.8 L437.924409 172.8 L437.924409 159.477165 L402.32126 159.477165 L402.32126 172.8 L365.924409 172.8 L365.924409 159.477165 L330.32126 159.477165 L330.32126 172.8 L293.924409 172.8 L293.924409 159.477165 L258.32126 159.477165 L258.32126 172.8 L199.445669 172.8 L186.122835 172.8 L186.122835 159.477165 L186.122835 97.540157 L199.445669 97.540157 L199.445669 61.937008 L186.122835 61.937008 L186.122835 0 L199.445669 0 Z " fill="none" stroke="#000000" stroke-width="0.72" stroke-linecap="round" stroke-linejoin="round"/><path d="M345.566836 93.706578 L345.566838 82.798579 L356.006837 82.798579 L356.006835 79.954579 L345.566836 79.954579 L345.566835 70.846579 L356.69083 70.846579 L356.690834 68.002579 L342.326836 68.002583 L342.326835 93.706583 L345.566836 93.706578 Z " fill="#9d61ff" fill-rule="evenodd" stroke="none"/><path d="M370.748835 74.104583 C370.328831 74.068586 369.938834 74.050583 369.578834 74.050587 C368.690838 74.050583 367.874837 74.224587 367.130835 74.572583 C366.386838 74.920582 365.726838 75.388584 365.150837 75.976583 C364.574836 76.564583 364.082837 77.218585 363.674833 77.938585 L363.530834 77.938586 L363.170835 74.410584 L360.578834 74.410582 L360.578838 93.706583 L363.746836 93.706583 L363.746836 83.410584 C363.746836 82.426583 363.896837 81.538583 364.196838 80.746584 C364.496833 79.954586 364.910837 79.276584 365.438834 78.712583 C365.96683 78.148582 366.566833 77.710582 367.238836 77.398581 C367.910835 77.086586 368.618835 76.930585 369.362832 76.930585 C369.698834 76.930583 370.052834 76.954581 370.424833 77.002585 C370.796831 77.050585 371.138832 77.110584 371.450836 77.182583 L371.846833 74.266584 C371.534834 74.194581 371.168835 74.140585 370.748835 74.104583 Z " fill="#9d61ff" fill-rule="evenodd" stroke="none"/><path d="M 391.592835 88.288581 C 392.012831 87.05258 392.222832 85.63058 392.222832 84.022576 C 392.222837 81.886581 391.844834 80.080579 391.088833 78.604579 C 390.332836 77.128578 389.288831 76.000579 387.956837 75.220579 C 386.624831 74.44058 385.082835 74.050578 383.330833 74.05058 C 381.482834 74.05058 379.886834 74.44058 378.542833 75.220579 C 377.19883600000003 76.000581 376.166835 77.128578 375.446834 78.604581 C 374.726837 80.080575 374.366835 81.886581 374.366835 84.022581 C 374.366835 85.630576 374.588836 87.05258 375.032834 88.288576 C 375.476834 89.524577 376.094834 90.574578 376.886835 91.438575 C 377.678835 92.302581 378.614834 92.956577 379.694835 93.400575 C 380.774834 93.844581 381.950832 94.066578 383.222835 94.066578 C 384.590831 94.066578 385.832832 93.844577 386.948837 93.400575 C 388.064833 92.956577 389.012838 92.302577 389.792833 91.438575 C 390.572828 90.574578 391.172831 89.524577 391.592835 88.288581 z" fill="#9d61ff" fill-rule="evenodd" stroke="none"/><path d="M 378.236836 87.964574 C 377.840834 86.848578 377.642833 85.534578 377.642831 84.022581 C 377.642833 81.742577 378.086834 79.954577 378.974836 78.658579 C 379.862834 77.362576 381.290833 76.714578 383.258834 76.714578 C 384.578836 76.714581 385.652835 77.008581 386.480832 77.596579 C 387.308832 78.184577 387.926835 79.018579 388.334835 80.098578 C 388.742836 81.178577 388.946838 82.486581 388.94683 84.022576 C 388.94683 85.534578 388.748835 86.848578 388.352834 87.964578 C 387.956833 89.080579 387.338835 89.938577 386.498831 90.538576 C 385.658832 91.13858 384.590834 91.43858 383.294836 91.438575 C 381.998835 91.43858 380.930831 91.13858 380.090836 90.538576 C 379.250835 89.938581 378.632835 89.080579 378.236836 87.964574 z" fill="#9d61ff" fill-rule="evenodd" stroke="none"/><path d="M411.73484 75.724584 C410.558835 74.608587 408.818841 74.050583 406.514837 74.050585 C405.69884 74.050583 404.906837 74.158585 404.138837 74.374583 C403.370838 74.590584 402.668839 74.920584 402.03284 75.364582 C401.396838 75.808585 400.862839 76.366583 400.430836 77.038586 L400.250836 77.038583 L399.782835 74.410582 L397.226836 74.410582 L397.226836 93.706587 L400.394838 93.706587 L400.394838 83.698586 C400.394838 81.442584 400.802837 79.714584 401.618835 78.514585 C402.434836 77.314585 403.910837 76.714584 406.046836 76.714583 C407.53484 76.714585 408.626838 77.098583 409.322839 77.866585 C410.018836 78.634585 410.366836 79.798584 410.366836 81.358585 L410.366836 93.706583 L413.498841 93.706587 L413.498837 81.142584 C413.498841 78.646584 412.910832 76.840586 411.73484 75.724584 Z " fill="#9d61ff" fill-rule="evenodd" stroke="none"/><path d="M427.394833 91.348584 C426.890835 91.432582 426.398832 91.474584 425.918832 91.474584 C425.030832 91.474584 424.304834 91.192586 423.740836 90.628584 C423.176834 90.064583 422.894828 89.194584 422.894833 88.018582 L422.894833 76.858585 L428.474832 76.858587 L428.474832 74.410582 L422.894833 74.410586 L422.894833 69.982588 L421.022835 69.982586 L419.762832 74.086582 L416.990836 75.346583 L416.990832 76.858583 L419.726831 76.858583 L419.726831 88.090582 C419.726835 89.650586 419.990829 90.862582 420.518833 91.726585 C421.046834 92.590584 421.736835 93.196585 422.588829 93.544584 C423.440836 93.892584 424.370833 94.066584 425.378833 94.066584 C425.95483 94.066582 426.554834 94.012584 427.178831 93.904583 C427.802833 93.796585 428.282828 93.658582 428.61883 93.490583 L428.61883 91.078582 C428.306827 91.174582 427.898839 91.264586 427.394833 91.348584 Z " fill="#9d61ff" fill-rule="evenodd" stroke="none"/></g><g transform="translate(620.0503952 175.63464450000004) rotate(270)"><path d="M0 460.8 L0 199.445669 L61.540157 199.445669 L61.540157 186.122835 L97.937008 186.122835 L97.937008 199.445669 L159.477165 199.445669 L172.8 199.445669 L172.8 240.32126 L159.477165 240.32126 L159.477165 275.924409 L172.8 275.924409 L172.8 312.32126 L159.477165 312.32126 L159.477165 347.924409 L172.8 347.924409 L172.8 384.32126 L159.477165 384.32126 L159.477165 419.924409 L172.8 419.924409 L172.8 460.8 L159.477165 460.8 L97.937008 460.8 L97.937008 474.122835 L61.540157 474.122835 L61.540157 460.8 L0 460.8 Z " fill="none" stroke="#000000" stroke-width="0.72" stroke-linecap="round" stroke-linejoin="round"/><path d="M93.706578 358.904835 L93.706578 344.432832 L90.826581 344.432832 L90.826577 355.664833 L68.002579 355.664832 L68.002579 358.904832 L93.706578 358.904835 Z " fill="#9d61ff" fill-rule="evenodd" stroke="none"/><path d="M 75.130586 328.754841 C 74.410584 329.942841 74.050585 331.364837 74.050585 333.020839 C 74.050583 334.724836 74.458583 336.218837 75.274582 337.502836 C 76.090587 338.786837 77.254586 339.782836 78.766586 340.490834 C 80.278586 341.198834 82.090579 341.552837 84.202585 341.552837 C 86.338585 341.552837 88.144584 341.162836 89.620583 340.382836 C 91.096587 339.602836 92.206584 338.510834 92.950586 337.106835 C 93.694579 335.70284 94.066582 334.088837 94.066582 332.264838 C 94.066582 330.944835 93.964584 329.804835 93.760587 328.844839 C 93.556581 327.884836 93.238587 326.912838 92.806584 325.928836 L 90.034587 325.928836 C 90.466584 326.93684 90.796583 327.914841 91.024584 328.862838 C 91.252585 329.810838 91.366581 330.896836 91.366581 332.120838 C 91.366581 334.040837 90.796582 335.534838 89.656584 336.602839 C 88.516584 337.670838 86.854583 338.228836 84.670581 338.276836 L 84.670581 325.064834 L 82.762586 325.064834 C 81.010584 325.064839 79.480584 325.382837 78.172584 326.018838 C 76.864582 326.654839 75.850585 327.566842 75.130586 328.754841 z" fill="#9d61ff" fill-rule="evenodd" stroke="none"/><path d="M 78.100585 336.638836 C 77.128587 335.762836 76.642584 334.568838 76.642584 333.056834 C 76.642586 331.976835 76.876584 331.094837 77.344584 330.410835 C 77.812582 329.726835 78.454585 329.216838 79.270586 328.880841 C 80.086587 328.544839 81.046582 328.376839 82.150579 328.376839 L 82.150583 338.204835 C 80.422584 338.036836 79.072585 337.51484 78.100585 336.638836 z" fill="#9d61ff" fill-rule="evenodd" stroke="none"/><path d="M76.858581 311.276838 L74.410582 311.276834 L74.410582 316.136834 L73.150588 316.136834 C71.638581 316.136834 70.528585 315.878835 69.820582 315.362834 C69.11258 314.846833 68.758584 314.060834 68.75858 313.004838 C68.758582 312.476837 68.818584 311.96084 68.938586 311.456834 C69.058584 310.952836 69.178584 310.508834 69.298584 310.124836 L66.814583 309.296836 C66.646583 309.752837 66.496583 310.298836 66.36458 310.934837 C66.232583 311.570834 66.166587 312.272835 66.166583 313.040839 C66.166585 314.360835 66.406584 315.488833 66.886583 316.424834 C67.366578 317.360835 68.122585 318.074835 69.154583 318.566834 C70.186584 319.058836 71.530585 319.304836 73.186583 319.30484 L74.302581 319.30484 L75.38258 322.688835 L76.858587 322.688831 L76.858585 319.304832 L93.706582 319.304836 L93.706585 316.136838 L76.858583 316.136834 L76.858581 311.276838 Z " fill="#9d61ff" fill-rule="evenodd" stroke="none"/><path d="M91.348584 299.864837 C91.432582 300.368834 91.474584 300.860837 91.474584 301.340837 C91.474584 302.228837 91.192586 302.954836 90.628584 303.518833 C90.064583 304.082836 89.194584 304.364841 88.018582 304.364837 L76.858585 304.364837 L76.858587 298.784838 L74.410582 298.784838 L74.410586 304.364837 L69.982588 304.364837 L69.982586 306.236834 L74.086582 307.496837 L75.346583 310.268833 L76.858583 310.268838 L76.858583 307.532839 L88.090582 307.532839 C89.650586 307.532834 90.862582 307.268841 91.726585 306.740836 C92.590584 306.212836 93.196585 305.522834 93.544584 304.67084 C93.892584 303.818833 94.066584 302.888836 94.066584 301.880836 C94.066582 301.304839 94.012584 300.704836 93.904583 300.080838 C93.796585 299.456836 93.658582 298.976841 93.490583 298.640839 L91.078582 298.640839 C91.174582 298.952843 91.264586 299.36083 91.348584 299.864837 Z " fill="#9d61ff" fill-rule="evenodd" stroke="none"/></g><g transform="translate(620.0503952000001 949.5496049000001) rotate(270)"><path d="M768.245669 199.445669 L768.245669 460.8 L706.705512 460.8 L706.705512 474.122835 L670.308661 474.122835 L670.308661 460.8 L608.768504 460.8 L595.445669 460.8 L595.445669 419.924409 L608.768504 419.924409 L608.768504 384.32126 L595.445669 384.32126 L595.445669 347.924409 L608.768504 347.924409 L608.768504 312.32126 L595.445669 312.32126 L595.445669 275.924409 L608.768504 275.924409 L608.768504 240.32126 L595.445669 240.32126 L595.445669 199.445669 L608.768504 199.445669 L670.308661 199.445669 L670.308661 186.122835 L706.705512 186.122835 L706.705512 199.445669 L768.245669 199.445669 Z " fill="none" stroke="#000000" stroke-width="0.72" stroke-linecap="round" stroke-linejoin="round"/><path d="M 700.24309 296.174837 L 700.243086 289.082836 L 674.539087 289.082836 L 674.539087 292.322839 L 685.159089 292.322835 L 685.159089 297.434833 L 674.539087 303.662834 L 674.539087 307.442834 L 686.059093 300.386836 C 686.371087 301.250834 686.797091 302.072832 687.33709 302.852836 C 687.877091 303.632834 688.603092 304.274834 689.515091 304.778834 C 690.427094 305.282832 691.567088 305.534835 692.935088 305.534835 C 694.567094 305.534835 695.92309 305.198834 697.003089 304.526835 C 698.083088 303.854833 698.89309 302.828837 699.433089 301.44883600000003 C 699.973089 300.068836 700.24309 298.310836 700.24309 296.174837 z" fill="#9d61ff" fill-rule="evenodd" stroke="none"/><path d="M 697.435092 292.322835 L 697.435092 295.994833 C 697.435088 297.410833 697.279091 298.574837 696.967092 299.486835 C 696.655089 300.398833 696.16309 301.076833 695.491092 301.520833 C 694.819093 301.964836 693.91909 302.186834 692.791094 302.186834 C 691.18309 302.186837 689.965093 301.706835 689.137093 300.746836 C 688.309093 299.786837 687.895088 298.262836 687.895093 296.174832 L 687.895088 292.322837 L 697.435092 292.322835 z" fill="#9d61ff" fill-rule="evenodd" stroke="none"/><path d="M 700.585085 313.940836 C 700.909085 313.568833 701.071084 313.142834 701.071084 312.662834 C 701.071086 312.134838 700.909085 311.690832 700.585085 311.330837 C 700.261085 310.970833 699.751087 310.790833 699.055086 310.790833 C 698.383084 310.790837 697.879084 310.970833 697.543084 311.330837 C 697.207087 311.690836 697.039087 312.134834 697.039087 312.662834 C 697.039087 313.142834 697.207087 313.568837 697.543084 313.940832 C 697.879084 314.312836 698.383085 314.498837 699.055086 314.498834 C 699.751087 314.498834 700.261085 314.312835 700.585085 313.940836 z" fill="#9d61ff" fill-rule="evenodd" stroke="none"/><path d="M 693.835087 314.210834 L 693.835087 311.042836 L 674.539087 311.042836 L 674.539087 314.210834 L 693.835087 314.210834 z" fill="#9d61ff" fill-rule="evenodd" stroke="none"/><path d="M 693.475083 330.608838 C 693.955083 329.588839 694.195082 328.44284 694.195082 327.170838 C 694.195082 324.698841 693.289084 322.760836 691.477082 321.356839 C 689.665085 319.952838 687.22309 319.250833 684.151085 319.250833 C 681.007086 319.250841 678.559083 319.952842 676.807085 321.356839 C 675.055084 322.760836 674.179087 324.71084 674.179087 327.20684 C 674.179083 328.526839 674.419087 329.684836 674.899086 330.680837 C 675.379086 331.676838 676.111084 332.510842 677.095086 333.182836 L 677.095082 333.326838 C 676.879084 333.302836 676.501086 333.278837 675.961082 333.254839 C 675.421084 333.230835 675.007086 333.218833 674.719086 333.218833 L 673.963085 333.218837 C 672.283084 333.218837 670.957084 332.744837 669.985086 331.796838 C 669.013084 330.848833 668.52708 329.546833 668.527085 327.890837 C 668.52708 326.49884 668.659084 325.190836 668.923086 323.966839 C 669.187084 322.742839 669.559083 321.674837 670.039082 320.762835 L 667.123088 320.762839 C 666.715085 321.674837 666.409086 322.712835 666.205086 323.876836 C 666.001083 325.040838 665.899084 326.318835 665.899082 327.710838 C 665.899082 329.678837 666.211085 331.298835 666.835083 332.570837 C 667.459087 333.842835 668.389086 334.790839 669.625087 335.414837 C 670.861083 336.038835 672.391088 336.350838 674.215084 336.350838 L 693.835087 336.350838 L 693.835083 333.83084 L 691.279079 333.398837 L 691.279084 333.218837 C 692.263085 332.498838 692.995084 331.628837 693.475083 330.608838 z" fill="#9d61ff" fill-rule="evenodd" stroke="none"/><path d="M 690.667081 324.848839 C 691.243086 325.604836 691.531082 326.522842 691.531078 327.602837 C 691.531078 328.898837 691.279079 329.966837 690.775086 330.806841 C 690.271084 331.646836 689.479085 332.264838 688.399082 332.660839 C 687.319079 333.056836 685.903078 333.254839 684.151085 333.254839 L 683.395088 333.254839 C 682.243082 333.254839 681.247085 333.146838 680.407082 332.930837 C 679.567083 332.714835 678.877081 332.378834 678.337086 331.922837 C 677.797082 331.466836 677.401085 330.890839 677.149086 330.194838 C 676.897085 329.49884 676.771084 328.658839 676.771084 327.674836 C 676.771084 325.994842 677.401081 324.71684 678.661084 323.840839 C 679.9210869999999 322.964838 681.739088 322.526836 684.115083 322.52684 C 685.69908 322.52684 687.043086 322.724838 688.147079 323.120836 C 689.251085 323.516837 690.091088 324.092834 690.667081 324.848839 z" fill="#9d61ff" fill-rule="evenodd" stroke="none"/><path d="M693.871084 345.638838 L701.899086 345.638838 L701.899082 342.47084 L674.539086 342.470845 L674.539086 345.638838 L684.511086 345.638842 C686.023081 345.638842 687.301085 345.812843 688.345083 346.160839 C689.389082 346.508844 690.181083 347.090844 690.721082 347.906841 C691.261084 348.722838 691.531081 349.850842 691.531086 351.29084 C691.531084 352.778838 691.147083 353.870838 690.379083 354.566839 C689.611083 355.262844 688.447086 355.610845 686.887081 355.610845 L674.539083 355.610836 L674.539086 358.742841 L687.103083 358.742837 C688.759085 358.742841 690.103084 358.478839 691.135084 357.950838 C692.167087 357.422838 692.929084 356.636839 693.421087 355.592838 C693.913081 354.54884 694.159081 353.24684 694.159085 351.686838 C694.159085 350.870841 694.045085 350.078838 693.817084 349.310847 C693.589083 348.542842 693.259082 347.846841 692.827083 347.222844 C692.395087 346.598842 691.843082 346.08284 691.171084 345.674844 L691.171084 345.458843 C691.555084 345.506839 691.987083 345.548845 692.467084 345.584842 C692.947083 345.620844 693.415083 345.638838 693.871084 345.638838 Z " fill="#9d61ff" fill-rule="evenodd" stroke="none"/><path d="M676.897085 372.638833 C676.813087 372.134835 676.771086 371.642832 676.771086 371.162832 C676.771086 370.274832 677.053084 369.548834 677.617086 368.984836 C678.181087 368.420834 679.051086 368.138828 680.227087 368.138833 L691.387084 368.138833 L691.387082 373.718832 L693.835087 373.718832 L693.835083 368.138833 L698.263082 368.138833 L698.263084 366.266835 L694.159087 365.006832 L692.899086 362.234836 L691.387086 362.234832 L691.387086 364.970831 L680.155087 364.970831 C678.595083 364.970835 677.383088 365.234829 676.519085 365.762833 C675.655085 366.290834 675.049084 366.980835 674.701086 367.832829 C674.353085 368.684836 674.179085 369.614833 674.179085 370.622833 C674.179087 371.19883 674.233085 371.798834 674.341086 372.422831 C674.449085 373.046833 674.587087 373.526828 674.755086 373.86283 L677.167087 373.86283 C677.071088 373.550827 676.981083 373.142839 676.897085 372.638833 Z " fill="#9d61ff" fill-rule="evenodd" stroke="none"/></g></g></svg>